<?xml version="1.0" encoding="UTF-8" standalone="no"?>
<svg
   xmlns:dc="http://purl.org/dc/elements/1.1/"
   xmlns:cc="http://creativecommons.org/ns#"
   xmlns:rdf="http://www.w3.org/1999/02/22-rdf-syntax-ns#"
   xmlns:svg="http://www.w3.org/2000/svg"
   xmlns="http://www.w3.org/2000/svg"
   xmlns:sodipodi="http://sodipodi.sourceforge.net/DTD/sodipodi-0.dtd"
   xmlns:inkscape="http://www.inkscape.org/namespaces/inkscape"
   id="emoji"
   viewBox="0 0 72 72"
   version="1.1"
   sodipodi:docname="activityVigorousTimer.svg"
   inkscape:version="1.0beta2 (2b71d25, 2019-12-03)">
  <metadata
     id="metadata869">
    <rdf:RDF>
      <cc:Work
         rdf:about="">
        <dc:format>image/svg+xml</dc:format>
        <dc:type
           rdf:resource="http://purl.org/dc/dcmitype/StillImage" />
        <dc:title></dc:title>
      </cc:Work>
    </rdf:RDF>
  </metadata>
  <defs
     id="defs867" />
  <sodipodi:namedview
     pagecolor="#ffffff"
     bordercolor="#666666"
     inkscape:document-rotation="0"
     borderopacity="1"
     objecttolerance="10"
     gridtolerance="10"
     guidetolerance="10"
     inkscape:pageopacity="0"
     inkscape:pageshadow="2"
     inkscape:window-width="1338"
     inkscape:window-height="938"
     id="namedview865"
     showgrid="false"
     inkscape:zoom="10.722222"
     inkscape:cx="36"
     inkscape:cy="36"
     inkscape:window-x="284"
     inkscape:window-y="23"
     inkscape:window-maximized="0"
     inkscape:current-layer="emoji" />
  <g
     transform="matrix(0.65971137,0,0,0.65971137,26.4414,14.201243)"
     id="g1125">
    <g
       id="color-7">
      <circle
         cx="35.904701"
         cy="36.013802"
         r="27.0345"
         fill="#fcea2b"
         id="circle1078" />
      <circle
         cx="36.005798"
         cy="36.0369"
         r="21.870899"
         fill="#fff"
         id="circle1080" />
    </g>
    <g
       id="line-5">
      <path
         inkscape:connector-curvature="0"
         d="M 55.1092,25.38 A 21.8626,21.8626 0 1 1 47.0154,17.1349"
         fill="none"
         stroke="#000"
         stroke-linecap="round"
         stroke-linejoin="round"
         stroke-width="2"
         id="path1083" />
      <path
         inkscape:connector-curvature="0"
         d="M 62.9392,35.9973 A 27.0463,27.0463 0 1 1 57.6742,19.9591"
         fill="none"
         stroke="#000"
         stroke-linecap="round"
         stroke-linejoin="round"
         stroke-width="2"
         id="path1085" />
      <polyline
         points="47.394 21.578 58.432 20.418 57.272 9.38"
         fill="none"
         stroke="#000"
         stroke-linecap="round"
         stroke-linejoin="round"
         stroke-width="2"
         id="polyline1087" />
      <polyline
         points="49.975 36.354 35.987 36.354 35.891 36.354 35.891 18.52"
         fill="none"
         stroke="#000"
         stroke-linecap="round"
         stroke-linejoin="round"
         stroke-width="2"
         id="polyline1089" />
      <line
         x1="35.890598"
         y1="53.910599"
         x2="35.890598"
         y2="50.066101"
         fill="none"
         stroke="#000"
         stroke-linecap="round"
         stroke-linejoin="round"
         stroke-width="2"
         id="line1091" />
      <polyline
         points="21.143 36.354 18.086 36.354 18.086 36.354"
         fill="none"
         stroke="#000"
         stroke-linecap="round"
         stroke-linejoin="round"
         stroke-width="2"
         id="polyline1093" />
      <circle
         cx="35.890598"
         cy="36.353802"
         r="3.7370999"
         id="circle1095" />
      <circle
         cx="48.693802"
         cy="47.937099"
         r="1.4802001"
         id="circle1097" />
      <circle
         cx="23.087299"
         cy="24.717199"
         r="1.4802001"
         id="circle1099" />
      <circle
         cx="23.087299"
         cy="47.937099"
         r="1.4802001"
         id="circle1101" />
    </g>
  </g>
  <g
     id="hair" />
  <g
     id="skin" />
  <g
     id="skin-shadow" />
  <g
     transform="matrix(1.0052825,0,0,1.0239717,-7.9938009,1.1522956)"
     id="g973">
    <g
       id="color">
      <path
         inkscape:connector-curvature="0"
         id="path833"
         d="m 16,31 c 0,0.5498 -0.4502,1 -1,1 h -2 c -0.5498,0 -1,-0.4502 -1,-1 V 15 c 0,-0.5498 0.4502,-1 1,-1 h 2 c 0.5498,0 1,0.4502 1,1 z"
         stroke="none"
         fill="#3F3F3F" />
      <path
         inkscape:connector-curvature="0"
         id="path835"
         d="m 60,31 c 0,0.5498 -0.4502,1 -1,1 h -2 c -0.5498,0 -1,-0.4502 -1,-1 V 15 c 0,-0.5498 0.4502,-1 1,-1 h 2 c 0.5498,0 1,0.4502 1,1 z"
         stroke="none"
         fill="#3F3F3F" />
    </g>
    <circle
       style="fill:#fc983a;fill-opacity:1"
       id="circle839"
       stroke="none"
       fill="#FCEA2B"
       r="3"
       cy="18.0938"
       cx="35.9688" />
    <path
       inkscape:connector-curvature="0"
       style="fill:#fc983a;fill-opacity:1"
       id="path841"
       d="m 41,39 5,2 -2,17 H 40 V 45 h -2 -4 -2 v 13 h -4 l -2,-17 5,-2 c 0,0 -1.2812,-6.3018 -1.875,-8.458 -0.333,-1.209 -1.125,-0.834 -1.459,-0.5 -0.125,0.125 -1.79,3.166 -3.624,3.166 -1.834,0 -2.8174,-0.5254 -3.292,-1.291 -1.292,-2.084 -3.125,-9.042 -3.125,-9.042 l 2.458,-0.5 1.959,7.333 1.416,0.875 3.125,-3.6665 3.459,-1.4165 11.541,-0.2085 3.709,1.5 2.499,3.1255 1.667,0.5 1.375,-4 1.417,-3.667 1.958,0.3335 c 0,0 -1.624,7.5425 -2.916,8.8335 C 50,33.208 47.708,33.667 46.5,32.5 45.292,31.333 44.958,30.625 44.167,29.917 43.9414,29.7148 43.042,29.208 42.833,30.459"
       stroke="none"
       fill="#FCEA2B" />
    <g
       id="line">
      <circle
         id="circle845"
         stroke-width="2"
         stroke-miterlimit="10"
         stroke="#000000"
         fill="none"
         r="3"
         cy="18.0938"
         cx="35.9688" />
      <path
         inkscape:connector-curvature="0"
         id="path847"
         d="m 20,23 2.0518,6.1543 c 0.5214,1.5654 1.7334,1.7471 2.6923,0.4043 l 1.5118,-2.1172 c 0.9589,-1.3428 3.0839,-2.2739 4.7207,-2.0693 l 2.0468,0.2558 c 1.6368,0.2046 4.3164,0.2046 5.9532,0 l 2.0468,-0.2558 c 1.6368,-0.2046 3.7618,0.7265 4.7207,2.0693 l 1.5118,2.1172 c 0.9589,1.3428 2.1709,1.1611 2.6923,-0.4043 L 52,23"
         stroke-width="2"
         stroke-miterlimit="10"
         stroke-linejoin="round"
         stroke-linecap="round"
         stroke="#000000"
         fill="none" />
      <path
         inkscape:connector-curvature="0"
         id="path849"
         d="m 41,39 3.1426,1.2568 c 1.0215,0.4092 1.7519,1.6368 1.624,2.7295 L 44.2334,56.0137 C 44.1055,57.1064 43.0996,58 42,58 v 0 c -1.0996,0 -2,-0.9004 -2,-2 v -9 c 0,-1.0996 -0.4502,-2 -1,-2 -0.5498,0 -1.9004,0 -3,0 v 0 c -1.0996,0 -2.4502,0 -3,0 -0.5498,0 -1,0.9004 -1,2 v 9 c 0,1.0996 -0.9004,2 -2,2 v 0 c -1.0996,0 -2.1055,-0.8936 -2.2334,-1.9863 L 26.2334,42.9863 c -0.1279,-1.0927 0.6025,-2.3203 1.624,-2.7295 L 31,39"
         stroke-width="2"
         stroke-miterlimit="10"
         stroke-linejoin="round"
         stroke-linecap="round"
         stroke="#000000"
         fill="none" />
      <path
         inkscape:connector-curvature="0"
         id="path851"
         d="m 31,39 c 0,0 0,-0.9004 0,-2 0,-1.0996 -0.2246,-3.125 -0.5,-4.5 C 30.2246,31.125 30,30 30,30"
         stroke-width="2"
         stroke-miterlimit="10"
         stroke-linejoin="round"
         stroke-linecap="round"
         stroke="#000000"
         fill="none" />
      <path
         inkscape:connector-curvature="0"
         id="path853"
         d="m 41,39 c 0,0 0,-0.9844 0,-2.1875 0,-1.2031 0.2109,-3.2285 0.4688,-4.5 C 41.7266,31.041 41.9375,30 41.9375,30"
         stroke-width="2"
         stroke-miterlimit="10"
         stroke-linejoin="round"
         stroke-linecap="round"
         stroke="#000000"
         fill="none" />
      <path
         inkscape:connector-curvature="0"
         id="path855"
         d="m 16,31 c 0,0.5498 -0.4502,1 -1,1 h -2 c -0.5498,0 -1,-0.4502 -1,-1 V 15 c 0,-0.5498 0.4502,-1 1,-1 h 2 c 0.5498,0 1,0.4502 1,1 z"
         stroke-width="2"
         stroke-miterlimit="10"
         stroke-linejoin="round"
         stroke-linecap="round"
         stroke="#000000"
         fill="none" />
      <path
         inkscape:connector-curvature="0"
         id="path857"
         d="m 60,31 c 0,0.5498 -0.4502,1 -1,1 h -2 c -0.5498,0 -1,-0.4502 -1,-1 V 15 c 0,-0.5498 0.4502,-1 1,-1 h 2 c 0.5498,0 1,0.4502 1,1 z"
         stroke-width="2"
         stroke-miterlimit="10"
         stroke-linejoin="round"
         stroke-linecap="round"
         stroke="#000000"
         fill="none" />
      <path
         inkscape:connector-curvature="0"
         id="path859"
         d="m 42,22 c 4,0 14,1 14,1"
         stroke-width="2"
         stroke-miterlimit="10"
         stroke-linejoin="round"
         stroke-linecap="round"
         stroke="#000000"
         fill="none" />
      <path
         inkscape:connector-curvature="0"
         id="path861"
         d="m 16,23 c 0,0 7,-1 14,-1"
         stroke-width="2"
         stroke-miterlimit="10"
         stroke-linejoin="round"
         stroke-linecap="round"
         stroke="#000000"
         fill="none" />
    </g>
  </g>
</svg>
