<?xml version="1.0" encoding="UTF-8" standalone="no"?>
<svg
   xmlns:dc="http://purl.org/dc/elements/1.1/"
   xmlns:cc="http://creativecommons.org/ns#"
   xmlns:rdf="http://www.w3.org/1999/02/22-rdf-syntax-ns#"
   xmlns:svg="http://www.w3.org/2000/svg"
   xmlns="http://www.w3.org/2000/svg"
   xmlns:sodipodi="http://sodipodi.sourceforge.net/DTD/sodipodi-0.dtd"
   xmlns:inkscape="http://www.inkscape.org/namespaces/inkscape"
   inkscape:version="1.0beta2 (2b71d25, 2019-12-03)"
   sodipodi:docname="activityModeratePlanned.svg"
   version="1.1"
   viewBox="0 0 72 72"
   id="emoji">
  <metadata
     id="metadata740">
    <rdf:RDF>
      <cc:Work
         rdf:about="">
        <dc:format>image/svg+xml</dc:format>
        <dc:type
           rdf:resource="http://purl.org/dc/dcmitype/StillImage" />
        <dc:title></dc:title>
      </cc:Work>
    </rdf:RDF>
  </metadata>
  <defs
     id="defs738" />
  <sodipodi:namedview
     inkscape:current-layer="emoji"
     inkscape:window-maximized="0"
     inkscape:window-y="23"
     inkscape:window-x="0"
     inkscape:cy="36"
     inkscape:cx="36"
     inkscape:zoom="9.2706254"
     showgrid="false"
     id="namedview736"
     inkscape:window-height="856"
     inkscape:window-width="1234"
     inkscape:pageshadow="2"
     inkscape:pageopacity="0"
     guidetolerance="10"
     gridtolerance="10"
     objecttolerance="10"
     borderopacity="1"
     inkscape:document-rotation="0"
     bordercolor="#666666"
     pagecolor="#ffffff" />
  <g
     transform="matrix(0.61954154,0,0,0.61954154,26.331955,9.7580878)"
     id="g825">
    <g
       id="color-2">
      <path
         inkscape:connector-curvature="0"
         fill="#FFFFFF"
         stroke="none"
         d="M 60.069,17.0151 54.1512,16.0826 H 17.21 l -5.2722,0.9684 0.0358,43.2177 31.6332,-0.0359 16.4981,-12.0507 z"
         id="path742" />
      <path
         inkscape:connector-curvature="0"
         fill="#d0cfce"
         stroke="none"
         d="M 56.9559,49.0381 H 44.1387 v 4.4795 c 0,0.5527 -0.4473,1 -1,1 -0.502,0 -0.8992,-0.3752 -0.9712,-0.8569 v 5.4255 l 1.1596,-3e-4 z"
         id="path744" />
      <line
         x1="45.480598"
         x2="45.480598"
         y1="13.9548"
         y2="19.590599"
         fill="#FFFFFF"
         stroke="none"
         stroke-linecap="round"
         stroke-linejoin="round"
         stroke-miterlimit="10"
         stroke-width="2"
         id="line746" />
      <line
         x1="40.720299"
         x2="40.720299"
         y1="13.9548"
         y2="19.590599"
         fill="#FFFFFF"
         stroke="none"
         stroke-linecap="round"
         stroke-linejoin="round"
         stroke-miterlimit="10"
         stroke-width="2"
         id="line748" />
      <line
         x1="35.959999"
         x2="35.959999"
         y1="13.9548"
         y2="19.590599"
         fill="#FFFFFF"
         stroke="none"
         stroke-linecap="round"
         stroke-linejoin="round"
         stroke-miterlimit="10"
         stroke-width="2"
         id="line750" />
      <line
         x1="50.240799"
         x2="50.240799"
         y1="13.9548"
         y2="19.590599"
         fill="#FFFFFF"
         stroke="none"
         stroke-linecap="round"
         stroke-linejoin="round"
         stroke-miterlimit="10"
         stroke-width="2"
         id="line752" />
      <line
         x1="31.199699"
         x2="31.199699"
         y1="13.9548"
         y2="19.590599"
         fill="#FFFFFF"
         stroke="none"
         stroke-linecap="round"
         stroke-linejoin="round"
         stroke-miterlimit="10"
         stroke-width="2"
         id="line754" />
      <line
         x1="26.4394"
         x2="26.4394"
         y1="13.9548"
         y2="19.590599"
         fill="#FFFFFF"
         stroke="none"
         stroke-linecap="round"
         stroke-linejoin="round"
         stroke-miterlimit="10"
         stroke-width="2"
         id="line756" />
      <line
         x1="21.679199"
         x2="21.679199"
         y1="13.9548"
         y2="19.590599"
         fill="#FFFFFF"
         stroke="none"
         stroke-linecap="round"
         stroke-linejoin="round"
         stroke-miterlimit="10"
         stroke-width="2"
         id="line758" />
    </g>
    <g
       id="hair" />
    <g
       id="skin-9" />
    <g
       id="skin-shadow" />
    <g
       id="line-8">
      <line
         x1="45.480598"
         x2="45.480598"
         y1="13.9548"
         y2="19.590599"
         fill="none"
         stroke="#000000"
         stroke-linecap="round"
         stroke-linejoin="round"
         stroke-miterlimit="10"
         stroke-width="2"
         id="line764" />
      <line
         x1="40.720299"
         x2="40.720299"
         y1="13.9548"
         y2="19.590599"
         fill="none"
         stroke="#000000"
         stroke-linecap="round"
         stroke-linejoin="round"
         stroke-miterlimit="10"
         stroke-width="2"
         id="line766" />
      <line
         x1="35.959999"
         x2="35.959999"
         y1="13.9548"
         y2="19.590599"
         fill="none"
         stroke="#000000"
         stroke-linecap="round"
         stroke-linejoin="round"
         stroke-miterlimit="10"
         stroke-width="2"
         id="line768" />
      <line
         x1="50.240799"
         x2="50.240799"
         y1="13.9548"
         y2="19.590599"
         fill="none"
         stroke="#000000"
         stroke-linecap="round"
         stroke-linejoin="round"
         stroke-miterlimit="10"
         stroke-width="2"
         id="line770" />
      <line
         x1="31.199699"
         x2="31.199699"
         y1="13.9548"
         y2="19.590599"
         fill="none"
         stroke="#000000"
         stroke-linecap="round"
         stroke-linejoin="round"
         stroke-miterlimit="10"
         stroke-width="2"
         id="line772" />
      <line
         x1="26.4394"
         x2="26.4394"
         y1="13.9548"
         y2="19.590599"
         fill="none"
         stroke="#000000"
         stroke-linecap="round"
         stroke-linejoin="round"
         stroke-miterlimit="10"
         stroke-width="2"
         id="line774" />
      <line
         x1="21.679199"
         x2="21.679199"
         y1="13.9548"
         y2="19.590599"
         fill="none"
         stroke="#000000"
         stroke-linecap="round"
         stroke-linejoin="round"
         stroke-miterlimit="10"
         stroke-width="2"
         id="line776" />
      <line
         x1="16.989599"
         x2="54.787399"
         y1="29.3515"
         y2="29.3515"
         fill="none"
         stroke="#000000"
         stroke-linecap="round"
         stroke-linejoin="round"
         stroke-miterlimit="10"
         stroke-width="2"
         id="line778" />
      <line
         x1="16.989599"
         x2="54.787399"
         y1="39.824902"
         y2="39.824902"
         fill="none"
         stroke="#000000"
         stroke-linecap="round"
         stroke-linejoin="round"
         stroke-miterlimit="10"
         stroke-width="2"
         id="line780" />
      <line
         x1="16.989599"
         x2="39.115002"
         y1="50.298401"
         y2="50.298401"
         fill="none"
         stroke="#000000"
         stroke-linecap="round"
         stroke-linejoin="round"
         stroke-miterlimit="10"
         stroke-width="2"
         id="line782" />
      <line
         x1="25.946301"
         x2="25.946301"
         y1="24.443399"
         y2="55.548801"
         fill="none"
         stroke="#000000"
         stroke-linecap="round"
         stroke-linejoin="round"
         stroke-miterlimit="10"
         stroke-width="2"
         id="line784" />
      <polyline
         fill="none"
         stroke="#000000"
         stroke-linecap="round"
         stroke-linejoin="round"
         stroke-miterlimit="10"
         stroke-width="2"
         points="54.3253,16.9734 59.96,16.9734 59.997,48.0382 43.6564,60.0864 11.997,60.0918 11.96,16.9734 17.5992,16.9734"
         id="polyline786" />
      <polyline
         fill="none"
         stroke="#000000"
         stroke-linecap="round"
         stroke-linejoin="round"
         stroke-miterlimit="10"
         stroke-width="2"
         points="59.7462,48.0382 43.1384,48.0382 43.1384,53.5175"
         id="polyline788" />
    </g>
  </g>
  <g
     id="color" />
  <g
     transform="translate(-13.591316)"
     id="skin">
    <circle
       id="circle715"
       fill="#fcea2b"
       r="3"
       cy="13.0938"
       cx="26.9688" />
    <path
       inkscape:connector-curvature="0"
       id="path717"
       d="m 26.665,22.585 c 0,0 0.3038,3.708 3.3038,9.042 C 30.2129,32.0615 31,33.335 31,33.335 L 25,45 24.75,63 h 3.4238 L 30,48 36,42 42,37 V 33 L 36,22"
       fill="#fcea2b" />
    <polyline
       id="polyline719"
       points="42 36 49 46 59.167 52 58.167 55 46 50 37 42"
       fill="#fcea2b" />
    <path
       inkscape:connector-curvature="0"
       id="path721"
       d="M 36,22 C 34,18 31.6406,17.7671 29.9688,18.417 A 4.1078,4.1078 0 0 0 28,24"
       fill="#fcea2b" />
  </g>
  <g
     transform="translate(-13.591316)"
     id="line">
    <circle
       id="circle724"
       stroke-width="2"
       stroke-miterlimit="10"
       stroke="#000"
       fill="none"
       r="3"
       cy="13.0938"
       cx="26.9688" />
    <path
       inkscape:connector-curvature="0"
       id="path726"
       d="m 42,36 5.8535,8.3613 a 11.0249,11.0249 0 0 0 2.8692,2.6553 l 6.7216,3.9668 A 2.3633,2.3633 0 0 1 58.667,53.5 1.69,1.69 0 0 1 56.317,54.24 L 47.85,50.76 A 14.1043,14.1043 0 0 1 44.5053,48.6711 L 37,42"
       stroke-width="2"
       stroke-linejoin="round"
       stroke-linecap="round"
       stroke="#000"
       fill="none" />
    <path
       inkscape:connector-curvature="0"
       id="path728"
       d="m 30.8477,31.3594 c 0,0 0.26,0.5937 0.5761,1.32 a 3.7314,3.7314 0 0 1 -0.498,3.0078 l -4.8516,7.625 A 8.3233,8.3233 0 0 0 24.9727,47 l -0.1954,14 a 1.8486,1.8486 0 0 0 1.6846,2 2.1751,2.1751 0 0 0 1.9541,-1.9854 l 1.3418,-11.0292 a 6.789,6.789 0 0 1 1.6563,-3.3995 l 3.1718,-3.1718 c 0.7774,-0.7774 2.1055,-1.99 2.95,-2.6944 L 40.4639,38.28 A 4.8637,4.8637 0 0 0 42,35 v 0 A 9.3085,9.3085 0 0 0 41.042,31.2441 L 36,22"
       stroke-width="2"
       stroke-linejoin="round"
       stroke-linecap="round"
       stroke="#000"
       fill="none" />
    <path
       inkscape:connector-curvature="0"
       id="path730"
       d="M 36,22 C 34,18 31.6406,17.7671 29.9688,18.417 A 3.859,3.859 0 0 0 27.6,22.251"
       stroke-width="2"
       stroke-linejoin="round"
       stroke-linecap="round"
       stroke="#000"
       fill="none" />
    <path
       inkscape:connector-curvature="0"
       id="path732"
       d="m 30.9375,22 -1.4189,5.0771 A 2.7758,2.7758 0 0 1 27,29 h -7"
       stroke-width="2"
       stroke-linejoin="round"
       stroke-linecap="round"
       stroke="#000"
       fill="none" />
  </g>
</svg>
