<?xml version="1.0" encoding="UTF-8" standalone="no"?>
<svg
   xmlns:dc="http://purl.org/dc/elements/1.1/"
   xmlns:cc="http://creativecommons.org/ns#"
   xmlns:rdf="http://www.w3.org/1999/02/22-rdf-syntax-ns#"
   xmlns:svg="http://www.w3.org/2000/svg"
   xmlns="http://www.w3.org/2000/svg"
   xmlns:sodipodi="http://sodipodi.sourceforge.net/DTD/sodipodi-0.dtd"
   xmlns:inkscape="http://www.inkscape.org/namespaces/inkscape"
   inkscape:version="1.0beta2 (2b71d25, 2019-12-03)"
   sodipodi:docname="activityModerateTimer.svg"
   version="1.1"
   viewBox="0 0 72 72"
   id="emoji">
  <metadata
     id="metadata740">
    <rdf:RDF>
      <cc:Work
         rdf:about="">
        <dc:format>image/svg+xml</dc:format>
        <dc:type
           rdf:resource="http://purl.org/dc/dcmitype/StillImage" />
        <dc:title></dc:title>
      </cc:Work>
    </rdf:RDF>
  </metadata>
  <defs
     id="defs738" />
  <sodipodi:namedview
     inkscape:current-layer="emoji"
     inkscape:window-maximized="0"
     inkscape:window-y="23"
     inkscape:window-x="0"
     inkscape:cy="36.176289"
     inkscape:cx="36"
     inkscape:zoom="9.2706254"
     showgrid="false"
     id="namedview736"
     inkscape:window-height="856"
     inkscape:window-width="1234"
     inkscape:pageshadow="2"
     inkscape:pageopacity="0"
     guidetolerance="10"
     gridtolerance="10"
     objecttolerance="10"
     borderopacity="1"
     inkscape:document-rotation="0"
     bordercolor="#666666"
     pagecolor="#ffffff" />
  <g
     transform="matrix(0.65971137,0,0,0.65971137,25.440691,2.9122793)"
     id="g914">
    <g
       id="color-5">
      <circle
         cx="35.904701"
         cy="36.013802"
         r="27.0345"
         fill="#fcea2b"
         id="circle867" />
      <circle
         cx="36.005798"
         cy="36.0369"
         r="21.870899"
         fill="#fff"
         id="circle869" />
    </g>
    <g
       id="line-9">
      <path
         inkscape:connector-curvature="0"
         d="M 55.1092,25.38 A 21.8626,21.8626 0 1 1 47.0154,17.1349"
         fill="none"
         stroke="#000"
         stroke-linecap="round"
         stroke-linejoin="round"
         stroke-width="2"
         id="path872" />
      <path
         inkscape:connector-curvature="0"
         d="M 62.9392,35.9973 A 27.0463,27.0463 0 1 1 57.6742,19.9591"
         fill="none"
         stroke="#000"
         stroke-linecap="round"
         stroke-linejoin="round"
         stroke-width="2"
         id="path874" />
      <polyline
         points="47.394 21.578 58.432 20.418 57.272 9.38"
         fill="none"
         stroke="#000"
         stroke-linecap="round"
         stroke-linejoin="round"
         stroke-width="2"
         id="polyline876" />
      <polyline
         points="49.975 36.354 35.987 36.354 35.891 36.354 35.891 18.52"
         fill="none"
         stroke="#000"
         stroke-linecap="round"
         stroke-linejoin="round"
         stroke-width="2"
         id="polyline878" />
      <line
         x1="35.890598"
         y1="53.910599"
         x2="35.890598"
         y2="50.066101"
         fill="none"
         stroke="#000"
         stroke-linecap="round"
         stroke-linejoin="round"
         stroke-width="2"
         id="line880" />
      <polyline
         points="21.143 36.354 18.086 36.354 18.086 36.354"
         fill="none"
         stroke="#000"
         stroke-linecap="round"
         stroke-linejoin="round"
         stroke-width="2"
         id="polyline882" />
      <circle
         cx="35.890598"
         cy="36.353802"
         r="3.7370999"
         id="circle884" />
      <circle
         cx="48.693802"
         cy="47.937099"
         r="1.4802001"
         id="circle886" />
      <circle
         cx="23.087299"
         cy="24.717199"
         r="1.4802001"
         id="circle888" />
      <circle
         cx="23.087299"
         cy="47.937099"
         r="1.4802001"
         id="circle890" />
    </g>
  </g>
  <g
     id="color" />
  <g
     transform="translate(-13.267713,2.0494842)"
     id="skin">
    <circle
       id="circle715"
       fill="#fcea2b"
       r="3"
       cy="13.0938"
       cx="26.9688" />
    <path
       inkscape:connector-curvature="0"
       id="path717"
       d="m 26.665,22.585 c 0,0 0.3038,3.708 3.3038,9.042 C 30.2129,32.0615 31,33.335 31,33.335 L 25,45 24.75,63 h 3.4238 L 30,48 36,42 42,37 V 33 L 36,22"
       fill="#fcea2b" />
    <polyline
       id="polyline719"
       points="42 36 49 46 59.167 52 58.167 55 46 50 37 42"
       fill="#fcea2b" />
    <path
       inkscape:connector-curvature="0"
       id="path721"
       d="M 36,22 C 34,18 31.6406,17.7671 29.9688,18.417 A 4.1078,4.1078 0 0 0 28,24"
       fill="#fcea2b" />
  </g>
  <g
     transform="translate(-13.267713,2.0494842)"
     id="line">
    <circle
       id="circle724"
       stroke-width="2"
       stroke-miterlimit="10"
       stroke="#000"
       fill="none"
       r="3"
       cy="13.0938"
       cx="26.9688" />
    <path
       inkscape:connector-curvature="0"
       id="path726"
       d="m 42,36 5.8535,8.3613 a 11.0249,11.0249 0 0 0 2.8692,2.6553 l 6.7216,3.9668 A 2.3633,2.3633 0 0 1 58.667,53.5 1.69,1.69 0 0 1 56.317,54.24 L 47.85,50.76 A 14.1043,14.1043 0 0 1 44.5053,48.6711 L 37,42"
       stroke-width="2"
       stroke-linejoin="round"
       stroke-linecap="round"
       stroke="#000"
       fill="none" />
    <path
       inkscape:connector-curvature="0"
       id="path728"
       d="m 30.8477,31.3594 c 0,0 0.26,0.5937 0.5761,1.32 a 3.7314,3.7314 0 0 1 -0.498,3.0078 l -4.8516,7.625 A 8.3233,8.3233 0 0 0 24.9727,47 l -0.1954,14 a 1.8486,1.8486 0 0 0 1.6846,2 2.1751,2.1751 0 0 0 1.9541,-1.9854 l 1.3418,-11.0292 a 6.789,6.789 0 0 1 1.6563,-3.3995 l 3.1718,-3.1718 c 0.7774,-0.7774 2.1055,-1.99 2.95,-2.6944 L 40.4639,38.28 A 4.8637,4.8637 0 0 0 42,35 v 0 A 9.3085,9.3085 0 0 0 41.042,31.2441 L 36,22"
       stroke-width="2"
       stroke-linejoin="round"
       stroke-linecap="round"
       stroke="#000"
       fill="none" />
    <path
       inkscape:connector-curvature="0"
       id="path730"
       d="M 36,22 C 34,18 31.6406,17.7671 29.9688,18.417 A 3.859,3.859 0 0 0 27.6,22.251"
       stroke-width="2"
       stroke-linejoin="round"
       stroke-linecap="round"
       stroke="#000"
       fill="none" />
    <path
       inkscape:connector-curvature="0"
       id="path732"
       d="m 30.9375,22 -1.4189,5.0771 A 2.7758,2.7758 0 0 1 27,29 h -7"
       stroke-width="2"
       stroke-linejoin="round"
       stroke-linecap="round"
       stroke="#000"
       fill="none" />
  </g>
</svg>
