<?xml version="1.0" encoding="UTF-8" standalone="no"?>
<svg
   xmlns:dc="http://purl.org/dc/elements/1.1/"
   xmlns:cc="http://creativecommons.org/ns#"
   xmlns:rdf="http://www.w3.org/1999/02/22-rdf-syntax-ns#"
   xmlns:svg="http://www.w3.org/2000/svg"
   xmlns="http://www.w3.org/2000/svg"
   xmlns:sodipodi="http://sodipodi.sourceforge.net/DTD/sodipodi-0.dtd"
   xmlns:inkscape="http://www.inkscape.org/namespaces/inkscape"
   inkscape:version="1.0beta2 (2b71d25, 2019-12-03)"
   sodipodi:docname="activityLightTimer.svg"
   version="1.1"
   viewBox="0 0 72 72"
   id="emoji">
  <metadata
     id="metadata655">
    <rdf:RDF>
      <cc:Work
         rdf:about="">
        <dc:format>image/svg+xml</dc:format>
        <dc:type
           rdf:resource="http://purl.org/dc/dcmitype/StillImage" />
        <dc:title></dc:title>
      </cc:Work>
    </rdf:RDF>
  </metadata>
  <defs
     id="defs653" />
  <sodipodi:namedview
     inkscape:current-layer="emoji"
     inkscape:window-maximized="0"
     inkscape:window-y="72"
     inkscape:window-x="214"
     inkscape:cy="36"
     inkscape:cx="28.528965"
     inkscape:zoom="9.3055556"
     showgrid="false"
     id="namedview651"
     inkscape:window-height="836"
     inkscape:window-width="1347"
     inkscape:pageshadow="2"
     inkscape:pageopacity="0"
     guidetolerance="10"
     gridtolerance="10"
     objecttolerance="10"
     borderopacity="1"
     inkscape:document-rotation="0"
     bordercolor="#666666"
     pagecolor="#ffffff" />
  <g
     id="color" />
  <g
     id="hair" />
  <polyline
     transform="translate(-16.764179,-1.2895522)"
     style="fill:#5dee65;fill-opacity:1"
     fill="#FCEA2B"
     stroke="none"
     points="31,24 26.75,67 30.1738,67 36.7129,43.0254 41.207,36.6104 40.6182,24.4932"
     id="polyline629" />
  <polyline
     transform="translate(-16.764179,-1.2895522)"
     style="fill:#5dee65;fill-opacity:1"
     fill="#FCEA2B"
     stroke="none"
     points="40.1348,38.1406 42.2666,51.6416 49.167,63 46.167,65 38.5234,54.6455 35.5938,47.1289"
     id="polyline631" />
  <path
     style="fill:#5dee65;fill-opacity:1"
     fill="#FCEA2B"
     stroke="none"
     d="m 24.160621,28.291548 -0.6328,-10.5464 c -0.1318,-2.1958 -2.04,-4.0347 -4.2402,-4.0347 h -0.0518 c -2.2002,0 -4.2002,1.8306 -4.4463,4.0171 l -0.5537,4.9619"
     id="path633"
     inkscape:connector-curvature="0" />
  <circle
     style="fill:#5dee65;fill-opacity:1"
     cx="19.20462"
     cy="6.8042474"
     r="3"
     fill="#FCEA2B"
     stroke="none"
     id="circle635" />
  <g
     id="skin-shadow" />
  <g
     transform="translate(-16.764179,-1.2895522)"
     id="line">
    <circle
       id="circle639"
       stroke-width="2"
       stroke-miterlimit="10"
       stroke="#000000"
       fill="none"
       r="3"
       cy="8.0937996"
       cx="35.9688" />
    <path
       inkscape:connector-curvature="0"
       id="path641"
       d="M 31,24 26.9463,65.0098 C 26.8389,66.1045 27.5205,67 28.4619,67 c 0.9414,0 1.9492,-0.8682 2.2383,-1.9297 l 5.4863,-20.1152 c 0.2891,-1.0615 1.043,-2.667 1.6739,-3.5674 l 2.1992,-3.1397 c 0.6308,-0.9003 1.1035,-2.5371 1.0508,-3.6357 L 40.6182,24.4932"
       stroke-width="2"
       stroke-miterlimit="10"
       stroke-linejoin="round"
       stroke-linecap="round"
       stroke="#000000"
       fill="none" />
    <path
       inkscape:connector-curvature="0"
       id="path643"
       d="m 40.1348,38.1406 1.8203,11.5254 c 0.1709,1.0869 0.7793,2.7451 1.3496,3.6846 l 4.8242,7.9404 c 0.5703,0.9395 0.3633,2.1592 -0.4619,2.709 -0.8252,0.5498 -2.0342,0.2764 -2.6875,-0.6094 l -5.2686,-7.1357 c -0.6533,-0.8858 -1.5146,-2.4483 -1.914,-3.4727 l -2.2031,-5.6533"
       stroke-width="2"
       stroke-miterlimit="10"
       stroke-linejoin="round"
       stroke-linecap="round"
       stroke="#000000"
       fill="none" />
    <path
       inkscape:connector-curvature="0"
       id="path645"
       d="M 40.9248,29.5811 40.292,19.0347 C 40.1602,16.8389 38.252,15 36.0518,15 H 36 c -2.2002,0 -4.2002,1.8306 -4.4463,4.0171 L 31,23.979"
       stroke-width="2"
       stroke-miterlimit="10"
       stroke-linejoin="round"
       stroke-linecap="round"
       stroke="#000000"
       fill="none" />
    <path
       inkscape:connector-curvature="0"
       id="path647"
       d="m 36.167,20 0.0547,6.25 c 0.0097,1.1001 -0.1963,2.874 -0.4571,3.9424 L 32.9199,41.834"
       stroke-width="2"
       stroke-miterlimit="10"
       stroke-linejoin="round"
       stroke-linecap="round"
       stroke="#000000"
       fill="none" />
  </g>
  <g
     transform="matrix(0.66085673,0,0,0.66085673,24.796871,16.242105)"
     id="g658">
    <g
       id="color-8">
      <circle
         cx="35.904701"
         cy="36.013802"
         r="27.0345"
         fill="#fcea2b"
         id="circle611" />
      <circle
         cx="36.005798"
         cy="36.0369"
         r="21.870899"
         fill="#fff"
         id="circle613" />
    </g>
    <g
       id="line-4">
      <path
         inkscape:connector-curvature="0"
         d="M 55.1092,25.38 A 21.8626,21.8626 0 1 1 47.0154,17.1349"
         fill="none"
         stroke="#000"
         stroke-linecap="round"
         stroke-linejoin="round"
         stroke-width="2"
         id="path616" />
      <path
         inkscape:connector-curvature="0"
         d="M 62.9392,35.9973 A 27.0463,27.0463 0 1 1 57.6742,19.9591"
         fill="none"
         stroke="#000"
         stroke-linecap="round"
         stroke-linejoin="round"
         stroke-width="2"
         id="path618" />
      <polyline
         points="47.394 21.578 58.432 20.418 57.272 9.38"
         fill="none"
         stroke="#000"
         stroke-linecap="round"
         stroke-linejoin="round"
         stroke-width="2"
         id="polyline620" />
      <polyline
         points="49.975 36.354 35.987 36.354 35.891 36.354 35.891 18.52"
         fill="none"
         stroke="#000"
         stroke-linecap="round"
         stroke-linejoin="round"
         stroke-width="2"
         id="polyline622" />
      <line
         x1="35.890598"
         y1="53.910599"
         x2="35.890598"
         y2="50.066101"
         fill="none"
         stroke="#000"
         stroke-linecap="round"
         stroke-linejoin="round"
         stroke-width="2"
         id="line624" />
      <polyline
         points="21.143 36.354 18.086 36.354 18.086 36.354"
         fill="none"
         stroke="#000"
         stroke-linecap="round"
         stroke-linejoin="round"
         stroke-width="2"
         id="polyline626" />
      <circle
         cx="35.890598"
         cy="36.353802"
         r="3.7370999"
         id="circle628" />
      <circle
         cx="48.693802"
         cy="47.937099"
         r="1.4802001"
         id="circle630" />
      <circle
         cx="23.087299"
         cy="24.717199"
         r="1.4802001"
         id="circle632" />
      <circle
         cx="23.087299"
         cy="47.937099"
         r="1.4802001"
         id="circle634" />
    </g>
  </g>
</svg>
