<?xml version="1.0" encoding="UTF-8" standalone="no"?>
<svg
   xmlns:dc="http://purl.org/dc/elements/1.1/"
   xmlns:cc="http://creativecommons.org/ns#"
   xmlns:rdf="http://www.w3.org/1999/02/22-rdf-syntax-ns#"
   xmlns:svg="http://www.w3.org/2000/svg"
   xmlns="http://www.w3.org/2000/svg"
   xmlns:sodipodi="http://sodipodi.sourceforge.net/DTD/sodipodi-0.dtd"
   xmlns:inkscape="http://www.inkscape.org/namespaces/inkscape"
   inkscape:version="1.0beta2 (2b71d25, 2019-12-03)"
   sodipodi:docname="activityVigorous.svg"
   version="1.1"
   viewBox="0 0 72 72"
   id="emoji">
  <metadata
     id="metadata869">
    <rdf:RDF>
      <cc:Work
         rdf:about="">
        <dc:format>image/svg+xml</dc:format>
        <dc:type
           rdf:resource="http://purl.org/dc/dcmitype/StillImage" />
        <dc:title></dc:title>
      </cc:Work>
    </rdf:RDF>
  </metadata>
  <defs
     id="defs867" />
  <sodipodi:namedview
     inkscape:current-layer="skin"
     inkscape:window-maximized="0"
     inkscape:window-y="68"
     inkscape:window-x="133"
     inkscape:cy="36"
     inkscape:cx="51.949367"
     inkscape:zoom="12.069444"
     showgrid="false"
     id="namedview865"
     inkscape:window-height="806"
     inkscape:window-width="1219"
     inkscape:pageshadow="2"
     inkscape:pageopacity="0"
     guidetolerance="10"
     gridtolerance="10"
     objecttolerance="10"
     borderopacity="1"
     inkscape:document-rotation="0"
     bordercolor="#666666"
     pagecolor="#ffffff" />
  <g
     id="color">
    <path
       id="path833"
       d="M16,31c0,0.5498-0.4502,1-1,1h-2c-0.5498,0-1-0.4502-1-1V15c0-0.5498,0.4502-1,1-1h2 c0.5498,0,1,0.4502,1,1V31z"
       stroke="none"
       fill="#3F3F3F" />
    <path
       id="path835"
       d="M60,31c0,0.5498-0.4502,1-1,1h-2c-0.5498,0-1-0.4502-1-1V15c0-0.5498,0.4502-1,1-1h2 c0.5498,0,1,0.4502,1,1V31z"
       stroke="none"
       fill="#3F3F3F" />
  </g>
  <g
     id="hair" />
  <g
     id="skin">
    <circle
       style="fill:#fc983a;fill-opacity:1"
       id="circle839"
       stroke="none"
       fill="#FCEA2B"
       r="3"
       cy="18.0938"
       cx="35.9688" />
    <path
       style="fill:#fc983a;fill-opacity:1"
       id="path841"
       d="M41,39l5,2l-2,17h-4V45h-2h-4h-2v13h-4l-2-17l5-2c0,0-1.2812-6.3018-1.875-8.458 c-0.333-1.209-1.125-0.834-1.459-0.5c-0.125,0.125-1.79,3.166-3.624,3.166s-2.8174-0.5254-3.292-1.291 c-1.292-2.084-3.125-9.042-3.125-9.042l2.458-0.5l1.959,7.333l1.416,0.875l3.125-3.6665L30.042,25.5l11.541-0.2085l3.709,1.5 l2.499,3.1255l1.667,0.5l1.375-4l1.417-3.667l1.958,0.3335c0,0-1.624,7.5425-2.916,8.8335s-3.584,1.75-4.792,0.583 s-1.542-1.875-2.333-2.583c-0.2256-0.2022-1.125-0.709-1.334,0.542"
       stroke="none"
       fill="#FCEA2B" />
  </g>
  <g
     id="skin-shadow" />
  <g
     id="line">
    <circle
       id="circle845"
       stroke-width="2"
       stroke-miterlimit="10"
       stroke="#000000"
       fill="none"
       r="3"
       cy="18.0938"
       cx="35.9688" />
    <path
       id="path847"
       d="M20,23l2.0518,6.1543c0.5214,1.5654,1.7334,1.7471,2.6923,0.4043l1.5118-2.1172c0.9589-1.3428,3.0839-2.2739,4.7207-2.0693 l2.0468,0.2558c1.6368,0.2046,4.3164,0.2046,5.9532,0l2.0468-0.2558c1.6368-0.2046,3.7618,0.7265,4.7207,2.0693l1.5118,2.1172 c0.9589,1.3428,2.1709,1.1611,2.6923-0.4043L52,23"
       stroke-width="2"
       stroke-miterlimit="10"
       stroke-linejoin="round"
       stroke-linecap="round"
       stroke="#000000"
       fill="none" />
    <path
       id="path849"
       d="M41,39l3.1426,1.2568c1.0215,0.4092,1.7519,1.6368,1.624,2.7295l-1.5332,13.0274C44.1055,57.1064,43.0996,58,42,58l0,0 c-1.0996,0-2-0.9004-2-2v-9c0-1.0996-0.4502-2-1-2c-0.5498,0-1.9004,0-3,0l0,0c-1.0996,0-2.4502,0-3,0c-0.5498,0-1,0.9004-1,2v9 c0,1.0996-0.9004,2-2,2l0,0c-1.0996,0-2.1055-0.8936-2.2334-1.9863l-1.5332-13.0274c-0.1279-1.0927,0.6025-2.3203,1.624-2.7295 L31,39"
       stroke-width="2"
       stroke-miterlimit="10"
       stroke-linejoin="round"
       stroke-linecap="round"
       stroke="#000000"
       fill="none" />
    <path
       id="path851"
       d="M31,39c0,0,0-0.9004,0-2s-0.2246-3.125-0.5-4.5C30.2246,31.125,30,30,30,30"
       stroke-width="2"
       stroke-miterlimit="10"
       stroke-linejoin="round"
       stroke-linecap="round"
       stroke="#000000"
       fill="none" />
    <path
       id="path853"
       d="M41,39c0,0,0-0.9844,0-2.1875s0.2109-3.2285,0.4688-4.5C41.7266,31.041,41.9375,30,41.9375,30"
       stroke-width="2"
       stroke-miterlimit="10"
       stroke-linejoin="round"
       stroke-linecap="round"
       stroke="#000000"
       fill="none" />
    <path
       id="path855"
       d="M16,31c0,0.5498-0.4502,1-1,1h-2c-0.5498,0-1-0.4502-1-1V15c0-0.5498,0.4502-1,1-1h2c0.5498,0,1,0.4502,1,1V31z"
       stroke-width="2"
       stroke-miterlimit="10"
       stroke-linejoin="round"
       stroke-linecap="round"
       stroke="#000000"
       fill="none" />
    <path
       id="path857"
       d="M60,31c0,0.5498-0.4502,1-1,1h-2c-0.5498,0-1-0.4502-1-1V15c0-0.5498,0.4502-1,1-1h2c0.5498,0,1,0.4502,1,1V31z"
       stroke-width="2"
       stroke-miterlimit="10"
       stroke-linejoin="round"
       stroke-linecap="round"
       stroke="#000000"
       fill="none" />
    <path
       id="path859"
       d="M42,22c4,0,14,1,14,1"
       stroke-width="2"
       stroke-miterlimit="10"
       stroke-linejoin="round"
       stroke-linecap="round"
       stroke="#000000"
       fill="none" />
    <path
       id="path861"
       d="M16,23c0,0,7-1,14-1"
       stroke-width="2"
       stroke-miterlimit="10"
       stroke-linejoin="round"
       stroke-linecap="round"
       stroke="#000000"
       fill="none" />
  </g>
</svg>
