<?xml version="1.0" encoding="UTF-8" standalone="no"?>
<svg
   xmlns:dc="http://purl.org/dc/elements/1.1/"
   xmlns:cc="http://creativecommons.org/ns#"
   xmlns:rdf="http://www.w3.org/1999/02/22-rdf-syntax-ns#"
   xmlns:svg="http://www.w3.org/2000/svg"
   xmlns="http://www.w3.org/2000/svg"
   xmlns:sodipodi="http://sodipodi.sourceforge.net/DTD/sodipodi-0.dtd"
   xmlns:inkscape="http://www.inkscape.org/namespaces/inkscape"
   inkscape:version="1.0beta2 (2b71d25, 2019-12-03)"
   sodipodi:docname="activityLight.svg"
   version="1.1"
   viewBox="0 0 72 72"
   id="emoji">
  <metadata
     id="metadata655">
    <rdf:RDF>
      <cc:Work
         rdf:about="">
        <dc:format>image/svg+xml</dc:format>
        <dc:type
           rdf:resource="http://purl.org/dc/dcmitype/StillImage" />
        <dc:title />
      </cc:Work>
    </rdf:RDF>
  </metadata>
  <defs
     id="defs653" />
  <sodipodi:namedview
     inkscape:current-layer="emoji"
     inkscape:window-maximized="0"
     inkscape:window-y="72"
     inkscape:window-x="214"
     inkscape:cy="36"
     inkscape:cx="28.528965"
     inkscape:zoom="9.3055556"
     showgrid="false"
     id="namedview651"
     inkscape:window-height="836"
     inkscape:window-width="1347"
     inkscape:pageshadow="2"
     inkscape:pageopacity="0"
     guidetolerance="10"
     gridtolerance="10"
     objecttolerance="10"
     borderopacity="1"
     inkscape:document-rotation="0"
     bordercolor="#666666"
     pagecolor="#ffffff" />
  <g
     id="color" />
  <g
     id="hair" />
  <polyline
     style="fill:#5dee65;fill-opacity:1"
     fill="#FCEA2B"
     stroke="none"
     points="31,24 26.75,67 30.1738,67 36.7129,43.0254 41.207,36.6104 40.6182,24.4932"
     id="polyline629" />
  <polyline
     style="fill:#5dee65;fill-opacity:1"
     fill="#FCEA2B"
     stroke="none"
     points="40.1348,38.1406 42.2666,51.6416 49.167,63 46.167,65 38.5234,54.6455 35.5938,47.1289"
     id="polyline631" />
  <path
     style="fill:#5dee65;fill-opacity:1"
     fill="#FCEA2B"
     stroke="none"
     d="M 40.9248,29.5811 40.292,19.0347 C 40.1602,16.8389 38.252,15 36.0518,15 H 36 c -2.2002,0 -4.2002,1.8306 -4.4463,4.0171 L 31,23.979"
     id="path633"
     inkscape:connector-curvature="0" />
  <circle
     style="fill:#5dee65;fill-opacity:1"
     cx="35.9688"
     cy="8.0937996"
     r="3"
     fill="#FCEA2B"
     stroke="none"
     id="circle635" />
  <g
     id="skin-shadow" />
  <g
     id="line">
    <circle
       id="circle639"
       stroke-width="2"
       stroke-miterlimit="10"
       stroke="#000000"
       fill="none"
       r="3"
       cy="8.0938"
       cx="35.9688" />
    <path
       id="path641"
       d="M31,24l-4.0537,41.0098C26.8389,66.1045,27.5205,67,28.4619,67s1.9492-0.8682,2.2383-1.9297l5.4863-20.1152 c0.2891-1.0615,1.043-2.667,1.6739-3.5674l2.1992-3.1397c0.6308-0.9003,1.1035-2.5371,1.0508-3.6357l-0.4922-10.1191"
       stroke-width="2"
       stroke-miterlimit="10"
       stroke-linejoin="round"
       stroke-linecap="round"
       stroke="#000000"
       fill="none" />
    <path
       id="path643"
       d="M40.1348,38.1406l1.8203,11.5254c0.1709,1.0869,0.7793,2.7451,1.3496,3.6846l4.8242,7.9404 c0.5703,0.9395,0.3633,2.1592-0.4619,2.709c-0.8252,0.5498-2.0342,0.2764-2.6875-0.6094l-5.2686-7.1357 c-0.6533-0.8858-1.5146-2.4483-1.914-3.4727l-2.2031-5.6533"
       stroke-width="2"
       stroke-miterlimit="10"
       stroke-linejoin="round"
       stroke-linecap="round"
       stroke="#000000"
       fill="none" />
    <path
       id="path645"
       d="M40.9248,29.5811L40.292,19.0347C40.1602,16.8389,38.252,15,36.0518,15H36c-2.2002,0-4.2002,1.8306-4.4463,4.0171L31,23.979"
       stroke-width="2"
       stroke-miterlimit="10"
       stroke-linejoin="round"
       stroke-linecap="round"
       stroke="#000000"
       fill="none" />
    <path
       id="path647"
       d="M36.167,20l0.0547,6.25c0.0097,1.1001-0.1963,2.874-0.4571,3.9424L32.9199,41.834"
       stroke-width="2"
       stroke-miterlimit="10"
       stroke-linejoin="round"
       stroke-linecap="round"
       stroke="#000000"
       fill="none" />
  </g>
</svg>
