<?xml version="1.0" encoding="UTF-8" standalone="no"?>
<svg
   xmlns:dc="http://purl.org/dc/elements/1.1/"
   xmlns:cc="http://creativecommons.org/ns#"
   xmlns:rdf="http://www.w3.org/1999/02/22-rdf-syntax-ns#"
   xmlns:svg="http://www.w3.org/2000/svg"
   xmlns="http://www.w3.org/2000/svg"
   xmlns:sodipodi="http://sodipodi.sourceforge.net/DTD/sodipodi-0.dtd"
   xmlns:inkscape="http://www.inkscape.org/namespaces/inkscape"
   inkscape:version="1.0beta2 (2b71d25, 2019-12-03)"
   sodipodi:docname="activityLightPlanned.svg"
   version="1.1"
   viewBox="0 0 72 72"
   id="emoji">
  <metadata
     id="metadata655">
    <rdf:RDF>
      <cc:Work
         rdf:about="">
        <dc:format>image/svg+xml</dc:format>
        <dc:type
           rdf:resource="http://purl.org/dc/dcmitype/StillImage" />
        <dc:title></dc:title>
      </cc:Work>
    </rdf:RDF>
  </metadata>
  <defs
     id="defs653" />
  <sodipodi:namedview
     inkscape:current-layer="emoji"
     inkscape:window-maximized="0"
     inkscape:window-y="72"
     inkscape:window-x="214"
     inkscape:cy="36"
     inkscape:cx="28.528965"
     inkscape:zoom="9.3055556"
     showgrid="false"
     id="namedview651"
     inkscape:window-height="836"
     inkscape:window-width="1347"
     inkscape:pageshadow="2"
     inkscape:pageopacity="0"
     guidetolerance="10"
     gridtolerance="10"
     objecttolerance="10"
     borderopacity="1"
     inkscape:document-rotation="0"
     bordercolor="#666666"
     pagecolor="#ffffff" />
  <g
     transform="matrix(0.62201105,0,0,0.62201105,24.540774,13.265921)"
     id="g591">
    <g
       id="color-4">
      <path
         inkscape:connector-curvature="0"
         fill="#FFFFFF"
         stroke="none"
         d="M 60.069,17.0151 54.1512,16.0826 H 17.21 l -5.2722,0.9684 0.0358,43.2177 31.6332,-0.0359 16.4981,-12.0507 z"
         id="path508" />
      <path
         inkscape:connector-curvature="0"
         fill="#d0cfce"
         stroke="none"
         d="M 56.9559,49.0381 H 44.1387 v 4.4795 c 0,0.5527 -0.4473,1 -1,1 -0.502,0 -0.8992,-0.3752 -0.9712,-0.8569 v 5.4255 l 1.1596,-3e-4 z"
         id="path510" />
      <line
         x1="45.480598"
         x2="45.480598"
         y1="13.9548"
         y2="19.590599"
         fill="#FFFFFF"
         stroke="none"
         stroke-linecap="round"
         stroke-linejoin="round"
         stroke-miterlimit="10"
         stroke-width="2"
         id="line512" />
      <line
         x1="40.720299"
         x2="40.720299"
         y1="13.9548"
         y2="19.590599"
         fill="#FFFFFF"
         stroke="none"
         stroke-linecap="round"
         stroke-linejoin="round"
         stroke-miterlimit="10"
         stroke-width="2"
         id="line514" />
      <line
         x1="35.959999"
         x2="35.959999"
         y1="13.9548"
         y2="19.590599"
         fill="#FFFFFF"
         stroke="none"
         stroke-linecap="round"
         stroke-linejoin="round"
         stroke-miterlimit="10"
         stroke-width="2"
         id="line516" />
      <line
         x1="50.240799"
         x2="50.240799"
         y1="13.9548"
         y2="19.590599"
         fill="#FFFFFF"
         stroke="none"
         stroke-linecap="round"
         stroke-linejoin="round"
         stroke-miterlimit="10"
         stroke-width="2"
         id="line518" />
      <line
         x1="31.199699"
         x2="31.199699"
         y1="13.9548"
         y2="19.590599"
         fill="#FFFFFF"
         stroke="none"
         stroke-linecap="round"
         stroke-linejoin="round"
         stroke-miterlimit="10"
         stroke-width="2"
         id="line520" />
      <line
         x1="26.4394"
         x2="26.4394"
         y1="13.9548"
         y2="19.590599"
         fill="#FFFFFF"
         stroke="none"
         stroke-linecap="round"
         stroke-linejoin="round"
         stroke-miterlimit="10"
         stroke-width="2"
         id="line522" />
      <line
         x1="21.679199"
         x2="21.679199"
         y1="13.9548"
         y2="19.590599"
         fill="#FFFFFF"
         stroke="none"
         stroke-linecap="round"
         stroke-linejoin="round"
         stroke-miterlimit="10"
         stroke-width="2"
         id="line524" />
    </g>
    <g
       id="hair-9" />
    <g
       id="skin" />
    <g
       id="skin-shadow-1" />
    <g
       id="line-7">
      <line
         x1="45.480598"
         x2="45.480598"
         y1="13.9548"
         y2="19.590599"
         fill="none"
         stroke="#000000"
         stroke-linecap="round"
         stroke-linejoin="round"
         stroke-miterlimit="10"
         stroke-width="2"
         id="line530" />
      <line
         x1="40.720299"
         x2="40.720299"
         y1="13.9548"
         y2="19.590599"
         fill="none"
         stroke="#000000"
         stroke-linecap="round"
         stroke-linejoin="round"
         stroke-miterlimit="10"
         stroke-width="2"
         id="line532" />
      <line
         x1="35.959999"
         x2="35.959999"
         y1="13.9548"
         y2="19.590599"
         fill="none"
         stroke="#000000"
         stroke-linecap="round"
         stroke-linejoin="round"
         stroke-miterlimit="10"
         stroke-width="2"
         id="line534" />
      <line
         x1="50.240799"
         x2="50.240799"
         y1="13.9548"
         y2="19.590599"
         fill="none"
         stroke="#000000"
         stroke-linecap="round"
         stroke-linejoin="round"
         stroke-miterlimit="10"
         stroke-width="2"
         id="line536" />
      <line
         x1="31.199699"
         x2="31.199699"
         y1="13.9548"
         y2="19.590599"
         fill="none"
         stroke="#000000"
         stroke-linecap="round"
         stroke-linejoin="round"
         stroke-miterlimit="10"
         stroke-width="2"
         id="line538" />
      <line
         x1="26.4394"
         x2="26.4394"
         y1="13.9548"
         y2="19.590599"
         fill="none"
         stroke="#000000"
         stroke-linecap="round"
         stroke-linejoin="round"
         stroke-miterlimit="10"
         stroke-width="2"
         id="line540" />
      <line
         x1="21.679199"
         x2="21.679199"
         y1="13.9548"
         y2="19.590599"
         fill="none"
         stroke="#000000"
         stroke-linecap="round"
         stroke-linejoin="round"
         stroke-miterlimit="10"
         stroke-width="2"
         id="line542" />
      <line
         x1="16.989599"
         x2="54.787399"
         y1="29.3515"
         y2="29.3515"
         fill="none"
         stroke="#000000"
         stroke-linecap="round"
         stroke-linejoin="round"
         stroke-miterlimit="10"
         stroke-width="2"
         id="line544" />
      <line
         x1="16.989599"
         x2="54.787399"
         y1="39.824902"
         y2="39.824902"
         fill="none"
         stroke="#000000"
         stroke-linecap="round"
         stroke-linejoin="round"
         stroke-miterlimit="10"
         stroke-width="2"
         id="line546" />
      <line
         x1="16.989599"
         x2="39.115002"
         y1="50.298401"
         y2="50.298401"
         fill="none"
         stroke="#000000"
         stroke-linecap="round"
         stroke-linejoin="round"
         stroke-miterlimit="10"
         stroke-width="2"
         id="line548" />
      <line
         x1="25.946301"
         x2="25.946301"
         y1="24.443399"
         y2="55.548801"
         fill="none"
         stroke="#000000"
         stroke-linecap="round"
         stroke-linejoin="round"
         stroke-miterlimit="10"
         stroke-width="2"
         id="line550" />
      <polyline
         fill="none"
         stroke="#000000"
         stroke-linecap="round"
         stroke-linejoin="round"
         stroke-miterlimit="10"
         stroke-width="2"
         points="54.3253,16.9734 59.96,16.9734 59.997,48.0382 43.6564,60.0864 11.997,60.0918 11.96,16.9734 17.5992,16.9734"
         id="polyline552" />
      <polyline
         fill="none"
         stroke="#000000"
         stroke-linecap="round"
         stroke-linejoin="round"
         stroke-miterlimit="10"
         stroke-width="2"
         points="59.7462,48.0382 43.1384,48.0382 43.1384,53.5175"
         id="polyline554" />
    </g>
  </g>
  <g
     id="color" />
  <g
     id="hair" />
  <polyline
     transform="translate(-16.764179,-1.2895522)"
     style="fill:#5dee65;fill-opacity:1"
     fill="#FCEA2B"
     stroke="none"
     points="31,24 26.75,67 30.1738,67 36.7129,43.0254 41.207,36.6104 40.6182,24.4932"
     id="polyline629" />
  <polyline
     transform="translate(-16.764179,-1.2895522)"
     style="fill:#5dee65;fill-opacity:1"
     fill="#FCEA2B"
     stroke="none"
     points="40.1348,38.1406 42.2666,51.6416 49.167,63 46.167,65 38.5234,54.6455 35.5938,47.1289"
     id="polyline631" />
  <path
     style="fill:#5dee65;fill-opacity:1"
     fill="#FCEA2B"
     stroke="none"
     d="m 24.160621,28.291548 -0.6328,-10.5464 c -0.1318,-2.1958 -2.04,-4.0347 -4.2402,-4.0347 h -0.0518 c -2.2002,0 -4.2002,1.8306 -4.4463,4.0171 l -0.5537,4.9619"
     id="path633"
     inkscape:connector-curvature="0" />
  <circle
     style="fill:#5dee65;fill-opacity:1"
     cx="19.20462"
     cy="6.8042474"
     r="3"
     fill="#FCEA2B"
     stroke="none"
     id="circle635" />
  <g
     id="skin-shadow" />
  <g
     transform="translate(-16.764179,-1.2895522)"
     id="line">
    <circle
       id="circle639"
       stroke-width="2"
       stroke-miterlimit="10"
       stroke="#000000"
       fill="none"
       r="3"
       cy="8.0937996"
       cx="35.9688" />
    <path
       inkscape:connector-curvature="0"
       id="path641"
       d="M 31,24 26.9463,65.0098 C 26.8389,66.1045 27.5205,67 28.4619,67 c 0.9414,0 1.9492,-0.8682 2.2383,-1.9297 l 5.4863,-20.1152 c 0.2891,-1.0615 1.043,-2.667 1.6739,-3.5674 l 2.1992,-3.1397 c 0.6308,-0.9003 1.1035,-2.5371 1.0508,-3.6357 L 40.6182,24.4932"
       stroke-width="2"
       stroke-miterlimit="10"
       stroke-linejoin="round"
       stroke-linecap="round"
       stroke="#000000"
       fill="none" />
    <path
       inkscape:connector-curvature="0"
       id="path643"
       d="m 40.1348,38.1406 1.8203,11.5254 c 0.1709,1.0869 0.7793,2.7451 1.3496,3.6846 l 4.8242,7.9404 c 0.5703,0.9395 0.3633,2.1592 -0.4619,2.709 -0.8252,0.5498 -2.0342,0.2764 -2.6875,-0.6094 l -5.2686,-7.1357 c -0.6533,-0.8858 -1.5146,-2.4483 -1.914,-3.4727 l -2.2031,-5.6533"
       stroke-width="2"
       stroke-miterlimit="10"
       stroke-linejoin="round"
       stroke-linecap="round"
       stroke="#000000"
       fill="none" />
    <path
       inkscape:connector-curvature="0"
       id="path645"
       d="M 40.9248,29.5811 40.292,19.0347 C 40.1602,16.8389 38.252,15 36.0518,15 H 36 c -2.2002,0 -4.2002,1.8306 -4.4463,4.0171 L 31,23.979"
       stroke-width="2"
       stroke-miterlimit="10"
       stroke-linejoin="round"
       stroke-linecap="round"
       stroke="#000000"
       fill="none" />
    <path
       inkscape:connector-curvature="0"
       id="path647"
       d="m 36.167,20 0.0547,6.25 c 0.0097,1.1001 -0.1963,2.874 -0.4571,3.9424 L 32.9199,41.834"
       stroke-width="2"
       stroke-miterlimit="10"
       stroke-linejoin="round"
       stroke-linecap="round"
       stroke="#000000"
       fill="none" />
  </g>
</svg>
