<?xml version="1.0" encoding="UTF-8" standalone="no"?>
<svg
   xmlns:dc="http://purl.org/dc/elements/1.1/"
   xmlns:cc="http://creativecommons.org/ns#"
   xmlns:rdf="http://www.w3.org/1999/02/22-rdf-syntax-ns#"
   xmlns:svg="http://www.w3.org/2000/svg"
   xmlns="http://www.w3.org/2000/svg"
   xmlns:sodipodi="http://sodipodi.sourceforge.net/DTD/sodipodi-0.dtd"
   xmlns:inkscape="http://www.inkscape.org/namespaces/inkscape"
   id="emoji"
   viewBox="0 0 72 72"
   version="1.1"
   sodipodi:docname="allFoodTime.svg"
   inkscape:version="1.0beta2 (2b71d25, 2019-12-03)">
  <metadata
     id="metadata37">
    <rdf:RDF>
      <cc:Work
         rdf:about="">
        <dc:format>image/svg+xml</dc:format>
        <dc:type
           rdf:resource="http://purl.org/dc/dcmitype/StillImage" />
        <dc:title></dc:title>
      </cc:Work>
    </rdf:RDF>
  </metadata>
  <defs
     id="defs35" />
  <sodipodi:namedview
     pagecolor="#ffffff"
     bordercolor="#666666"
     inkscape:document-rotation="0"
     borderopacity="1"
     objecttolerance="10"
     gridtolerance="10"
     guidetolerance="10"
     inkscape:pageopacity="0"
     inkscape:pageshadow="2"
     inkscape:window-width="1373"
     inkscape:window-height="884"
     id="namedview33"
     showgrid="false"
     inkscape:zoom="9.9722222"
     inkscape:cx="36"
     inkscape:cy="36"
     inkscape:window-x="176"
     inkscape:window-y="79"
     inkscape:window-maximized="0"
     inkscape:current-layer="emoji" />
  <g
     id="g51"
     transform="matrix(0.61349066,0,0,0.61264772,3.8432566,2.6132055)">
    <g
       id="color">
      <circle
         id="circle10"
         fill="#d0cfce"
         r="28"
         cy="36"
         cx="36" />
      <path
         id="path12"
         stroke-width="2"
         stroke-miterlimit="10"
         stroke="#f4aa41"
         fill="#f4aa41"
         d="m 56.9944,35.361 c 0.1706,-4.1391 -3.6059,-7.6409 -8.4351,-7.8214 a 10.0471,10.0471 0 0 0 -2.1748,0.1782 6.3414,6.3414 0 0 0 0.11,-0.69 c 0.1706,-4.1391 -3.6059,-7.6409 -8.4351,-7.8215 -4.8292,-0.1806 -8.8824,3.0286 -9.053,7.1676 a 7.413,7.413 0 0 0 4.5029,6.8219 15.84,15.84 0 0 0 -2.5482,8.1892 c -0.2842,6.8948 3.4,12.63 8.2294,12.811 4.7186,0.1764 8.774,-5.02 9.2229,-11.69 4.6148,-0.0419 8.4166,-3.1439 8.581,-7.145 z"
         inkscape:connector-curvature="0" />
      <path
         id="path14"
         fill="#fff"
         d="M 41.6,43.3294 A 3.0615,3.0615 0 0 0 38.45,40.3647 3.2754,3.2754 0 0 0 37.0678,40.6774 2.7944,2.7944 0 0 0 37.4,39.3765 2.85,2.85 0 0 0 36.5825,37.4 2.85,2.85 0 0 0 37.4,35.4235 2.799,2.799 0 0 0 37.17,34.3212 2.9941,2.9941 0 0 0 39.5,31.4706 3.0615,3.0615 0 0 0 36.35,28.5059 3.2754,3.2754 0 0 0 34.9678,28.8186 2.7948,2.7948 0 0 0 35.3,27.5176 3.0616,3.0616 0 0 0 32.15,24.5529 3.2754,3.2754 0 0 0 30.7678,24.8656 2.7944,2.7944 0 0 0 31.1,23.5647 a 3.1558,3.1558 0 0 0 -6.3,0 2.7944,2.7944 0 0 0 0.3322,1.3009 3.2754,3.2754 0 0 0 -1.3822,-0.3127 3.1149,3.1149 0 0 0 -3.0287,2.1934 3.3064,3.3064 0 0 0 -1.1713,-0.2169 3.0615,3.0615 0 0 0 -3.15,2.9647 2.994,2.994 0 0 0 2.3305,2.8506 2.8,2.8 0 0 0 -0.23,1.1024 2.85,2.85 0 0 0 0.8175,1.9764 2.7981,2.7981 0 0 0 0,3.953 2.85,2.85 0 0 0 -0.818,1.9764 2.9939,2.9939 0 0 0 2.3305,2.8506 2.8,2.8 0 0 0 -0.23,1.1024 2.85,2.85 0 0 0 0.8175,1.9765 2.85,2.85 0 0 0 -0.818,1.9764 3.0615,3.0615 0 0 0 3.15,2.9647 3.2367,3.2367 0 0 0 2.1,-0.7694 3.2367,3.2367 0 0 0 2.1,0.7694 3.3042,3.3042 0 0 0 1.1713,-0.2169 A 3.1149,3.1149 0 0 0 32.15,54.2 3.0615,3.0615 0 0 0 35.3,51.2353 2.7944,2.7944 0 0 0 34.9678,49.9344 3.2754,3.2754 0 0 0 36.35,50.2471 3.0616,3.0616 0 0 0 39.5,47.2824 2.8,2.8 0 0 0 39.27,46.18 2.9941,2.9941 0 0 0 41.6,43.3294 Z"
         inkscape:connector-curvature="0" />
      <rect
         id="rect16"
         fill="#fcea2b"
         rx="1"
         height="2.8"
         width="4.1999998"
         y="23.4"
         x="38.799999" />
      <rect
         id="rect18"
         fill="#fcea2b"
         transform="rotate(27.6423,46.50002,34.59994)"
         rx="1"
         height="2.8"
         width="4.1999998"
         y="33.200001"
         x="44.400002" />
      <rect
         id="rect20"
         fill="#fcea2b"
         transform="rotate(-23.4507,43.699929,47.199964)"
         rx="1"
         height="2.8"
         width="4.1999998"
         y="45.799999"
         x="41.599998" />
      <rect
         id="rect22"
         fill="#fcea2b"
         rx="1"
         height="2.8"
         width="4.1999998"
         y="34.599998"
         x="50" />
    </g>
    <g
       id="line">
      <circle
         id="circle25"
         stroke-width="2"
         stroke-miterlimit="10"
         stroke="#000"
         fill="none"
         r="28"
         cy="36"
         cx="36" />
      <path
         id="path27"
         stroke-width="2"
         stroke-linejoin="round"
         stroke-linecap="round"
         stroke="#000"
         fill="none"
         d="M 41.6,43.3294 A 3.0615,3.0615 0 0 0 38.45,40.3647 3.2754,3.2754 0 0 0 37.0678,40.6774 2.7944,2.7944 0 0 0 37.4,39.3765 2.85,2.85 0 0 0 36.5825,37.4 2.85,2.85 0 0 0 37.4,35.4235 2.799,2.799 0 0 0 37.17,34.3212 2.9941,2.9941 0 0 0 39.5,31.4706 3.0615,3.0615 0 0 0 36.35,28.5059 3.2754,3.2754 0 0 0 34.9678,28.8186 2.7948,2.7948 0 0 0 35.3,27.5176 3.0616,3.0616 0 0 0 32.15,24.5529 3.2754,3.2754 0 0 0 30.7678,24.8656 2.7944,2.7944 0 0 0 31.1,23.5647 a 3.1558,3.1558 0 0 0 -6.3,0 2.7944,2.7944 0 0 0 0.3322,1.3009 3.2754,3.2754 0 0 0 -1.3822,-0.3127 3.1149,3.1149 0 0 0 -3.0287,2.1934 3.3064,3.3064 0 0 0 -1.1713,-0.2169 3.0615,3.0615 0 0 0 -3.15,2.9647 2.994,2.994 0 0 0 2.3305,2.8506 2.8,2.8 0 0 0 -0.23,1.1024 2.85,2.85 0 0 0 0.8175,1.9764 2.7981,2.7981 0 0 0 0,3.953 2.85,2.85 0 0 0 -0.818,1.9764 2.9939,2.9939 0 0 0 2.3305,2.8506 2.8,2.8 0 0 0 -0.23,1.1024 2.85,2.85 0 0 0 0.8175,1.9765 2.85,2.85 0 0 0 -0.818,1.9764 3.0615,3.0615 0 0 0 3.15,2.9647 3.2367,3.2367 0 0 0 2.1,-0.7694 3.2367,3.2367 0 0 0 2.1,0.7694 3.3042,3.3042 0 0 0 1.1713,-0.2169 A 3.1149,3.1149 0 0 0 32.15,54.2 3.0615,3.0615 0 0 0 35.3,51.2353 2.7944,2.7944 0 0 0 34.9678,49.9344 3.2754,3.2754 0 0 0 36.35,50.2471 3.0616,3.0616 0 0 0 39.5,47.2824 2.8,2.8 0 0 0 39.27,46.18 2.9941,2.9941 0 0 0 41.6,43.3294 Z"
         inkscape:connector-curvature="0" />
      <path
         id="path29"
         stroke-width="2"
         stroke-linejoin="round"
         stroke-linecap="round"
         stroke="#000"
         fill="none"
         d="m 39.1906,54.1956 c 4.7186,0.1764 8.774,-5.02 9.2229,-11.69 4.6147,-0.0414 8.416,-3.1434 8.5809,-7.1445 0.1706,-4.1391 -3.6059,-7.6409 -8.4351,-7.8214 a 10.0471,10.0471 0 0 0 -2.1748,0.1782 6.3414,6.3414 0 0 0 0.11,-0.69 c 0.1706,-4.1391 -3.6059,-7.6409 -8.4351,-7.8215 a 10.0118,10.0118 0 0 0 -3.4279,0.4618"
         inkscape:connector-curvature="0" />
    </g>
  </g>
  <g
     id="g241"
     transform="matrix(0.53281974,0,0,0.49685318,30.051785,6.4585155)">
    <g
       transform="matrix(0.830038,0.44428877,-0.37823336,0.84781095,29.834648,-21.044143)"
       id="g367">
      <g
         id="color-9">
        <path
           inkscape:connector-curvature="0"
           fill="#ea5a47"
           d="m 52.3958,38 c 1,-8 -6.7158,-13 -15,-13 -8.2842,0 -15.9725,7.78 -17,16 -1,8 7.7157,16 16,16 8.2843,0 14.9724,-10.78 16,-19 z"
           id="path53" />
        <path
           inkscape:connector-curvature="0"
           fill="#ea5a47"
           d="m 36.3958,25 c 10,-1 14,5 14,5"
           id="path55" />
        <path
           inkscape:connector-curvature="0"
           fill="#ea5a47"
           d="m 52.3958,33 c 4.8709,16.5612 -11.6148,30.1229 -16,31 -5,1 -13,-11 -15,-16"
           id="path57" />
        <path
           inkscape:connector-curvature="0"
           fill="#d22f27"
           d="M 45.3958,42.5 A 19.4819,19.4819 0 0 0 35.4858,25.5331 7.39,7.39 0 0 1 38.3958,25 c 8.2843,0 15,5 14,13 -1.1232,8.9855 -3,22 -16,26 -1.8881,0.5809 -4.23,-1.6717 -5.005,-2.7986 A 19.4982,19.4982 0 0 0 45.3958,42.5 Z"
           id="path59" />
        <path
           inkscape:connector-curvature="0"
           fill="#ea5a47"
           d="m 20.3958,45 c 0,0 -8.0234,-19.6487 16,-20"
           id="path61" />
        <circle
           cx="25.3958"
           cy="35"
           r="2"
           fill="#d22f27"
           id="circle63" />
        <circle
           cx="33.395802"
           cy="35"
           r="2"
           fill="#d22f27"
           id="circle65" />
        <circle
           cx="40.395802"
           cy="35"
           r="2"
           fill="#d22f27"
           id="circle67" />
        <circle
           cx="47.395802"
           cy="35"
           r="2"
           fill="#d22f27"
           id="circle69" />
        <circle
           cx="44.395802"
           cy="43"
           r="2"
           fill="#d22f27"
           id="circle71" />
        <circle
           cx="36.395802"
           cy="43"
           r="2"
           fill="#d22f27"
           id="circle73" />
        <circle
           cx="28.3958"
           cy="43"
           r="2"
           fill="#d22f27"
           id="circle75" />
        <circle
           cx="32.395802"
           cy="52"
           r="2"
           fill="#d22f27"
           id="circle77" />
        <circle
           cx="40.395802"
           cy="52"
           r="2"
           fill="#d22f27"
           id="circle79" />
        <path
           inkscape:connector-curvature="0"
           fill="#186648"
           d="M 32.3972,10.6576 Q 32.4938,10.4144 32.6,10.17 A 14.0007,14.0007 0 0 1 34.5272,7 14.02,14.02 0 0 1 37.4461,22.4726 c -0.508,1.1684 -5.513,-0.344 -6.7269,-0.2791"
           id="path81" />
        <path
           inkscape:connector-curvature="0"
           fill="#b1cc33"
           d="m 35.0511,20.9331 a 14.001,14.001 0 0 1 -0.14,3.7072 13.956,13.956 0 0 1 -9.942,-15.8017 14.02,14.02 0 0 1 10.082,12.0945 z"
           id="path83" />
        <path
           inkscape:connector-curvature="0"
           fill="#b1cc33"
           d="M 46.0116,10.6663 A 14.6194,14.6194 0 0 0 45.819,8.8386 13.9555,13.9555 0 0 0 35.8773,24.64 14.02,14.02 0 0 0 45.9592,12.5458"
           id="path85" />
        <path
           inkscape:connector-curvature="0"
           fill="#5c9e31"
           d="m 43.9648,10.8958 a 12.9921,12.9921 0 0 0 -0.0711,-1.3451 13.997,13.997 0 0 1 1.9254,-0.7121 14.6572,14.6572 0 0 1 0.1926,1.8277 l -0.0525,1.88 A 14.02,14.02 0 0 1 35.8773,24.64 14.6958,14.6958 0 0 1 35.6908,22.8957 12.8492,12.8492 0 0 0 43.9648,10.8958 Z"
           id="path87" />
      </g>
      <g
         id="line-3">
        <path
           inkscape:connector-curvature="0"
           fill="none"
           d="m 52.3958,38 c 1,-8 -6.7158,-13 -15,-13 -8.2842,0 -15.9725,7.78 -17,16 -1,8 7.7157,16 16,16 8.2843,0 14.9724,-10.78 16,-19 z"
           id="path90" />
        <path
           inkscape:connector-curvature="0"
           fill="none"
           stroke="#000000"
           stroke-linecap="round"
           stroke-linejoin="round"
           stroke-width="2"
           d="m 36.3958,25 c 10,-1 14,5 14,5"
           id="path92" />
        <path
           inkscape:connector-curvature="0"
           fill="none"
           d="M 45.3958,42.5 A 19.4819,19.4819 0 0 0 35.4858,25.5331 7.39,7.39 0 0 1 38.3958,25 c 8.2843,0 15,5 14,13 -1.1232,8.9855 -3,22 -16,26 -1.8881,0.5809 -4.23,-1.6717 -5.005,-2.7986 A 19.4982,19.4982 0 0 0 45.3958,42.5 Z"
           id="path94" />
        <path
           inkscape:connector-curvature="0"
           fill="none"
           stroke="#000000"
           stroke-linecap="round"
           stroke-linejoin="round"
           stroke-width="2"
           d="m 20.3958,45 c 0,0 -8.0234,-19.6487 16,-20"
           id="path96" />
        <circle
           cx="25.3958"
           cy="35"
           r="2"
           fill="none"
           id="circle98" />
        <circle
           cx="33.395802"
           cy="35"
           r="2"
           fill="none"
           id="circle100" />
        <circle
           cx="40.395802"
           cy="35"
           r="2"
           fill="none"
           id="circle102" />
        <circle
           cx="47.395802"
           cy="35"
           r="2"
           fill="none"
           id="circle104" />
        <circle
           cx="44.395802"
           cy="43"
           r="2"
           fill="none"
           id="circle106" />
        <circle
           cx="36.395802"
           cy="43"
           r="2"
           fill="none"
           id="circle108" />
        <circle
           cx="28.3958"
           cy="43"
           r="2"
           fill="none"
           id="circle110" />
        <circle
           cx="32.395802"
           cy="52"
           r="2"
           fill="none"
           id="circle112" />
        <circle
           cx="40.395802"
           cy="52"
           r="2"
           fill="none"
           id="circle114" />
        <line
           x1="25.192101"
           x2="25.192101"
           y1="35.5"
           y2="33.484501"
           fill="none"
           stroke="#000000"
           stroke-linecap="round"
           stroke-linejoin="round"
           stroke-width="2"
           id="line116" />
        <line
           x1="33.192101"
           x2="33.192101"
           y1="35.5"
           y2="33.484501"
           fill="none"
           stroke="#000000"
           stroke-linecap="round"
           stroke-linejoin="round"
           stroke-width="2"
           id="line118" />
        <line
           x1="40.192101"
           x2="40.192101"
           y1="35.5"
           y2="33.484501"
           fill="none"
           stroke="#000000"
           stroke-linecap="round"
           stroke-linejoin="round"
           stroke-width="2"
           id="line120" />
        <line
           x1="47.192101"
           x2="47.192101"
           y1="35.5"
           y2="33.484501"
           fill="none"
           stroke="#000000"
           stroke-linecap="round"
           stroke-linejoin="round"
           stroke-width="2"
           id="line122" />
        <line
           x1="44.192101"
           x2="44.192101"
           y1="43.5"
           y2="41.484501"
           fill="none"
           stroke="#000000"
           stroke-linecap="round"
           stroke-linejoin="round"
           stroke-width="2"
           id="line124" />
        <line
           x1="36.192101"
           x2="36.192101"
           y1="43.5"
           y2="41.484501"
           fill="none"
           stroke="#000000"
           stroke-linecap="round"
           stroke-linejoin="round"
           stroke-width="2"
           id="line126" />
        <line
           x1="28.192101"
           x2="28.192101"
           y1="43.5"
           y2="41.484501"
           fill="none"
           stroke="#000000"
           stroke-linecap="round"
           stroke-linejoin="round"
           stroke-width="2"
           id="line128" />
        <line
           x1="32.192101"
           x2="32.192101"
           y1="52.5"
           y2="50.484501"
           fill="none"
           stroke="#000000"
           stroke-linecap="round"
           stroke-linejoin="round"
           stroke-width="2"
           id="line130" />
        <line
           x1="40.192101"
           x2="40.192101"
           y1="52.5"
           y2="50.484501"
           fill="none"
           stroke="#000000"
           stroke-linecap="round"
           stroke-linejoin="round"
           stroke-width="2"
           id="line132" />
        <path
           inkscape:connector-curvature="0"
           fill="none"
           stroke="#000000"
           stroke-linecap="round"
           stroke-linejoin="round"
           stroke-width="2"
           d="m 52.3958,33 c 4.8709,16.5612 -11.6148,30.1229 -16,31 -5,1 -13,-11 -15,-16"
           id="path134" />
        <path
           inkscape:connector-curvature="0"
           fill="none"
           stroke="#000000"
           stroke-linecap="round"
           stroke-linejoin="round"
           stroke-width="2"
           d="m 36.3958,25 c 10,-1 14,5 14,5"
           id="path136" />
        <g
           id="g148">
          <path
             inkscape:connector-curvature="0"
             fill="none"
             stroke="#000000"
             stroke-linecap="round"
             stroke-linejoin="round"
             stroke-width="1.5583"
             d="M 32.3972,10.6576 Q 32.4938,10.4144 32.6,10.17 A 14.0007,14.0007 0 0 1 34.5272,7 a 14.09,14.09 0 0 1 3.7615,6.9188"
             id="path138" />
          <path
             inkscape:connector-curvature="0"
             fill="none"
             stroke="#000000"
             stroke-linejoin="round"
             stroke-width="1.5583"
             d="m 35.0511,20.9331 a 14.001,14.001 0 0 1 -0.14,3.7072 13.956,13.956 0 0 1 -9.942,-15.8017 14.02,14.02 0 0 1 10.082,12.0945 z"
             id="path140" />
          <path
             inkscape:connector-curvature="0"
             fill="none"
             stroke="#000000"
             stroke-linecap="round"
             stroke-linejoin="round"
             stroke-width="1.5583"
             d="M 46.0116,10.6663 A 14.6194,14.6194 0 0 0 45.819,8.8386 13.9555,13.9555 0 0 0 35.8773,24.64 14.02,14.02 0 0 0 45.9592,12.5458"
             id="path142" />
          <path
             inkscape:connector-curvature="0"
             fill="none"
             d="m 43.9648,10.8958 a 12.9921,12.9921 0 0 0 -0.0711,-1.3451 13.997,13.997 0 0 1 1.9254,-0.7121 14.6572,14.6572 0 0 1 0.1926,1.8277 l -0.0525,1.88 A 14.02,14.02 0 0 1 35.8773,24.64 14.6958,14.6958 0 0 1 35.6908,22.8957 12.8492,12.8492 0 0 0 43.9648,10.8958 Z"
             id="path144" />
          <path
             inkscape:connector-curvature="0"
             fill="none"
             stroke="#000000"
             stroke-linecap="round"
             stroke-linejoin="round"
             stroke-width="1.5583"
             d="M 46.0116,10.6663 A 14.6194,14.6194 0 0 0 45.819,8.8386 13.9555,13.9555 0 0 0 35.8773,24.64 14.02,14.02 0 0 0 45.9592,12.5458"
             id="path146" />
        </g>
        <line
           x1="25.192101"
           x2="25.192101"
           y1="35.5"
           y2="33.484501"
           fill="none"
           stroke="#000000"
           stroke-linecap="round"
           stroke-linejoin="round"
           stroke-width="2"
           id="line150" />
        <line
           x1="33.192101"
           x2="33.192101"
           y1="35.5"
           y2="33.484501"
           fill="none"
           stroke="#000000"
           stroke-linecap="round"
           stroke-linejoin="round"
           stroke-width="2"
           id="line152" />
        <line
           x1="40.192101"
           x2="40.192101"
           y1="35.5"
           y2="33.484501"
           fill="none"
           stroke="#000000"
           stroke-linecap="round"
           stroke-linejoin="round"
           stroke-width="2"
           id="line154" />
        <line
           x1="47.192101"
           x2="47.192101"
           y1="35.5"
           y2="33.484501"
           fill="none"
           stroke="#000000"
           stroke-linecap="round"
           stroke-linejoin="round"
           stroke-width="2"
           id="line156" />
        <line
           x1="44.192101"
           x2="44.192101"
           y1="43.5"
           y2="41.484501"
           fill="none"
           stroke="#000000"
           stroke-linecap="round"
           stroke-linejoin="round"
           stroke-width="2"
           id="line158" />
        <line
           x1="36.192101"
           x2="36.192101"
           y1="43.5"
           y2="41.484501"
           fill="none"
           stroke="#000000"
           stroke-linecap="round"
           stroke-linejoin="round"
           stroke-width="2"
           id="line160" />
        <line
           x1="28.192101"
           x2="28.192101"
           y1="43.5"
           y2="41.484501"
           fill="none"
           stroke="#000000"
           stroke-linecap="round"
           stroke-linejoin="round"
           stroke-width="2"
           id="line162" />
        <line
           x1="32.192101"
           x2="32.192101"
           y1="52.5"
           y2="50.484501"
           fill="none"
           stroke="#000000"
           stroke-linecap="round"
           stroke-linejoin="round"
           stroke-width="2"
           id="line164" />
        <line
           x1="40.192101"
           x2="40.192101"
           y1="52.5"
           y2="50.484501"
           fill="none"
           stroke="#000000"
           stroke-linecap="round"
           stroke-linejoin="round"
           stroke-width="2"
           id="line166" />
        <path
           inkscape:connector-curvature="0"
           fill="none"
           stroke="#000000"
           stroke-linecap="round"
           stroke-linejoin="round"
           stroke-width="2"
           d="m 52.3958,33 c 4.8709,16.5612 -11.6148,30.1229 -16,31 -5,1 -13,-11 -15,-16"
           id="path168" />
        <path
           inkscape:connector-curvature="0"
           fill="none"
           stroke="#000000"
           stroke-linecap="round"
           stroke-linejoin="round"
           stroke-width="2"
           d="m 36.3958,25 c 10,-1 14,5 14,5"
           id="path170" />
      </g>
    </g>
    <g
       inkscape:transform-center-y="-1.0037932"
       inkscape:transform-center-x="-5.9174604"
       transform="matrix(0.83249713,-0.2254738,0.20870239,0.88617309,-51.493297,55.618859)"
       id="g501">
      <g
         id="color-8">
        <path
           inkscape:connector-curvature="0"
           fill="#b1cc33"
           stroke="none"
           d="m 15.3906,65 0.7657,0.543 c 0.5126,0.4072 1.1523,0.6601 1.8574,0.6601 1.1484,0 2.1347,-0.6523 2.6386,-1.6006 0.8516,1.543 2.0977,-0.665 5.3165,-1.8525 0.2841,0.5352 1.3476,1.5547 4.1982,2.7822 l 0.456,-0.8808 c 0.003,0.0019 0.3877,0.1757 0.5918,0.2314 0.0313,0.0088 0.0616,0.0205 0.0928,0.0283 C 31.5313,64.9648 31.7617,65 32.002,65 c 0.1826,0 0.3593,-0.0225 0.5332,-0.0537 0.0537,-0.0098 0.1054,-0.0215 0.1582,-0.0342 0.124,-0.0293 0.2441,-0.0674 0.3623,-0.1123 0.0498,-0.0185 0.1015,-0.0342 0.1513,-0.0557 0.1328,-0.0586 0.2588,-0.1289 0.3809,-0.207 0.085,-0.0527 0.1631,-0.1123 0.2422,-0.1728 0.0371,-0.0303 0.0742,-0.0606 0.1103,-0.0918 0.2862,-0.2442 0.5225,-0.5381 0.7002,-0.8731 v 0 c 0,0 0,10e-4 10e-4,10e-4 0.2998,0.543 0.6924,1.0195 1.165,1.416 0.0538,0.0459 0.1084,0.0918 0.1641,0.1357 0.1328,0.1016 0.2666,0.2002 0.4092,0.2881 0.1592,0.1006 0.3271,0.1885 0.498,0.2705 0.1201,0.0567 0.2403,0.1075 0.3653,0.1543 0.1982,0.0762 0.4013,0.1397 0.6113,0.1905 0.0869,0.0205 0.1738,0.039 0.2627,0.0556 C 38.4043,65.9629 38.6973,66 39,66 c 0,0 10e-4,0 0.002,0 v 0 c 9e-4,0 9e-4,0 9e-4,0 0.3047,0 0.5987,-0.0371 0.8877,-0.0898 0.086,-0.0157 0.1699,-0.0342 0.2549,-0.0538 0.2149,-0.0517 0.4238,-0.1162 0.627,-0.1953 0.1054,-0.04 0.2089,-0.08 0.3105,-0.1269 0.1885,-0.0889 0.3721,-0.1865 0.5479,-0.2979 0.1377,-0.0849 0.2656,-0.1797 0.3945,-0.2773 0.0625,-0.0498 0.123,-0.1006 0.1846,-0.1524 0.4638,-0.3916 0.8505,-0.8613 1.1474,-1.3964 0.002,-0.003 0.0039,-0.0069 0.0069,-0.0098 0.1787,0.3359 0.417,0.6318 0.705,0.876 0.0332,0.0293 0.0664,0.0566 0.1016,0.084 0.0811,0.0634 0.1611,0.124 0.248,0.1787 0.1202,0.0761 0.2461,0.1455 0.378,0.205 0.0508,0.0215 0.1035,0.0372 0.1562,0.0567 0.1153,0.0439 0.2344,0.081 0.3565,0.1113 0.0537,0.0127 0.1064,0.0244 0.1611,0.0342 C 45.6426,64.9775 45.8184,65 46,65 c 0,0 10e-4,0 0.002,0 v 0 c 9e-4,0 9e-4,0 9e-4,0 0.1836,0 0.3604,-0.0225 0.5342,-0.0537 0.0518,-0.0098 0.1016,-0.0215 0.1533,-0.0332 0.128,-0.0303 0.252,-0.0693 0.3731,-0.1162 0.0469,-0.0176 0.0947,-0.0313 0.1396,-0.0508 0.1358,-0.0606 0.2657,-0.1328 0.3897,-0.2119 0.0801,-0.0498 0.1533,-0.1055 0.2275,-0.1631 0.044,-0.0342 0.0879,-0.0703 0.1309,-0.1074 0.2763,-0.2383 0.5058,-0.5244 0.6806,-0.8487 0.003,-0.0048 0.0069,-0.0097 0.0088,-0.0146 0.3008,0.5439 0.6944,1.0215 1.168,1.417 0.0537,0.0459 0.1064,0.0908 0.1621,0.1347 0.1328,0.1016 0.2656,0.1993 0.4082,0.2881 0.1641,0.1026 0.3359,0.1934 0.5117,0.2774 0.1143,0.0537 0.2295,0.1015 0.3487,0.1465 0.1992,0.0771 0.4052,0.1406 0.6162,0.1914 0.0869,0.0205 0.1728,0.039 0.2607,0.0556 C 52.4033,65.9629 52.6963,66 53,66 c 0,0 10e-4,0 0.002,0 v 0 c 9e-4,0 9e-4,0 9e-4,0 0.3067,0 0.6045,-0.0371 0.8955,-0.0898 0.0625,-0.0118 0.1241,-0.0215 0.1856,-0.0352 0.2607,-0.0586 0.5137,-0.1367 0.7568,-0.2344 0.0899,-0.0361 0.1758,-0.0771 0.2637,-0.1181 0.167,-0.0791 0.3281,-0.167 0.4844,-0.2627 0.1591,-0.0967 0.3086,-0.2041 0.456,-0.3174 0.0908,-0.0713 0.1797,-0.1426 0.2656,-0.2197 0.2305,-0.2041 0.4375,-0.4288 0.627,-0.6719 0.0205,-0.0264 0.0449,-0.0508 0.0654,-0.0781 0.2393,0.1816 0.4893,0.3349 0.751,0.4677 0.0107,0.0059 0.0225,0.0117 0.0332,0.0176 0.249,0.124 0.5029,0.2246 0.7647,0.3037 0.0332,0.0098 0.0664,0.0196 0.0996,0.0293 0.2431,0.0684 0.4863,0.1192 0.7353,0.1504 0.0635,0.0078 0.126,0.0127 0.1895,0.0186 0.2246,0.0185 0.4463,0.0283 0.6709,0.0175 0.0967,-0.0048 0.1933,-0.0185 0.29,-0.0283 0.1943,-0.0205 0.3867,-0.0429 0.5781,-0.0859 0.1319,-0.0293 0.2598,-0.0752 0.3907,-0.1162 0.1562,-0.0489 0.3134,-0.0928 0.4658,-0.1582 0.1689,-0.0713 0.3271,-0.166 0.4892,-0.2569 0.1094,-0.0625 0.2237,-0.1123 0.3291,-0.1836 0.2637,-0.1767 0.5166,-0.3789 0.75,-0.6123 1.9522,-1.9531 1.9512,-5.1191 -9e-4,-7.0713 -0.2471,-0.247 -0.5137,-0.4609 -0.794,-0.6455 0.2041,-0.1494 0.4082,-0.2998 0.5928,-0.4843 1.708,-1.709 1.9209,-4.3467 0.6396,-6.2871 -0.1836,-0.2774 -0.3964,-0.5401 -0.6406,-0.7842 -0.2148,-0.2149 -0.4482,-0.3965 -0.6894,-0.5635 -0.0733,-0.0508 -0.1485,-0.0986 -0.2237,-0.1455 -0.1855,-0.1133 -0.3759,-0.2129 -0.5713,-0.2998 -0.1123,-0.0508 -0.2246,-0.0986 -0.3408,-0.1406 -0.1875,-0.0674 -0.3769,-0.125 -0.5703,-0.169 -0.1601,-0.0381 -0.3203,-0.0625 -0.4834,-0.084 -0.0762,-0.0088 -0.1514,-0.0156 -0.2275,-0.0215 -0.6075,-0.0517 -1.2159,0.0059 -1.8057,0.1748 -0.0029,10e-4 -0.0068,0.002 -0.0107,0.003 0.1552,-0.5088 0.1767,-1.0459 0.0566,-1.5615 -0.0049,-0.0196 -0.0127,-0.0381 -0.0176,-0.0586 -0.0547,-0.2129 -0.1347,-0.418 -0.2363,-0.6172 -0.0264,-0.0518 -0.0518,-0.1026 -0.0811,-0.1533 -0.1269,-0.2149 -0.2714,-0.4219 -0.456,-0.6065 0,0 0,0 -10e-4,-10e-4 v 0 c -10e-4,-9e-4 -0.0019,-9e-4 -0.0029,-0.0019 -0.1826,-0.1826 -0.3877,-0.3262 -0.6006,-0.4522 -0.0527,-0.0302 -0.1055,-0.0566 -0.1592,-0.084 -0.1963,-0.0996 -0.3984,-0.1787 -0.6084,-0.2324 -0.0224,-0.0058 -0.0439,-0.0146 -0.0664,-0.0195 -0.5137,-0.1201 -1.0478,-0.0977 -1.5547,0.0557 -0.001,9e-4 -0.0029,9e-4 -0.0039,9e-4 0.1729,-0.5966 0.2315,-1.2119 0.1778,-1.8261 -0.0059,-0.0713 -0.0118,-0.1416 -0.0206,-0.212 -0.0214,-0.166 -0.0468,-0.3281 -0.0849,-0.4912 -0.043,-0.1914 -0.1006,-0.3789 -0.167,-0.5654 -0.042,-0.1152 -0.0889,-0.2275 -0.1397,-0.3398 -0.0878,-0.1973 -0.1884,-0.3897 -0.3037,-0.5762 -0.0459,-0.0752 -0.0918,-0.1475 -0.1425,-0.2207 -0.1661,-0.2402 -0.3477,-0.4736 -0.5625,-0.6885 -0.001,0 -0.001,-10e-4 -0.002,-0.0019 v 0 c -10e-4,-10e-4 -10e-4,-10e-4 -10e-4,-10e-4 -0.2148,-0.2149 -0.4492,-0.3975 -0.6904,-0.5635 -0.0684,-0.0478 -0.1377,-0.0928 -0.208,-0.1367 -0.1983,-0.1221 -0.4014,-0.2305 -0.6104,-0.3213 -0.1367,-0.0605 -0.2744,-0.1084 -0.415,-0.1563 -0.1397,-0.0468 -0.2793,-0.0917 -0.4219,-0.125 -0.1709,-0.0419 -0.3418,-0.0732 -0.5166,-0.0966 -0.0263,-0.003 -0.0537,-0.0049 -0.0801,-0.0078 -0.664,-0.0791 -1.333,-0.0235 -1.9785,0.163 0.2344,-0.7695 0.1543,-1.6074 -0.2431,-2.3242 -0.0186,-0.0332 -0.0332,-0.0664 -0.0528,-0.0986 -0.122,-0.2031 -0.2627,-0.3984 -0.4384,-0.5742 0,0 0,0 -0.001,-0.001 v 0 c -0.0742,-0.0742 0.2832,-1.0205 0.2002,-1.0791 -0.792,-0.6445 -1.7969,-0.7012 -2.7598,-0.5391 -11.1133,1.8692 -9.3223,-7.6006 -9.0117,-8.6279 0.2851,-0.9434 -0.2656,-3.5757 -0.876,-4.729 l -0.7285,-0.1899 c -0.0322,-0.0616 -0.165,0.6923 -0.1992,0.6318 -0.0694,-0.1172 -0.1358,-0.2344 -0.2158,-0.3477 -0.1622,-0.2363 -0.3399,-0.4648 -0.5508,-0.6757 -0.2168,-0.2168 -0.4532,-0.3995 -0.6963,-0.5674 -0.0684,-0.0479 -0.1377,-0.0918 -0.208,-0.1358 -0.1934,-0.1191 -0.3916,-0.2236 -0.5967,-0.3134 -0.0918,-0.0411 -0.1826,-0.0821 -0.2764,-0.1172 -0.2041,-0.0762 -0.4121,-0.1377 -0.624,-0.1856 -0.1553,-0.0361 -0.3105,-0.0596 -0.4678,-0.081 -0.083,-0.0098 -0.166,-0.0166 -0.249,-0.0235 -0.6035,-0.0508 -1.208,0.0088 -1.7939,0.1768 -0.003,0.001 -0.0069,0.001 -0.0098,0.0019 0.1553,-0.5078 0.1777,-1.0439 0.0566,-1.5595 -0.0048,-0.0215 -0.0136,-0.042 -0.0195,-0.0645 -0.0537,-0.209 -0.1318,-0.4111 -0.2324,-0.6074 -0.0274,-0.0547 -0.0537,-0.1084 -0.085,-0.1621 -0.124,-0.209 -0.2656,-0.4102 -0.4453,-0.5908 -0.0029,-0.0039 -0.0049,-0.0088 -0.0088,-0.0127 -0.0049,-0.0049 -0.0107,-0.0069 -0.0146,-0.0118 -0.1797,-0.1767 -0.3789,-0.3183 -0.5869,-0.4404 -0.0547,-0.0332 -0.1114,-0.0605 -0.168,-0.0888 -0.1914,-0.0967 -0.3887,-0.1739 -0.5918,-0.2266 -0.0283,-0.0068 -0.0537,-0.0176 -0.082,-0.0244 -0.5098,-0.1182 -1.0401,-0.0957 -1.543,0.0556 -0.0039,10e-4 -0.0078,10e-4 -0.0117,0.002 C 25.4746,11.8955 25.0742,10 23.7402,8.666 21.7871,6.7129 18.6211,6.7129 16.6699,8.666 16.4844,8.8506 16.335,9.0537 16.1846,9.2588 16,8.9775 15.7861,8.7119 15.5391,8.4648 14.5625,7.4883 13.2832,7 12.0029,7 10.7236,7 9.4443,7.4883 8.4688,8.4648 8.2344,8.6992 8.0322,8.9521 7.8555,9.2158 7.7881,9.3164 7.7402,9.4248 7.6807,9.5283 c -0.0948,0.167 -0.1924,0.333 -0.2676,0.5088 -0.0615,0.1445 -0.1026,0.293 -0.1494,0.4424 -0.044,0.1387 -0.0928,0.2754 -0.1241,0.416 -0.041,0.1826 -0.0625,0.3662 -0.083,0.5518 -0.0107,0.1064 -0.0263,0.2119 -0.0302,0.3193 -0.0108,0.2148 -10e-4,0.4287 0.0166,0.6436 0.0068,0.0732 0.0117,0.1455 0.0205,0.2177 0.0303,0.2403 0.0801,0.4756 0.1455,0.711 0.0117,0.042 0.0244,0.083 0.0371,0.125 0.0771,0.2539 0.1748,0.5 0.2939,0.7412 0.0098,0.0195 0.0205,0.039 0.0313,0.0586 0.1289,0.2539 0.2783,0.497 0.4541,0.7295 0.001,0.0019 0.0019,0.0048 0.0039,0.0068 -0.2764,0.2061 -0.5273,0.4404 -0.7559,0.6973 -0.0713,0.08 -0.1377,0.164 -0.2041,0.249 -0.1201,0.1533 -0.2314,0.3105 -0.333,0.4785 -0.0927,0.1514 -0.1777,0.3066 -0.2539,0.4678 -0.0429,0.0908 -0.0849,0.1787 -0.122,0.2715 C 6.2637,17.4063 6.1855,17.6572 6.127,17.916 6.1133,17.9785 6.1035,18.043 6.0918,18.1064 6.0391,18.3965 6.002,18.6934 6.002,19 c 0,0.3037 0.0371,0.5977 0.0888,0.8857 0.0166,0.0889 0.0352,0.1748 0.0557,0.2608 0.0508,0.2099 0.1142,0.414 0.1904,0.6133 0.0469,0.124 0.0986,0.2451 0.1543,0.3652 0.082,0.1699 0.1699,0.3369 0.2695,0.4961 0.0899,0.1445 0.1885,0.2793 0.292,0.4131 0.042,0.0537 0.085,0.1054 0.1289,0.1572 0.3975,0.4746 0.876,0.8691 1.4209,1.1699 C 8.2656,23.541 7.9688,23.7793 7.7236,24.0684 7.6963,24.1006 7.6699,24.1328 7.6445,24.166 7.5801,24.2471 7.5176,24.3291 7.4629,24.418 7.3867,24.5381 7.3174,24.6631 7.2588,24.7939 7.2363,24.8447 7.2207,24.8994 7.2002,24.9521 7.1563,25.0674 7.1191,25.1855 7.0898,25.3076 7.0771,25.3604 7.0654,25.4141 7.0557,25.4678 7.0234,25.6406 7.002,25.8174 7.002,26 c 0,0.1826 0.0214,0.3594 0.0537,0.5322 0.0097,0.0537 0.0214,0.1074 0.0341,0.1602 0.0293,0.1221 0.0665,0.2402 0.1104,0.3555 0.0205,0.0527 0.0361,0.1074 0.0586,0.1582 0.0586,0.1308 0.1279,0.2558 0.2041,0.3759 0.0547,0.0889 0.1172,0.1709 0.1816,0.252 0.0254,0.0332 0.0518,0.0654 0.0791,0.0976 0.2452,0.2891 0.542,0.5274 0.8789,0.7071 -1.0937,0.6035 -1.7314,1.0761 -2.1337,2.2734 -0.0215,0.0625 -0.9346,-0.4287 -0.9532,-0.3652 -0.1279,0.4375 -0.1963,0.9004 -0.1963,1.3808 0,1.8877 1.6377,5.2207 3.1807,6.0723 -0.6797,0.3613 0.5068,0.791 0.2344,2.2188 -0.1074,0.5644 -1.8281,2.4531 -1.8281,2.4531 0,0 1.4707,0.0976 1.3623,0.1689 C 7.6475,43.248 7.123,43.7861 6.7363,44.4248 6.6387,44.582 6.5508,44.7451 6.4717,44.9121 6.4238,45.0166 6.3809,45.1211 6.3408,45.2285 6.251,45.459 6.1738,45.6953 6.1191,45.9414 6.1084,45.9912 6.1025,46.042 6.0938,46.0928 6.0381,46.3867 6.002,46.6885 6.002,47 c 0,0.3047 0.0371,0.5986 0.0898,0.8867 0.0156,0.0879 0.0342,0.1729 0.0547,0.2588 0.0508,0.2119 0.1142,0.417 0.1914,0.6172 0.0449,0.1191 0.0937,0.2353 0.1475,0.3506 0.0839,0.1758 0.1738,0.3467 0.2763,0.5097 0.0889,0.1426 0.1875,0.2764 0.2901,0.4102 0.042,0.0547 0.0869,0.1074 0.1318,0.1602 0.3965,0.4736 0.875,0.8671 1.4189,1.1679 C 8.2656,51.541 7.9688,51.7793 7.7236,52.0684 7.6963,52.1006 7.6699,52.1328 7.6445,52.166 7.5801,52.2471 7.5176,52.3291 7.4629,52.418 7.3867,52.5381 7.3174,52.6631 7.2588,52.7939 7.2363,52.8447 7.2207,52.8994 7.2002,52.9521 7.1563,53.0674 7.1191,53.1855 7.0898,53.3076 7.0771,53.3604 7.0654,53.4141 7.0557,53.4678 7.0234,53.6406 7.002,53.8174 7.002,54 c 0,0.1826 0.0214,0.3594 0.0537,0.5322 0.0097,0.0537 0.0214,0.1074 0.0341,0.1602 0.0293,0.1221 0.0665,0.2402 0.1104,0.3555 0.0205,0.0527 0.0361,0.1074 0.0586,0.1582 0.0586,0.1308 0.1279,0.2558 0.2041,0.3759 0.0547,0.0889 0.1172,0.1709 0.1816,0.252 0.0254,0.0332 0.0518,0.0654 0.0791,0.0976 0.2452,0.2891 0.542,0.5274 0.8799,0.7071 C 8.0586,56.9385 7.582,57.332 7.1855,57.8057 7.1396,57.8594 7.0938,57.9131 7.0508,57.9688 6.9492,58.1016 6.8506,58.2344 6.7627,58.377 6.6602,58.5391 6.5703,58.709 6.4873,58.8838 6.4326,59 6.3838,59.1172 6.3379,59.2383 6.2607,59.4375 6.1973,59.6426 6.1465,59.8545 6.126,59.9404 6.1074,60.0254 6.0918,60.1133 6.0391,60.4023 6.002,60.6953 6.002,61 c 0,0.3457 0.0351,0.6826 0.1015,1.0078 C 6.5703,64.2861 8.5859,66 11.002,66 c 0.3046,0 0.5986,-0.0371 0.8867,-0.0898 0.0879,-0.0157 0.1728,-0.0342 0.2578,-0.0547 0.2139,-0.0508 0.4209,-0.1153 0.6221,-0.1924 0.1113,-0.043 0.2207,-0.0869 0.3281,-0.1367 0.1836,-0.0869 0.3613,-0.1807 0.5312,-0.2881 0.1397,-0.0869 0.2705,-0.1826 0.4004,-0.2822 0.0596,-0.0469 0.1172,-0.0957 0.1748,-0.1456 C 14.6719,64.417 15.3906,65 15.3906,65"
           id="path436" />
        <path
           inkscape:connector-curvature="0"
           fill="#fcea2b"
           stroke="none"
           d="M 21.5479,65.2715 C 20.6064,65.6465 19.54,65.1895 19.165,64.248 L 18.6836,63.2139 17.7813,63.625 8.2813,39.8438 9.25,39.5566 7.9365,36.1465 C 7.5605,35.2031 8.0176,34.1367 8.959,33.7598 v 0 L 8.7939,32.75 l 23.6856,-9.437 0.418,0.9199 4.166,-1.7002 c 0.9424,-0.3745 2.0068,0.083 2.3847,1.0254 l 4.7657,11.9907 0.9521,-0.2256 5.6289,14.0909 c 0.376,0.9414 -0.2041,4.2539 -1.1445,4.6308 L 27.6875,64.1406 27.3164,63.2139 Z"
           id="path438" />
        <path
           inkscape:connector-curvature="0"
           fill="#f4aa41"
           stroke="none"
           d="M 59.6826,55.6826 58.3174,54.3174 17.6836,13.6836 16.3164,12.3164 C 15.918,12.1201 15.4746,12 15,12 c -1.6562,0 -3,1.3438 -3,3 v 43 c 0,1.1045 0.8965,2 2,2 h 43 c 1.6563,0 3,-1.3437 3,-3 0,-0.4746 -0.1201,-0.918 -0.3174,-1.3174 z"
           id="path440" />
      </g>
      <g
         id="hair-3" />
      <g
         id="skin-9" />
      <g
         id="skin-shadow-0" />
      <g
         id="line-5">
        <path
           inkscape:connector-curvature="0"
           fill="none"
           stroke="#000000"
           stroke-linecap="round"
           stroke-linejoin="round"
           stroke-miterlimit="10"
           stroke-width="2"
           d="M 59.6826,55.6826 58.3174,54.3174 17.6836,13.6836 16.3164,12.3164 C 15.918,12.1201 15.4746,12 15,12 c -1.6562,0 -3,1.3438 -3,3 v 43 c 0,1.1045 0.8965,2 2,2 h 43 c 1.6563,0 3,-1.3437 3,-3 0,-0.4746 -0.1201,-0.918 -0.3174,-1.3174 z"
           id="path446" />
        <line
           x1="23"
           x2="33"
           y1="53"
           y2="43"
           fill="none"
           stroke="#000000"
           stroke-linecap="round"
           stroke-linejoin="round"
           stroke-miterlimit="10"
           stroke-width="2"
           id="line448" />
        <line
           x1="18"
           x2="28"
           y1="48"
           y2="38"
           fill="none"
           stroke="#000000"
           stroke-linecap="round"
           stroke-linejoin="round"
           stroke-miterlimit="10"
           stroke-width="2"
           id="line450" />
        <line
           x1="17"
           x2="24"
           y1="39"
           y2="32"
           fill="none"
           stroke="#000000"
           stroke-linecap="round"
           stroke-linejoin="round"
           stroke-miterlimit="10"
           stroke-width="2"
           id="line452" />
        <line
           x1="32"
           x2="39"
           y1="55"
           y2="48"
           fill="none"
           stroke="#000000"
           stroke-linecap="round"
           stroke-linejoin="round"
           stroke-miterlimit="10"
           stroke-width="2"
           id="line454" />
        <path
           inkscape:connector-curvature="0"
           fill="none"
           stroke="#000000"
           stroke-linecap="round"
           stroke-linejoin="round"
           stroke-miterlimit="10"
           stroke-width="2"
           d="M 34.5137,19.7676 C 34.2871,19.3359 33.998,18.9287 33.6348,18.5645 32.3008,17.2305 30.4063,16.8301 28.7129,17.3193 29.0273,16.293 28.791,15.1348 27.9785,14.3223 27.166,13.5098 26.0078,13.2744 24.9824,13.5879 25.4707,11.8955 25.0703,10 23.7363,8.666 21.7832,6.7129 18.6191,6.7129 16.666,8.666 16.4824,8.8506 16.3301,9.0547 16.1816,9.2598 15.9961,8.9785 15.7813,8.7119 15.5352,8.4648 13.582,6.5117 10.416,6.5117 8.4648,8.4648 6.6777,10.252 6.5449,13.041 8.0273,15 6.8027,15.9111 6,17.3564 6,19 6,20.8867 7.0566,22.5098 8.5996,23.3613 7.6523,23.8652 7,24.8516 7,26 c 0,1.1484 0.6523,2.1348 1.5996,2.6387 -0.9297,0.5136 -1.6777,1.3105 -2.1308,2.2734"
           id="path456" />
        <path
           inkscape:connector-curvature="0"
           fill="none"
           stroke="#000000"
           stroke-linecap="round"
           stroke-linejoin="round"
           stroke-miterlimit="10"
           stroke-width="2"
           d="m 48.5566,36.8574 c 0.2032,-0.958 -0.0351,-1.9912 -0.7793,-2.7363 -0.1347,-0.1348 -0.289,-0.2295 -0.4414,-0.332"
           id="path458" />
        <path
           inkscape:connector-curvature="0"
           fill="none"
           stroke="#000000"
           stroke-linecap="round"
           stroke-linejoin="round"
           stroke-miterlimit="10"
           stroke-width="2"
           d="M 7.7559,43.2363 C 6.6875,44.1484 6,45.4844 6,47 6,48.8877 7.0566,50.5098 8.5996,51.3613 7.6523,51.8652 7,52.8516 7,54 7,55.1484 7.6523,56.1348 8.5996,56.6387 7.0566,57.4902 6,59.1133 6,61 c 0,2.7617 2.2383,5 5,5 1.8867,0 3.5098,-1.0576 4.3613,-2.6006 0.1934,0.3662 0.4629,0.6865 0.7832,0.9444"
           id="path460" />
        <path
           inkscape:connector-curvature="0"
           fill="none"
           stroke="#000000"
           stroke-linecap="round"
           stroke-linejoin="round"
           stroke-miterlimit="10"
           stroke-width="2"
           d="M 30.6191,64.6514 C 31.0313,64.8701 31.498,65 32,65 33.1484,65 34.1348,64.3477 34.6387,63.3994 35.4883,64.9424 37.1133,66 39,66 40.8867,66 42.5098,64.9424 43.3613,63.3994 43.8652,64.3477 44.8516,65 46,65 47.1484,65 48.1348,64.3477 48.6387,63.3994 49.4902,64.9424 51.1113,66 53,66 c 1.6426,0 3.0879,-0.8037 4,-2.0273 1.959,1.4814 4.75,1.3496 6.5371,-0.4366 1.9512,-1.9531 1.9512,-5.1191 -0.0019,-7.0713 -0.2461,-0.247 -0.5137,-0.4619 -0.795,-0.6464 0.2051,-0.1495 0.4102,-0.2998 0.5938,-0.4844 1.9531,-1.9531 1.9512,-5.1192 0,-7.0703 -1.336,-1.335 -3.2305,-1.7344 -4.9238,-1.2461 0.3144,-1.0264 0.0781,-2.1856 -0.7344,-2.9981 -0.8106,-0.8105 -1.9707,-1.0468 -2.9961,-0.7334 0.4883,-1.6933 0.0898,-3.5879 -1.2461,-4.9228 -1.2988,-1.2998 -3.1289,-1.7061 -4.7852,-1.2754"
           id="path462" />
        <path
           inkscape:connector-curvature="0"
           fill="none"
           stroke="#000000"
           stroke-linecap="round"
           stroke-linejoin="round"
           stroke-miterlimit="10"
           stroke-width="2"
           d="m 39.4482,23.5581 4.7657,11.9907 v 0 L 39.4482,23.5571 c -0.2753,-0.6894 -0.9296,-1.1152 -1.6289,-1.1299 0.6993,0.0157 1.3536,0.4405 1.6289,1.1309 z"
           id="path464" />
        <path
           inkscape:connector-curvature="0"
           fill="none"
           stroke="#000000"
           stroke-linecap="round"
           stroke-linejoin="round"
           stroke-miterlimit="10"
           stroke-width="2"
           d="m 32.8975,24.2329 4.2207,-1.6777 c 0.2304,-0.0918 0.4687,-0.1328 0.7011,-0.128 0.6993,0.0157 1.3536,0.4405 1.6289,1.1309 l 4.7657,11.9907"
           id="path466" />
        <path
           inkscape:connector-curvature="0"
           fill="none"
           stroke="#000000"
           stroke-linecap="round"
           stroke-linejoin="round"
           stroke-miterlimit="10"
           stroke-width="2"
           d="m 18.6836,63.2139 0.5156,1.2968 c 0.3653,0.92 1.4072,1.3672 2.3281,1.0039 l 5.7891,-2.3007"
           id="path468" />
        <path
           inkscape:connector-curvature="0"
           fill="none"
           stroke="#000000"
           stroke-linecap="round"
           stroke-linejoin="round"
           stroke-miterlimit="10"
           stroke-width="2"
           d="m 9.25,33.625 -0.3691,0.1465 c -0.92,0.3672 -1.3692,1.4082 -1.0039,2.3301 l 1.373,3.455"
           id="path470" />
      </g>
    </g>
    <g
       transform="matrix(0.87127232,0,0,0.94799544,11.271827,50.287017)"
       id="g434">
      <g
         id="color-0">
        <path
           inkscape:connector-curvature="0"
           fill="#a57939"
           stroke="none"
           d="m 64,36 c 0.001,-1.9424 -0.5752,-3.7461 -1.5576,-5.2627 0.3262,-1.7754 0.168,-3.6606 -0.5742,-5.4526 C 61.126,23.4912 59.9033,22.0444 58.416,21.0195 58.0381,19.2544 57.1709,17.5732 55.7979,16.2017 54.4268,14.8281 52.7432,13.96 50.9775,13.582 49.9531,12.0962 48.5078,10.875 46.7158,10.1323 44.9219,9.3892 43.0352,9.2305 41.2588,9.5566 39.7422,8.5757 37.9404,8 35.999,8 34.0586,8 32.2549,8.5762 30.7393,9.5576 28.9629,9.231 27.0771,9.3892 25.2842,10.1313 c -1.793,0.7432 -3.2393,1.9654 -4.2637,3.4532 -1.7656,0.3779 -3.4473,1.2451 -4.8203,2.6172 -1.3721,1.3725 -2.2402,3.0551 -2.6172,4.8217 -1.4873,1.0245 -2.709,2.4693 -3.4531,4.2622 C 9.3877,27.0791 9.2295,28.9663 9.5576,30.7432 8.5762,32.2598 8.001,34.0615 8,36.002 c 0,1.9414 0.5771,3.7451 1.5586,5.2617 -0.3252,1.7754 -0.168,3.6611 0.5732,5.4531 0.7442,1.793 1.9668,3.2402 3.4551,4.2646 0.377,1.7647 1.2442,3.4463 2.6152,4.8194 1.3731,1.373 3.0567,2.2402 4.8223,2.6172 1.0254,1.4863 2.4697,2.709 4.2617,3.4511 1.794,0.7432 3.6807,0.9004 5.4571,0.5743 1.5156,0.9804 3.3183,1.5566 5.2597,1.5566 1.9405,0 3.7442,-0.5762 5.2598,-1.5576 1.7754,0.3262 3.6621,0.168 5.4551,-0.5733 1.792,-0.7441 3.2392,-1.9658 4.2636,-3.4541 1.7657,-0.3779 3.4473,-1.2451 4.8184,-2.6162 1.374,-1.373 2.2422,-3.0566 2.6191,-4.8232 1.4864,-1.0244 2.7071,-2.4697 3.4502,-4.2608 0.7432,-1.7939 0.9014,-3.6816 0.5752,-5.458 C 63.4248,39.7402 63.999,37.9395 64,36 Z"
           id="path369" />
        <circle
           cx="19"
           cy="35"
           r="2"
           fill="#6A462F"
           stroke="none"
           stroke-linecap="round"
           stroke-linejoin="round"
           stroke-miterlimit="10"
           stroke-width="1.9394"
           id="circle371" />
        <circle
           cx="32"
           cy="41"
           r="2"
           fill="#6A462F"
           stroke="none"
           stroke-linecap="round"
           stroke-linejoin="round"
           stroke-miterlimit="10"
           stroke-width="1.9394"
           id="circle373" />
        <circle
           cx="30"
           cy="51"
           r="2"
           fill="#6A462F"
           stroke="none"
           stroke-linecap="round"
           stroke-linejoin="round"
           stroke-miterlimit="10"
           stroke-width="1.9394"
           id="circle375" />
        <circle
           cx="46"
           cy="51"
           r="2"
           fill="#6A462F"
           stroke="none"
           stroke-linecap="round"
           stroke-linejoin="round"
           stroke-miterlimit="10"
           stroke-width="1.9394"
           id="circle377" />
        <circle
           cx="52"
           cy="36"
           r="2"
           fill="#6A462F"
           stroke="none"
           stroke-linecap="round"
           stroke-linejoin="round"
           stroke-miterlimit="10"
           stroke-width="1.9394"
           id="circle379" />
        <circle
           cx="48"
           cy="21"
           r="2"
           fill="#6A462F"
           stroke="none"
           stroke-linecap="round"
           stroke-linejoin="round"
           stroke-miterlimit="10"
           stroke-width="1.9394"
           id="circle381" />
        <circle
           cx="32"
           cy="22"
           r="2"
           fill="#6A462F"
           stroke="none"
           stroke-linecap="round"
           stroke-linejoin="round"
           stroke-miterlimit="10"
           stroke-width="1.9394"
           id="circle383" />
      </g>
      <g
         id="hair" />
      <g
         id="skin" />
      <g
         id="skin-shadow" />
      <g
         id="line-2">
        <path
           inkscape:connector-curvature="0"
           fill="none"
           stroke="#000000"
           stroke-linecap="round"
           stroke-linejoin="round"
           stroke-miterlimit="10"
           stroke-width="1.9394"
           d="m 64,35.875 c 0.001,-1.9414 -0.5752,-3.7461 -1.5576,-5.2617 0.3262,-1.7759 0.168,-3.6612 -0.5742,-5.4531 C 61.126,23.3667 59.9033,21.9199 58.416,20.895 58.0381,19.1299 57.1709,17.4487 55.7979,16.0771 54.4268,14.7036 52.7432,13.8354 50.9775,13.4575 49.9531,11.9717 48.5078,10.7505 46.7158,10.0078 44.9219,9.2646 43.0352,9.106 41.2588,9.4321 39.7422,8.4512 37.9404,7.8755 35.999,7.8755 c -1.9404,0 -3.7441,0.5762 -5.2597,1.5576 -1.7764,-0.3267 -3.6622,-0.1685 -5.4551,0.5737 -1.793,0.7432 -3.2393,1.9654 -4.2637,3.4532 -1.7656,0.3779 -3.4473,1.2451 -4.8203,2.6171 -1.3721,1.3726 -2.2402,3.0552 -2.6172,4.8218 -1.4873,1.0244 -2.709,2.4693 -3.4531,4.2622 -0.7422,1.7935 -0.9004,3.6807 -0.5723,5.458 C 8.5762,32.1348 8.001,33.9375 8,35.877 c 0,1.9414 0.5771,3.746 1.5586,5.2617 -0.3252,1.7754 -0.168,3.6621 0.5732,5.4531 0.7442,1.793 1.9668,3.2402 3.4551,4.2656 0.377,1.7647 1.2442,3.4463 2.6152,4.8184 1.3731,1.373 3.0567,2.2402 4.8223,2.6181 1.0254,1.4854 2.4697,2.7081 4.2617,3.4512 1.794,0.7432 3.6807,0.9004 5.4571,0.5733 1.5156,0.9804 3.3183,1.5566 5.2597,1.5566 1.9405,0 3.7442,-0.5762 5.2598,-1.5566 1.7754,0.3261 3.6621,0.1679 5.4551,-0.5743 1.792,-0.7431 3.2392,-1.9648 4.2636,-3.4531 1.7657,-0.3779 3.4473,-1.2451 4.8184,-2.6172 1.374,-1.373 2.2422,-3.0556 2.6191,-4.8222 1.4864,-1.0254 2.7071,-2.4698 3.4502,-4.2618 0.7432,-1.7929 0.9014,-3.6806 0.5752,-5.457 C 63.4248,39.6162 63.999,37.8145 64,35.875 Z"
           id="path389" />
        <circle
           cx="19"
           cy="35"
           r="2"
           fill="none"
           stroke="#000000"
           stroke-linecap="round"
           stroke-linejoin="round"
           stroke-miterlimit="10"
           stroke-width="1.9394"
           id="circle391" />
        <circle
           cx="32"
           cy="41"
           r="2"
           fill="none"
           stroke="#000000"
           stroke-linecap="round"
           stroke-linejoin="round"
           stroke-miterlimit="10"
           stroke-width="1.9394"
           id="circle393" />
        <circle
           cx="30"
           cy="51"
           r="2"
           fill="none"
           stroke="#000000"
           stroke-linecap="round"
           stroke-linejoin="round"
           stroke-miterlimit="10"
           stroke-width="1.9394"
           id="circle395" />
        <circle
           cx="46"
           cy="51"
           r="2"
           fill="none"
           stroke="#000000"
           stroke-linecap="round"
           stroke-linejoin="round"
           stroke-miterlimit="10"
           stroke-width="1.9394"
           id="circle397" />
        <circle
           cx="52"
           cy="36"
           r="2"
           fill="none"
           stroke="#000000"
           stroke-linecap="round"
           stroke-linejoin="round"
           stroke-miterlimit="10"
           stroke-width="1.9394"
           id="circle399" />
        <circle
           cx="48"
           cy="21"
           r="2"
           fill="none"
           stroke="#000000"
           stroke-linecap="round"
           stroke-linejoin="round"
           stroke-miterlimit="10"
           stroke-width="1.9394"
           id="circle401" />
        <circle
           cx="32"
           cy="22"
           r="2"
           fill="none"
           stroke="#000000"
           stroke-linecap="round"
           stroke-linejoin="round"
           stroke-miterlimit="10"
           stroke-width="1.9394"
           id="circle403" />
      </g>
    </g>
  </g>
  <g
     transform="matrix(0.76601671,0,0,0.76601671,9.7566456,6.996629)"
     id="g1328">
    <g
       id="color-82">
      <circle
         cx="35.958"
         cy="35.990101"
         r="23"
         fill="#FFFFFF"
         stroke="none"
         stroke-linecap="round"
         stroke-linejoin="round"
         stroke-miterlimit="10"
         stroke-width="2"
         id="circle1293" />
      <line
         x1="36"
         x2="36"
         y1="18.9893"
         y2="35.9893"
         fill="#FFFFFF"
         stroke="none"
         stroke-linecap="round"
         stroke-linejoin="round"
         stroke-miterlimit="10"
         stroke-width="2"
         id="line1295" />
      <line
         x1="35.899399"
         x2="30.399401"
         y1="35.966499"
         y2="26.440201"
         fill="#FFFFFF"
         stroke="none"
         stroke-linecap="round"
         stroke-linejoin="round"
         stroke-miterlimit="10"
         stroke-width="2"
         id="line1297" />
    </g>
    <g
       id="hair-0" />
    <g
       id="skin-7" />
    <g
       id="skin-shadow-4" />
    <g
       id="line-8">
      <circle
         cx="35.958"
         cy="35.990101"
         r="23"
         fill="none"
         stroke="#000000"
         stroke-linecap="round"
         stroke-linejoin="round"
         stroke-miterlimit="10"
         stroke-width="2"
         id="circle1303" />
      <line
         x1="36"
         x2="36"
         y1="18.9893"
         y2="35.9893"
         fill="none"
         stroke="#000000"
         stroke-linecap="round"
         stroke-linejoin="round"
         stroke-miterlimit="10"
         stroke-width="2"
         id="line1305" />
      <line
         x1="35.899399"
         x2="30.399401"
         y1="35.966499"
         y2="26.440201"
         fill="none"
         stroke="#000000"
         stroke-linecap="round"
         stroke-linejoin="round"
         stroke-miterlimit="10"
         stroke-width="2"
         id="line1307" />
    </g>
  </g>
</svg>
