<?xml version="1.0" encoding="UTF-8" standalone="no"?>
<svg
   xmlns:dc="http://purl.org/dc/elements/1.1/"
   xmlns:cc="http://creativecommons.org/ns#"
   xmlns:rdf="http://www.w3.org/1999/02/22-rdf-syntax-ns#"
   xmlns:svg="http://www.w3.org/2000/svg"
   xmlns="http://www.w3.org/2000/svg"
   xmlns:sodipodi="http://sodipodi.sourceforge.net/DTD/sodipodi-0.dtd"
   xmlns:inkscape="http://www.inkscape.org/namespaces/inkscape"
   inkscape:version="1.0beta2 (2b71d25, 2019-12-03)"
   sodipodi:docname="bedClock.svg"
   version="1.1"
   viewBox="0 0 72 72"
   id="emoji">
  <metadata
     id="metadata44">
    <rdf:RDF>
      <cc:Work
         rdf:about="">
        <dc:format>image/svg+xml</dc:format>
        <dc:type
           rdf:resource="http://purl.org/dc/dcmitype/StillImage" />
        <dc:title></dc:title>
      </cc:Work>
    </rdf:RDF>
  </metadata>
  <defs
     id="defs42" />
  <sodipodi:namedview
     inkscape:current-layer="emoji"
     inkscape:window-maximized="0"
     inkscape:window-y="122"
     inkscape:window-x="137"
     inkscape:cy="36"
     inkscape:cx="36"
     inkscape:zoom="9.0555556"
     showgrid="false"
     id="namedview40"
     inkscape:window-height="818"
     inkscape:window-width="1086"
     inkscape:pageshadow="2"
     inkscape:pageopacity="0"
     guidetolerance="10"
     gridtolerance="10"
     objecttolerance="10"
     borderopacity="1"
     inkscape:document-rotation="0"
     bordercolor="#666666"
     pagecolor="#ffffff" />
  <g
     transform="matrix(0.7285276,0,0,0.7285276,20.404831,-4.6860399)"
     id="g97">
    <g
       id="color-3">
      <circle
         cx="35.958"
         cy="35.990101"
         r="23"
         fill="#FFFFFF"
         stroke="none"
         stroke-linecap="round"
         stroke-linejoin="round"
         stroke-miterlimit="10"
         stroke-width="2"
         id="circle62" />
      <line
         x1="36"
         x2="36"
         y1="18.9893"
         y2="35.9893"
         fill="#FFFFFF"
         stroke="none"
         stroke-linecap="round"
         stroke-linejoin="round"
         stroke-miterlimit="10"
         stroke-width="2"
         id="line64" />
      <line
         x1="35.899399"
         x2="30.399401"
         y1="35.966499"
         y2="26.440201"
         fill="#FFFFFF"
         stroke="none"
         stroke-linecap="round"
         stroke-linejoin="round"
         stroke-miterlimit="10"
         stroke-width="2"
         id="line66" />
    </g>
    <g
       id="hair-9" />
    <g
       id="skin-0" />
    <g
       id="skin-shadow-5" />
    <g
       id="line-2">
      <circle
         cx="35.958"
         cy="35.990101"
         r="23"
         fill="none"
         stroke="#000000"
         stroke-linecap="round"
         stroke-linejoin="round"
         stroke-miterlimit="10"
         stroke-width="2"
         id="circle72" />
      <line
         x1="36"
         x2="36"
         y1="18.9893"
         y2="35.9893"
         fill="none"
         stroke="#000000"
         stroke-linecap="round"
         stroke-linejoin="round"
         stroke-miterlimit="10"
         stroke-width="2"
         id="line74" />
      <line
         x1="35.899399"
         x2="30.399401"
         y1="35.966499"
         y2="26.440201"
         fill="none"
         stroke="#000000"
         stroke-linecap="round"
         stroke-linejoin="round"
         stroke-miterlimit="10"
         stroke-width="2"
         id="line76" />
    </g>
  </g>
  <g
     id="hair" />
  <g
     id="skin" />
  <g
     id="skin-shadow" />
  <g
     transform="translate(-0.33128834,11.153374)"
     id="g60">
    <g
       id="color">
      <rect
         x="5"
         y="38"
         fill="#A57939"
         width="62"
         height="11"
         stroke="none"
         id="rect10" />
      <path
         inkscape:connector-curvature="0"
         fill="#D0CFCE"
         d="m 5,39 v -4 c 0,-1.6504 1.3496,-3 3,-3 h 56 c 1.6504,0 3,1.3496 3,3 v 4"
         stroke="none"
         id="path12" />
      <path
         inkscape:connector-curvature="0"
         fill="#FCEA2B"
         d="M 15.0762,25.6748 C 15.0264,25.458 15,25.2319 15,25 c 0,-1.6567 1.3438,-3 3,-3 1.6563,0 3,1.3433 3,3 0,0.3926 -0.0752,0.7676 -0.2129,1.1113"
         stroke="none"
         id="path14" />
      <path
         inkscape:connector-curvature="0"
         fill="#92D3F5"
         d="M 22,32 V 22 c 0,0 0.2109,-2.1055 2,-3 2,-1 6,0 9,-1 6.7891,-2.2632 12.5938,3.3564 17,6 5,3 7,4.8535 7,8"
         stroke="none"
         id="path16" />
      <path
         inkscape:connector-curvature="0"
         fill="#92D3F5"
         d="M 5.125,27.6875 C 5.125,27.6875 10,24 22,27 v 4 L 7,32 6.1875,33.25 5.125,31.625 5,28 Z"
         stroke="none"
         id="path18" />
    </g>
    <g
       id="line">
      <rect
         x="5"
         y="38.083"
         fill="none"
         stroke="#000000"
         stroke-width="2"
         stroke-linecap="round"
         stroke-linejoin="round"
         stroke-miterlimit="10"
         width="62"
         height="10.917"
         id="rect24" />
      <path
         inkscape:connector-curvature="0"
         fill="none"
         stroke="#000000"
         stroke-width="2"
         stroke-linecap="round"
         stroke-linejoin="round"
         stroke-miterlimit="10"
         d="m 5,39 v -4 c 0,-1.6504 1.3496,-3 3,-3 h 56 c 1.6504,0 3,1.3496 3,3 v 4"
         id="path26" />
      <line
         fill="none"
         stroke="#000000"
         stroke-width="2"
         stroke-linecap="round"
         stroke-linejoin="round"
         stroke-miterlimit="10"
         x1="5"
         y1="55"
         x2="5"
         y2="17"
         id="line28" />
      <line
         fill="none"
         stroke="#000000"
         stroke-width="2"
         stroke-linecap="round"
         stroke-linejoin="round"
         stroke-miterlimit="10"
         x1="67"
         y1="27"
         x2="67"
         y2="55"
         id="line30" />
      <path
         inkscape:connector-curvature="0"
         fill="none"
         stroke="#000000"
         stroke-width="2"
         stroke-linecap="round"
         stroke-linejoin="round"
         stroke-miterlimit="10"
         d="M 15.0762,25.6748 C 15.0264,25.458 15,25.2319 15,25 c 0,-1.6567 1.3438,-3 3,-3 1.6563,0 3,1.3433 3,3 0,0.3926 -0.0752,0.7676 -0.2129,1.1113"
         id="path32" />
      <path
         inkscape:connector-curvature="0"
         fill="none"
         stroke="#000000"
         stroke-width="2"
         stroke-linecap="round"
         stroke-linejoin="round"
         stroke-miterlimit="10"
         d="M 22,32 V 22 c 0,0 0.2109,-2.1055 2,-3 2,-1 6,0 9,-1 6.7891,-2.2632 12.5938,3.3564 17,6 5,3 7,4.8535 7,8"
         id="path34" />
      <path
         inkscape:connector-curvature="0"
         fill="none"
         stroke="#000000"
         stroke-width="2"
         stroke-linecap="round"
         stroke-linejoin="round"
         stroke-miterlimit="10"
         d="M 5.042,27.9175 C 6.8965,26.0625 14.292,24.876 21,27"
         id="path36" />
    </g>
  </g>
</svg>
