<?xml version="1.0" encoding="UTF-8" standalone="no"?>
<svg
   xmlns:dc="http://purl.org/dc/elements/1.1/"
   xmlns:cc="http://creativecommons.org/ns#"
   xmlns:rdf="http://www.w3.org/1999/02/22-rdf-syntax-ns#"
   xmlns:svg="http://www.w3.org/2000/svg"
   xmlns="http://www.w3.org/2000/svg"
   xmlns:sodipodi="http://sodipodi.sourceforge.net/DTD/sodipodi-0.dtd"
   xmlns:inkscape="http://www.inkscape.org/namespaces/inkscape"
   id="emoji"
   viewBox="0 0 72 72"
   version="1.1"
   sodipodi:docname="closedEyeClock.svg"
   inkscape:version="1.0beta2 (2b71d25, 2019-12-03)">
  <metadata
     id="metadata1002">
    <rdf:RDF>
      <cc:Work
         rdf:about="">
        <dc:format>image/svg+xml</dc:format>
        <dc:type
           rdf:resource="http://purl.org/dc/dcmitype/StillImage" />
        <dc:title />
      </cc:Work>
    </rdf:RDF>
  </metadata>
  <defs
     id="defs1000" />
  <sodipodi:namedview
     pagecolor="#ffffff"
     bordercolor="#666666"
     inkscape:document-rotation="0"
     borderopacity="1"
     objecttolerance="10"
     gridtolerance="10"
     guidetolerance="10"
     inkscape:pageopacity="0"
     inkscape:pageshadow="2"
     inkscape:window-width="1074"
     inkscape:window-height="770"
     id="namedview998"
     showgrid="false"
     inkscape:zoom="8.3888889"
     inkscape:cx="36"
     inkscape:cy="36"
     inkscape:window-x="0"
     inkscape:window-y="23"
     inkscape:window-maximized="0"
     inkscape:current-layer="emoji" />
  <g
     id="g1149"
     transform="matrix(0.79635761,0,0,0.79635761,-4.6751617,-5.5351631)">
    <g
       id="color">
      <circle
         id="circle1114"
         stroke-width="2"
         stroke-miterlimit="10"
         stroke-linejoin="round"
         stroke-linecap="round"
         stroke="none"
         fill="#FFFFFF"
         r="23"
         cy="35.990101"
         cx="35.958" />
      <line
         id="line1116"
         stroke-width="2"
         stroke-miterlimit="10"
         stroke-linejoin="round"
         stroke-linecap="round"
         stroke="none"
         fill="#FFFFFF"
         y2="35.9893"
         y1="18.9893"
         x2="36"
         x1="36" />
      <line
         id="line1118"
         stroke-width="2"
         stroke-miterlimit="10"
         stroke-linejoin="round"
         stroke-linecap="round"
         stroke="none"
         fill="#FFFFFF"
         y2="26.440201"
         y1="35.966499"
         x2="30.399401"
         x1="35.899399" />
    </g>
    <g
       id="hair-5" />
    <g
       id="skin-4" />
    <g
       id="skin-shadow-9" />
    <g
       id="line">
      <circle
         id="circle1124"
         stroke-width="2"
         stroke-miterlimit="10"
         stroke-linejoin="round"
         stroke-linecap="round"
         stroke="#000000"
         fill="none"
         r="23"
         cy="35.990101"
         cx="35.958" />
      <line
         id="line1126"
         stroke-width="2"
         stroke-miterlimit="10"
         stroke-linejoin="round"
         stroke-linecap="round"
         stroke="#000000"
         fill="none"
         y2="35.9893"
         y1="18.9893"
         x2="36"
         x1="36" />
      <line
         id="line1128"
         stroke-width="2"
         stroke-miterlimit="10"
         stroke-linejoin="round"
         stroke-linecap="round"
         stroke="#000000"
         fill="none"
         y2="26.440201"
         y1="35.966499"
         x2="30.399401"
         x1="35.899399" />
    </g>
  </g>
  <g
     id="hair" />
  <g
     id="skin" />
  <g
     id="skin-shadow" />
  <g
     id="g1088"
     transform="matrix(0.10635045,0,0,0.10635045,7.7515655,11.208027)">
    <g
       id="g1066">
      <path
         id="path1056"
         fill="#ffdcd5"
         d="m 256.079,220.93 c 96.633,0 183.062,49.166 240.612,92.657 3.466,-3.982 5.288,-6.267 5.288,-6.267 0,0 -110.093,-138.013 -245.9,-138.013 -135.807,0 -245.9,138.013 -245.9,138.013 0,0 1.823,2.285 5.288,6.267 57.551,-43.491 143.979,-92.657 240.612,-92.657 z"
         inkscape:connector-curvature="0" />
      <path
         id="path1058"
         fill="#faf7f5"
         d="m 140.629,243.063 c -48.967,18.34 -91.89,45.38 -125.161,70.524 -3.464,-3.979 -5.286,-6.264 -5.288,-6.267 -0.002,-0.003 110.093,138.014 245.9,138.014 135.807,0 245.9,-138.014 245.9,-138.014 -0.002,0.003 -1.825,2.288 -5.288,6.267 -30.673,-23.18 -69.548,-47.971 -113.8,-66.072"
         inkscape:connector-curvature="0" />
      <path
         id="path1060"
         fill="#b8ecbc"
         d="m 256.079,220.929 c -40.072,0 -78.39,8.455 -113.622,21.454 -2.424,9.595 -3.712,19.643 -3.712,29.991 0,67.419 54.654,122.072 122.072,122.072 67.418,0 122.072,-54.654 122.072,-122.072 0,-8.916 -0.956,-17.609 -2.771,-25.982 -38.044,-15.242 -79.981,-25.463 -124.039,-25.463 z"
         inkscape:connector-curvature="0" />
      <g
         id="g1064">
        <path
           id="path1062"
           fill="#d1a184"
           d="m 287.585,222.643 c -10.362,-1.118 -20.872,-1.713 -31.505,-1.713 -6.737,0 -13.423,0.239 -20.054,0.699 -18.757,9.181 -31.673,28.455 -31.673,50.747 0,31.186 25.281,56.467 56.467,56.467 31.186,0 56.467,-25.281 56.467,-56.467 -0.002,-21.502 -12.019,-40.196 -29.702,-49.733 z"
           inkscape:connector-curvature="0" />
      </g>
    </g>
    <g
       id="g1086">
      <path
         id="path1068"
         d="m 256.079,179.301 c -4.239,0 -8.089,-2.779 -9.458,-6.783 -1.367,-3.996 0.017,-8.576 3.374,-11.14 3.232,-2.469 7.73,-2.712 11.221,-0.637 3.588,2.133 5.473,6.437 4.659,10.523 -0.919,4.611 -5.094,8.037 -9.796,8.037 z"
         inkscape:connector-curvature="0" />
      <g
         id="g1082">
        <g
           id="g1074">
          <g
             id="g1072">
            <path
               id="path1070"
               d="m 413.71,174.058 h -34.452 c -3.667,0 -7.041,-2.009 -8.788,-5.233 -1.747,-3.224 -1.589,-7.146 0.413,-10.219 l 23.581,-36.19 h -14.147 c -5.521,0 -9.996,-4.476 -9.996,-9.996 0,-5.52 4.475,-9.996 9.996,-9.996 h 32.59 c 3.668,0 7.041,2.009 8.788,5.233 1.747,3.224 1.589,7.147 -0.413,10.219 l -23.581,36.19 h 16.008 c 5.521,0 9.996,4.476 9.996,9.996 0.001,5.52 -4.474,9.996 -9.995,9.996 z"
               inkscape:connector-curvature="0" />
          </g>
        </g>
        <g
           id="g1080">
          <g
             id="g1078">
            <path
               id="path1076"
               d="m 485.09,143.438 h -44.547 c -3.668,0 -7.041,-2.009 -8.789,-5.233 -1.747,-3.224 -1.589,-7.147 0.413,-10.219 l 33.441,-51.323 h -23.697 c -5.521,0 -9.996,-4.476 -9.996,-9.996 0,-5.52 4.475,-9.996 9.996,-9.996 h 42.141 c 3.668,0 7.041,2.009 8.789,5.233 1.747,3.224 1.589,7.146 -0.414,10.219 l -33.441,51.323 h 26.103 c 5.521,0 9.996,4.476 9.996,9.996 0.001,5.521 -4.474,9.996 -9.995,9.996 z"
               inkscape:connector-curvature="0" />
          </g>
        </g>
      </g>
      <path
         id="path1084"
         d="m 509.696,313.676 c 3.055,-3.661 3.074,-8.982 0.042,-12.662 -0.034,-0.041 -0.059,-0.071 -0.075,-0.091 -2.033,-2.527 -23.362,-28.69 -58.26,-58.115 -33.336,-28.107 -85.788,-64.449 -146.359,-77.963 l -1.365,-0.301 c -5.398,-1.16 -10.716,2.262 -11.882,7.658 -1.167,5.396 2.262,10.716 7.658,11.883 l 1.235,0.271 c 56.469,12.598 105.935,46.896 137.487,73.45 6.528,5.493 12.58,10.892 18.106,16.039 -23.084,-14.169 -46.364,-26.075 -69.608,-35.582 -0.483,-0.198 -0.973,-0.354 -1.465,-0.472 -0.436,-0.258 -0.894,-0.484 -1.372,-0.676 -31.95,-12.801 -63.696,-20.952 -94.761,-24.356 -0.14,-0.021 -0.28,-0.04 -0.421,-0.055 -6.617,-0.714 -13.26,-1.214 -19.86,-1.496 -0.039,-0.002 -0.078,-0.003 -0.118,-0.005 -0.261,-0.011 -0.522,-0.022 -0.782,-0.032 -0.106,-0.004 -0.212,-0.008 -0.319,-0.012 -0.197,-0.008 -0.395,-0.015 -0.592,-0.022 -0.181,-0.007 -0.362,-0.013 -0.544,-0.02 -0.132,-0.005 -0.264,-0.009 -0.396,-0.014 -0.216,-0.007 -0.431,-0.014 -0.647,-0.021 -0.112,-0.003 -0.224,-0.007 -0.337,-0.01 -0.246,-0.008 -0.493,-0.015 -0.739,-0.021 -0.077,-0.002 -0.155,-0.004 -0.232,-0.007 -0.262,-0.007 -0.524,-0.014 -0.786,-0.02 -0.073,-0.002 -0.146,-0.004 -0.219,-0.005 -0.29,-0.007 -0.58,-0.013 -0.87,-0.02 -0.035,-0.001 -0.07,-0.002 -0.105,-0.002 -0.293,-0.006 -0.586,-0.012 -0.879,-0.017 -0.047,-10e-4 -0.094,-0.002 -0.141,-0.003 -0.279,-0.005 -0.558,-0.009 -0.837,-0.013 -0.058,-0.001 -0.115,-0.002 -0.173,-0.003 -0.266,-0.004 -0.531,-0.007 -0.796,-0.01 -0.071,-0.001 -0.143,-0.002 -0.214,-0.003 -0.235,-0.002 -0.47,-0.004 -0.706,-0.006 -0.102,-0.001 -0.203,-0.002 -0.305,-0.002 -0.661,-0.004 -1.322,-0.007 -1.982,-0.007 -0.388,0 -0.776,0.001 -1.164,0.003 -0.087,0 -0.174,0.001 -0.261,0.001 -0.354,0.002 -0.709,0.004 -1.063,0.007 -0.037,0.001 -0.074,0.001 -0.112,0.001 -0.397,0.003 -0.794,0.008 -1.192,0.013 -0.065,0.001 -0.131,0.002 -0.196,0.003 -0.336,0.005 -0.672,0.01 -1.008,0.015 -0.079,0.001 -0.158,0.002 -0.237,0.004 -0.378,0.007 -0.755,0.014 -1.133,0.022 -0.096,0.002 -0.193,0.004 -0.289,0.007 -0.281,0.006 -0.563,0.013 -0.845,0.02 -0.141,0.004 -0.281,0.007 -0.422,0.011 -0.256,0.007 -0.512,0.014 -0.768,0.022 -0.313,0.009 -0.626,0.019 -0.94,0.029 -0.092,0.003 -0.184,0.006 -0.276,0.009 -3.612,0.121 -7.235,0.306 -10.842,0.556 -0.098,0.007 -0.195,0.015 -0.293,0.025 -31.414,2.219 -63.627,9.363 -96.043,21.324 -0.313,0.116 -0.619,0.246 -0.916,0.391 -0.321,0.085 -0.641,0.187 -0.96,0.306 -27.021,10.121 -54.108,23.497 -80.963,39.962 35.028,-32.52 91.245,-75.304 156.252,-89.515 5.354,-1.17 9.036,-6.355 7.991,-11.734 -1.072,-5.522 -6.465,-9.061 -11.934,-7.868 -60.927,13.232 -113.73,49.672 -147.297,77.912 -35.177,29.594 -56.676,55.978 -58.682,58.472 -0.019,0.023 -0.053,0.061 -0.099,0.113 -3.192,3.573 -3.18,8.95 -0.008,12.541 0.041,0.046 0.074,0.085 0.099,0.114 2.276,2.832 29.668,36.467 73.595,70.527 26.482,20.534 53.487,36.916 80.263,48.692 33.812,14.871 67.369,22.411 99.74,22.411 32.371,0 65.928,-7.54 99.74,-22.411 26.776,-11.777 53.78,-28.159 80.263,-48.692 43.927,-34.06 71.319,-67.695 73.595,-70.527 z M 307.289,272.375 c 0,25.624 -20.846,46.47 -46.471,46.47 -25.625,0 -46.471,-20.846 -46.471,-46.47 0,-17.26 9.296,-32.763 24.389,-40.904 3.036,-0.19 6.063,-0.33 9.081,-0.421 0.154,-0.004 0.308,-0.009 0.462,-0.014 l 0.429,-0.012 c 0.251,-0.007 0.502,-0.013 0.753,-0.019 0.059,-0.001 0.118,-0.003 0.178,-0.004 0.339,-0.008 0.678,-0.015 1.017,-0.022 0.037,-0.001 0.073,-0.001 0.11,-0.002 0.299,-0.006 0.597,-0.011 0.896,-0.016 0.064,-0.001 0.127,-0.002 0.191,-0.003 0.665,-0.01 1.328,-0.018 1.991,-0.024 0.082,-0.001 0.164,-0.001 0.245,-0.002 0.251,-0.002 0.502,-0.003 0.753,-0.004 0.088,0 0.177,-0.001 0.265,-0.001 0.324,-0.001 0.648,-0.002 0.972,-0.002 0.396,0 0.792,10e-4 1.188,0.003 2.522,0.011 5.058,0.057 7.603,0.138 0.155,0.005 0.311,0.01 0.466,0.016 0.133,0.004 0.266,0.009 0.399,0.013 6.217,0.218 12.473,0.646 18.763,1.283 14.106,8.364 22.791,23.518 22.791,39.997 z M 205.447,235.472 c -7.122,10.679 -11.091,23.416 -11.091,36.904 0,36.647 29.815,66.462 66.463,66.462 36.648,0 66.463,-29.815 66.463,-66.462 0,-12.534 -3.513,-24.531 -9.836,-34.816 17.794,3.777 35.793,9.159 53.899,16.127 1.03,6.149 1.551,12.414 1.551,18.69 0,61.799 -50.277,112.076 -112.077,112.076 -61.8,0 -112.076,-50.276 -112.076,-112.076 0,-7.565 0.755,-15.092 2.247,-22.444 18.301,-6.461 36.494,-11.288 54.457,-14.461 z m 218.385,132.955 c -39.367,30.525 -100.426,66.91 -167.753,66.91 -67.171,0 -128.097,-36.228 -167.379,-66.621 -26.124,-20.211 -46.433,-40.615 -58.454,-53.644 32.773,-23.844 66.062,-42.904 99.255,-56.835 -0.499,4.685 -0.751,9.406 -0.751,14.138 0,72.822 59.245,132.067 132.068,132.067 72.823,0 132.068,-59.245 132.068,-132.067 0,-3.286 -0.122,-6.571 -0.363,-9.843 29.936,13.479 59.913,31.097 89.395,52.543 -11.943,12.951 -32.09,33.195 -58.086,53.352 z"
         inkscape:connector-curvature="0" />
    </g>
  </g>
</svg>
