<?xml version="1.0" encoding="UTF-8" standalone="no"?>
<svg
   xmlns:dc="http://purl.org/dc/elements/1.1/"
   xmlns:cc="http://creativecommons.org/ns#"
   xmlns:rdf="http://www.w3.org/1999/02/22-rdf-syntax-ns#"
   xmlns:svg="http://www.w3.org/2000/svg"
   xmlns="http://www.w3.org/2000/svg"
   xmlns:sodipodi="http://sodipodi.sourceforge.net/DTD/sodipodi-0.dtd"
   xmlns:inkscape="http://www.inkscape.org/namespaces/inkscape"
   inkscape:version="1.0beta2 (2b71d25, 2019-12-03)"
   sodipodi:docname="coldFlu.svg"
   version="1.1"
   viewBox="0 0 72 72"
   id="emoji">
  <metadata
     id="metadata4241">
    <rdf:RDF>
      <cc:Work
         rdf:about="">
        <dc:format>image/svg+xml</dc:format>
        <dc:type
           rdf:resource="http://purl.org/dc/dcmitype/StillImage" />
        <dc:title></dc:title>
      </cc:Work>
    </rdf:RDF>
  </metadata>
  <defs
     id="defs4239" />
  <sodipodi:namedview
     inkscape:current-layer="emoji"
     inkscape:window-maximized="0"
     inkscape:window-y="23"
     inkscape:window-x="0"
     inkscape:cy="36"
     inkscape:cx="36"
     inkscape:zoom="8.3043912"
     showgrid="false"
     id="namedview4237"
     inkscape:window-height="782"
     inkscape:window-width="1012"
     inkscape:pageshadow="2"
     inkscape:pageopacity="0"
     guidetolerance="10"
     gridtolerance="10"
     objecttolerance="10"
     borderopacity="1"
     inkscape:document-rotation="0"
     bordercolor="#666666"
     pagecolor="#ffffff" />
  <g
     transform="translate(-3.3717101,-4.0942194)"
     id="color">
    <circle
       id="circle4203"
       fill="#FCEA2B"
       r="24"
       cy="36"
       cx="36" />
    <polyline
       id="polyline4205"
       points="24,45.1443 13,37.8843 13,33.7143 24,40.9843"
       fill="#FFFFFF" />
    <polyline
       id="polyline4207"
       points="48,45.1443 59,37.8843 59,33.7143 48,40.9843"
       fill="#FFFFFF" />
    <path
       inkscape:connector-curvature="0"
       id="path4209"
       d="M 45.9035,52.38 H 26.0965 C 24.9387,52.38 24,51.439 24,50.2781 v -9.7012 c 0,-1.1608 0.9386,-2.1019 2.0965,-2.1019 h 19.8069 c 1.1578,0 2.0965,0.941 2.0965,2.1019 v 9.7012 C 48,51.439 47.0613,52.38 45.9035,52.38 Z"
       fill="#FFFFFF" />
  </g>
  <g
     id="hair" />
  <g
     id="skin" />
  <g
     id="skin-shadow" />
  <g
     transform="translate(-3.3717101,-4.0942194)"
     id="line">
    <path
       inkscape:connector-curvature="0"
       id="path4215"
       d="M 47.7882,45.6905"
       stroke-width="2"
       stroke-miterlimit="10"
       stroke-linejoin="round"
       stroke-linecap="round"
       stroke="#000000"
       fill="none" />
    <path
       inkscape:connector-curvature="0"
       id="path4217"
       d="m 23.2356,32.0077 c 0,0 3.4389,-2.8884 7.8492,-1.5458"
       stroke-width="2"
       stroke-miterlimit="10"
       stroke-linejoin="round"
       stroke-linecap="round"
       stroke="#000000"
       fill="none" />
    <path
       inkscape:connector-curvature="0"
       id="path4219"
       d="m 48.7644,32.0077 c 0,0 -3.4389,-2.8884 -7.8492,-1.5458"
       stroke-width="2"
       stroke-miterlimit="10"
       stroke-linejoin="round"
       stroke-linecap="round"
       stroke="#000000"
       fill="none" />
    <polyline
       id="polyline4221"
       points="24,45.1443 13,37.8843 13,33.7143 24,40.9843"
       stroke-width="2"
       stroke-miterlimit="10"
       stroke-linejoin="round"
       stroke-linecap="round"
       stroke="#000000"
       fill="none" />
    <polyline
       id="polyline4223"
       points="48,45.1443 59,37.8843 59,33.7143 48,40.9843"
       stroke-width="2"
       stroke-miterlimit="10"
       stroke-linejoin="round"
       stroke-linecap="round"
       stroke="#000000"
       fill="none" />
    <path
       inkscape:connector-curvature="0"
       id="path4225"
       d="M 58.2316,30.1355 C 55.6439,20.2937 46.6964,13.025 36.0397,13.0001"
       stroke-width="2"
       stroke-miterlimit="10"
       stroke-linejoin="round"
       stroke-linecap="round"
       stroke="#000000"
       fill="none" />
    <path
       inkscape:connector-curvature="0"
       id="path4227"
       d="M 13.7587,41.934 C 16.3701,51.7401 25.2999,58.9752 35.9322,59 46.5902,59.0249 55.5723,51.7958 58.2049,41.9648"
       stroke-width="2"
       stroke-miterlimit="10"
       stroke-linejoin="round"
       stroke-linecap="round"
       stroke="#000000"
       fill="none" />
    <path
       inkscape:connector-curvature="0"
       id="path4229"
       d="M 13.1198,33.5043"
       stroke-width="2"
       stroke-miterlimit="10"
       stroke-linejoin="round"
       stroke-linecap="round"
       stroke="#000000"
       fill="none" />
    <path
       inkscape:connector-curvature="0"
       id="path4231"
       d="M 36.0397,13.0001 C 25.3564,12.9751 16.3579,20.237 13.7489,30.1031"
       stroke-width="2"
       stroke-miterlimit="10"
       stroke-linejoin="round"
       stroke-linecap="round"
       stroke="#000000"
       fill="none" />
    <path
       inkscape:connector-curvature="0"
       id="path4233"
       d="M 45.9035,52.38 H 26.0965 C 24.9387,52.38 24,51.439 24,50.2781 v -9.7012 c 0,-1.1608 0.9386,-2.1019 2.0965,-2.1019 h 19.8069 c 1.1578,0 2.0965,0.941 2.0965,2.1019 v 9.7012 C 48,51.439 47.0613,52.38 45.9035,52.38 Z"
       stroke-width="2"
       stroke-miterlimit="10"
       stroke-linejoin="round"
       stroke-linecap="round"
       stroke="#000000"
       fill="none" />
  </g>
  <g
     transform="matrix(0.67644297,0,0,0.67644297,32.107084,16.448755)"
     id="g4290">
    <g
       id="color-3">
      <path
         inkscape:connector-curvature="0"
         fill="#FFFFFF"
         stroke="none"
         d="m 35.9709,3.4517 v 0 c -3.0012,0 -5.4341,2.4329 -5.4341,5.4341 v 23.106 H 41.405 V 8.8858 C 41.4051,5.8846 38.9721,3.4517 35.9709,3.4517 Z"
         id="path4243" />
      <path
         inkscape:connector-curvature="0"
         fill="#EA5A47"
         stroke="none"
         d="M 41.5274,28.931"
         id="path4245" />
      <path
         inkscape:connector-curvature="0"
         fill="#EA5A47"
         stroke="none"
         d="M 41.0656,47.4983 C 44.5916,49.3267 47,53.0041 47,57.2428 c 0,6.0613 -4.9249,10.9749 -11,10.9749 -6.0751,0 -11,-4.9136 -11,-10.9749 0,-4.2539 2.4258,-7.9426 5.9724,-9.7641 V 28.5788 c 0,0 8.8728,1.5603 10.0745,-1.0199 z"
         id="path4247" />
      <path
         inkscape:connector-curvature="0"
         fill="#D22F27"
         stroke="none"
         d="m 37.0415,29.403 c 1.6925,-0.1501 2.2824,-0.3294 4.4859,-1.2412 l 0.0236,18.8285 c 7e-4,0.5571 0.182,1.1036 0.5349,1.5383 2.1678,2.6707 4.2519,5.2117 4.2519,9.0919 0,5.9935 -4.9899,10.0365 -10.4309,10.0365 0,0 10.1031,-7.6096 1.692,-16.5858 -0.3555,-0.3793 -0.551,-1.2297 -0.551,-1.7749 z"
         id="path4249" />
    </g>
    <g
       id="hair-7" />
    <g
       id="skin-1" />
    <g
       id="skin-shadow-8" />
    <g
       id="line-9">
      <path
         inkscape:connector-curvature="0"
         fill="none"
         stroke="#000000"
         stroke-linecap="round"
         stroke-linejoin="round"
         stroke-miterlimit="10"
         stroke-width="2"
         d="m 38.3874,35.9133 c -0.7217,0.1599 -1.9748,0.2657 -3.3999,0.2657 -2.2364,0 -4.0494,-0.2606 -4.0494,-0.582"
         id="path4255" />
      <path
         inkscape:connector-curvature="0"
         fill="none"
         stroke="#000000"
         stroke-linecap="round"
         stroke-linejoin="round"
         stroke-miterlimit="10"
         stroke-width="2"
         d="m 38.3874,43.6108 c -0.7217,0.1599 -1.9748,0.2657 -3.3999,0.2657 -2.2364,0 -4.0494,-0.2606 -4.0494,-0.582"
         id="path4257" />
      <path
         inkscape:connector-curvature="0"
         fill="none"
         stroke="#000000"
         stroke-linecap="round"
         stroke-linejoin="round"
         stroke-miterlimit="10"
         stroke-width="2"
         d="m 38.3874,28.2158 c -0.7217,0.1599 -1.9748,0.2657 -3.3999,0.2657 -2.2364,0 -4.0494,-0.2606 -4.0494,-0.582"
         id="path4259" />
      <path
         inkscape:connector-curvature="0"
         fill="none"
         stroke="#000000"
         stroke-linecap="round"
         stroke-linejoin="round"
         stroke-miterlimit="10"
         stroke-width="2"
         d="m 38.3874,20.5183 c -0.7217,0.1599 -1.9748,0.2657 -3.3999,0.2657 -2.2364,0 -4.0494,-0.2606 -4.0494,-0.582"
         id="path4261" />
      <path
         inkscape:connector-curvature="0"
         fill="none"
         stroke="#000000"
         stroke-linecap="round"
         stroke-linejoin="round"
         stroke-miterlimit="10"
         stroke-width="2"
         d="m 29.6634,49.4624 c 1.2934,-0.9629 1.2755,-2.2365 1.2755,-2.2365 V 8.6385 c 0,-2.807 2.2755,-5.0825 5.0825,-5.0825 2.807,0 5.0825,2.2755 5.0825,5.0825 v 38.5874 c 0,0 0.0052,1.2859 1.2986,2.2488 2.3101,1.8633 3.7879,4.7172 3.7879,7.9162 0,5.614 -4.5511,10.1651 -10.1651,10.1651 -5.614,0 -10.1651,-4.5511 -10.1651,-10.1651 0,-1.5355 0.3405,-2.9915 0.95,-4.2966"
         id="path4263" />
      <path
         inkscape:connector-curvature="0"
         fill="none"
         stroke="#000000"
         stroke-linecap="round"
         stroke-linejoin="round"
         stroke-miterlimit="10"
         stroke-width="2"
         d="m 38.3874,12.8208 c -0.7217,0.1599 -1.9748,0.2657 -3.3999,0.2657 -2.2364,0 -4.0494,-0.2606 -4.0494,-0.582"
         id="path4265" />
    </g>
  </g>
</svg>
