<?xml version="1.0" encoding="UTF-8" standalone="no"?>
<svg
   xmlns:dc="http://purl.org/dc/elements/1.1/"
   xmlns:cc="http://creativecommons.org/ns#"
   xmlns:rdf="http://www.w3.org/1999/02/22-rdf-syntax-ns#"
   xmlns:svg="http://www.w3.org/2000/svg"
   xmlns="http://www.w3.org/2000/svg"
   xmlns:sodipodi="http://sodipodi.sourceforge.net/DTD/sodipodi-0.dtd"
   xmlns:inkscape="http://www.inkscape.org/namespaces/inkscape"
   id="emoji"
   x="0"
   y="0"
   viewBox="0 0 72 72"
   version="1.1"
   sodipodi:docname="educationWork.svg"
   inkscape:version="1.0beta2 (2b71d25, 2019-12-03)">
  <metadata
     id="metadata1559">
    <rdf:RDF>
      <cc:Work
         rdf:about="">
        <dc:format>image/svg+xml</dc:format>
        <dc:type
           rdf:resource="http://purl.org/dc/dcmitype/StillImage" />
      </cc:Work>
    </rdf:RDF>
  </metadata>
  <defs
     id="defs1557" />
  <sodipodi:namedview
     pagecolor="#ffffff"
     bordercolor="#666666"
     inkscape:document-rotation="0"
     borderopacity="1"
     objecttolerance="10"
     gridtolerance="10"
     guidetolerance="10"
     inkscape:pageopacity="0"
     inkscape:pageshadow="2"
     inkscape:window-width="1265"
     inkscape:window-height="1014"
     id="namedview1555"
     showgrid="false"
     inkscape:zoom="11.732783"
     inkscape:cx="31.716729"
     inkscape:cy="36"
     inkscape:window-x="0"
     inkscape:window-y="23"
     inkscape:window-maximized="0"
     inkscape:current-layer="g1587" />
  <g
     id="skin-shadow" />
  <g
     id="g1587"
     transform="matrix(0.82987741,0,0,0.82987741,-0.66640392,-0.80951942)">
    <g
       id="color">
      <path
         id="path1505"
         d="m 54.8495,58.9165 c 0,0 2,-14 -10,-14 -3.1919,2.1279 -5.9264,3.5984 -9,3.5922 h 0.125 c -3.0736,0.0062 -5.8082,-1.4643 -9,-3.5922 -12,0 -10,14 -10,14"
         fill="#3F3F3F"
         inkscape:connector-curvature="0" />
      <polygon
         id="polygon1507"
         points="26.7388,12.2913 21.2988,11.7613 35.1788,9.2413 50.3088,11.7613 45.1188,12.2713 35.8088,13.1813 "
         fill="#9B9B9A" />
      <path
         id="path1509"
         d="m 45.1188,12.2713 v 7.97 c 0,0 -6.72,-0.27 -9.19,2.63 -2.47,-2.9 -9.19,-2.63 -9.19,-2.63 v -7.95 l 9.07,0.89 z"
         fill="#3F3F3F"
         inkscape:connector-curvature="0" />
      <path
         id="path1511"
         d="m 35.8506,51.4932 c -0.0049,0 -0.0098,0 -0.0147,0 h -0.0586 c -0.0097,0 -0.0195,0 -0.0293,0 h -0.0039 c -9e-4,0 -9e-4,0 -0.0019,0 v -0.001 c -3.1973,-0.0313 -5.9854,-1.4639 -9.4277,-3.7598 -0.46,-0.3066 -0.584,-0.9277 -0.2774,-1.3867 0.3057,-0.46 0.9248,-0.584 1.3867,-0.2773 3.1533,2.1025 5.6602,3.4101 8.3828,3.4248 2.7217,-0.0137 5.2286,-1.3223 8.3829,-3.4248 0.4609,-0.3067 1.081,-0.1827 1.3867,0.2773 0.3066,0.46 0.1826,1.0801 -0.2774,1.3867 -3.4433,2.2959 -6.2314,3.7285 -9.4277,3.7598 v 0.001 c -10e-4,0 -10e-4,0 -0.002,0 h -0.0039 c -0.0048,0 -0.0107,0 -0.0146,0 z"
         fill="#FFFFFF"
         inkscape:connector-curvature="0" />
    </g>
    <g
       id="hair">
      <path
         id="path1514"
         d="m 21.1866,46.4742 c 1.4263,-0.9518 3.3033,-1.5577 5.7879,-1.5577 3.1699,2.1133 5.8895,3.5746 8.9375,3.5886 3.048,-0.0139 5.7675,-1.4753 8.9375,-3.5886 2.4695,0 4.3384,0.5988 5.7615,1.5405 1.121,-1.4768 1.9742,-3.0567 2.3716,-4.7086 2.0498,-8.5205 -5.2788,-18.3913 -7.4774,-21.5108 -4.1739,-0.3651 -7.3131,0.5797 -9.5764,2.6336 -2.4446,-2.1166 -5.6751,-2.8033 -9.3764,-2.6336 -2.1985,3.1195 -9.7601,13.0233 -7.5775,21.5108 0.4411,1.7153 1.2238,3.289 2.2117,4.7258 z"
         fill="#F4AA41"
         inkscape:connector-curvature="0" />
    </g>
    <g
       id="skin">
      <path
         id="path1517"
         d="m 47.1449,28.8923 c -6.6211,-7.1154 -8.1216,-9.2836 -11.2161,-6.021 -3.3996,-3.3996 -3.5685,-0.36 -11.4025,4.6002 -0.0387,0.4764 -0.0585,0.9315 -0.0585,1.4208 0,7.8276 5.0764,14.1732 11.3386,14.1732 6.2621,0 11.3385,-6.3456 11.3385,-14.1732 z"
         fill="#FCEA2B"
         inkscape:connector-curvature="0" />
    </g>
    <g
       id="line">
      <path
         id="path1521"
         d="m 41.9289,27.0637 c 0,1.1045 -0.8965,2 -2,2 -1.1035,0 -2,-0.8955 -2,-2 0,-1.1035 0.8965,-2 2,-2 1.1035,0 2,0.8965 2,2"
         inkscape:connector-curvature="0" />
      <path
         id="path1523"
         d="m 33.9289,27.0637 c 0,1.1045 -0.8965,2 -2,2 -1.1035,0 -2,-0.8955 -2,-2 0,-1.1035 0.8965,-2 2,-2 1.1035,0 2,0.8965 2,2"
         inkscape:connector-curvature="0" />
      <path
         id="path1525"
         d="m 35.9288,37.0662 c -1.1519,0 -2.3037,-0.2862 -3.4473,-0.858 -0.4941,-0.247 -0.6943,-0.8476 -0.4472,-1.3417 0.2465,-0.4937 0.8461,-0.6944 1.3417,-0.4473 1.7178,0.8594 3.3877,0.8594 5.1055,0 0.4946,-0.2471 1.0947,-0.0464 1.3418,0.4473 0.2471,0.4941 0.0469,1.0947 -0.4473,1.3417 -1.1435,0.5718 -2.2954,0.858 -3.4472,0.858 z"
         inkscape:connector-curvature="0" />
      <path
         id="path1527"
         d="m 54.7461,58.915 c -0.0508,0 -0.1016,-0.0029 -0.1523,-0.0107 -0.5459,-0.084 -0.9209,-0.5938 -0.8379,-1.1387 0.0087,-0.0576 0.8271,-5.7412 -2.1289,-9.1777 -1.4756,-1.7149 -3.6895,-2.6123 -6.586,-2.669 -3.3096,2.1856 -6.0283,3.5459 -9.126,3.5889 -0.0214,0.002 -0.0429,10e-4 -0.0644,10e-4 -0.0078,0 -0.0137,0 -0.0215,0 h -0.0449 c -0.0147,0 -0.0283,0 -0.042,0 -0.0147,0 -0.0293,0 -0.044,-10e-4 -3.0996,-0.043 -5.8164,-1.4033 -9.1259,-3.5889 -2.8965,0.0567 -5.1104,0.9541 -6.586,2.669 -2.956,3.4365 -2.1377,9.1201 -2.1289,9.1777 0.083,0.5449 -0.292,1.0547 -0.8379,1.1387 -0.5332,0.0801 -1.0547,-0.29 -1.1386,-0.8359 -0.0411,-0.2696 -0.9727,-6.6329 2.581,-10.7754 1.9229,-2.2412 4.751,-3.377 8.4072,-3.377 0.1973,0 0.3907,0.0586 0.5547,0.168 3.1533,2.1025 5.6602,3.4101 8.3828,3.4248 2.7217,-0.0137 5.2286,-1.3223 8.3829,-3.4248 0.164,-0.1094 0.3574,-0.168 0.5546,-0.168 3.6563,0 6.4844,1.1358 8.4073,3.377 3.5537,4.1425 2.622,10.5058 2.581,10.7754 -0.0761,0.4941 -0.5019,0.8466 -0.9863,0.8466 z"
         inkscape:connector-curvature="0" />
      <path
         id="path1529"
         d="m 21.2998,21.1133 c -0.5527,0 -1,-0.4478 -1,-1 v -8.1216 c 0,-0.5522 0.4473,-1 1,-1 0.5527,0 1,0.4478 1,1 v 8.1216 c 0,0.5522 -0.4473,1 -1,1 z"
         inkscape:connector-curvature="0" />
      <path
         id="path1531"
         d="m 19.2725,23.6929 c -0.2159,0 -0.4336,-0.0699 -0.6172,-0.2134 -0.4336,-0.3413 -0.5098,-0.9702 -0.168,-1.4043 l 2.0264,-2.5796 c 0.3408,-0.4331 0.9677,-0.5093 1.4043,-0.1689 0.4336,0.3413 0.5097,0.9702 0.1679,1.4043 l -2.0263,2.5795 c -0.1973,0.251 -0.4903,0.3824 -0.7871,0.3824 z"
         inkscape:connector-curvature="0" />
      <path
         id="path1533"
         d="m 21.2998,25.2134 c -0.5527,0 -1,-0.4478 -1,-1 v -4.1001 c 0,-0.5523 0.4473,-1 1,-1 0.5527,0 1,0.4477 1,1 v 4.1001 c 0,0.5522 -0.4473,1 -1,1 z"
         inkscape:connector-curvature="0" />
      <path
         id="path1535"
         d="m 20.3213,44.0664 c -0.3731,0 -0.7305,-0.209 -0.9024,-0.5674 -0.2255,-0.4697 -0.4238,-0.9482 -0.5888,-1.4219 -2.9785,-8.5644 4.2597,-18.8125 6.6387,-22.1801 l 0.166,-0.2354 c 0.3183,-0.4507 0.9423,-0.56 1.3935,-0.2412 0.4512,0.3179 0.5596,0.9419 0.2412,1.3936 l -0.167,0.2373 c -2.2324,3.1596 -9.0244,12.7758 -6.3837,20.3686 0.1406,0.4024 0.3095,0.8106 0.5029,1.2139 0.2392,0.498 0.0293,1.0957 -0.4688,1.334 -0.1396,0.0674 -0.2871,0.0986 -0.4316,0.0986 z"
         inkscape:connector-curvature="0" />
      <path
         id="path1537"
         d="m 51.5361,44.0664 c -0.1445,0 -0.292,-0.0312 -0.4316,-0.0986 -0.4981,-0.2383 -0.708,-0.836 -0.4688,-1.334 0.1934,-0.4033 0.3623,-0.8115 0.503,-1.2149 2.6406,-7.5918 -4.1514,-17.208 -6.3838,-20.3676 l -0.167,-0.2373 c -0.3184,-0.4517 -0.21,-1.0757 0.2412,-1.3936 0.4502,-0.3188 1.0762,-0.2095 1.3936,0.2412 l 0.166,0.2354 c 2.3789,3.3676 9.6172,13.6157 6.6386,22.1792 -0.165,0.4746 -0.3632,0.9531 -0.5888,1.4228 -0.1719,0.3584 -0.5293,0.5674 -0.9024,0.5674 z"
         inkscape:connector-curvature="0" />
      <path
         id="path1539"
         d="m 24.6201,28.6279 c -0.3564,0 -0.7012,-0.1875 -0.8818,-0.5205 -0.2637,-0.4853 -0.0908,-1.0884 0.3945,-1.3515 l 0.0147,-0.0083 c 4.1728,-2.2642 4.1728,-2.2642 8.1572,-6.3213 l 1.458,1.3701 c -4.1865,4.2622 -4.2666,4.3247 -8.6611,6.709 -0.1534,0.083 -0.3184,0.1225 -0.4815,0.1225 z"
         inkscape:connector-curvature="0" />
      <path
         id="path1541"
         d="m 47.2471,28.6348 c -0.1612,0 -0.3242,-0.0386 -0.4756,-0.1211 -0.1817,-0.0987 -4.499,-2.4634 -8.6768,-6.7173 -0.3867,-0.3941 -0.3808,-1.0274 0.0137,-1.4141 0.3926,-0.3872 1.0254,-0.3818 1.4141,0.0127 3.9687,4.042 8.1601,6.3379 8.2021,6.3609 0.4854,0.2631 0.666,0.8701 0.4024,1.3559 -0.1807,0.3335 -0.5245,0.523 -0.8799,0.523 z"
         inkscape:connector-curvature="0" />
      <path
         id="path1543"
         d="m 35.9287,43.5977 c -7.1494,0 -12.3389,-6.6202 -12.3389,-15.7403 0,-0.5522 0.4473,-1 1,-1 0.5528,0 1,0.4478 1,1 0,7.9619 4.3477,13.7403 10.3389,13.7403 5.7012,0 10.3389,-5.9092 10.3389,-13.1734 0,-0.2495 -0.0059,-0.498 -0.0166,-0.7446 -0.0244,-0.5518 0.4023,-1.0191 0.9541,-1.044 0.539,-0.0117 1.0185,0.4019 1.0439,0.9541 0.0127,0.2769 0.0186,0.5547 0.0186,0.8345 0,8.3667 -5.5352,15.1734 -12.3389,15.1734 z"
         inkscape:connector-curvature="0" />
      <polyline
         id="polyline1545"
         points="21.2988,11.7613 26.7388,12.2913 35.8088,13.1813 45.1188,12.2713 50.3088,11.7613"
         stroke-width="2"
         stroke-miterlimit="10"
         stroke-linejoin="round"
         stroke-linecap="round"
         stroke="#000000"
         fill="none" />
      <path
         id="path1547"
         d="m 26.7388,11.7613 v 0.53 7.95 c 0,0 6.72,-0.27 9.19,2.63"
         stroke-width="2"
         stroke-miterlimit="10"
         stroke-linejoin="round"
         stroke-linecap="round"
         stroke="#000000"
         fill="none"
         inkscape:connector-curvature="0" />
      <path
         id="path1549"
         d="m 45.1188,11.7613 v 0.51 7.97 c 0,0 -6.72,-0.27 -9.19,2.63"
         stroke-width="2"
         stroke-miterlimit="10"
         stroke-linejoin="round"
         stroke-linecap="round"
         stroke="#000000"
         fill="none"
         inkscape:connector-curvature="0" />
      <polyline
         id="polyline1551"
         points="50.3088,11.7613 35.1788,9.2413 21.2988,11.7613"
         stroke-width="2"
         stroke-miterlimit="10"
         stroke-linejoin="round"
         stroke-linecap="round"
         stroke="#000000"
         fill="none" />
    </g>
  </g>
  <g
     id="g1624"
     transform="matrix(0.69754907,0,0,0.69754907,21.52532,23.270189)">
    <g
       id="color-8">
      <circle
         id="circle1589"
         stroke-width="2"
         stroke-miterlimit="10"
         stroke-linejoin="round"
         stroke-linecap="round"
         stroke="none"
         fill="#FFFFFF"
         r="23"
         cy="35.990101"
         cx="35.958" />
      <line
         id="line1591"
         stroke-width="2"
         stroke-miterlimit="10"
         stroke-linejoin="round"
         stroke-linecap="round"
         stroke="none"
         fill="#FFFFFF"
         y2="35.9893"
         y1="18.9893"
         x2="36"
         x1="36" />
      <line
         id="line1593"
         stroke-width="2"
         stroke-miterlimit="10"
         stroke-linejoin="round"
         stroke-linecap="round"
         stroke="none"
         fill="#FFFFFF"
         y2="36.021198"
         y1="36.021198"
         x2="24.617201"
         x1="35.617199" />
    </g>
    <g
       id="hair-5" />
    <g
       id="skin-6" />
    <g
       id="skin-shadow-7" />
    <g
       id="line-9">
      <circle
         id="circle1599"
         stroke-width="2"
         stroke-miterlimit="10"
         stroke-linejoin="round"
         stroke-linecap="round"
         stroke="#000000"
         fill="none"
         r="23"
         cy="35.990101"
         cx="35.958" />
      <line
         id="line1601"
         stroke-width="2"
         stroke-miterlimit="10"
         stroke-linejoin="round"
         stroke-linecap="round"
         stroke="#000000"
         fill="none"
         y2="35.9893"
         y1="18.9893"
         x2="36"
         x1="36" />
      <line
         id="line1603"
         stroke-width="2"
         stroke-miterlimit="10"
         stroke-linejoin="round"
         stroke-linecap="round"
         stroke="#000000"
         fill="none"
         y2="36.021198"
         y1="36.021198"
         x2="24.617201"
         x1="35.617199" />
    </g>
  </g>
</svg>
