<svg height="384pt" viewBox="-104 0 384 384.00234" width="384pt" xmlns="http://www.w3.org/2000/svg"><path d="m88 48.003906c-1.8125 0-3.574219-.617187-4.992188-1.753906l-40-32c-3.449218-2.761719-4.007812-7.796875-1.246093-11.246094 2.761719-3.453125 7.796875-4.011718 11.246093-1.25l40 32c2.65625 2.125 3.679688 5.695313 2.550782 8.902344-1.125 3.207031-4.15625 5.351562-7.558594 5.347656zm0 0" fill="#cdcdcd"/><path d="m160 344.003906-8-8h-120l-16 8 8 32h128zm0 0" fill="#277baa"/><path d="m168 344.003906h-160v-264l16-24v-24h128v24l16 24zm0 0" fill="#4799cf"/><path d="m80 224.003906h-40l24-104h56l-19.429688 72h35.429688l-72 120zm0 0" fill="#f3c52d"/><path d="m40 96.003906c4.417969 0 8-3.582031 8-8 0-4.417968-3.582031-8-8-8h-32v16zm0 0" fill="#6cbae5"/><path d="m80 96.003906h-8c-4.417969 0-8-3.582031-8-8 0-4.417968 3.582031-8 8-8h8c4.417969 0 8 3.582032 8 8 0 4.417969-3.582031 8-8 8zm0 0" fill="#6cbae5"/><path d="m24 32.003906h128v24h-128zm0 0" fill="#d9d9d9"/><path d="m160 53.601562v-21.597656c0-4.417968-3.582031-8-8-8h-71.199219l-27.800781-22.25c-3.449219-2.761718-8.484375-2.203125-11.246094 1.25-2.761718 3.449219-2.203125 8.484375 1.246094 11.246094l12.199219 9.753906h-31.199219c-4.417969 0-8 3.582032-8 8v21.597656l-14.65625 21.984376c-.867188 1.308593-1.3359375 2.84375-1.34375 4.417968v264c0 4.417969 3.582031 8 8 8h1.761719l6.480469 25.933594c.886718 3.5625 4.085937 6.0625 7.757812 6.066406h128c3.671875-.003906 6.871094-2.503906 7.761719-6.066406l6.480469-25.933594h1.757812c4.417969 0 8-3.582031 8-8v-264c0-1.582031-.46875-3.125-1.34375-4.441406zm-144 42.402344h24c4.417969 0 8-3.582031 8-8 0-4.417968-3.582031-8-8-8h-22.398438l10.664063-16h119.441406l12.292969 18.398438v253.601562h-144zm16-56h112v8h-112zm113.753906 328h-115.503906l-4-16h123.503906zm0 0"/><path d="m136 184.003906h-24.984375l16.714844-61.914062c.648437-2.40625.140625-4.976563-1.375-6.953125-1.511719-1.976563-3.863281-3.136719-6.355469-3.132813h-56c-3.726562-.003906-6.960938 2.566406-7.800781 6.199219l-24 104c-.546875 2.375.019531 4.871094 1.539062 6.78125 1.515625 1.910156 3.824219 3.019531 6.261719 3.019531h30.402344l-14.28125 78.566406c-.695313 3.800782 1.425781 7.554688 5.039062 8.921876.910156.335937 1.871094.511718 2.839844.511718 2.808594-.003906 5.410156-1.476562 6.855469-3.882812l72-120c1.484375-2.46875 1.527343-5.546875.105469-8.058594-1.417969-2.507812-4.078126-4.058594-6.960938-4.058594zm-56.269531 86.246094 8.132812-44.800781c.433594-2.335938-.199219-4.738281-1.71875-6.566407-1.515625-1.824218-3.769531-2.878906-6.144531-2.878906h-29.941406l20.34375-88h39.199218l-16.800781 61.910156c-.652343 2.410157-.140625 4.988282 1.382813 6.96875 1.527344 1.980469 3.886718 3.132813 6.386718 3.121094h21.292969zm0 0"/><path d="m72 96.003906h8c4.417969 0 8-3.582031 8-8 0-4.417968-3.582031-8-8-8h-8c-4.417969 0-8 3.582032-8 8 0 4.417969 3.582031 8 8 8zm0 0"/></svg>