<?xml version="1.0" encoding="UTF-8" standalone="no"?>
<svg
   xmlns:dc="http://purl.org/dc/elements/1.1/"
   xmlns:cc="http://creativecommons.org/ns#"
   xmlns:rdf="http://www.w3.org/1999/02/22-rdf-syntax-ns#"
   xmlns:svg="http://www.w3.org/2000/svg"
   xmlns="http://www.w3.org/2000/svg"
   xmlns:sodipodi="http://sodipodi.sourceforge.net/DTD/sodipodi-0.dtd"
   xmlns:inkscape="http://www.inkscape.org/namespaces/inkscape"
   inkscape:version="1.0beta2 (2b71d25, 2019-12-03)"
   sodipodi:docname="energyBar.svg"
   id="svg1190"
   version="1.1"
   height="512"
   width="512"
   viewBox="0 0 64 64">
  <metadata
     id="metadata1196">
    <rdf:RDF>
      <cc:Work
         rdf:about="">
        <dc:format>image/svg+xml</dc:format>
        <dc:type
           rdf:resource="http://purl.org/dc/dcmitype/StillImage" />
      </cc:Work>
    </rdf:RDF>
  </metadata>
  <defs
     id="defs1194" />
  <sodipodi:namedview
     inkscape:current-layer="svg1190"
     inkscape:window-maximized="0"
     inkscape:window-y="23"
     inkscape:window-x="0"
     inkscape:cy="256"
     inkscape:cx="256"
     inkscape:zoom="1.0007134"
     showgrid="false"
     id="namedview1192"
     inkscape:window-height="691"
     inkscape:window-width="1473"
     inkscape:pageshadow="2"
     inkscape:pageopacity="0"
     guidetolerance="10"
     gridtolerance="10"
     objecttolerance="10"
     borderopacity="1"
     inkscape:document-rotation="0"
     bordercolor="#666666"
     pagecolor="#ffffff" />
  <g
     transform="matrix(0.88132834,0,0,0.88132834,4.3597562,2.7355864)"
     data-name="filled outline"
     id="filled_outline">
    <rect
       id="rect1145"
       style="fill:#995023"
       transform="rotate(-45,45.500058,18.500259)"
       height="18.385"
       width="25.455999"
       y="9.3079996"
       x="32.771999" />
    <rect
       id="rect1147"
       style="fill:#7a3e1a"
       transform="rotate(-45,51.99959,12.000065)"
       height="18.385"
       width="7.0710001"
       y="2.8080001"
       x="48.464001" />
    <rect
       id="rect1149"
       style="fill:#7a3e1a"
       height="2"
       width="2"
       y="14"
       x="41" />
    <rect
       id="rect1151"
       style="fill:#7a3e1a"
       height="2"
       width="2"
       y="19"
       x="39" />
    <rect
       id="rect1153"
       style="fill:#995023"
       height="2"
       width="2"
       y="9"
       x="49" />
    <rect
       id="rect1155"
       style="fill:#7a3e1a"
       height="2"
       width="2"
       y="20"
       x="49" />
    <polygon
       id="polygon1157"
       style="fill:#e8594a"
       points="25,52 23,57 7,41 12,39 30,21 49,28 " />
    <polygon
       id="polygon1159"
       style="fill:#fdb62f"
       points="19,39 22,48 39.375,30.625 38,31 33.111,24.889 " />
    <polygon
       id="polygon1161"
       style="fill:#bf3f3b"
       points="19,61 18,58 15,57 14,54 11,53 10,50 7,49 6,46 3,45 7,41 23,57 " />
    <polygon
       id="polygon1163"
       style="fill:#d6d9db"
       points="49,28 30,21 38,31 " />
    <path
       inkscape:connector-curvature="0"
       id="path1165"
       style="fill:#fd6f0a"
       d="m 28,45 h -2 v -5.586 l -1.293,1.293 a 1,1 0 0 1 -1.7,-0.565 l -1,-7 1.98,-0.284 0.717,5.021 1.586,-1.586 A 1,1 0 0 1 28,37 Z" />
    <rect
       id="rect1167"
       style="fill:#995023"
       transform="rotate(-45,31.000175,33.000307)"
       height="2"
       width="5.6570001"
       y="32"
       x="28.172001" />
    <polygon
       id="polygon1169"
       style="fill:#bf3f3b"
       points="49,28 38,31 45,32 " />
    <polygon
       id="polygon1171"
       style="fill:#faa400"
       points="39.375,30.625 38,31 38.875,31.125 " />
    <path
       inkscape:connector-curvature="0"
       id="path1173"
       d="m 48.707,2.293 a 1,1 0 0 0 -1.414,0 l -5,5 -13,13 -17.855,17.855 -4.809,1.923 v 0 l -0.01,0.005 A 1.012,1.012 0 0 0 6.33,40.268 c -0.01,0.01 -0.024,0.013 -0.034,0.023 l -4,4 a 1,1 0 0 0 0.391,1.656 l 2.525,0.842 0.843,2.525 a 1,1 0 0 0 0.632,0.633 l 2.525,0.842 0.843,2.525 a 1,1 0 0 0 0.632,0.633 l 2.525,0.842 0.843,2.525 a 1,1 0 0 0 0.632,0.633 l 2.525,0.842 0.843,2.525 a 1,1 0 0 0 1.655,0.391 l 4,-4 a 0.4,0.4 0 0 0 0.022,-0.034 0.975,0.975 0 0 0 0.194,-0.291 v -0.007 0 l 1.924,-4.81 23.857,-23.856 7,-7 5,-5 a 1,1 0 0 0 0,-1.414 z M 38.37,29.862 33.024,23.18 l 12.7,4.678 z M 48.746,26.84 31.812,20.6 43,9.414 54.586,21 Z M 19.437,59.149 18.948,57.684 A 1,1 0 0 0 18.316,57.051 L 15.791,56.209 14.948,53.684 A 1,1 0 0 0 14.316,53.051 L 11.791,52.209 10.948,49.684 A 1,1 0 0 0 10.316,49.051 L 7.791,48.209 6.948,45.684 A 1,1 0 0 0 6.316,45.051 L 4.852,44.563 7,42.414 21.586,57 Z m 4.856,-7.856 a 1.016,1.016 0 0 0 -0.222,0.335 L 22.635,55.221 8.779,41.365 12.371,39.929 a 1.01,1.01 0 0 0 0.336,-0.222 l 17.21,-17.207 1.854,2.318 -6.478,6.478 1.414,1.414 6.321,-6.321 4.076,5.1 -7.811,7.812 1.414,1.414 9.186,-9.187 5.737,-1.564 z M 56,19.586 44.414,8 48,4.414 59.586,16 Z" />
    <rect
       id="rect1175"
       height="2"
       width="2"
       y="14"
       x="41" />
    <rect
       id="rect1177"
       height="2"
       width="2"
       y="19"
       x="39" />
    <rect
       id="rect1179"
       height="2"
       width="2"
       y="9"
       x="49" />
    <rect
       id="rect1181"
       height="2"
       width="2"
       y="20"
       x="49" />
    <path
       inkscape:connector-curvature="0"
       id="path1183"
       d="m 22.437,46.149 -2.292,-6.879 0.562,-0.563 -1.414,-1.414 -1,1 a 1,1 0 0 0 -0.241,1.023 l 3,9 a 1,1 0 0 0 1.655,0.391 l 2,-2 -1.414,-1.414 z" />
    <path
       inkscape:connector-curvature="0"
       id="path1185"
       d="m 27.383,36.076 a 1,1 0 0 0 -1.09,0.217 l -1.586,1.586 -0.717,-5.021 -1.98,0.284 1,7 a 1,1 0 0 0 1.7,0.565 L 26,39.414 V 45 h 2 v -8 a 1,1 0 0 0 -0.617,-0.924 z" />
    <rect
       id="rect1187"
       transform="rotate(-45,31.000175,33.000307)"
       height="2"
       width="5.6570001"
       y="32"
       x="28.172001" />
  </g>
</svg>
