<?xml version="1.0" encoding="UTF-8" standalone="no"?>
<svg
   xmlns:dc="http://purl.org/dc/elements/1.1/"
   xmlns:cc="http://creativecommons.org/ns#"
   xmlns:rdf="http://www.w3.org/1999/02/22-rdf-syntax-ns#"
   xmlns:svg="http://www.w3.org/2000/svg"
   xmlns="http://www.w3.org/2000/svg"
   xmlns:sodipodi="http://sodipodi.sourceforge.net/DTD/sodipodi-0.dtd"
   xmlns:inkscape="http://www.inkscape.org/namespaces/inkscape"
   inkscape:version="1.0beta2 (2b71d25, 2019-12-03)"
   sodipodi:docname="headacheLight.svg"
   version="1.1"
   viewBox="0 0 72 72"
   y="0"
   x="0"
   id="emoji">
  <metadata
     id="metadata1453">
    <rdf:RDF>
      <cc:Work
         rdf:about="">
        <dc:format>image/svg+xml</dc:format>
        <dc:type
           rdf:resource="http://purl.org/dc/dcmitype/StillImage" />
        <dc:title></dc:title>
      </cc:Work>
    </rdf:RDF>
  </metadata>
  <defs
     id="defs1451" />
  <sodipodi:namedview
     inkscape:current-layer="emoji"
     inkscape:window-maximized="0"
     inkscape:window-y="102"
     inkscape:window-x="211"
     inkscape:cy="36"
     inkscape:cx="42.592279"
     inkscape:zoom="9.4059193"
     showguides="false"
     showgrid="false"
     id="namedview1449"
     inkscape:window-height="844"
     inkscape:window-width="1234"
     inkscape:pageshadow="2"
     inkscape:pageopacity="0"
     guidetolerance="10"
     gridtolerance="10"
     objecttolerance="10"
     borderopacity="1"
     inkscape:document-rotation="0"
     bordercolor="#666666"
     pagecolor="#ffffff">
    <sodipodi:guide
       id="guide1455"
       orientation="0,-1"
       position="12.611465,73.375796" />
  </sodipodi:namedview>
  <g
     transform="matrix(0.69322552,0,0,0.69322552,28.063206,-4.712879)"
     id="g2680">
    <g
       id="line-supplement">
      <rect
         x="35"
         y="38.915001"
         width="2"
         height="25"
         fill="none"
         stroke="#000"
         stroke-linecap="round"
         stroke-linejoin="round"
         stroke-width="2"
         id="rect2538" />
      <g
         id="g2578">
        <line
           x1="15.9954"
           x2="15.9954"
           y1="32.9114"
           y2="32.9114"
           fill="none"
           stroke="#000"
           stroke-linecap="round"
           stroke-miterlimit="10"
           stroke-width="2"
           id="line2540" />
        <line
           x1="55.988602"
           x2="55.988602"
           y1="32.902"
           y2="32.902"
           fill="none"
           stroke="#000"
           stroke-linecap="round"
           stroke-miterlimit="10"
           stroke-width="2"
           id="line2542" />
        <line
           x1="35.978001"
           x2="35.978001"
           y1="12.9148"
           y2="12.9148"
           fill="none"
           stroke="#000"
           stroke-linecap="round"
           stroke-miterlimit="10"
           stroke-width="2"
           id="line2544" />
        <line
           x1="21.8491"
           x2="31.7486"
           y1="18.771"
           y2="28.6705"
           fill="none"
           stroke="#000"
           stroke-linecap="round"
           stroke-linejoin="round"
           stroke-width="2"
           id="line2546" />
        <line
           x1="40.233898"
           x2="50.1334"
           y1="28.670401"
           y2="18.771"
           fill="none"
           stroke="#000"
           stroke-linecap="round"
           stroke-linejoin="round"
           stroke-width="2"
           id="line2548" />
        <line
           x1="50.1334"
           x2="40.233898"
           y1="47.055199"
           y2="37.155701"
           fill="none"
           stroke="#000"
           stroke-linecap="round"
           stroke-linejoin="round"
           stroke-width="2"
           id="line2550" />
        <line
           x1="31.7486"
           x2="21.8491"
           y1="37.155701"
           y2="47.055199"
           fill="none"
           stroke="#000"
           stroke-linecap="round"
           stroke-linejoin="round"
           stroke-width="2"
           id="line2552" />
        <line
           x1="29.991301"
           x2="20.991301"
           y1="32.913101"
           y2="32.913101"
           fill="none"
           stroke="#000"
           stroke-linecap="round"
           stroke-miterlimit="10"
           stroke-width="2"
           id="line2554" />
        <line
           x1="35.991299"
           x2="35.991299"
           y1="17.913"
           y2="26.913"
           fill="none"
           stroke="#000"
           stroke-linecap="round"
           stroke-miterlimit="10"
           stroke-width="2"
           id="line2556" />
        <line
           x1="50.991199"
           x2="41.991199"
           y1="32.913101"
           y2="32.913101"
           fill="none"
           stroke="#000"
           stroke-linecap="round"
           stroke-miterlimit="10"
           stroke-width="2"
           id="line2558" />
        <line
           x1="13.0873"
           x2="19.6434"
           y1="23.427299"
           y2="26.143"
           fill="none"
           stroke="#000"
           stroke-linecap="round"
           stroke-miterlimit="10"
           stroke-width="2"
           id="line2560" />
        <line
           x1="13.0883"
           x2="19.644199"
           y1="42.4095"
           y2="39.6931"
           fill="none"
           stroke="#000"
           stroke-linecap="round"
           stroke-miterlimit="10"
           stroke-width="2"
           id="line2562" />
        <line
           x1="26.5133"
           x2="29.2274"
           y1="55.829899"
           y2="49.273102"
           fill="none"
           stroke="#000"
           stroke-linecap="round"
           stroke-miterlimit="10"
           stroke-width="2"
           id="line2564" />
        <line
           x1="45.495098"
           x2="42.777302"
           y1="55.8246"
           y2="49.269299"
           fill="none"
           stroke="#000"
           stroke-linecap="round"
           stroke-miterlimit="10"
           stroke-width="2"
           id="line2566" />
        <line
           x1="58.912701"
           x2="52.355301"
           y1="42.396301"
           y2="39.683701"
           fill="none"
           stroke="#000"
           stroke-linecap="round"
           stroke-miterlimit="10"
           stroke-width="2"
           id="line2568" />
        <line
           x1="58.903198"
           x2="52.348499"
           y1="23.4149"
           y2="26.1341"
           fill="none"
           stroke="#000"
           stroke-linecap="round"
           stroke-miterlimit="10"
           stroke-width="2"
           id="line2570" />
        <line
           x1="45.4716"
           x2="42.760502"
           y1="10"
           y2="16.5581"
           fill="none"
           stroke="#000"
           stroke-linecap="round"
           stroke-miterlimit="10"
           stroke-width="2"
           id="line2572" />
        <line
           x1="26.492001"
           x2="29.2159"
           y1="10.0241"
           y2="16.5769"
           fill="none"
           stroke="#000"
           stroke-linecap="round"
           stroke-miterlimit="10"
           stroke-width="2"
           id="line2574" />
        <polygon
           stroke="#000"
           stroke-linejoin="round"
           stroke-width="2"
           points="35.339,32.282 33.25,32.298 34.931,33.538 34.3,35.53 36,34.315 37.7,35.53 37.069,33.538 38.75,32.298 36.661,32.282 36,30.3 "
           id="polygon2576" />
      </g>
    </g>
    <g
       id="color-5">
      <rect
         x="35"
         y="38.915001"
         width="2"
         height="25"
         fill="none"
         stroke="#d22f27"
         stroke-linecap="round"
         stroke-linejoin="round"
         stroke-width="2"
         id="rect2581" />
      <g
         id="g2621">
        <line
           x1="15.9954"
           x2="15.9954"
           y1="32.9114"
           y2="32.9114"
           fill="none"
           stroke="#fcea2b"
           stroke-linecap="round"
           stroke-miterlimit="10"
           stroke-width="2"
           id="line2583" />
        <line
           x1="55.988602"
           x2="55.988602"
           y1="32.902"
           y2="32.902"
           fill="none"
           stroke="#f1b31c"
           stroke-linecap="round"
           stroke-miterlimit="10"
           stroke-width="2"
           id="line2585" />
        <line
           x1="35.978001"
           x2="35.978001"
           y1="12.9148"
           y2="12.9148"
           fill="none"
           stroke="#f1b31c"
           stroke-linecap="round"
           stroke-miterlimit="10"
           stroke-width="2"
           id="line2587" />
        <line
           x1="21.8491"
           x2="31.7486"
           y1="18.771"
           y2="28.6705"
           fill="none"
           stroke="#e27022"
           stroke-linecap="round"
           stroke-linejoin="round"
           stroke-width="2"
           id="line2589" />
        <line
           x1="40.233898"
           x2="50.1334"
           y1="28.670401"
           y2="18.771"
           fill="none"
           stroke="#61b2e4"
           stroke-linecap="round"
           stroke-linejoin="round"
           stroke-width="2"
           id="line2591" />
        <line
           x1="50.1334"
           x2="40.233898"
           y1="47.055199"
           y2="37.155701"
           fill="none"
           stroke="#f1b31c"
           stroke-linecap="round"
           stroke-linejoin="round"
           stroke-width="2"
           id="line2593" />
        <line
           x1="31.7486"
           x2="21.8491"
           y1="37.155701"
           y2="47.055199"
           fill="none"
           stroke="#e67a94"
           stroke-linecap="round"
           stroke-linejoin="round"
           stroke-width="2"
           id="line2595" />
        <line
           x1="29.991301"
           x2="20.991301"
           y1="32.913101"
           y2="32.913101"
           fill="none"
           stroke="#d0cfce"
           stroke-linecap="round"
           stroke-miterlimit="10"
           stroke-width="2"
           id="line2597" />
        <line
           x1="35.991299"
           x2="35.991299"
           y1="17.913"
           y2="26.913"
           fill="none"
           stroke="#8967aa"
           stroke-linecap="round"
           stroke-miterlimit="10"
           stroke-width="2"
           id="line2599" />
        <line
           x1="50.991199"
           x2="41.991199"
           y1="32.913101"
           y2="32.913101"
           fill="none"
           stroke="#ea5a47"
           stroke-linecap="round"
           stroke-miterlimit="10"
           stroke-width="2"
           id="line2601" />
        <line
           x1="13.0873"
           x2="19.6434"
           y1="23.427299"
           y2="26.143"
           fill="none"
           stroke="#b399c8"
           stroke-linecap="round"
           stroke-miterlimit="10"
           stroke-width="2"
           id="line2603" />
        <line
           x1="13.0883"
           x2="19.644199"
           y1="42.4095"
           y2="39.6931"
           fill="none"
           stroke="#92d3f5"
           stroke-linecap="round"
           stroke-miterlimit="10"
           stroke-width="2"
           id="line2605" />
        <line
           x1="26.5133"
           x2="29.2274"
           y1="55.829899"
           y2="49.273102"
           fill="none"
           stroke="#b1cc33"
           stroke-linecap="round"
           stroke-miterlimit="10"
           stroke-width="2"
           id="line2607" />
        <line
           x1="45.495098"
           x2="42.777302"
           y1="55.8246"
           y2="49.269299"
           fill="none"
           stroke="#ffa7c0"
           stroke-linecap="round"
           stroke-miterlimit="10"
           stroke-width="2"
           id="line2609" />
        <line
           x1="58.912701"
           x2="52.355301"
           y1="42.396301"
           y2="39.683701"
           fill="none"
           stroke="#b399c8"
           stroke-linecap="round"
           stroke-miterlimit="10"
           stroke-width="2"
           id="line2611" />
        <line
           x1="58.903198"
           x2="52.348499"
           y1="23.4149"
           y2="26.1341"
           fill="none"
           stroke="#b1cc33"
           stroke-linecap="round"
           stroke-miterlimit="10"
           stroke-width="2"
           id="line2613" />
        <line
           x1="45.4716"
           x2="42.760502"
           y1="10"
           y2="16.5581"
           fill="none"
           stroke="#a57939"
           stroke-linecap="round"
           stroke-miterlimit="10"
           stroke-width="2"
           id="line2615" />
        <line
           x1="26.492001"
           x2="29.2159"
           y1="10.0241"
           y2="16.5769"
           fill="none"
           stroke="#fcea2b"
           stroke-linecap="round"
           stroke-miterlimit="10"
           stroke-width="2"
           id="line2617" />
        <polygon
           fill="#d22f27"
           stroke="#d22f27"
           stroke-linejoin="round"
           stroke-width="2"
           points="35.339,32.282 33.25,32.298 34.931,33.538 34.3,35.53 36,34.315 37.7,35.53 37.069,33.538 38.75,32.298 36.661,32.282 36,30.3 "
           id="polygon2619" />
      </g>
    </g>
    <g
       id="line-3">
      <polyline
         fill="none"
         stroke="#000"
         stroke-linecap="round"
         stroke-linejoin="round"
         stroke-width="2"
         points="35 58.915 35 38.915 37 38.915"
         id="polyline2624" />
    </g>
  </g>
  <g
     id="skin-shadow" />
  <g
     transform="translate(-6.7361963,1.3251534)"
     id="g1560">
    <g
       id="g1475"
       transform="matrix(0.94261797,0,0,0.94261797,7.867995,9.1342699)">
      <g
         id="color">
        <path
           id="path1415"
           d="M 16,60.958 15.875,57 c 0,-5.875 6.1328,-10 11.125,-10 6,5 12,5 18,0 4.9941,0 10,5.0059 10,10 v 3.958"
           fill="#92D3F5"
           inkscape:connector-curvature="0" />
      </g>
      <g
         id="hair">
        <path
           id="path1418"
           d="m 25.7715,39 c -4,0 -4.832,-6.5 -4.832,-13.5 0,-7 4.832,-13.5 14.832,-13.5 10,0 14,7 14,14 0,7 0,13 -4,13"
           fill="#F1B31C"
           inkscape:connector-curvature="0" />
      </g>
      <g
         id="skin">
        <path
           id="path1421"
           d="M 28.8438,43.0937 C 29.5947,44.0117 32.8525,46 35.75,46 c 5.9365,0 11.125,-5.25 11.125,-14.25 0,-3 -1,-5.0005 -1,-5.0005 -3,-2.9995 -7.6562,-9.4995 -7.6562,-9.4995 -1.1211,0.8413 -2.0743,2.5479 -3.3243,3.978"
           fill="#FCEA2B"
           inkscape:connector-curvature="0" />
        <path
           id="path1423"
           d="m 28.875,60.958 c 0.0049,-0.5703 -0.6973,-10.4092 0,-14.9717 0.2666,-1.7461 2,-1.9863 3,-3.9863 3,-6 1.833,-8.333 4,-14 1.1299,-2.9541 -1.5645,-3.7236 -3.127,-0.6001 L 35.7559,23.606 C 36.96,20.2915 33.168,19.1665 31.5,21 l -1.8271,3.6265 C 31.2422,22.2729 28.6914,20.478 27,22.2515 25.4209,23.9072 23.376,28.5464 21.875,33 c 0,0 -0.1172,-2.1943 0.8125,-4.1875 C 23.252,27.6025 22.916,25.8633 21,26 c -0.9971,0.0713 -1.7637,2.7734 -2.54,5.667 -0.7803,2.9067 0.0879,7.1562 0.7197,8.4209 1.4141,2.8281 1.6953,2.8984 1.6953,2.8984 0,0 -2,8.9717 -4,17.9717"
           fill="#FCEA2B"
           inkscape:connector-curvature="0" />
      </g>
      <g
         id="line">
        <path
           id="path1427"
           d="M 22.1895,23.4019 C 23.0879,17.3662 27.2441,12 36,12 c 10,0 14,7 14,14 0,7 0,13 -4,13"
           stroke-width="2"
           stroke-linejoin="round"
           stroke-linecap="round"
           stroke="#000000"
           fill="none"
           inkscape:connector-curvature="0" />
        <path
           id="path1429"
           d="m 41.873,30 c 0,1.1045 -0.8955,2 -2,2 -1.1044,0 -2,-0.8955 -2,-2 0,-1.1045 0.8956,-2 2,-2 1.1045,0 2,0.8955 2,2"
           inkscape:connector-curvature="0" />
        <path
           id="path1431"
           d="m 37.4375,38 c 1.75,0 -0.875,0 1.5625,0"
           stroke-width="2"
           stroke-linejoin="round"
           stroke-linecap="round"
           stroke="#000000"
           fill="none"
           inkscape:connector-curvature="0" />
        <path
           id="path1433"
           d="m 55,60 v -3 c 0,-4.9941 -5.0059,-9 -10,-9 -3.3652,2.8027 -6.8389,3.6934 -10.0937,3.6934 -0.7042,0 -1.4415,-0.0655 -2.0538,-0.1402"
           stroke-width="2"
           stroke-linejoin="round"
           stroke-linecap="round"
           stroke="#000000"
           fill="none"
           inkscape:connector-curvature="0" />
        <path
           id="path1435"
           d="M 32.3457,21.542 C 30.1553,24.8276 30.4473,24.3462 27,31"
           stroke-width="2"
           stroke-miterlimit="10"
           stroke-linejoin="round"
           stroke-linecap="round"
           stroke="#000000"
           fill="none"
           inkscape:connector-curvature="0" />
        <path
           id="path1437"
           d="m 22,32.6025 c 2.25,-4.333 4.1094,-7.81 5.5313,-9.6025"
           stroke-width="2"
           stroke-miterlimit="10"
           stroke-linejoin="round"
           stroke-linecap="round"
           stroke="#000000"
           fill="none"
           inkscape:connector-curvature="0" />
        <path
           id="path1439"
           d="m 17,60 c 2,-9 4,-17.4111 4,-17.4111 0,0 -0.5859,-0.7603 -2,-3.5889 -2,-4 0,-9 2,-12"
           stroke-width="2"
           stroke-miterlimit="10"
           stroke-linejoin="round"
           stroke-linecap="round"
           stroke="#000000"
           fill="none"
           inkscape:connector-curvature="0" />
        <path
           id="path1441"
           d="m 35,23 c -1.2832,2.5649 -2.8262,5.4771 -4,9"
           stroke-width="2"
           stroke-miterlimit="10"
           stroke-linejoin="round"
           stroke-linecap="round"
           stroke="#000000"
           fill="none"
           inkscape:connector-curvature="0" />
        <path
           id="path1443"
           d="m 29,60 c 0.0049,-0.5703 -0.6973,-9.4512 0,-14.0137 0.2666,-1.7461 2.1914,-2.289 3,-3.9863 1.9063,-4 2.334,-7.8057 3.9365,-14"
           stroke-width="2"
           stroke-miterlimit="10"
           stroke-linejoin="round"
           stroke-linecap="round"
           stroke="#000000"
           fill="none"
           inkscape:connector-curvature="0" />
        <path
           id="path1445"
           d="m 37.3262,19.7109 c 0.5107,-0.5605 0.9062,-1.1352 1.6738,-1.7114 0,0 4,5.0005 7,8 0,0 1,2.0005 1,5.0005 0,9 -5.127,14 -11.0635,14 C 35.7178,45 35.377,44.9771 35,44.9438"
           stroke-width="2"
           stroke-linejoin="round"
           stroke-linecap="round"
           stroke="#000000"
           fill="none"
           inkscape:connector-curvature="0" />
      </g>
    </g>
    <g
       id="g1519"
       transform="matrix(0.11572856,0,0,0.11572856,7.8607015,2.6012275)">
      <g
         id="layer1"
         inkscape:label="layer1" />
      <g
         id="g315-6-9"
         transform="matrix(0.45087563,0,0,0.49319789,10.63319,1.6359845)">
        <g
           id="hair-6-1" />
        <g
           id="skin-2-7" />
        <g
           id="skin-shadow-7-2" />
        <g
           id="g1599"
           transform="translate(26.614878,2.0275837)">
          <g
             id="g1613"
             transform="translate(-11.089533,-10.137918)">
            <g
               id="g1218-4-6-9-8-7-7"
               transform="matrix(-3.7252093,2.5329544,-5.7596302,-2.2257047,535.47943,216.69223)">
              <path
                 style="fill:#f44a5d;fill-opacity:1"
                 id="path292-7-9-8-0-5-8-8-1"
                 d="M 48.145,3.8658999 16.318,37.9905 c -0.6029,0.6465 -0.1141,1.6589 0.801,1.6589 H 36.2256 L 19.1523,67.188 c -0.1662,0.2681 0.215,0.5364 0.4424,0.3114 l 36.0628,-35.704 c 0.6436,-0.6372 0.1626,-1.6882 -0.7725,-1.6882 H 36.3846 Z"
                 stroke="none"
                 fill="#FCEA2B"
                 inkscape:connector-curvature="0" />
              <g
                 id="line-0-3-0-3-4-3-4-8">
                <path
                   inkscape:connector-curvature="0"
                   fill="none"
                   stroke="#000000"
                   stroke-linecap="round"
                   stroke-linejoin="round"
                   stroke-miterlimit="10"
                   stroke-width="2"
                   d="M 48.1628,4.4406 16.3224,37.7817 c -0.6174,0.6465 -0.1168,1.6589 0.8201,1.6589 H 36.2254 L 17.9214,68.2739 55.6483,31.7954 c 0.659,-0.6372 0.1665,-1.6882 -0.791,-1.6882 H 36.3846 Z"
                   id="path298-3-6-4-2-9-5-1-7" />
              </g>
            </g>
            <g
               transform="matrix(-3.7603543,-0.90354023,-1.6432808,-4.5962971,603.78371,396.56708)"
               id="g1218-4-6-9-8-7-7-4">
              <path
                 inkscape:connector-curvature="0"
                 fill="#FCEA2B"
                 stroke="none"
                 d="M 48.145,3.8658999 16.318,37.9905 c -0.6029,0.6465 -0.1141,1.6589 0.801,1.6589 H 36.2256 L 19.1523,67.188 c -0.1662,0.2681 0.215,0.5364 0.4424,0.3114 l 36.0628,-35.704 c 0.6436,-0.6372 0.1626,-1.6882 -0.7725,-1.6882 H 36.3846 Z"
                 id="path292-7-9-8-0-5-8-8-1-0"
                 style="fill:#f44a5d;fill-opacity:1" />
              <g
                 id="line-0-3-0-3-4-3-4-8-0">
                <path
                   id="path298-3-6-4-2-9-5-1-7-9"
                   d="M 48.1628,4.4406 16.3224,37.7817 c -0.6174,0.6465 -0.1168,1.6589 0.8201,1.6589 H 36.2254 L 17.9214,68.2739 55.6483,31.7954 c 0.659,-0.6372 0.1665,-1.6882 -0.791,-1.6882 H 36.3846 Z"
                   stroke-width="2"
                   stroke-miterlimit="10"
                   stroke-linejoin="round"
                   stroke-linecap="round"
                   stroke="#000000"
                   fill="none"
                   inkscape:connector-curvature="0" />
              </g>
            </g>
            <g
               id="g1218-4-6-9-8-7-7-4-3"
               transform="matrix(-0.98835263,3.4376711,-5.0277369,1.5022676,399.27125,240.33977)">
              <path
                 style="fill:#f44a5d;fill-opacity:1"
                 id="path292-7-9-8-0-5-8-8-1-0-7"
                 d="M 48.145,3.8658999 16.318,37.9905 c -0.6029,0.6465 -0.1141,1.6589 0.801,1.6589 H 36.2256 L 19.1523,67.188 c -0.1662,0.2681 0.215,0.5364 0.4424,0.3114 l 36.0628,-35.704 c 0.6436,-0.6372 0.1626,-1.6882 -0.7725,-1.6882 H 36.3846 Z"
                 stroke="none"
                 fill="#FCEA2B"
                 inkscape:connector-curvature="0" />
              <g
                 id="line-0-3-0-3-4-3-4-8-0-5">
                <path
                   inkscape:connector-curvature="0"
                   fill="none"
                   stroke="#000000"
                   stroke-linecap="round"
                   stroke-linejoin="round"
                   stroke-miterlimit="10"
                   stroke-width="2"
                   d="M 48.1628,4.4406 16.3224,37.7817 c -0.6174,0.6465 -0.1168,1.6589 0.8201,1.6589 H 36.2254 L 17.9214,68.2739 55.6483,31.7954 c 0.659,-0.6372 0.1665,-1.6882 -0.791,-1.6882 H 36.3846 Z"
                   id="path298-3-6-4-2-9-5-1-7-9-7" />
              </g>
            </g>
          </g>
        </g>
      </g>
    </g>
  </g>
</svg>
