<?xml version="1.0" encoding="UTF-8" standalone="no"?>
<svg
   xmlns:dc="http://purl.org/dc/elements/1.1/"
   xmlns:cc="http://creativecommons.org/ns#"
   xmlns:rdf="http://www.w3.org/1999/02/22-rdf-syntax-ns#"
   xmlns:svg="http://www.w3.org/2000/svg"
   xmlns="http://www.w3.org/2000/svg"
   xmlns:sodipodi="http://sodipodi.sourceforge.net/DTD/sodipodi-0.dtd"
   xmlns:inkscape="http://www.inkscape.org/namespaces/inkscape"
   inkscape:version="1.0beta2 (2b71d25, 2019-12-03)"
   sodipodi:docname="headacheTingle.svg"
   version="1.1"
   viewBox="0 0 72 72"
   y="0"
   x="0"
   id="emoji">
  <metadata
     id="metadata1453">
    <rdf:RDF>
      <cc:Work
         rdf:about="">
        <dc:format>image/svg+xml</dc:format>
        <dc:type
           rdf:resource="http://purl.org/dc/dcmitype/StillImage" />
        <dc:title></dc:title>
      </cc:Work>
    </rdf:RDF>
  </metadata>
  <defs
     id="defs1451" />
  <sodipodi:namedview
     inkscape:current-layer="g2738"
     inkscape:window-maximized="0"
     inkscape:window-y="80"
     inkscape:window-x="211"
     inkscape:cy="36"
     inkscape:cx="36"
     inkscape:zoom="7.3935133"
     showguides="false"
     showgrid="false"
     id="namedview1449"
     inkscape:window-height="844"
     inkscape:window-width="1234"
     inkscape:pageshadow="2"
     inkscape:pageopacity="0"
     guidetolerance="10"
     gridtolerance="10"
     objecttolerance="10"
     borderopacity="1"
     inkscape:document-rotation="0"
     bordercolor="#666666"
     pagecolor="#ffffff">
    <sodipodi:guide
       id="guide1455"
       orientation="0,-1"
       position="12.611465,73.375796" />
  </sodipodi:namedview>
  <g
     transform="matrix(0.66363355,0,0,0.66363355,26.053841,-3.4440186)"
     id="g2738">
    <g
       id="hair-1" />
    <g
       id="skin-1" />
    <g
       id="skin-shadow-6" />
    <g
       transform="matrix(0.59576045,0,0,0.59576045,24.369664,6.4780647)"
       id="g129">
      <g
         id="color-0">
        <path
           inkscape:connector-curvature="0"
           fill="#FCEA2B"
           stroke="none"
           d="m 25.7052,40.1067 c 0.1453,0.8051 0.9245,1.4619 1.9675,1.6589 l 11.9059,2.2495 c 0.5576,0.1054 0.564,0.7031 0.0064,0.8085 -3.1597,0.597 -9.0176,1.7037 -11.9188,2.2519 -1.043,0.1971 -1.8155,0.8529 -1.9608,1.6579 l -3.1563,17.4924 c -0.0868,0.4811 -1.0073,0.4811 -1.0942,0 L 18.2986,48.7337 C 18.1533,47.9286 17.3807,47.2727 16.3375,47.0756 13.4361,46.5277 7.5781,45.421 4.4182,44.824 c -0.5576,-0.1053 -0.5576,-0.7019 0,-0.8072 3.1601,-0.597 9.0184,-1.7039 11.9197,-2.2523 1.0429,-0.1971 1.172,-1.1419 1.3173,-1.9469 L 20.308,25.7255 c 0.0868,-0.4811 2.1538,-3.594 2.2406,-3.1128 0.9825,5.4443 2.9623,16.4164 3.1566,17.494 z"
           id="path79" />
        <path
           inkscape:connector-curvature="0"
           fill="#F1B31C"
           stroke="none"
           d="M 22.6499,66.2258 24.2317,50.8224 C 21.4322,46.2039 20.3623,41.4122 19.0589,38 l -1.3554,2.1201 c -0.1349,0.8046 -0.8519,1.46 -1.8203,1.6571 -2.6937,0.548 -8.133,1.6544 -11.0668,2.2512 -0.5177,0.1053 -0.5177,0.7015 0,0.8068 2.9338,0.5967 8.3727,1.7028 11.0664,2.2504 0.9685,0.197 2.6859,0.8525 2.8208,1.6572 l 2.9305,17.4831 c 0.0806,0.4809 0.9353,0.4809 1.0158,-10e-5 z"
           id="path81" />
        <path
           inkscape:connector-curvature="0"
           fill="#FCEA2B"
           stroke="none"
           d="m 46.676,19.3048 c 0.1049,0.5815 0.6677,1.0558 1.421,1.1981 l 8.5987,1.6246 c 0.4027,0.0761 0.4073,0.5078 0.0046,0.5839 -2.282,0.4312 -6.5127,1.2304 -8.6081,1.6263 -0.7533,0.1423 -1.3112,0.616 -1.4161,1.1974 l -2.2795,12.6334 c -0.0627,0.3475 -0.7275,0.3475 -0.7902,0 L 41.3269,25.5353 c -0.1049,-0.5815 -0.6629,-1.0552 -1.4163,-1.1975 -2.0955,-0.3957 -6.3263,-1.195 -8.6084,-1.6262 -0.4027,-0.0761 -0.4027,-0.5069 0,-0.583 2.2823,-0.4312 6.5133,-1.2306 8.6086,-1.6267 0.7532,-0.1423 0.8465,-0.8247 0.9514,-1.4061 L 42.6553,8.9182 c 0.0627,-0.3475 1.6784,-2.5957 1.741,-2.2481 0.7095,3.9321 2.1393,11.8564 2.2797,12.6347 z"
           id="path83" />
        <path
           inkscape:connector-curvature="0"
           fill="#F1B31C"
           stroke="none"
           d="M 44.7472,38.1686 45.6118,27.0439 C 43.5899,23.7084 42.095,20.2476 41.1537,17.7833 l -0.2567,1.5312 c -0.0974,0.5811 -0.6153,1.0544 -1.3147,1.1968 -1.9454,0.3958 -5.8738,1.1948 -7.9927,1.6259 -0.3739,0.076 -0.3739,0.5066 0,0.5827 2.1189,0.431 6.0469,1.2298 7.9924,1.6253 0.6995,0.1423 2.2176,0.6157 2.315,1.1969 l 2.1164,12.6266 c 0.0583,0.3473 0.6756,0.3473 0.7338,-1e-4 z"
           id="path85" />
        <path
           inkscape:connector-curvature="0"
           fill="#FCEA2B"
           stroke="none"
           d="m 56.8824,48.9358 c 0.0862,0.4637 0.5487,0.8419 1.1677,0.9554 l 7.0663,1.2955 c 0.3309,0.0607 0.3347,0.4049 0.0038,0.4656 -1.8753,0.3438 -5.352,0.9812 -7.074,1.2969 -0.619,0.1135 -1.0775,0.4912 -1.1637,0.9548 l -1.8733,10.0742 c -0.0515,0.2771 -0.5978,0.2771 -0.6494,0 l -1.8733,-10.074 c -0.0862,-0.4637 -0.5448,-0.8414 -1.1639,-0.9549 -1.722,-0.3156 -5.1988,-0.9529 -7.0743,-1.2967 -0.3309,-0.0607 -0.3309,-0.4042 0,-0.4649 1.8755,-0.3438 5.3525,-0.9813 7.0745,-1.2972 0.619,-0.1135 0.6956,-0.6577 0.7818,-1.1213 l 1.4736,-8.1159 c 0.0515,-0.2771 1.3793,-2.0699 1.4308,-1.7927 0.583,3.1356 1.758,9.4545 1.8734,10.0752 z"
           id="path87" />
        <path
           inkscape:connector-curvature="0"
           fill="#F1B31C"
           stroke="none"
           d="m 55.2315,63.9782 1.0538,-8.8711 c -1.6123,-2.6598 -2.8044,-5.4195 -3.555,-7.3846 l -0.2047,1.221 c -0.0777,0.4634 -0.4906,0.8408 -1.0484,0.9543 -1.5513,0.3156 -4.6839,0.9528 -6.3736,1.2965 -0.2982,0.0606 -0.2982,0.404 0,0.4646 1.6896,0.3437 4.822,0.9807 6.3733,1.2961 0.5578,0.1134 0.9709,0.491 1.0486,0.9544 l 2.1208,10.0688 c 0.0466,0.277 0.5388,0.277 0.5852,0 z"
           id="path89" />
      </g>
      <g
         id="hair-2" />
      <g
         id="skin-4" />
      <g
         id="skin-shadow-8" />
      <g
         id="line-3">
        <path
           inkscape:connector-curvature="0"
           fill="none"
           stroke="#000000"
           stroke-linecap="round"
           stroke-linejoin="round"
           stroke-miterlimit="10"
           stroke-width="0.2549"
           d="M 20.694,29.4823"
           id="path95" />
        <path
           inkscape:connector-curvature="0"
           fill="none"
           stroke="#000000"
           stroke-linecap="round"
           stroke-linejoin="round"
           stroke-miterlimit="10"
           stroke-width="2"
           d="m 20,32 2.1418,-11.1605 0.6996,4.1763 c 0.1122,0.6679 2.3298,13.9055 2.3298,13.9055 0.2615,1.5604 1.6435,2.8154 3.5205,3.1974 L 40,44.4198 28.6839,46.7224 c -1.8724,0.381 -3.2513,1.6356 -3.5127,3.1963 L 22.1422,68 19.1132,49.9194 C 18.8517,48.3587 17.4727,47.1041 15.6001,46.723 L 4.2836,44.4205 15.6007,42.1174 C 17.4727,41.7362 18.7387,39.5604 19,38"
           id="path97" />
        <path
           inkscape:connector-curvature="0"
           fill="none"
           stroke="#000000"
           stroke-linecap="round"
           stroke-linejoin="round"
           stroke-miterlimit="10"
           stroke-width="0.1841"
           d="M 43.0568,11.6316"
           id="path99" />
        <path
           inkscape:connector-curvature="0"
           fill="none"
           stroke="#000000"
           stroke-linecap="round"
           stroke-linejoin="round"
           stroke-miterlimit="10"
           stroke-width="2"
           d="m 42.5556,13.4499 1.5469,-8.0604 0.5052,3.0162 c 0.081,0.4824 1.6827,10.0429 1.6827,10.0429 0.1889,1.1269 1.1869,2.0334 2.5426,2.3092 l 8.167,1.662 -8.1728,1.663 C 47.4749,24.358 46.479,25.264 46.2903,26.3912 L 44.1027,39.4499 41.9151,26.3917 c -0.1889,-1.1272 -1.1848,-2.0333 -2.5372,-2.3085 l -8.173,-1.6629 8.1735,-1.6634 c 1.352,-0.2753 2.2663,-1.8467 2.455,-2.9736"
           id="path101" />
        <path
           inkscape:connector-curvature="0"
           fill="none"
           stroke="#000000"
           stroke-linecap="round"
           stroke-linejoin="round"
           stroke-miterlimit="10"
           stroke-width="2"
           d="m 53.8482,44.267 1.2335,-6.4275 0.4029,2.4052 c 0.0646,0.3847 1.3418,8.0084 1.3418,8.0084 0.1506,0.8986 0.9465,1.6215 2.0275,1.8414 l 6.5126,1.3253 -6.5171,1.3261 c -1.0783,0.2194 -1.8725,0.9419 -2.023,1.8408 L 55.0819,65 53.3374,54.5871 c -0.1506,-0.8988 -0.9448,-1.6214 -2.0232,-1.8409 l -6.5174,-1.326 6.5177,-1.3264 c 1.0781,-0.2195 1.8072,-1.4726 1.9577,-2.3712"
           id="path103" />
      </g>
    </g>
  </g>
  <g
     id="skin-shadow" />
  <g
     transform="translate(-6.7361963,1.3251534)"
     id="g1560">
    <g
       id="g1475"
       transform="matrix(0.94261797,0,0,0.94261797,7.867995,9.1342699)">
      <g
         id="color">
        <path
           id="path1415"
           d="M 16,60.958 15.875,57 c 0,-5.875 6.1328,-10 11.125,-10 6,5 12,5 18,0 4.9941,0 10,5.0059 10,10 v 3.958"
           fill="#92D3F5"
           inkscape:connector-curvature="0" />
      </g>
      <g
         id="hair">
        <path
           id="path1418"
           d="m 25.7715,39 c -4,0 -4.832,-6.5 -4.832,-13.5 0,-7 4.832,-13.5 14.832,-13.5 10,0 14,7 14,14 0,7 0,13 -4,13"
           fill="#F1B31C"
           inkscape:connector-curvature="0" />
      </g>
      <g
         id="skin">
        <path
           id="path1421"
           d="M 28.8438,43.0937 C 29.5947,44.0117 32.8525,46 35.75,46 c 5.9365,0 11.125,-5.25 11.125,-14.25 0,-3 -1,-5.0005 -1,-5.0005 -3,-2.9995 -7.6562,-9.4995 -7.6562,-9.4995 -1.1211,0.8413 -2.0743,2.5479 -3.3243,3.978"
           fill="#FCEA2B"
           inkscape:connector-curvature="0" />
        <path
           id="path1423"
           d="m 28.875,60.958 c 0.0049,-0.5703 -0.6973,-10.4092 0,-14.9717 0.2666,-1.7461 2,-1.9863 3,-3.9863 3,-6 1.833,-8.333 4,-14 1.1299,-2.9541 -1.5645,-3.7236 -3.127,-0.6001 L 35.7559,23.606 C 36.96,20.2915 33.168,19.1665 31.5,21 l -1.8271,3.6265 C 31.2422,22.2729 28.6914,20.478 27,22.2515 25.4209,23.9072 23.376,28.5464 21.875,33 c 0,0 -0.1172,-2.1943 0.8125,-4.1875 C 23.252,27.6025 22.916,25.8633 21,26 c -0.9971,0.0713 -1.7637,2.7734 -2.54,5.667 -0.7803,2.9067 0.0879,7.1562 0.7197,8.4209 1.4141,2.8281 1.6953,2.8984 1.6953,2.8984 0,0 -2,8.9717 -4,17.9717"
           fill="#FCEA2B"
           inkscape:connector-curvature="0" />
      </g>
      <g
         id="line">
        <path
           id="path1427"
           d="M 22.1895,23.4019 C 23.0879,17.3662 27.2441,12 36,12 c 10,0 14,7 14,14 0,7 0,13 -4,13"
           stroke-width="2"
           stroke-linejoin="round"
           stroke-linecap="round"
           stroke="#000000"
           fill="none"
           inkscape:connector-curvature="0" />
        <path
           id="path1429"
           d="m 41.873,30 c 0,1.1045 -0.8955,2 -2,2 -1.1044,0 -2,-0.8955 -2,-2 0,-1.1045 0.8956,-2 2,-2 1.1045,0 2,0.8955 2,2"
           inkscape:connector-curvature="0" />
        <path
           id="path1431"
           d="m 37.4375,38 c 1.75,0 -0.875,0 1.5625,0"
           stroke-width="2"
           stroke-linejoin="round"
           stroke-linecap="round"
           stroke="#000000"
           fill="none"
           inkscape:connector-curvature="0" />
        <path
           id="path1433"
           d="m 55,60 v -3 c 0,-4.9941 -5.0059,-9 -10,-9 -3.3652,2.8027 -6.8389,3.6934 -10.0937,3.6934 -0.7042,0 -1.4415,-0.0655 -2.0538,-0.1402"
           stroke-width="2"
           stroke-linejoin="round"
           stroke-linecap="round"
           stroke="#000000"
           fill="none"
           inkscape:connector-curvature="0" />
        <path
           id="path1435"
           d="M 32.3457,21.542 C 30.1553,24.8276 30.4473,24.3462 27,31"
           stroke-width="2"
           stroke-miterlimit="10"
           stroke-linejoin="round"
           stroke-linecap="round"
           stroke="#000000"
           fill="none"
           inkscape:connector-curvature="0" />
        <path
           id="path1437"
           d="m 22,32.6025 c 2.25,-4.333 4.1094,-7.81 5.5313,-9.6025"
           stroke-width="2"
           stroke-miterlimit="10"
           stroke-linejoin="round"
           stroke-linecap="round"
           stroke="#000000"
           fill="none"
           inkscape:connector-curvature="0" />
        <path
           id="path1439"
           d="m 17,60 c 2,-9 4,-17.4111 4,-17.4111 0,0 -0.5859,-0.7603 -2,-3.5889 -2,-4 0,-9 2,-12"
           stroke-width="2"
           stroke-miterlimit="10"
           stroke-linejoin="round"
           stroke-linecap="round"
           stroke="#000000"
           fill="none"
           inkscape:connector-curvature="0" />
        <path
           id="path1441"
           d="m 35,23 c -1.2832,2.5649 -2.8262,5.4771 -4,9"
           stroke-width="2"
           stroke-miterlimit="10"
           stroke-linejoin="round"
           stroke-linecap="round"
           stroke="#000000"
           fill="none"
           inkscape:connector-curvature="0" />
        <path
           id="path1443"
           d="m 29,60 c 0.0049,-0.5703 -0.6973,-9.4512 0,-14.0137 0.2666,-1.7461 2.1914,-2.289 3,-3.9863 1.9063,-4 2.334,-7.8057 3.9365,-14"
           stroke-width="2"
           stroke-miterlimit="10"
           stroke-linejoin="round"
           stroke-linecap="round"
           stroke="#000000"
           fill="none"
           inkscape:connector-curvature="0" />
        <path
           id="path1445"
           d="m 37.3262,19.7109 c 0.5107,-0.5605 0.9062,-1.1352 1.6738,-1.7114 0,0 4,5.0005 7,8 0,0 1,2.0005 1,5.0005 0,9 -5.127,14 -11.0635,14 C 35.7178,45 35.377,44.9771 35,44.9438"
           stroke-width="2"
           stroke-linejoin="round"
           stroke-linecap="round"
           stroke="#000000"
           fill="none"
           inkscape:connector-curvature="0" />
      </g>
    </g>
    <g
       id="g1519"
       transform="matrix(0.11572856,0,0,0.11572856,7.8607015,2.6012275)">
      <g
         id="layer1"
         inkscape:label="layer1" />
      <g
         id="g315-6-9"
         transform="matrix(0.45087563,0,0,0.49319789,10.63319,1.6359845)">
        <g
           id="hair-6-1" />
        <g
           id="skin-2-7" />
        <g
           id="skin-shadow-7-2" />
        <g
           id="g1599"
           transform="translate(26.614878,2.0275837)">
          <g
             id="g1613"
             transform="translate(-11.089533,-10.137918)">
            <g
               id="g1218-4-6-9-8-7-7"
               transform="matrix(-3.7252093,2.5329544,-5.7596302,-2.2257047,535.47943,216.69223)">
              <path
                 style="fill:#f44a5d;fill-opacity:1"
                 id="path292-7-9-8-0-5-8-8-1"
                 d="M 48.145,3.8658999 16.318,37.9905 c -0.6029,0.6465 -0.1141,1.6589 0.801,1.6589 H 36.2256 L 19.1523,67.188 c -0.1662,0.2681 0.215,0.5364 0.4424,0.3114 l 36.0628,-35.704 c 0.6436,-0.6372 0.1626,-1.6882 -0.7725,-1.6882 H 36.3846 Z"
                 stroke="none"
                 fill="#FCEA2B"
                 inkscape:connector-curvature="0" />
              <g
                 id="line-0-3-0-3-4-3-4-8">
                <path
                   inkscape:connector-curvature="0"
                   fill="none"
                   stroke="#000000"
                   stroke-linecap="round"
                   stroke-linejoin="round"
                   stroke-miterlimit="10"
                   stroke-width="2"
                   d="M 48.1628,4.4406 16.3224,37.7817 c -0.6174,0.6465 -0.1168,1.6589 0.8201,1.6589 H 36.2254 L 17.9214,68.2739 55.6483,31.7954 c 0.659,-0.6372 0.1665,-1.6882 -0.791,-1.6882 H 36.3846 Z"
                   id="path298-3-6-4-2-9-5-1-7" />
              </g>
            </g>
            <g
               transform="matrix(-3.7603543,-0.90354023,-1.6432808,-4.5962971,603.78371,396.56708)"
               id="g1218-4-6-9-8-7-7-4">
              <path
                 inkscape:connector-curvature="0"
                 fill="#FCEA2B"
                 stroke="none"
                 d="M 48.145,3.8658999 16.318,37.9905 c -0.6029,0.6465 -0.1141,1.6589 0.801,1.6589 H 36.2256 L 19.1523,67.188 c -0.1662,0.2681 0.215,0.5364 0.4424,0.3114 l 36.0628,-35.704 c 0.6436,-0.6372 0.1626,-1.6882 -0.7725,-1.6882 H 36.3846 Z"
                 id="path292-7-9-8-0-5-8-8-1-0"
                 style="fill:#f44a5d;fill-opacity:1" />
              <g
                 id="line-0-3-0-3-4-3-4-8-0">
                <path
                   id="path298-3-6-4-2-9-5-1-7-9"
                   d="M 48.1628,4.4406 16.3224,37.7817 c -0.6174,0.6465 -0.1168,1.6589 0.8201,1.6589 H 36.2254 L 17.9214,68.2739 55.6483,31.7954 c 0.659,-0.6372 0.1665,-1.6882 -0.791,-1.6882 H 36.3846 Z"
                   stroke-width="2"
                   stroke-miterlimit="10"
                   stroke-linejoin="round"
                   stroke-linecap="round"
                   stroke="#000000"
                   fill="none"
                   inkscape:connector-curvature="0" />
              </g>
            </g>
            <g
               id="g1218-4-6-9-8-7-7-4-3"
               transform="matrix(-0.98835263,3.4376711,-5.0277369,1.5022676,399.27125,240.33977)">
              <path
                 style="fill:#f44a5d;fill-opacity:1"
                 id="path292-7-9-8-0-5-8-8-1-0-7"
                 d="M 48.145,3.8658999 16.318,37.9905 c -0.6029,0.6465 -0.1141,1.6589 0.801,1.6589 H 36.2256 L 19.1523,67.188 c -0.1662,0.2681 0.215,0.5364 0.4424,0.3114 l 36.0628,-35.704 c 0.6436,-0.6372 0.1626,-1.6882 -0.7725,-1.6882 H 36.3846 Z"
                 stroke="none"
                 fill="#FCEA2B"
                 inkscape:connector-curvature="0" />
              <g
                 id="line-0-3-0-3-4-3-4-8-0-5">
                <path
                   inkscape:connector-curvature="0"
                   fill="none"
                   stroke="#000000"
                   stroke-linecap="round"
                   stroke-linejoin="round"
                   stroke-miterlimit="10"
                   stroke-width="2"
                   d="M 48.1628,4.4406 16.3224,37.7817 c -0.6174,0.6465 -0.1168,1.6589 0.8201,1.6589 H 36.2254 L 17.9214,68.2739 55.6483,31.7954 c 0.659,-0.6372 0.1665,-1.6882 -0.791,-1.6882 H 36.3846 Z"
                   id="path298-3-6-4-2-9-5-1-7-9-7" />
              </g>
            </g>
          </g>
        </g>
      </g>
    </g>
  </g>
</svg>
