<?xml version="1.0" encoding="UTF-8" standalone="no"?>
<svg
   xmlns:dc="http://purl.org/dc/elements/1.1/"
   xmlns:cc="http://creativecommons.org/ns#"
   xmlns:rdf="http://www.w3.org/1999/02/22-rdf-syntax-ns#"
   xmlns:svg="http://www.w3.org/2000/svg"
   xmlns="http://www.w3.org/2000/svg"
   xmlns:sodipodi="http://sodipodi.sourceforge.net/DTD/sodipodi-0.dtd"
   xmlns:inkscape="http://www.inkscape.org/namespaces/inkscape"
   inkscape:version="1.0beta2 (2b71d25, 2019-12-03)"
   sodipodi:docname="headacheStairs.svg"
   version="1.1"
   viewBox="0 0 72 72"
   y="0"
   x="0"
   id="emoji">
  <metadata
     id="metadata1453">
    <rdf:RDF>
      <cc:Work
         rdf:about="">
        <dc:format>image/svg+xml</dc:format>
        <dc:type
           rdf:resource="http://purl.org/dc/dcmitype/StillImage" />
        <dc:title></dc:title>
      </cc:Work>
    </rdf:RDF>
  </metadata>
  <defs
     id="defs1451" />
  <sodipodi:namedview
     inkscape:current-layer="g267"
     inkscape:window-maximized="0"
     inkscape:window-y="80"
     inkscape:window-x="211"
     inkscape:cy="31.752212"
     inkscape:cx="36"
     inkscape:zoom="9.4166667"
     showguides="false"
     showgrid="false"
     id="namedview1449"
     inkscape:window-height="844"
     inkscape:window-width="1234"
     inkscape:pageshadow="2"
     inkscape:pageopacity="0"
     guidetolerance="10"
     gridtolerance="10"
     objecttolerance="10"
     borderopacity="1"
     inkscape:document-rotation="0"
     bordercolor="#666666"
     pagecolor="#ffffff">
    <sodipodi:guide
       id="guide1455"
       orientation="0,-1"
       position="12.611465,73.375796" />
  </sodipodi:namedview>
  <g
     transform="matrix(0.66363355,0,0,0.66363355,26.053841,-3.4440186)"
     id="g2738">
    <g
       id="hair-1" />
    <g
       id="skin-1" />
    <g
       id="skin-shadow-6" />
    <g
       transform="matrix(-0.99119917,0,0,0.99119917,80.813273,1.7066848)"
       id="g267">
      <g
         id="color-7" />
      <g
         transform="matrix(-1.0691986,0,0,1.0691986,72.315999,-2.9643077)"
         id="g1218">
        <g
           id="color-8">
          <polygon
             fill="#9b9b9a"
             points="53.118,61.853 53.118,45.107 41.915,45.107 41.915,50.728 30.481,50.728 30.481,56.349 19.242,56.349 19.242,61.853 "
             id="polygon1175" />
        </g>
        <g
           id="skin-5">
          <path
             inkscape:connector-curvature="0"
             fill="#fcea2b"
             d="m 28.5423,33.5552 5.5574,0.96 a 2.3433,2.3433 0 0 1 1.8726,1.8726 l 1.87,8.96 a 1.7244,1.7244 0 0 1 -1.0307,2.2671 2.0818,2.0818 0 0 1 -2.27,-1.502 l -2.3905,-7.82 -5.1687,-0.5111 c -4.4727,-0.402 -6.063,-1.6708 -5.1868,-6.1563 0.1544,-0.7906 2.5621,-11.0379 2.5621,-11.0379 a 13.8467,13.8467 0 0 1 3.629,-0.9979 c 1.4705,0 3.1637,1.1238 2.7171,3.7685 -0.1726,1.0225 -1.1756,6.4169 -1.1756,6.4169 z"
             id="path1178" />
          <path
             inkscape:connector-curvature="0"
             fill="#fcea2b"
             d="m 27.0565,40.9394 -0.5483,3.7867 a 8.6041,8.6041 0 0 1 -1.1925,3.066 L 22.6339,53.48 a 2.03,2.03 0 0 1 -2.4363,0.8335 c -0.7188,-0.3625 -0.8282,-1.4934 -0.3865,-2.417 l 2.6143,-6.9494 0.5052,-4.4275 z"
             id="path1180" />
          <circle
             cx="31.665199"
             cy="13.4056"
             r="3.4017"
             fill="#fcea2b"
             id="circle1182" />
        </g>
        <g
           id="line-8">
          <line
             x1="38.677502"
             x2="34.026901"
             y1="29.0791"
             y2="28.067499"
             fill="none"
             stroke="#000"
             stroke-linecap="round"
             stroke-linejoin="round"
             stroke-width="2"
             id="line1185" />
          <path
             inkscape:connector-curvature="0"
             fill="none"
             stroke="#000"
             stroke-linecap="round"
             stroke-linejoin="round"
             stroke-width="2"
             d="m 27.7411,38.49 -1.2329,6.2363 a 8.6041,8.6041 0 0 1 -1.1925,3.066 L 22.6339,53.48 a 2.03,2.03 0 0 1 -2.4363,0.8335 c -0.7188,-0.3625 -0.8282,-1.4934 -0.3865,-2.417 l 2.6143,-6.9494 0.5052,-4.0976"
             id="path1187" />
          <path
             inkscape:connector-curvature="0"
             fill="none"
             stroke="#000"
             stroke-linecap="round"
             stroke-linejoin="round"
             stroke-width="2"
             d="m 28.5423,33.5552 5.5574,0.96 a 2.3433,2.3433 0 0 1 1.8726,1.8726 l 1.87,8.96 a 1.7244,1.7244 0 0 1 -1.0307,2.2671 2.0818,2.0818 0 0 1 -2.27,-1.502 l -2.3905,-7.82 -5.1687,-0.5111 c -4.4727,-0.402 -6.063,-1.6708 -5.1868,-6.1563 0.1544,-0.7906 2.5621,-11.0379 2.5621,-11.0379 a 13.8467,13.8467 0 0 1 3.629,-0.9979 c 1.4705,0 3.1637,1.1238 2.7171,3.7685 -0.1726,1.0225 -1.1756,6.4169 -1.1756,6.4169"
             id="path1189" />
          <polyline
             fill="none"
             stroke="#000"
             stroke-linecap="round"
             stroke-linejoin="round"
             stroke-width="2"
             points="52.788 45.107 41.915 45.107 41.915 50.728 30.481 50.728 30.481 56.349 19.242 56.349 19.242 61.193"
             id="polyline1191" />
          <path
             inkscape:connector-curvature="0"
             fill="none"
             stroke="#000"
             stroke-linecap="round"
             stroke-linejoin="round"
             stroke-width="2"
             d="m 16.796,31.303 c 0,0 1.4482,-6.0251 1.8065,-7.3793 A 2.3092,2.3092 0 0 1 20.03,22.2573 l 4.3275,-1.6693"
             id="path1193" />
          <path
             inkscape:connector-curvature="0"
             fill="none"
             stroke="#000"
             stroke-linecap="round"
             stroke-linejoin="round"
             stroke-width="2"
             d="m 28.2635,13.4056 a 3.4017,3.4017 0 1 1 3.4017,3.4016"
             id="path1195" />
        </g>
      </g>
    </g>
  </g>
  <g
     id="skin-shadow" />
  <g
     transform="translate(-6.7361963,1.3251534)"
     id="g1560">
    <g
       id="g1475"
       transform="matrix(0.94261797,0,0,0.94261797,7.867995,9.1342699)">
      <g
         id="color">
        <path
           id="path1415"
           d="M 16,60.958 15.875,57 c 0,-5.875 6.1328,-10 11.125,-10 6,5 12,5 18,0 4.9941,0 10,5.0059 10,10 v 3.958"
           fill="#92D3F5"
           inkscape:connector-curvature="0" />
      </g>
      <g
         id="hair">
        <path
           id="path1418"
           d="m 25.7715,39 c -4,0 -4.832,-6.5 -4.832,-13.5 0,-7 4.832,-13.5 14.832,-13.5 10,0 14,7 14,14 0,7 0,13 -4,13"
           fill="#F1B31C"
           inkscape:connector-curvature="0" />
      </g>
      <g
         id="skin">
        <path
           id="path1421"
           d="M 28.8438,43.0937 C 29.5947,44.0117 32.8525,46 35.75,46 c 5.9365,0 11.125,-5.25 11.125,-14.25 0,-3 -1,-5.0005 -1,-5.0005 -3,-2.9995 -7.6562,-9.4995 -7.6562,-9.4995 -1.1211,0.8413 -2.0743,2.5479 -3.3243,3.978"
           fill="#FCEA2B"
           inkscape:connector-curvature="0" />
        <path
           id="path1423"
           d="m 28.875,60.958 c 0.0049,-0.5703 -0.6973,-10.4092 0,-14.9717 0.2666,-1.7461 2,-1.9863 3,-3.9863 3,-6 1.833,-8.333 4,-14 1.1299,-2.9541 -1.5645,-3.7236 -3.127,-0.6001 L 35.7559,23.606 C 36.96,20.2915 33.168,19.1665 31.5,21 l -1.8271,3.6265 C 31.2422,22.2729 28.6914,20.478 27,22.2515 25.4209,23.9072 23.376,28.5464 21.875,33 c 0,0 -0.1172,-2.1943 0.8125,-4.1875 C 23.252,27.6025 22.916,25.8633 21,26 c -0.9971,0.0713 -1.7637,2.7734 -2.54,5.667 -0.7803,2.9067 0.0879,7.1562 0.7197,8.4209 1.4141,2.8281 1.6953,2.8984 1.6953,2.8984 0,0 -2,8.9717 -4,17.9717"
           fill="#FCEA2B"
           inkscape:connector-curvature="0" />
      </g>
      <g
         id="line">
        <path
           id="path1427"
           d="M 22.1895,23.4019 C 23.0879,17.3662 27.2441,12 36,12 c 10,0 14,7 14,14 0,7 0,13 -4,13"
           stroke-width="2"
           stroke-linejoin="round"
           stroke-linecap="round"
           stroke="#000000"
           fill="none"
           inkscape:connector-curvature="0" />
        <path
           id="path1429"
           d="m 41.873,30 c 0,1.1045 -0.8955,2 -2,2 -1.1044,0 -2,-0.8955 -2,-2 0,-1.1045 0.8956,-2 2,-2 1.1045,0 2,0.8955 2,2"
           inkscape:connector-curvature="0" />
        <path
           id="path1431"
           d="m 37.4375,38 c 1.75,0 -0.875,0 1.5625,0"
           stroke-width="2"
           stroke-linejoin="round"
           stroke-linecap="round"
           stroke="#000000"
           fill="none"
           inkscape:connector-curvature="0" />
        <path
           id="path1433"
           d="m 55,60 v -3 c 0,-4.9941 -5.0059,-9 -10,-9 -3.3652,2.8027 -6.8389,3.6934 -10.0937,3.6934 -0.7042,0 -1.4415,-0.0655 -2.0538,-0.1402"
           stroke-width="2"
           stroke-linejoin="round"
           stroke-linecap="round"
           stroke="#000000"
           fill="none"
           inkscape:connector-curvature="0" />
        <path
           id="path1435"
           d="M 32.3457,21.542 C 30.1553,24.8276 30.4473,24.3462 27,31"
           stroke-width="2"
           stroke-miterlimit="10"
           stroke-linejoin="round"
           stroke-linecap="round"
           stroke="#000000"
           fill="none"
           inkscape:connector-curvature="0" />
        <path
           id="path1437"
           d="m 22,32.6025 c 2.25,-4.333 4.1094,-7.81 5.5313,-9.6025"
           stroke-width="2"
           stroke-miterlimit="10"
           stroke-linejoin="round"
           stroke-linecap="round"
           stroke="#000000"
           fill="none"
           inkscape:connector-curvature="0" />
        <path
           id="path1439"
           d="m 17,60 c 2,-9 4,-17.4111 4,-17.4111 0,0 -0.5859,-0.7603 -2,-3.5889 -2,-4 0,-9 2,-12"
           stroke-width="2"
           stroke-miterlimit="10"
           stroke-linejoin="round"
           stroke-linecap="round"
           stroke="#000000"
           fill="none"
           inkscape:connector-curvature="0" />
        <path
           id="path1441"
           d="m 35,23 c -1.2832,2.5649 -2.8262,5.4771 -4,9"
           stroke-width="2"
           stroke-miterlimit="10"
           stroke-linejoin="round"
           stroke-linecap="round"
           stroke="#000000"
           fill="none"
           inkscape:connector-curvature="0" />
        <path
           id="path1443"
           d="m 29,60 c 0.0049,-0.5703 -0.6973,-9.4512 0,-14.0137 0.2666,-1.7461 2.1914,-2.289 3,-3.9863 1.9063,-4 2.334,-7.8057 3.9365,-14"
           stroke-width="2"
           stroke-miterlimit="10"
           stroke-linejoin="round"
           stroke-linecap="round"
           stroke="#000000"
           fill="none"
           inkscape:connector-curvature="0" />
        <path
           id="path1445"
           d="m 37.3262,19.7109 c 0.5107,-0.5605 0.9062,-1.1352 1.6738,-1.7114 0,0 4,5.0005 7,8 0,0 1,2.0005 1,5.0005 0,9 -5.127,14 -11.0635,14 C 35.7178,45 35.377,44.9771 35,44.9438"
           stroke-width="2"
           stroke-linejoin="round"
           stroke-linecap="round"
           stroke="#000000"
           fill="none"
           inkscape:connector-curvature="0" />
      </g>
    </g>
    <g
       id="g1519"
       transform="matrix(0.11572856,0,0,0.11572856,7.8607015,2.6012275)">
      <g
         id="layer1"
         inkscape:label="layer1" />
      <g
         id="g315-6-9"
         transform="matrix(0.45087563,0,0,0.49319789,10.63319,1.6359845)">
        <g
           id="hair-6-1" />
        <g
           id="skin-2-7" />
        <g
           id="skin-shadow-7-2" />
        <g
           id="g1599"
           transform="translate(26.614878,2.0275837)">
          <g
             id="g1613"
             transform="translate(-11.089533,-10.137918)">
            <g
               id="g1218-4-6-9-8-7-7"
               transform="matrix(-3.7252093,2.5329544,-5.7596302,-2.2257047,535.47943,216.69223)">
              <path
                 style="fill:#f44a5d;fill-opacity:1"
                 id="path292-7-9-8-0-5-8-8-1"
                 d="M 48.145,3.8658999 16.318,37.9905 c -0.6029,0.6465 -0.1141,1.6589 0.801,1.6589 H 36.2256 L 19.1523,67.188 c -0.1662,0.2681 0.215,0.5364 0.4424,0.3114 l 36.0628,-35.704 c 0.6436,-0.6372 0.1626,-1.6882 -0.7725,-1.6882 H 36.3846 Z"
                 stroke="none"
                 fill="#FCEA2B"
                 inkscape:connector-curvature="0" />
              <g
                 id="line-0-3-0-3-4-3-4-8">
                <path
                   inkscape:connector-curvature="0"
                   fill="none"
                   stroke="#000000"
                   stroke-linecap="round"
                   stroke-linejoin="round"
                   stroke-miterlimit="10"
                   stroke-width="2"
                   d="M 48.1628,4.4406 16.3224,37.7817 c -0.6174,0.6465 -0.1168,1.6589 0.8201,1.6589 H 36.2254 L 17.9214,68.2739 55.6483,31.7954 c 0.659,-0.6372 0.1665,-1.6882 -0.791,-1.6882 H 36.3846 Z"
                   id="path298-3-6-4-2-9-5-1-7" />
              </g>
            </g>
            <g
               transform="matrix(-3.7603543,-0.90354023,-1.6432808,-4.5962971,603.78371,396.56708)"
               id="g1218-4-6-9-8-7-7-4">
              <path
                 inkscape:connector-curvature="0"
                 fill="#FCEA2B"
                 stroke="none"
                 d="M 48.145,3.8658999 16.318,37.9905 c -0.6029,0.6465 -0.1141,1.6589 0.801,1.6589 H 36.2256 L 19.1523,67.188 c -0.1662,0.2681 0.215,0.5364 0.4424,0.3114 l 36.0628,-35.704 c 0.6436,-0.6372 0.1626,-1.6882 -0.7725,-1.6882 H 36.3846 Z"
                 id="path292-7-9-8-0-5-8-8-1-0"
                 style="fill:#f44a5d;fill-opacity:1" />
              <g
                 id="line-0-3-0-3-4-3-4-8-0">
                <path
                   id="path298-3-6-4-2-9-5-1-7-9"
                   d="M 48.1628,4.4406 16.3224,37.7817 c -0.6174,0.6465 -0.1168,1.6589 0.8201,1.6589 H 36.2254 L 17.9214,68.2739 55.6483,31.7954 c 0.659,-0.6372 0.1665,-1.6882 -0.791,-1.6882 H 36.3846 Z"
                   stroke-width="2"
                   stroke-miterlimit="10"
                   stroke-linejoin="round"
                   stroke-linecap="round"
                   stroke="#000000"
                   fill="none"
                   inkscape:connector-curvature="0" />
              </g>
            </g>
            <g
               id="g1218-4-6-9-8-7-7-4-3"
               transform="matrix(-0.98835263,3.4376711,-5.0277369,1.5022676,399.27125,240.33977)">
              <path
                 style="fill:#f44a5d;fill-opacity:1"
                 id="path292-7-9-8-0-5-8-8-1-0-7"
                 d="M 48.145,3.8658999 16.318,37.9905 c -0.6029,0.6465 -0.1141,1.6589 0.801,1.6589 H 36.2256 L 19.1523,67.188 c -0.1662,0.2681 0.215,0.5364 0.4424,0.3114 l 36.0628,-35.704 c 0.6436,-0.6372 0.1626,-1.6882 -0.7725,-1.6882 H 36.3846 Z"
                 stroke="none"
                 fill="#FCEA2B"
                 inkscape:connector-curvature="0" />
              <g
                 id="line-0-3-0-3-4-3-4-8-0-5">
                <path
                   inkscape:connector-curvature="0"
                   fill="none"
                   stroke="#000000"
                   stroke-linecap="round"
                   stroke-linejoin="round"
                   stroke-miterlimit="10"
                   stroke-width="2"
                   d="M 48.1628,4.4406 16.3224,37.7817 c -0.6174,0.6465 -0.1168,1.6589 0.8201,1.6589 H 36.2254 L 17.9214,68.2739 55.6483,31.7954 c 0.659,-0.6372 0.1665,-1.6882 -0.791,-1.6882 H 36.3846 Z"
                   id="path298-3-6-4-2-9-5-1-7-9-7" />
              </g>
            </g>
          </g>
        </g>
      </g>
    </g>
  </g>
</svg>
