<?xml version="1.0" encoding="UTF-8" standalone="no"?>
<svg
   xmlns:dc="http://purl.org/dc/elements/1.1/"
   xmlns:cc="http://creativecommons.org/ns#"
   xmlns:rdf="http://www.w3.org/1999/02/22-rdf-syntax-ns#"
   xmlns:svg="http://www.w3.org/2000/svg"
   xmlns="http://www.w3.org/2000/svg"
   xmlns:sodipodi="http://sodipodi.sourceforge.net/DTD/sodipodi-0.dtd"
   xmlns:inkscape="http://www.inkscape.org/namespaces/inkscape"
   inkscape:version="1.0beta2 (2b71d25, 2019-12-03)"
   sodipodi:docname="headacheDrum.svg"
   version="1.1"
   viewBox="0 0 72 72"
   y="0"
   x="0"
   id="emoji">
  <metadata
     id="metadata1453">
    <rdf:RDF>
      <cc:Work
         rdf:about="">
        <dc:format>image/svg+xml</dc:format>
        <dc:type
           rdf:resource="http://purl.org/dc/dcmitype/StillImage" />
        <dc:title></dc:title>
      </cc:Work>
    </rdf:RDF>
  </metadata>
  <defs
     id="defs1451" />
  <sodipodi:namedview
     inkscape:current-layer="g267"
     inkscape:window-maximized="0"
     inkscape:window-y="80"
     inkscape:window-x="211"
     inkscape:cy="31.752212"
     inkscape:cx="36"
     inkscape:zoom="9.4166667"
     showguides="false"
     showgrid="false"
     id="namedview1449"
     inkscape:window-height="844"
     inkscape:window-width="1234"
     inkscape:pageshadow="2"
     inkscape:pageopacity="0"
     guidetolerance="10"
     gridtolerance="10"
     objecttolerance="10"
     borderopacity="1"
     inkscape:document-rotation="0"
     bordercolor="#666666"
     pagecolor="#ffffff">
    <sodipodi:guide
       id="guide1455"
       orientation="0,-1"
       position="12.611465,73.375796" />
  </sodipodi:namedview>
  <g
     transform="matrix(0.66363355,0,0,0.66363355,26.053841,-3.4440186)"
     id="g2738">
    <g
       id="hair-1" />
    <g
       id="skin-1" />
    <g
       id="skin-shadow-6" />
    <g
       transform="matrix(-0.99119917,0,0,0.99119917,80.813273,1.7066848)"
       id="g267">
      <g
         id="color-7" />
      <g
         transform="matrix(-1.0022433,0,0,1.0022433,75.707821,-2.8731886)"
         id="g1306">
        <g
           id="color-9">
          <path
             inkscape:connector-curvature="0"
             fill="#EA5A47"
             stroke="none"
             d="M 58.7568,59.0674 V 37.2188 H 13.0186 v 21.8486 z"
             id="path1238" />
          <path
             inkscape:connector-curvature="0"
             fill="#a57939"
             stroke="none"
             d="m 23.9005,30.2761 c 0.29,0.3853 0.7142,0.6346 1.1935,0.7018 0.4827,0.0603 0.9547,-0.0583 1.3402,-0.3482 0,0 0,0 0,-0.0018 0.7974,-0.5995 0.9565,-1.7382 0.3554,-2.5346 -0.3554,-0.4713 -0.8982,-0.7197 -1.4463,-0.7197 -0.3802,0 -0.762,0.1186 -1.0874,0.3643 -0.7974,0.6011 -0.9565,1.7407 -0.3554,2.5382 z"
             id="path1240" />
          <path
             inkscape:connector-curvature="0"
             fill="#a57939"
             stroke="none"
             d="m 46.5235,30.5392 c 0.6857,-0.8679 0.5369,-2.1317 -0.3291,-2.8185 -0.3683,-0.2909 -0.8073,-0.432 -1.2443,-0.432 -0.5917,0 -1.1793,0.2617 -1.5752,0.7613 -0.6857,0.8669 -0.5389,2.1307 0.3293,2.8185 0.4231,0.331 0.9502,0.4897 1.4772,0.4193 0.5329,-0.0628 1.009,-0.3293 1.3421,-0.7486 z"
             id="path1242" />
          <path
             inkscape:connector-curvature="0"
             fill="#D22F27"
             stroke="none"
             d="M 47.6811,54.4482 47.624,59.0674 H 58.7568 V 37.2188 H 47.894 l -0.0804,6.5125 0.08,-0.0038 c 0.5527,0 1,0.4473 1,1 v 8.7442 c 0,0.5527 -0.4473,1 -1,1 z"
             id="path1244" />
        </g>
        <g
           id="hair-0" />
        <g
           id="skin-5" />
        <g
           id="skin-shadow-63" />
        <g
           id="line-6">
          <path
             inkscape:connector-curvature="0"
             fill="none"
             stroke="#000000"
             stroke-linecap="round"
             stroke-linejoin="round"
             stroke-miterlimit="10"
             stroke-width="2"
             d="M 45.894,24.6949"
             id="path1250" />
          <path
             inkscape:connector-curvature="0"
             fill="none"
             stroke="#000000"
             stroke-linecap="round"
             stroke-linejoin="round"
             stroke-miterlimit="10"
             stroke-width="2"
             d="M 45.894,24.6949"
             id="path1252" />
          <path
             inkscape:connector-curvature="0"
             fill="none"
             stroke="#000000"
             stroke-linecap="round"
             stroke-linejoin="round"
             stroke-miterlimit="10"
             stroke-width="2"
             d="M 44.2136,24.6949"
             id="path1254" />
          <path
             inkscape:connector-curvature="0"
             fill="none"
             stroke="#000000"
             stroke-linecap="round"
             stroke-linejoin="round"
             stroke-miterlimit="10"
             stroke-width="2"
             d="M 44.2136,24.6949"
             id="path1256" />
          <line
             x1="35.8153"
             x2="35.8153"
             y1="44.728001"
             y2="53.472099"
             fill="none"
             stroke="#000000"
             stroke-linecap="round"
             stroke-linejoin="round"
             stroke-miterlimit="10"
             stroke-width="2"
             id="line1258" />
          <line
             x1="23.7365"
             x2="23.7365"
             y1="44.728001"
             y2="53.472099"
             fill="none"
             stroke="#000000"
             stroke-linecap="round"
             stroke-linejoin="round"
             stroke-miterlimit="10"
             stroke-width="2"
             id="line1260" />
          <line
             x1="47.894001"
             x2="47.894001"
             y1="44.728001"
             y2="53.472099"
             fill="none"
             stroke="#000000"
             stroke-linecap="round"
             stroke-linejoin="round"
             stroke-miterlimit="10"
             stroke-width="2"
             id="line1262" />
          <circle
             r="2"
             cx="25.340099"
             cy="29.1791"
             transform="matrix(0.7984,-0.6021,0.6021,0.7984,-12.4611,21.141)"
             fill="none"
             stroke="#000000"
             stroke-linecap="round"
             stroke-linejoin="round"
             stroke-miterlimit="10"
             stroke-width="2"
             id="ellipse1264" />
          <line
             x1="38.775398"
             x2="50.293201"
             y1="19.046101"
             y2="10.3592"
             fill="none"
             stroke="#000000"
             stroke-linecap="round"
             stroke-linejoin="round"
             stroke-miterlimit="10"
             stroke-width="2"
             id="line1266" />
          <line
             x1="26.936899"
             x2="31.9778"
             y1="27.9748"
             y2="24.1728"
             fill="none"
             stroke="#000000"
             stroke-linecap="round"
             stroke-linejoin="round"
             stroke-miterlimit="10"
             stroke-width="2"
             id="line1268" />
          <circle
             r="2"
             cx="44.943802"
             cy="29.2341"
             transform="matrix(0.6204,-0.7843,0.7843,0.6204,-5.8665,46.3483)"
             fill="none"
             stroke="#000000"
             stroke-linecap="round"
             stroke-linejoin="round"
             stroke-miterlimit="10"
             stroke-width="2"
             id="ellipse1270" />
          <line
             x1="21.337299"
             x2="43.375198"
             y1="10.5619"
             y2="27.993401"
             fill="none"
             stroke="#000000"
             stroke-linecap="round"
             stroke-linejoin="round"
             stroke-miterlimit="10"
             stroke-width="2"
             id="line1272" />
          <rect
             x="12.0184"
             y="36.2187"
             width="47.738899"
             height="23.848801"
             fill="none"
             stroke="#000000"
             stroke-linecap="round"
             stroke-linejoin="round"
             stroke-miterlimit="10"
             stroke-width="2"
             id="rect1274" />
        </g>
      </g>
    </g>
  </g>
  <g
     id="skin-shadow" />
  <g
     transform="translate(-6.7361963,1.3251534)"
     id="g1560">
    <g
       id="g1475"
       transform="matrix(0.94261797,0,0,0.94261797,7.867995,9.1342699)">
      <g
         id="color">
        <path
           id="path1415"
           d="M 16,60.958 15.875,57 c 0,-5.875 6.1328,-10 11.125,-10 6,5 12,5 18,0 4.9941,0 10,5.0059 10,10 v 3.958"
           fill="#92D3F5"
           inkscape:connector-curvature="0" />
      </g>
      <g
         id="hair">
        <path
           id="path1418"
           d="m 25.7715,39 c -4,0 -4.832,-6.5 -4.832,-13.5 0,-7 4.832,-13.5 14.832,-13.5 10,0 14,7 14,14 0,7 0,13 -4,13"
           fill="#F1B31C"
           inkscape:connector-curvature="0" />
      </g>
      <g
         id="skin">
        <path
           id="path1421"
           d="M 28.8438,43.0937 C 29.5947,44.0117 32.8525,46 35.75,46 c 5.9365,0 11.125,-5.25 11.125,-14.25 0,-3 -1,-5.0005 -1,-5.0005 -3,-2.9995 -7.6562,-9.4995 -7.6562,-9.4995 -1.1211,0.8413 -2.0743,2.5479 -3.3243,3.978"
           fill="#FCEA2B"
           inkscape:connector-curvature="0" />
        <path
           id="path1423"
           d="m 28.875,60.958 c 0.0049,-0.5703 -0.6973,-10.4092 0,-14.9717 0.2666,-1.7461 2,-1.9863 3,-3.9863 3,-6 1.833,-8.333 4,-14 1.1299,-2.9541 -1.5645,-3.7236 -3.127,-0.6001 L 35.7559,23.606 C 36.96,20.2915 33.168,19.1665 31.5,21 l -1.8271,3.6265 C 31.2422,22.2729 28.6914,20.478 27,22.2515 25.4209,23.9072 23.376,28.5464 21.875,33 c 0,0 -0.1172,-2.1943 0.8125,-4.1875 C 23.252,27.6025 22.916,25.8633 21,26 c -0.9971,0.0713 -1.7637,2.7734 -2.54,5.667 -0.7803,2.9067 0.0879,7.1562 0.7197,8.4209 1.4141,2.8281 1.6953,2.8984 1.6953,2.8984 0,0 -2,8.9717 -4,17.9717"
           fill="#FCEA2B"
           inkscape:connector-curvature="0" />
      </g>
      <g
         id="line">
        <path
           id="path1427"
           d="M 22.1895,23.4019 C 23.0879,17.3662 27.2441,12 36,12 c 10,0 14,7 14,14 0,7 0,13 -4,13"
           stroke-width="2"
           stroke-linejoin="round"
           stroke-linecap="round"
           stroke="#000000"
           fill="none"
           inkscape:connector-curvature="0" />
        <path
           id="path1429"
           d="m 41.873,30 c 0,1.1045 -0.8955,2 -2,2 -1.1044,0 -2,-0.8955 -2,-2 0,-1.1045 0.8956,-2 2,-2 1.1045,0 2,0.8955 2,2"
           inkscape:connector-curvature="0" />
        <path
           id="path1431"
           d="m 37.4375,38 c 1.75,0 -0.875,0 1.5625,0"
           stroke-width="2"
           stroke-linejoin="round"
           stroke-linecap="round"
           stroke="#000000"
           fill="none"
           inkscape:connector-curvature="0" />
        <path
           id="path1433"
           d="m 55,60 v -3 c 0,-4.9941 -5.0059,-9 -10,-9 -3.3652,2.8027 -6.8389,3.6934 -10.0937,3.6934 -0.7042,0 -1.4415,-0.0655 -2.0538,-0.1402"
           stroke-width="2"
           stroke-linejoin="round"
           stroke-linecap="round"
           stroke="#000000"
           fill="none"
           inkscape:connector-curvature="0" />
        <path
           id="path1435"
           d="M 32.3457,21.542 C 30.1553,24.8276 30.4473,24.3462 27,31"
           stroke-width="2"
           stroke-miterlimit="10"
           stroke-linejoin="round"
           stroke-linecap="round"
           stroke="#000000"
           fill="none"
           inkscape:connector-curvature="0" />
        <path
           id="path1437"
           d="m 22,32.6025 c 2.25,-4.333 4.1094,-7.81 5.5313,-9.6025"
           stroke-width="2"
           stroke-miterlimit="10"
           stroke-linejoin="round"
           stroke-linecap="round"
           stroke="#000000"
           fill="none"
           inkscape:connector-curvature="0" />
        <path
           id="path1439"
           d="m 17,60 c 2,-9 4,-17.4111 4,-17.4111 0,0 -0.5859,-0.7603 -2,-3.5889 -2,-4 0,-9 2,-12"
           stroke-width="2"
           stroke-miterlimit="10"
           stroke-linejoin="round"
           stroke-linecap="round"
           stroke="#000000"
           fill="none"
           inkscape:connector-curvature="0" />
        <path
           id="path1441"
           d="m 35,23 c -1.2832,2.5649 -2.8262,5.4771 -4,9"
           stroke-width="2"
           stroke-miterlimit="10"
           stroke-linejoin="round"
           stroke-linecap="round"
           stroke="#000000"
           fill="none"
           inkscape:connector-curvature="0" />
        <path
           id="path1443"
           d="m 29,60 c 0.0049,-0.5703 -0.6973,-9.4512 0,-14.0137 0.2666,-1.7461 2.1914,-2.289 3,-3.9863 1.9063,-4 2.334,-7.8057 3.9365,-14"
           stroke-width="2"
           stroke-miterlimit="10"
           stroke-linejoin="round"
           stroke-linecap="round"
           stroke="#000000"
           fill="none"
           inkscape:connector-curvature="0" />
        <path
           id="path1445"
           d="m 37.3262,19.7109 c 0.5107,-0.5605 0.9062,-1.1352 1.6738,-1.7114 0,0 4,5.0005 7,8 0,0 1,2.0005 1,5.0005 0,9 -5.127,14 -11.0635,14 C 35.7178,45 35.377,44.9771 35,44.9438"
           stroke-width="2"
           stroke-linejoin="round"
           stroke-linecap="round"
           stroke="#000000"
           fill="none"
           inkscape:connector-curvature="0" />
      </g>
    </g>
    <g
       id="g1519"
       transform="matrix(0.11572856,0,0,0.11572856,7.8607015,2.6012275)">
      <g
         id="layer1"
         inkscape:label="layer1" />
      <g
         id="g315-6-9"
         transform="matrix(0.45087563,0,0,0.49319789,10.63319,1.6359845)">
        <g
           id="hair-6-1" />
        <g
           id="skin-2-7" />
        <g
           id="skin-shadow-7-2" />
        <g
           id="g1599"
           transform="translate(26.614878,2.0275837)">
          <g
             id="g1613"
             transform="translate(-11.089533,-10.137918)">
            <g
               id="g1218-4-6-9-8-7-7"
               transform="matrix(-3.7252093,2.5329544,-5.7596302,-2.2257047,535.47943,216.69223)">
              <path
                 style="fill:#f44a5d;fill-opacity:1"
                 id="path292-7-9-8-0-5-8-8-1"
                 d="M 48.145,3.8658999 16.318,37.9905 c -0.6029,0.6465 -0.1141,1.6589 0.801,1.6589 H 36.2256 L 19.1523,67.188 c -0.1662,0.2681 0.215,0.5364 0.4424,0.3114 l 36.0628,-35.704 c 0.6436,-0.6372 0.1626,-1.6882 -0.7725,-1.6882 H 36.3846 Z"
                 stroke="none"
                 fill="#FCEA2B"
                 inkscape:connector-curvature="0" />
              <g
                 id="line-0-3-0-3-4-3-4-8">
                <path
                   inkscape:connector-curvature="0"
                   fill="none"
                   stroke="#000000"
                   stroke-linecap="round"
                   stroke-linejoin="round"
                   stroke-miterlimit="10"
                   stroke-width="2"
                   d="M 48.1628,4.4406 16.3224,37.7817 c -0.6174,0.6465 -0.1168,1.6589 0.8201,1.6589 H 36.2254 L 17.9214,68.2739 55.6483,31.7954 c 0.659,-0.6372 0.1665,-1.6882 -0.791,-1.6882 H 36.3846 Z"
                   id="path298-3-6-4-2-9-5-1-7" />
              </g>
            </g>
            <g
               transform="matrix(-3.7603543,-0.90354023,-1.6432808,-4.5962971,603.78371,396.56708)"
               id="g1218-4-6-9-8-7-7-4">
              <path
                 inkscape:connector-curvature="0"
                 fill="#FCEA2B"
                 stroke="none"
                 d="M 48.145,3.8658999 16.318,37.9905 c -0.6029,0.6465 -0.1141,1.6589 0.801,1.6589 H 36.2256 L 19.1523,67.188 c -0.1662,0.2681 0.215,0.5364 0.4424,0.3114 l 36.0628,-35.704 c 0.6436,-0.6372 0.1626,-1.6882 -0.7725,-1.6882 H 36.3846 Z"
                 id="path292-7-9-8-0-5-8-8-1-0"
                 style="fill:#f44a5d;fill-opacity:1" />
              <g
                 id="line-0-3-0-3-4-3-4-8-0">
                <path
                   id="path298-3-6-4-2-9-5-1-7-9"
                   d="M 48.1628,4.4406 16.3224,37.7817 c -0.6174,0.6465 -0.1168,1.6589 0.8201,1.6589 H 36.2254 L 17.9214,68.2739 55.6483,31.7954 c 0.659,-0.6372 0.1665,-1.6882 -0.791,-1.6882 H 36.3846 Z"
                   stroke-width="2"
                   stroke-miterlimit="10"
                   stroke-linejoin="round"
                   stroke-linecap="round"
                   stroke="#000000"
                   fill="none"
                   inkscape:connector-curvature="0" />
              </g>
            </g>
            <g
               id="g1218-4-6-9-8-7-7-4-3"
               transform="matrix(-0.98835263,3.4376711,-5.0277369,1.5022676,399.27125,240.33977)">
              <path
                 style="fill:#f44a5d;fill-opacity:1"
                 id="path292-7-9-8-0-5-8-8-1-0-7"
                 d="M 48.145,3.8658999 16.318,37.9905 c -0.6029,0.6465 -0.1141,1.6589 0.801,1.6589 H 36.2256 L 19.1523,67.188 c -0.1662,0.2681 0.215,0.5364 0.4424,0.3114 l 36.0628,-35.704 c 0.6436,-0.6372 0.1626,-1.6882 -0.7725,-1.6882 H 36.3846 Z"
                 stroke="none"
                 fill="#FCEA2B"
                 inkscape:connector-curvature="0" />
              <g
                 id="line-0-3-0-3-4-3-4-8-0-5">
                <path
                   inkscape:connector-curvature="0"
                   fill="none"
                   stroke="#000000"
                   stroke-linecap="round"
                   stroke-linejoin="round"
                   stroke-miterlimit="10"
                   stroke-width="2"
                   d="M 48.1628,4.4406 16.3224,37.7817 c -0.6174,0.6465 -0.1168,1.6589 0.8201,1.6589 H 36.2254 L 17.9214,68.2739 55.6483,31.7954 c 0.659,-0.6372 0.1665,-1.6882 -0.791,-1.6882 H 36.3846 Z"
                   id="path298-3-6-4-2-9-5-1-7-9-7" />
              </g>
            </g>
          </g>
        </g>
      </g>
    </g>
  </g>
</svg>
