<?xml version="1.0" encoding="UTF-8" standalone="no"?>
<svg
   xmlns:dc="http://purl.org/dc/elements/1.1/"
   xmlns:cc="http://creativecommons.org/ns#"
   xmlns:rdf="http://www.w3.org/1999/02/22-rdf-syntax-ns#"
   xmlns:svg="http://www.w3.org/2000/svg"
   xmlns="http://www.w3.org/2000/svg"
   xmlns:sodipodi="http://sodipodi.sourceforge.net/DTD/sodipodi-0.dtd"
   xmlns:inkscape="http://www.inkscape.org/namespaces/inkscape"
   inkscape:export-ydpi="115.87454"
   inkscape:export-xdpi="115.87454"
   inkscape:export-filename="/Users/mike.xiao/Documents/GitHub/HBN_EMA_NIMH2/images/new/helpHeart.png"
   inkscape:version="1.0beta2 (2b71d25, 2019-12-03)"
   sodipodi:docname="helpHeart.svg"
   xml:space="preserve"
   style="enable-background:new 0 0 512.002 512.002;"
   viewBox="0 0 512.002 512.002"
   y="0px"
   x="0px"
   id="Capa_1"
   version="1.1"><metadata
   id="metadata85"><rdf:RDF><cc:Work
       rdf:about=""><dc:format>image/svg+xml</dc:format><dc:type
         rdf:resource="http://purl.org/dc/dcmitype/StillImage" /></cc:Work></rdf:RDF></metadata><defs
   id="defs83" /><sodipodi:namedview
   inkscape:current-layer="Capa_1"
   inkscape:window-maximized="0"
   inkscape:window-y="23"
   inkscape:window-x="0"
   inkscape:cy="256.00101"
   inkscape:cx="256.00101"
   inkscape:zoom="0.65462362"
   showgrid="false"
   id="namedview81"
   inkscape:window-height="646"
   inkscape:window-width="1058"
   inkscape:pageshadow="2"
   inkscape:pageopacity="0"
   guidetolerance="10"
   gridtolerance="10"
   objecttolerance="10"
   borderopacity="1"
   inkscape:document-rotation="0"
   bordercolor="#666666"
   pagecolor="#ffffff" />
<g
   transform="matrix(0.93609516,0,0,0.93609516,19.859288,12.860733)"
   id="g16">
	<path
   inkscape:connector-curvature="0"
   id="path10"
   d="m 87.584,277.605 v -108.74 c 0,-10.721 -8.691,-19.412 -19.412,-19.412 -0.102,0 -0.662,0.011 -0.675,0.012 -10.408,0.356 -18.737,8.905 -18.737,19.4 V 282.21 l 0.053,0.024"
   style="fill:#febb8e" />
	<path
   inkscape:connector-curvature="0"
   id="path12"
   d="M 126.409,316.838 V 197.69 c 0,-10.721 -8.691,-19.412 -19.412,-19.412 -0.102,0 -0.662,0.011 -0.675,0.012 -10.408,0.356 -18.737,8.905 -18.737,19.4 v 79.916"
   style="fill:#febb8e" />
	<path
   inkscape:connector-curvature="0"
   id="path14"
   d="m 165.234,334.466 v -78.245 c 0,-10.721 -8.691,-19.412 -19.412,-19.412 -0.102,0 -0.662,0.011 -0.675,0.012 -10.408,0.356 -18.737,8.905 -18.737,19.4 v 60.826"
   style="fill:#febb8e" />
</g>
<g
   transform="matrix(0.93609516,0,0,0.93609516,19.859288,12.860733)"
   id="g22">
	<path
   inkscape:connector-curvature="0"
   id="path18"
   d="m 10.237,179.438 c 0,-9.522 10.084,-16.425 20.047,-15.956 10.442,0.491 18.474,9.485 18.474,19.938 v 98.789 l 158.098,70.93 c 14.468,6.028 23.892,20.164 23.892,35.838 V 502 H 123.981 V 440.64 L 80.555,415.844 C 68.962,410.67 59.337,401.913 53.093,390.86 L 22.688,337.035 C 14.331,322.241 9.962,305.539 10.009,288.548 c 0.089,-32.357 0.228,-86.234 0.228,-109.11 z"
   style="fill:#fcd5a2" />
	<path
   inkscape:connector-curvature="0"
   id="path20"
   d="M 94.447,348.086 53.776,304.307 c -4.946,-5.022 -6.907,-11.869 -5.898,-18.336 0.67,-4.295 2.648,-8.423 5.931,-11.74 0.065,-0.065 1.716,-1.558 1.722,-1.562 8.461,-6.889 20.934,-6.336 28.746,1.594 l 91.353,92.314"
   style="fill:#fcd5a2" />
</g>
<path
   style="stroke-width:0.936095"
   inkscape:connector-curvature="0"
   id="path24"
   d="m 217.22185,334.8447 -33.32686,-14.95225 v -67.18448 c 0,-15.18159 -12.35178,-27.53243 -27.53243,-27.53243 -0.12544,0 -0.60472,0.014 -0.95108,0.0243 l -9.3e-4,-0.007 c -2.74744,0.0936 -5.38536,0.58131 -7.86039,1.40695 v -28.68196 c 0,-15.18159 -12.35178,-27.53243 -27.53243,-27.53243 -0.12544,0 -0.60472,0.014 -0.95108,0.0243 v -0.007 c -2.74744,0.0936 -5.38535,0.58132 -7.86039,1.40695 v -0.87431 c 0,-15.18159 -12.351774,-27.53243 -27.53243,-27.53243 -0.14603,0 -0.948264,0.0169 -0.951072,0.0169 -10.644338,0.3632 -19.641149,6.63223 -23.915359,15.62062 -3.110644,-1.4472 -6.538625,-2.32245 -10.159441,-2.49282 -7.801417,-0.37538 -15.762906,2.54992 -21.269018,7.80329 -4.70575,4.48951 -7.296861,10.34385 -7.296861,16.48276 0,21.68277 -0.134798,73.28315 -0.214366,102.1102 -0.04868,17.48906 4.473599,34.78529 13.079121,50.01837 l 28.462909,50.38532 c 6.703378,11.86594 17.202621,21.48526 29.602137,27.13272 l 35.54541,20.29548 v 52.0057 c 0,5.17005 4.19089,9.36095 9.36095,9.36095 h 99.94501 c 5.17005,0 9.36095,-4.1909 9.36095,-9.36095 v -105.8003 c -9.4e-4,-18.46354 -10.98789,-34.98936 -28.00235,-42.13645 z m -61.20939,-90.94071 0.34916,-0.007 c 4.85833,0 8.81146,3.95313 8.81146,8.81146 v 58.7849 l -17.62199,-7.90626 v -50.87864 c 0,-4.76192 3.71443,-8.62237 8.46137,-8.80398 z m -36.3439,-54.79152 0.34917,-0.007 c 4.85833,0 8.81146,3.95313 8.81146,8.81147 v 88.76709 L 111.2072,268.8762 v -70.95975 c 0,-4.76192 3.71349,-8.62144 8.46136,-8.80398 z M 74.863303,170.93538 c 0,-4.75162 3.69664,-8.60459 8.455747,-8.80398 l 0.355717,-0.007 c 4.858333,0 8.811463,3.95313 8.811463,8.81147 v 84.39646 c -5.74856,-1.63629 -11.905258,-1.4809 -17.621991,0.51392 V 170.93587 Z M 226.50136,473.42048 H 145.27825 V 425.3417 c 0,-3.36058 -1.80104,-6.4628 -4.71979,-8.12905 L 99.907593,394.00124 c -0.26866,-0.15352 -0.543872,-0.293 -0.826572,-0.41938 -8.957495,-3.99806 -16.547354,-10.9027 -21.371989,-19.44363 L 49.247059,323.75291 c -7.012289,-12.41356 -10.697696,-26.50647 -10.65838,-40.75852 0.07957,-28.83735 0.214366,-80.4555 0.214366,-102.16262 0,-0.99975 0.504556,-1.98826 1.499625,-2.9384 1.819769,-1.73645 4.746938,-2.7699 7.466295,-2.64821 4.616821,0.21717 8.373371,4.3959 8.373371,9.31508 v 91.23652 c -0.298615,1.08399 -0.537319,2.19046 -0.712369,3.31564 -1.420992,9.11476 1.566088,18.47291 7.996125,25.06863 l 37.988618,40.89051 c 3.51784,3.78744 9.44239,4.00555 13.22889,0.48677 3.78744,-3.51878 4.00555,-9.44145 0.48677,-13.2289 L 77.058446,291.3481 c -0.06178,-0.0665 -3.657324,-5.9676 -3.130302,-9.35159 0.33793,-2.16425 1.31615,-4.13847 2.825135,-5.71298 0.285509,-0.26024 0.856527,-0.77696 1.157014,-1.04843 4.276082,-3.35309 10.33449,-2.96836 14.188394,0.94358 l 85.515103,86.41469 c 1.831,1.84972 4.24145,2.77646 6.65376,2.77646 2.37956,0 4.76005,-0.90146 6.5845,-2.70719 3.67417,-3.63673 3.70506,-9.56315 0.0693,-13.23826 l -10.43653,-10.54604 29.18183,13.09316 c 0.0768,0.0346 0.15446,0.0674 0.23215,0.10016 10.08643,4.20213 16.60352,13.97965 16.60352,24.90669 l -9.3e-4,96.44213 z" />

<g
   transform="matrix(0.93609516,0,0,0.93609516,19.859288,12.860733)"
   id="g34">
	<path
   inkscape:connector-curvature="0"
   id="path28"
   d="m 424.417,277.605 v -108.74 c 0,-10.721 8.691,-19.412 19.412,-19.412 0.102,0 0.662,0.011 0.675,0.012 10.408,0.356 18.737,8.905 18.737,19.4 V 282.21 l -0.053,0.024"
   style="fill:#febb8e" />
	<path
   inkscape:connector-curvature="0"
   id="path30"
   d="M 385.592,316.838 V 197.69 c 0,-10.721 8.691,-19.412 19.412,-19.412 0.102,0 0.662,0.011 0.675,0.012 10.408,0.356 18.737,8.905 18.737,19.4 v 79.916"
   style="fill:#febb8e" />
	<path
   inkscape:connector-curvature="0"
   id="path32"
   d="m 346.768,334.466 v -78.245 c 0,-10.721 8.691,-19.412 19.412,-19.412 0.102,0 0.662,0.011 0.675,0.012 10.408,0.356 18.737,8.905 18.737,19.4 v 60.826"
   style="fill:#febb8e" />
</g>
<g
   transform="matrix(0.93609516,0,0,0.93609516,19.859288,12.860733)"
   id="g40">
	<path
   inkscape:connector-curvature="0"
   id="path36"
   d="m 501.764,179.438 c 0,-9.522 -10.084,-16.425 -20.047,-15.956 -10.442,0.491 -18.474,9.485 -18.474,19.938 v 98.789 l -158.098,70.93 c -14.468,6.028 -23.892,20.164 -23.892,35.838 V 502 H 388.02 v -61.36 l 43.426,-24.796 c 11.593,-5.174 21.218,-13.931 27.462,-24.984 l 30.405,-53.825 c 8.357,-14.794 12.726,-31.496 12.679,-48.487 -0.089,-32.357 -0.228,-86.234 -0.228,-109.11 z"
   style="fill:#fcd5a2" />
	<path
   inkscape:connector-curvature="0"
   id="path38"
   d="m 417.554,348.086 40.671,-43.779 c 4.946,-5.022 6.907,-11.869 5.898,-18.336 -0.67,-4.295 -2.648,-8.423 -5.931,-11.74 -0.065,-0.065 -1.716,-1.558 -1.722,-1.562 -8.461,-6.889 -20.934,-6.336 -28.746,1.594 l -91.353,92.314"
   style="fill:#fcd5a2" />
</g>
<path
   style="stroke-width:0.936095"
   inkscape:connector-curvature="0"
   id="path42"
   d="m 498.91909,180.83177 c 0,-6.13984 -2.59111,-11.99418 -7.29686,-16.48276 -5.50611,-5.25336 -13.45918,-8.17585 -21.26902,-7.80329 -3.62082,0.17037 -7.0488,1.04562 -10.1585,2.49282 -4.27234,-8.98745 -13.26447,-15.25648 -23.88915,-15.61874 -0.0197,-9.4e-4 -0.83126,-0.0169 -0.97822,-0.0169 -15.18066,0 -27.53243,12.35084 -27.53243,27.53243 v 0.87431 c -2.47504,-0.82564 -5.11295,-1.31334 -7.86039,-1.40695 l -9.4e-4,0.007 c -0.34542,-0.0112 -0.82564,-0.0243 -0.95107,-0.0243 -15.18066,0 -27.53243,12.35177 -27.53243,27.53243 v 28.68289 c -2.47504,-0.82563 -5.11296,-1.31334 -7.86039,-1.40695 v 0.007 c -0.34542,-0.0112 -0.82564,-0.0243 -0.95108,-0.0243 -15.18159,0 -27.53243,12.35178 -27.53243,27.53243 v 67.18449 l -33.32686,14.95224 c -17.01446,7.14709 -28.00141,23.67198 -28.00141,42.13646 v 105.80028 c 0,5.17005 4.1909,9.36095 9.36095,9.36095 h 99.94594 c 5.17006,0 9.36095,-4.1909 9.36095,-9.36095 v -52.0057 l 35.54541,-20.29548 c 12.40045,-5.6484 22.8997,-15.26772 29.60307,-27.13272 l 28.46198,-50.38532 c 8.60458,-15.23308 13.12779,-32.52837 13.07912,-50.01838 -0.0814,-28.83079 -0.21624,-80.43023 -0.21624,-102.11394 z m -72.40415,-9.89639 c 0,-4.85834 3.95313,-8.81147 8.74874,-8.81147 l 0.43061,0.008 c 4.73945,0.19096 8.44358,4.04674 8.44358,8.80304 v 84.90664 c -5.7158,-1.99482 -11.87437,-2.15022 -17.622,-0.51392 v -84.39272 z m -36.3439,26.982 c 0,-4.85833 3.95313,-8.81146 8.74781,-8.8124 l 0.4175,0.007 c 4.746,0.18348 8.45762,4.043 8.45762,8.80398 v 70.95975 l -17.62199,17.80734 -9.4e-4,-88.76616 z m -36.34389,54.79059 c 0,-4.85927 3.95313,-8.81146 8.74781,-8.8124 l 0.41656,0.007 c 4.746,0.18347 8.45856,4.04299 8.45856,8.80397 v 50.87865 l -17.62199,7.90626 -9.4e-4,-58.78397 z m 115.92696,71.04494 -28.46197,50.38532 c -4.82464,8.54093 -12.41543,15.44651 -21.37199,19.44363 -0.28177,0.12638 -0.55792,0.26586 -0.82657,0.41938 l -40.65087,23.21141 c -2.91781,1.66625 -4.71979,4.76847 -4.71979,8.12905 v 48.07878 h -81.22311 v -96.43933 c 0,-10.92797 6.51803,-20.70455 16.60352,-24.90668 0.0777,-0.0328 0.15446,-0.0655 0.23215,-0.10016 l 29.18183,-13.09317 -10.43652,10.54605 c -3.63673,3.67511 -3.60584,9.60153 0.0693,13.23826 1.82538,1.80573 4.20494,2.70719 6.58449,2.70719 2.41232,0 4.8237,-0.92674 6.65377,-2.77646 l 82.37356,-83.24039 c 0.0131,-0.0131 3.15651,-3.19021 3.15651,-3.19021 3.84174,-3.90071 9.90764,-4.28264 14.16874,-0.93235 0.29862,0.26959 0.87244,0.78912 1.15982,1.0503 1.51367,1.58106 2.49002,3.55341 2.82795,5.71486 0.52795,3.38398 -3.06852,9.28512 -3.13031,9.35159 l -38.07192,40.98131 c -3.51878,3.78744 -3.30067,9.71105 0.48677,13.22889 3.78744,3.51879 9.71105,3.30068 13.22889,-0.48677 l 37.98768,-40.8905 c 6.4291,-6.59573 9.41712,-15.95387 7.99613,-25.06863 -0.17505,-1.12519 -0.41376,-2.23165 -0.71237,-3.31565 v -91.23652 c 0,-4.91918 3.75655,-9.09791 8.37243,-9.31508 2.7231,-0.11888 5.64747,0.91269 7.46723,2.64821 0.99507,0.9492 1.49963,1.93772 1.49963,2.93841 0,21.70524 0.1348,73.32527 0.21436,102.16261 0.0384,14.25018 -3.64702,28.34309 -10.65931,40.75665 z" />

<path
   inkscape:connector-curvature="0"
   id="path46"
   d="M 391.37821,80.667836 C 386.8447,59.694622 375.69955,42.247681 359.99187,31.543433 345.05273,21.361526 327.41015,18.276156 308.96814,22.622446 c -2.82046,0.664627 -5.39753,1.49588 -7.80329,2.492821 0.88835,0.357588 1.76641,0.74794 2.64072,1.148589 -0.87431,-0.400649 -1.75237,-0.790064 -2.64072,-1.147653 -13.38429,5.546364 -21.4759,16.222529 -36.65094,31.853446 -17.90282,-18.441074 -25.94668,-29.985936 -44.45422,-34.347203 -18.44107,-4.34629 -36.0846,-1.26092 -51.02374,8.920987 -15.70674,10.705184 -26.85282,28.151189 -31.38633,49.123463 -4.65895,21.554524 -1.61851,44.640504 8.5634,65.002444 20.16536,40.33353 108.46253,91.57351 94.89851,82.88374 13.63985,8.7347 23.1693,14.19401 23.40145,14.19401 0.74887,0 98.12711,-56.7283 118.29996,-97.07681 10.18378,-20.36101 13.22515,-43.44605 8.56527,-65.002444 z"
   style="fill:#ff455e;stroke:#000000;stroke-width:0;stroke-miterlimit:4;stroke-dasharray:none;stroke-opacity:1" />

<g
   id="g50">
</g>
<g
   id="g52">
</g>
<g
   id="g54">
</g>
<g
   id="g56">
</g>
<g
   id="g58">
</g>
<g
   id="g60">
</g>
<g
   id="g62">
</g>
<g
   id="g64">
</g>
<g
   id="g66">
</g>
<g
   id="g68">
</g>
<g
   id="g70">
</g>
<g
   id="g72">
</g>
<g
   id="g74">
</g>
<g
   id="g76">
</g>
<g
   id="g78">
</g>
</svg>
