<?xml version="1.0" encoding="UTF-8" standalone="no"?>
<svg
   xmlns:dc="http://purl.org/dc/elements/1.1/"
   xmlns:cc="http://creativecommons.org/ns#"
   xmlns:rdf="http://www.w3.org/1999/02/22-rdf-syntax-ns#"
   xmlns:svg="http://www.w3.org/2000/svg"
   xmlns="http://www.w3.org/2000/svg"
   xmlns:sodipodi="http://sodipodi.sourceforge.net/DTD/sodipodi-0.dtd"
   xmlns:inkscape="http://www.inkscape.org/namespaces/inkscape"
   inkscape:version="1.0beta2 (2b71d25, 2019-12-03)"
   sodipodi:docname="internetTimer.svg"
   version="1.1"
   viewBox="0 0 72 72"
   y="0"
   x="0"
   id="emoji">
  <metadata
     id="metadata1736">
    <rdf:RDF>
      <cc:Work
         rdf:about="">
        <dc:format>image/svg+xml</dc:format>
        <dc:type
           rdf:resource="http://purl.org/dc/dcmitype/StillImage" />
        <dc:title></dc:title>
      </cc:Work>
    </rdf:RDF>
  </metadata>
  <defs
     id="defs1734" />
  <sodipodi:namedview
     inkscape:current-layer="emoji"
     inkscape:window-maximized="0"
     inkscape:window-y="23"
     inkscape:window-x="0"
     inkscape:cy="37.317182"
     inkscape:cx="36"
     inkscape:zoom="10.180556"
     showgrid="false"
     id="namedview1732"
     inkscape:window-height="899"
     inkscape:window-width="1126"
     inkscape:pageshadow="2"
     inkscape:pageopacity="0"
     guidetolerance="10"
     gridtolerance="10"
     objecttolerance="10"
     borderopacity="1"
     inkscape:document-rotation="0"
     bordercolor="#666666"
     pagecolor="#ffffff" />
  <g
     id="hair" />
  <g
     id="skin" />
  <g
     id="skin-shadow" />
  <g
     transform="translate(-4.8130969,6.1882674)"
     id="g1797">
    <g
       id="color">
      <path
         inkscape:connector-curvature="0"
         fill="#9B9B9A"
         d="m 58.3698,30.524 c -5.6511,-5.6511 -13.458,-9.1464 -22.0813,-9.1464 -8.6366,0 -16.4544,3.5061 -22.1075,9.1726 l -3.813,-3.7631 c 6.6245,-6.6507 15.7919,-10.7667 25.9205,-10.7667 10.1026,0 19.2488,4.0949 25.8694,10.7154 z"
         id="path1710" />
      <path
         inkscape:connector-curvature="0"
         fill="#9B9B9A"
         d="m 21.9165,38.2856 c 3.7224,-3.7905 8.9056,-6.1416 14.6379,-6.1416 5.5973,0 10.671,2.2416 14.3724,5.876 l 3.7837,-3.7919 C 50.04,29.6267 43.6288,26.7872 36.5544,26.7872 c -7.2115,0 -13.7339,2.9506 -18.4258,7.7105 z"
         id="path1712" />
      <path
         inkscape:connector-curvature="0"
         fill="#9B9B9A"
         d="m 43.3518,45.5965 c -1.7623,-1.6966 -4.158,-2.7397 -6.7974,-2.7397 -2.7741,0 -5.2791,1.1524 -7.0623,3.0046 l -3.8144,-3.8145 c 2.7547,-2.8372 6.6098,-4.6001 10.8766,-4.6001 4.1307,0 7.8755,1.6522 10.6097,4.3319 z"
         id="path1714" />
      <circle
         cx="36.288601"
         cy="52.605301"
         r="2.6723001"
         fill="#9B9B9A"
         id="circle1716" />
    </g>
    <g
       id="line">
      <path
         inkscape:connector-curvature="0"
         fill="none"
         stroke="#000000"
         stroke-linecap="round"
         stroke-linejoin="round"
         stroke-miterlimit="10"
         stroke-width="2"
         d="m 58.3698,30.524 c -5.6511,-5.6511 -13.458,-9.1464 -22.0813,-9.1464 -8.6366,0 -16.4544,3.5061 -22.1075,9.1726 l -3.813,-3.7631 c 6.6245,-6.6507 15.7919,-10.7667 25.9205,-10.7667 10.1026,0 19.2488,4.0949 25.8694,10.7154 z"
         id="path1722" />
      <path
         inkscape:connector-curvature="0"
         fill="none"
         stroke="#000000"
         stroke-linecap="round"
         stroke-linejoin="round"
         stroke-miterlimit="10"
         stroke-width="2"
         d="m 21.9165,38.2856 c 3.7224,-3.7905 8.9056,-6.1416 14.6379,-6.1416 5.5973,0 10.671,2.2416 14.3724,5.876 l 3.7837,-3.7919 C 50.04,29.6267 43.6288,26.7872 36.5544,26.7872 c -7.2115,0 -13.7339,2.9506 -18.4258,7.7105 z"
         id="path1724" />
      <path
         inkscape:connector-curvature="0"
         fill="none"
         stroke="#000000"
         stroke-linecap="round"
         stroke-linejoin="round"
         stroke-miterlimit="10"
         stroke-width="2"
         d="m 43.3518,45.5965 c -1.7623,-1.6966 -4.158,-2.7397 -6.7974,-2.7397 -2.7741,0 -5.2791,1.1524 -7.0623,3.0046 l -3.8144,-3.8145 c 2.7547,-2.8372 6.6098,-4.6001 10.8766,-4.6001 4.1307,0 7.8755,1.6522 10.6097,4.3319 z"
         id="path1726" />
      <circle
         cx="36.288601"
         cy="52.605301"
         r="2.6723001"
         fill="none"
         stroke="#000000"
         stroke-linecap="round"
         stroke-linejoin="round"
         stroke-miterlimit="10"
         stroke-width="2"
         id="circle1728" />
    </g>
  </g>
  <g
     transform="matrix(0.64188133,0,0,0.64188133,28.405822,5.7502782)"
     id="g1785">
    <g
       id="color-5">
      <circle
         cx="35.904701"
         cy="36.013802"
         r="27.0345"
         fill="#fcea2b"
         id="circle1738" />
      <circle
         cx="36.005798"
         cy="36.0369"
         r="21.870899"
         fill="#fff"
         id="circle1740" />
    </g>
    <g
       id="line-5">
      <path
         inkscape:connector-curvature="0"
         d="M 55.1092,25.38 A 21.8626,21.8626 0 1 1 47.0154,17.1349"
         fill="none"
         stroke="#000"
         stroke-linecap="round"
         stroke-linejoin="round"
         stroke-width="2"
         id="path1743" />
      <path
         inkscape:connector-curvature="0"
         d="M 62.9392,35.9973 A 27.0463,27.0463 0 1 1 57.6742,19.9591"
         fill="none"
         stroke="#000"
         stroke-linecap="round"
         stroke-linejoin="round"
         stroke-width="2"
         id="path1745" />
      <polyline
         points="47.394 21.578 58.432 20.418 57.272 9.38"
         fill="none"
         stroke="#000"
         stroke-linecap="round"
         stroke-linejoin="round"
         stroke-width="2"
         id="polyline1747" />
      <polyline
         points="49.975 36.354 35.987 36.354 35.891 36.354 35.891 18.52"
         fill="none"
         stroke="#000"
         stroke-linecap="round"
         stroke-linejoin="round"
         stroke-width="2"
         id="polyline1749" />
      <line
         x1="35.890598"
         y1="53.910599"
         x2="35.890598"
         y2="50.066101"
         fill="none"
         stroke="#000"
         stroke-linecap="round"
         stroke-linejoin="round"
         stroke-width="2"
         id="line1751" />
      <polyline
         points="21.143 36.354 18.086 36.354 18.086 36.354"
         fill="none"
         stroke="#000"
         stroke-linecap="round"
         stroke-linejoin="round"
         stroke-width="2"
         id="polyline1753" />
      <circle
         cx="35.890598"
         cy="36.353802"
         r="3.7370999"
         id="circle1755" />
      <circle
         cx="48.693802"
         cy="47.937099"
         r="1.4802001"
         id="circle1757" />
      <circle
         cx="23.087299"
         cy="24.717199"
         r="1.4802001"
         id="circle1759" />
      <circle
         cx="23.087299"
         cy="47.937099"
         r="1.4802001"
         id="circle1761" />
    </g>
  </g>
</svg>
