<?xml version="1.0" encoding="UTF-8" standalone="no"?>
<svg
   xmlns:dc="http://purl.org/dc/elements/1.1/"
   xmlns:cc="http://creativecommons.org/ns#"
   xmlns:rdf="http://www.w3.org/1999/02/22-rdf-syntax-ns#"
   xmlns:svg="http://www.w3.org/2000/svg"
   xmlns="http://www.w3.org/2000/svg"
   xmlns:sodipodi="http://sodipodi.sourceforge.net/DTD/sodipodi-0.dtd"
   xmlns:inkscape="http://www.inkscape.org/namespaces/inkscape"
   inkscape:version="1.0beta2 (2b71d25, 2019-12-03)"
   sodipodi:docname="jointPain.svg"
   version="1.1"
   viewBox="0 0 72 72"
   id="emoji">
  <metadata
     id="metadata5115">
    <rdf:RDF>
      <cc:Work
         rdf:about="">
        <dc:format>image/svg+xml</dc:format>
        <dc:type
           rdf:resource="http://purl.org/dc/dcmitype/StillImage" />
        <dc:title></dc:title>
      </cc:Work>
    </rdf:RDF>
  </metadata>
  <defs
     id="defs5113" />
  <sodipodi:namedview
     inkscape:current-layer="g315-6-9"
     inkscape:window-maximized="0"
     inkscape:window-y="84"
     inkscape:window-x="236"
     inkscape:cy="33.073845"
     inkscape:cx="36"
     inkscape:zoom="8.9583333"
     showgrid="false"
     id="namedview5111"
     inkscape:window-height="811"
     inkscape:window-width="1190"
     inkscape:pageshadow="2"
     inkscape:pageopacity="0"
     guidetolerance="10"
     gridtolerance="10"
     objecttolerance="10"
     borderopacity="1"
     inkscape:document-rotation="0"
     bordercolor="#666666"
     pagecolor="#ffffff" />
  <g
     transform="matrix(1.0952073,0,0,1.0952073,6.4901454,-1.6845345)"
     id="color">
    <polygon
       id="polygon5083"
       points="28.962,33.024 28,31.1 28,29.175 29.924,27.251 34.842,29.347 34.424,33 "
       fill="#d0cfce" />
    <polygon
       id="polygon5085"
       points="24.875,57.359 22.835,59.475 23.493,61.1 35.742,56.2 36.057,53.886 33.644,51 30.758,51 "
       fill="#d0cfce" />
    <polyline
       id="polyline5087"
       points="34.428 51.422 31.071 51.422 28.834 42.763 28.834 33.142 35.186 33.118 37.112 36.982 36.978 41.785 34.428 51.422"
       fill="#d0cfce" />
    <path
       inkscape:connector-curvature="0"
       id="path5089"
       d="M 30.8434,27.4215 A 0.0084,0.0084 0 0 1 30.8394,27.409 L 41.33,10.0582 a 0.0241,0.0241 0 0 1 0.015,-0.01 L 46.9275,9.15 a 0.0233,0.0233 0 0 1 0.0172,0.0052 l 4.0175,3.7279 A 0.0261,0.0261 0 0 1 50.97,12.9 l 0.0273,5.7526 a 0.0214,0.0214 0 0 1 -0.0081,0.0158 L 35.77,29.4837 a 0.02,0.02 0 0 1 -0.0174,0.002 z"
       fill="#d0cfce" />
    <path
       inkscape:connector-curvature="0"
       id="path5091"
       d="m 48.865,10.5609 c 0,0 2.1228,2.9638 -15.1377,17.9827 v 0 c 0,0 2.0307,1.9315 5.7535,-1.1739 3.7228,-3.1054 11.5162,-8.7069 11.5162,-8.7069 0,0 2.3953,-4.8639 -2.132,-8.1019"
       fill="#9b9b9a" />
    <path
       inkscape:connector-curvature="0"
       id="path5093"
       d="m 31.4209,33.4005 c 0,0 3.9361,1.444 1.5521,18.0218 v 0 l 4.0048,-9.6369 c 0,0 0.8043,-8.7585 -5.5569,-8.3849"
       fill="#9b9b9a" />
    <polygon
       id="polygon5095"
       points="32.973,28.927 32.973,33.024 34.424,33 34.842,29.347 "
       fill="#9b9b9a" />
  </g>
  <g
     transform="translate(7.2558139,3.9069768)"
     id="line">
    <g
       transform="matrix(1.0952073,0,0,1.0952073,-0.76566852,-5.5915113)"
       id="Mechanical_Leg">
      <g
         id="g5106">
        <path
           inkscape:connector-curvature="0"
           id="path5098"
           d="M 31.12,27.7436 A 0.7963,0.7963 0 0 1 30.7351,26.5297 L 40.8356,10.8918 a 2.5216,2.5216 0 0 1 1.5319,-0.9859 l 3.9474,-0.5824 a 2.4467,2.4467 0 0 1 1.7377,0.5173 l 2.7462,2.4341 a 2.5412,2.5412 0 0 1 0.7484,1.6632 v 3.7727 a 2.0917,2.0917 0 0 1 -0.8325,1.554 l -14.4923,9.6461 a 2.1294,2.1294 0 0 1 -1.76,0.18 z"
           stroke-width="2"
           stroke-miterlimit="10"
           stroke="#000"
           fill="none" />
        <path
           inkscape:connector-curvature="0"
           id="path5100"
           d="M 33.9628,51.4223 H 32.2266 A 2.1975,2.1975 0 0 1 30.2391,49.4381 L 28.4267,35.1265 a 1.73,1.73 0 0 1 1.7487,-1.9915 l 2.5714,-0.0093 a 3.5952,3.5952 0 0 1 2.917,1.77 l 0.1591,0.3083 a 9.1977,9.1977 0 0 1 0.8591,3.7766 l -0.0234,0.8055 a 20.1577,20.1577 0 0 1 -0.5859,3.9282 l -2.11,7.7079"
           stroke-width="2"
           stroke-miterlimit="10"
           stroke="#000"
           fill="none" />
        <path
           inkscape:connector-curvature="0"
           id="path5102"
           d="M 35.5423,56.9767 A 1.8737,1.8737 0 0 0 36.62,55.6329 l 0.0481,-0.3345 a 2.4657,2.4657 0 0 0 -0.52,-1.7392 l -1.226,-1.3875 A 2.5355,2.5355 0 0 0 33.26,51.4223 H 32.2092 A 2.7355,2.7355 0 0 0 30.51,52.1372 l -4.82,4.9289 c -0.3845,0.3932 -1.02,1.03 -1.4128,1.4154 l -0.7287,0.7153 a 1.4954,1.4954 0 0 0 -0.3658,1.513 1,1 0 0 0 1.2831,0.4586 z"
           stroke-width="2"
           stroke-linejoin="round"
           stroke="#000"
           fill="none" />
        <path
           inkscape:connector-curvature="0"
           id="path5104"
           d="m 28.1585,30.256 a 2.6181,2.6181 0 0 1 0.7264,-1.6494 l 0.581,-0.55 a 1.7015,1.7015 0 0 1 1.6539,-0.3133 l 3.3426,1.3475 a 1.3811,1.3811 0 0 1 0.8076,1.3667 l -0.2015,1.6678 a 1.1659,1.1659 0 0 1 -1.12,0.997 l -3.7732,0.0156 a 1.82,1.82 0 0 1 -1.4673,-0.88 l -0.0824,-0.156 A 4.7039,4.7039 0 0 1 28.1585,30.256 Z"
           stroke-width="2"
           stroke-miterlimit="10"
           stroke="#000"
           fill="none" />
      </g>
    </g>
  </g>
  <g
     transform="matrix(0.13624358,-0.04806522,0.04806522,0.13624358,-2.2290976,11.910472)"
     id="g5159">
    <g
       inkscape:label="layer1"
       id="layer1" />
    <g
       transform="matrix(0.45087563,0,0,0.49319789,10.63319,1.6359845)"
       id="g315-6-9">
      <g
         id="hair-6-1" />
      <g
         id="skin-2-7" />
      <g
         id="skin-shadow-7-2" />
      <g
         transform="translate(4.6629352,44.785305)"
         id="g1599">
        <g
           transform="translate(-11.089533,-10.137918)"
           id="g1613">
          <g
             transform="matrix(-3.7252093,2.5329544,-5.7596302,-2.2257047,535.47943,216.69223)"
             id="g1218-4-6-9-8-7-7">
            <path
               inkscape:connector-curvature="0"
               fill="#FCEA2B"
               stroke="none"
               d="M 48.145,3.8658999 16.318,37.9905 c -0.6029,0.6465 -0.1141,1.6589 0.801,1.6589 H 36.2256 L 19.1523,67.188 c -0.1662,0.2681 0.215,0.5364 0.4424,0.3114 l 36.0628,-35.704 c 0.6436,-0.6372 0.1626,-1.6882 -0.7725,-1.6882 H 36.3846 Z"
               id="path292-7-9-8-0-5-8-8-1"
               style="fill:#f44a5d;fill-opacity:1" />
            <g
               id="line-0-3-0-3-4-3-4-8">
              <path
                 id="path298-3-6-4-2-9-5-1-7"
                 d="M 48.1628,4.4406 16.3224,37.7817 c -0.6174,0.6465 -0.1168,1.6589 0.8201,1.6589 H 36.2254 L 17.9214,68.2739 55.6483,31.7954 c 0.659,-0.6372 0.1665,-1.6882 -0.791,-1.6882 H 36.3846 Z"
                 stroke-width="2"
                 stroke-miterlimit="10"
                 stroke-linejoin="round"
                 stroke-linecap="round"
                 stroke="#000000"
                 fill="none"
                 inkscape:connector-curvature="0" />
            </g>
          </g>
          <g
             id="g1218-4-6-9-8-7-7-4"
             transform="matrix(-3.7603543,-0.90354023,-1.6432808,-4.5962971,603.78371,396.56708)">
            <path
               style="fill:#f44a5d;fill-opacity:1"
               id="path292-7-9-8-0-5-8-8-1-0"
               d="M 48.145,3.8658999 16.318,37.9905 c -0.6029,0.6465 -0.1141,1.6589 0.801,1.6589 H 36.2256 L 19.1523,67.188 c -0.1662,0.2681 0.215,0.5364 0.4424,0.3114 l 36.0628,-35.704 c 0.6436,-0.6372 0.1626,-1.6882 -0.7725,-1.6882 H 36.3846 Z"
               stroke="none"
               fill="#FCEA2B"
               inkscape:connector-curvature="0" />
            <g
               id="line-0-3-0-3-4-3-4-8-0">
              <path
                 inkscape:connector-curvature="0"
                 fill="none"
                 stroke="#000000"
                 stroke-linecap="round"
                 stroke-linejoin="round"
                 stroke-miterlimit="10"
                 stroke-width="2"
                 d="M 48.1628,4.4406 16.3224,37.7817 c -0.6174,0.6465 -0.1168,1.6589 0.8201,1.6589 H 36.2254 L 17.9214,68.2739 55.6483,31.7954 c 0.659,-0.6372 0.1665,-1.6882 -0.791,-1.6882 H 36.3846 Z"
                 id="path298-3-6-4-2-9-5-1-7-9" />
            </g>
          </g>
          <g
             transform="matrix(-0.98835263,3.4376711,-5.0277369,1.5022676,399.27125,240.33977)"
             id="g1218-4-6-9-8-7-7-4-3">
            <path
               inkscape:connector-curvature="0"
               fill="#FCEA2B"
               stroke="none"
               d="M 48.145,3.8658999 16.318,37.9905 c -0.6029,0.6465 -0.1141,1.6589 0.801,1.6589 H 36.2256 L 19.1523,67.188 c -0.1662,0.2681 0.215,0.5364 0.4424,0.3114 l 36.0628,-35.704 c 0.6436,-0.6372 0.1626,-1.6882 -0.7725,-1.6882 H 36.3846 Z"
               id="path292-7-9-8-0-5-8-8-1-0-7"
               style="fill:#f44a5d;fill-opacity:1" />
            <g
               id="line-0-3-0-3-4-3-4-8-0-5">
              <path
                 id="path298-3-6-4-2-9-5-1-7-9-7"
                 d="M 48.1628,4.4406 16.3224,37.7817 c -0.6174,0.6465 -0.1168,1.6589 0.8201,1.6589 H 36.2254 L 17.9214,68.2739 55.6483,31.7954 c 0.659,-0.6372 0.1665,-1.6882 -0.791,-1.6882 H 36.3846 Z"
                 stroke-width="2"
                 stroke-miterlimit="10"
                 stroke-linejoin="round"
                 stroke-linecap="round"
                 stroke="#000000"
                 fill="none"
                 inkscape:connector-curvature="0" />
            </g>
          </g>
        </g>
      </g>
    </g>
  </g>
</svg>
