<?xml version="1.0" encoding="UTF-8" standalone="no"?>
<svg
   xmlns:dc="http://purl.org/dc/elements/1.1/"
   xmlns:cc="http://creativecommons.org/ns#"
   xmlns:rdf="http://www.w3.org/1999/02/22-rdf-syntax-ns#"
   xmlns:svg="http://www.w3.org/2000/svg"
   xmlns="http://www.w3.org/2000/svg"
   xmlns:sodipodi="http://sodipodi.sourceforge.net/DTD/sodipodi-0.dtd"
   xmlns:inkscape="http://www.inkscape.org/namespaces/inkscape"
   version="1.1"
   id="Capa_1"
   x="0px"
   y="0px"
   viewBox="0 0 512 512"
   style="enable-background:new 0 0 512 512;"
   xml:space="preserve"
   sodipodi:docname="lampClock.svg"
   inkscape:version="1.0beta2 (2b71d25, 2019-12-03)"><metadata
   id="metadata1872"><rdf:RDF><cc:Work
       rdf:about=""><dc:format>image/svg+xml</dc:format><dc:type
         rdf:resource="http://purl.org/dc/dcmitype/StillImage" /><dc:title /></cc:Work></rdf:RDF></metadata><defs
   id="defs1870" /><sodipodi:namedview
   pagecolor="#ffffff"
   bordercolor="#666666"
   inkscape:document-rotation="0"
   borderopacity="1"
   objecttolerance="10"
   gridtolerance="10"
   guidetolerance="10"
   inkscape:pageopacity="0"
   inkscape:pageshadow="2"
   inkscape:window-width="1077"
   inkscape:window-height="863"
   id="namedview1868"
   showgrid="false"
   inkscape:zoom="0.49462616"
   inkscape:cx="256"
   inkscape:cy="321.22293"
   inkscape:window-x="150"
   inkscape:window-y="34"
   inkscape:window-maximized="0"
   inkscape:current-layer="g1987" />







<g
   id="g1884"
   transform="matrix(0.69419809,0,0,0.69419809,5.72478,112.50955)"><g
     id="hair"
     transform="matrix(6.5688527,0,0,6.5688527,-19.507398,-75.989352)" /><g
     id="skin"
     transform="matrix(6.5688527,0,0,6.5688527,-19.507398,-75.989352)" /><g
     id="skin-shadow"
     transform="matrix(6.5688527,0,0,6.5688527,-19.507398,-75.989352)" /><g
     transform="matrix(7.0756142,0,0,7.0756142,270.7258,-228.0514)"
     id="g1945"><g
       id="hair-5" /><g
       id="skin-5" /><g
       id="skin-shadow-8" /><g
       transform="matrix(1.2473852,0,0,1.2473852,-13.086473,-1.2690308)"
       id="g1955"><g
         id="color-1"
         transform="translate(-0.69849934,1.3969987)"><circle
           id="circle1910"
           stroke-width="2"
           stroke-miterlimit="10"
           stroke-linejoin="round"
           stroke-linecap="round"
           stroke="none"
           fill="#FFFFFF"
           r="23"
           cy="35.990101"
           cx="35.958" /><line
           id="line1912"
           stroke-width="2"
           stroke-miterlimit="10"
           stroke-linejoin="round"
           stroke-linecap="round"
           stroke="none"
           fill="#FFFFFF"
           y2="35.9893"
           y1="18.9893"
           x2="36"
           x1="36" /><line
           id="line1914"
           stroke-width="2"
           stroke-miterlimit="10"
           stroke-linejoin="round"
           stroke-linecap="round"
           stroke="none"
           fill="#FFFFFF"
           y2="26.440201"
           y1="35.966499"
           x2="30.399401"
           x1="35.899399" /></g><g
         id="line"><circle
           id="circle1920"
           stroke-width="2"
           stroke-miterlimit="10"
           stroke-linejoin="round"
           stroke-linecap="round"
           stroke="#000000"
           fill="none"
           r="23"
           cy="35.990101"
           cx="35.958" /><line
           id="line1922"
           stroke-width="2"
           stroke-miterlimit="10"
           stroke-linejoin="round"
           stroke-linecap="round"
           stroke="#000000"
           fill="none"
           y2="35.9893"
           y1="18.9893"
           x2="36"
           x1="36" /><line
           id="line1924"
           stroke-width="2"
           stroke-miterlimit="10"
           stroke-linejoin="round"
           stroke-linecap="round"
           stroke="#000000"
           fill="none"
           y2="26.440201"
           y1="35.966499"
           x2="30.399401"
           x1="35.899399" /></g></g></g><g
     id="g1987"
     transform="matrix(1.0963399,0,0,1.0963399,4.1832419,-22.044884)"><g
       id="color"
       transform="matrix(6.5688527,0,0,6.5688527,-16.260797,7.9739925)"><path
         d="M 36,7 C 19.9844,7 7,19.9844 7,36 7,52.0156 19.9844,65 36,65 52.0156,65 65,52.0156 65,36 65,19.9844 52.0156,7 36,7 Z M 13,36 c 0,-5.0752 1.6475,-9.7637 4.4316,-13.5684 L 49.5684,54.5684 C 45.7637,57.3525 41.0752,59 36,59 23.2969,59 13,48.7031 13,36 Z M 54.5684,49.5684 22.4316,17.4316 C 26.2363,14.6475 30.9248,13 36,13 c 12.7031,0 23,10.2969 23,23 0,5.0752 -1.6475,9.7637 -4.4316,13.5684 z"
         stroke-width="2"
         stroke-miterlimit="10"
         stroke-linejoin="round"
         stroke-linecap="round"
         stroke="none"
         fill="#ea5a47"
         id="_xD83D__xDEAB_"
         inkscape:connector-curvature="0" /></g><polygon
       transform="translate(-35.232881,9.3954349)"
       style="fill:#61cdff;fill-opacity:1"
       points="187.733,8.533 324.267,8.533 375.467,196.267 136.533,196.267 "
       id="polygon1817" /><rect
       x="203.70012"
       y="205.66243"
       style="fill:#5a6470"
       width="34.132999"
       height="307.20001"
       id="rect1819" /><rect
       x="101.30013"
       y="504.32846"
       style="fill:#b5554e"
       width="238.933"
       height="17.066999"
       id="rect1821" /><rect
       x="297.56711"
       y="205.66243"
       style="fill:#5a6470"
       width="17.066999"
       height="68.266998"
       id="rect1823" /><circle
       style="fill:#fff69a"
       cx="306.10013"
       cy="290.99545"
       r="17.066999"
       id="circle1825" /><path
       inkscape:connector-curvature="0"
       style="fill:#b5554e"
       d="m 306.10012,316.59543 c -14.14,0 -25.6,-11.46 -25.6,-25.6 0,-14.14 11.46,-25.6 25.6,-25.6 14.14,0 25.6,11.46 25.6,25.6 0,14.14 -11.46,25.6 -25.6,25.6 z m 0,-34.133 c -4.71,0 -8.533,3.823 -8.533,8.533 0,4.71 3.823,8.533 8.533,8.533 4.71,0 8.533,-3.823 8.533,-8.533 0,-4.71 -3.822,-8.533 -8.533,-8.533 z"
       id="path1827" /><g
       transform="translate(-35.232881,9.3954349)"
       id="g1833">
	<rect
   x="170.66701"
   y="136.533"
   style="fill:#fff69a"
   width="136.533"
   height="17.066999"
   id="rect1829" />
	<rect
   x="324.267"
   y="136.533"
   style="fill:#fff69a"
   width="17.066999"
   height="17.066999"
   id="rect1831" />
</g><path
       inkscape:connector-curvature="0"
       d="m 195.16712,214.19543 v 290.133 h -93.867 v 17.067 h 238.933 v -17.067 h -93.866 v -290.133 h 51.2 v 52.77 c -13.329,4.71 -20.318,19.337 -15.599,32.666 4.71,13.329 19.337,20.318 32.666,15.599 13.329,-4.71 20.318,-19.337 15.599,-32.666 -2.577,-7.287 -8.311,-13.022 -15.599,-15.599 v -52.77 h 36.77 L 295.55312,9.3954349 h -149.572 L 90.130119,214.19543 Z m 34.133,290.133 h -17.067 v -290.133 h 17.067 z m 76.8,-204.8 c -4.71,0 -8.533,-3.823 -8.533,-8.533 0,-4.71 3.823,-8.533 8.533,-8.533 4.71,0 8.533,3.823 8.533,8.533 0,4.71 -3.822,8.533 -8.533,8.533 z m -179.669,-153.6 32.589,-119.466995 h 123.494 l 32.589,119.466995 h -26.069 v 17.067 h 30.72 l 9.31,34.133 h -216.594 l 9.31,-34.133 h 150.187 v -17.067 z"
       id="path1835" /></g></g>
<g
   id="g1837">
</g>
<g
   id="g1839">
</g>
<g
   id="g1841">
</g>
<g
   id="g1843">
</g>
<g
   id="g1845">
</g>
<g
   id="g1847">
</g>
<g
   id="g1849">
</g>
<g
   id="g1851">
</g>
<g
   id="g1853">
</g>
<g
   id="g1855">
</g>
<g
   id="g1857">
</g>
<g
   id="g1859">
</g>
<g
   id="g1861">
</g>
<g
   id="g1863">
</g>
<g
   id="g1865">
</g>
</svg>
