<?xml version="1.0" encoding="UTF-8" standalone="no"?>
<svg
   xmlns:dc="http://purl.org/dc/elements/1.1/"
   xmlns:cc="http://creativecommons.org/ns#"
   xmlns:rdf="http://www.w3.org/1999/02/22-rdf-syntax-ns#"
   xmlns:svg="http://www.w3.org/2000/svg"
   xmlns="http://www.w3.org/2000/svg"
   xmlns:sodipodi="http://sodipodi.sourceforge.net/DTD/sodipodi-0.dtd"
   xmlns:inkscape="http://www.inkscape.org/namespaces/inkscape"
   inkscape:version="1.0beta2 (2b71d25, 2019-12-03)"
   sodipodi:docname="marijuana.svg"
   id="svg405"
   version="1.1"
   width="512"
   viewBox="0 0 60 60"
   height="512">
  <metadata
     id="metadata411">
    <rdf:RDF>
      <cc:Work
         rdf:about="">
        <dc:format>image/svg+xml</dc:format>
        <dc:type
           rdf:resource="http://purl.org/dc/dcmitype/StillImage" />
      </cc:Work>
    </rdf:RDF>
  </metadata>
  <defs
     id="defs409" />
  <sodipodi:namedview
     inkscape:current-layer="svg405"
     inkscape:window-maximized="0"
     inkscape:window-y="35"
     inkscape:window-x="47"
     inkscape:cy="256"
     inkscape:cx="256"
     inkscape:zoom="0.61328125"
     showgrid="false"
     id="namedview407"
     inkscape:window-height="821"
     inkscape:window-width="1028"
     inkscape:pageshadow="2"
     inkscape:pageopacity="0"
     guidetolerance="10"
     gridtolerance="10"
     objecttolerance="10"
     borderopacity="1"
     inkscape:document-rotation="0"
     bordercolor="#666666"
     pagecolor="#ffffff" />
  <g
     transform="matrix(0.79604018,0,0,0.84712105,6.1187946,4.586879)"
     fill="none"
     id="017---Marijuana-Leaf">
    <g
       transform="translate(1,1)"
       id="Icons">
      <path
         inkscape:connector-curvature="0"
         fill="#60a917"
         d="m 35,25.69 c 0.02393,3.874441 -0.467029,7.734887 -1.46,11.48 -0.848399,3.515417 -2.369756,6.833198 -4.48,9.77 C 26.953721,43.995945 25.429699,40.67636 24.57,37.16 23.543772,33.422502 23.01587,29.565794 23,25.69 23.17196,16.945176 25.057556,8.318999 28.55,0.3 28.62743,0.12030935 28.804337,0.00390719 29,0.00390719 c 0.195663,0 0.37257,0.11640216 0.45,0.29609281 3.492444,8.018999 5.37804,16.645176 5.55,25.39 z"
         id="Shape" />
      <path
         inkscape:connector-curvature="0"
         fill="#549414"
         d="M 29.45,0.3 C 29.37257,0.12030935 29.195663,0.00390719 29,0.00390719 c -0.195663,0 -0.37257,0.11640216 -0.45,0.29609281 -0.27,0.6 -0.63,1.47 -1.05,2.56 2.841691,7.283015 4.365418,15.01339 4.5,22.83 0.02393,3.874441 -0.467029,7.734887 -1.46,11.48 -0.679092,2.638993 -1.686981,5.182234 -3,7.57 0.429136,0.765394 0.910266,1.500452 1.44,2.2 2.110244,-2.936802 3.631601,-6.254583 4.48,-9.77 C 34.479976,33.428522 34.997848,29.568015 35,25.69 34.82804,16.945176 32.942444,8.3189991 29.45,0.3 Z"
         id="path381" />
      <path
         inkscape:connector-curvature="0"
         fill="#60a917"
         d="M 28.94,46.94 C 28.46,46.5 24.8,43.3 18,43 16.052851,41.840084 14.218226,40.500942 12.52,39 7.2583333,34.089169 3.0202917,28.185819 0.05,21.63 -0.02707945,21.448992 0.00682753,21.239789 0.13713387,21.092394 0.2674402,20.944998 0.47090661,20.885696 0.66,20.94 c 6.823724,2.243738 13.13765,5.811888 18.58,10.5 1.929879,1.717612 3.675934,3.631234 5.21,5.71 0.858501,3.519858 2.38257,6.842939 4.49,9.79 z"
         id="path383" />
      <path
         inkscape:connector-curvature="0"
         fill="#60a917"
         d="M 58,21.63 C 55.014914,28.190109 50.759652,34.093775 45.48,39 c -1.698226,1.500942 -3.532851,2.840084 -5.48,4 -6.83,0.28 -10.49,3.48 -11,3.92 2.110244,-2.936802 3.631601,-6.254584 4.48,-9.77 1.522323,-2.094434 3.2694,-4.015884 5.21,-5.73 5.44235,-4.688112 11.756276,-8.256262 18.58,-10.5 0.199256,-0.182703 0.506459,-0.178184 0.700254,0.0103 C 58.16405,21.118788 58.177099,21.425747 58,21.63 Z"
         id="path385" />
      <path
         inkscape:connector-curvature="0"
         fill="#549414"
         d="m 57.34,20.94 c -0.61,0.2 -1.46,0.49 -2.48,0.89 -2.9671,6.476122 -7.172789,12.309053 -12.38,17.17 -1.698226,1.500942 -3.532851,2.840084 -5.48,4 -2.134098,0.07129 -4.243492,0.479669 -6.25,1.21 -0.493651,0.951508 -1.069154,1.858261 -1.72,2.71 0.48,-0.44 4.14,-3.64 11,-3.92 1.936753,-1.161478 3.761278,-2.500579 5.45,-4 5.279652,-4.906225 9.534914,-10.809891 12.52,-17.37 0.09208,-0.191485 0.05579,-0.419994 -0.09108,-0.573536 C 57.762058,20.902922 57.535387,20.85652 57.34,20.94 Z"
         id="path387" />
      <path
         inkscape:connector-curvature="0"
         fill="#60a917"
         d="m 29,47 c -0.179641,2.33756 -1.12917,4.549612 -2.7,6.29 -2.073315,2.193654 -4.677079,3.81584 -7.56,4.71 -0.175327,0.07345 -0.376564,0.04739 -0.527389,-0.06831 C 18.061785,57.815985 17.984475,57.628371 18.01,57.44 18.449929,55.068379 19.328277,52.799596 20.6,50.75 23.703376,50.337386 26.620873,49.034932 29,47 Z"
         id="path389" />
      <path
         inkscape:connector-curvature="0"
         fill="#008a00"
         d="m 29,47 c -2.382275,2.01512 -5.295516,3.299863 -8.39,3.7 C 19.41628,50.893571 18.209297,50.993875 17,51 12.251551,50.882351 7.5861248,49.728793 3.33,47.62 3.1248164,47.480336 3.002019,47.248206 3.002019,47 3.002019,46.751794 3.1248164,46.519663 3.33,46.38 7.5861248,44.271207 12.251551,43.117649 17,43 h 1 c 6.83,0.28 10.49,3.48 11,3.92 z"
         id="path391" />
      <path
         inkscape:connector-curvature="0"
         fill="#60a917"
         d="m 40,57.41 c 0.02553,0.18837 -0.05179,0.375985 -0.20261,0.491686 C 39.646565,58.017388 39.445327,58.043454 39.27,57.97 36.394887,57.085687 33.79514,55.477632 31.72,53.3 30.139874,51.559681 29.183047,49.343501 29,47 c 2.382275,2.01512 5.295516,3.299863 8.39,3.7 1.281051,2.054223 2.166293,4.330074 2.61,6.71 z"
         id="path393" />
      <path
         inkscape:connector-curvature="0"
         fill="#549414"
         d="M 37.4,50.72 C 34.299855,50.315983 31.382683,49.024093 29,47 c 0.05669,0.742729 0.194163,1.477066 0.41,2.19 1.589208,0.731106 3.271768,1.239239 5,1.51 1.204194,1.933187 2.050998,4.067134 2.5,6.3 0.763952,0.356898 1.548706,0.667461 2.35,0.93 0.175327,0.07345 0.376564,0.04739 0.527389,-0.06831 C 39.938215,57.745985 40.015525,57.55837 39.99,57.37 39.545319,55.012244 38.667129,52.757434 37.4,50.72 Z"
         id="path395" />
      <path
         inkscape:connector-curvature="0"
         fill="#008a00"
         d="M 54.67,47.62 C 50.413875,49.728793 45.748449,50.882351 41,51 39.794562,50.999971 38.590946,50.906357 37.4,50.72 34.299855,50.315983 31.382683,49.024093 29,47 c 0.48,-0.44 4.14,-3.64 11,-3.92 h 1 c 4.748449,0.117649 9.413875,1.271207 13.67,3.38 0.173761,0.142454 0.2745,0.355309 0.2745,0.58 0,0.224691 -0.100739,0.437546 -0.2745,0.58 z"
         id="path397" />
      <path
         inkscape:connector-curvature="0"
         fill="#007900"
         d="M 54.67,46.38 C 50.413875,44.271207 45.748449,43.117649 41,43 h -1 -0.49 c 4.216617,0.338164 8.33175,1.467874 12.13,3.33 0.205184,0.139663 0.327981,0.371794 0.327981,0.62 0,0.248206 -0.122797,0.480336 -0.327981,0.62 -3.781559,1.857793 -7.880138,2.984223 -12.08,3.32 0.46,0 0.92,0.06 1.41,0.06 4.748449,-0.117649 9.413875,-1.271207 13.67,-3.38 0.188636,-0.137223 0.302684,-0.354406 0.308563,-0.587599 C 54.954441,46.749207 54.851482,46.526554 54.67,46.38 Z"
         id="path399" />
    </g>
    <path
       inkscape:connector-curvature="0"
       fill="#000"
       d="M 2,21 C 1.4418664,20.817349 0.82846021,20.974862 0.42737991,21.403825 0.02629961,21.832788 -0.0896945,22.455382 0.13,23 c 3.19,7.11 8.81,15 15.67,20.09 -4.141553,0.40461 -8.1761549,1.552998 -11.91,3.39 -0.5316887,0.312568 -0.8581837,0.883241 -0.8581837,1.5 0,0.616759 0.326495,1.187432 0.8581837,1.5 4.9101502,2.488623 10.381037,3.663416 15.88,3.41 -0.823764,1.690309 -1.418985,3.4827 -1.77,5.33 -0.08816,0.530487 0.108656,1.068309 0.518398,1.41659 0.409743,0.348281 0.972247,0.45588 1.481602,0.28341 3.602023,-1.022375 6.76575,-3.205346 9,-6.21 V 59 c 0,0.552285 0.447715,1 1,1 0.552285,0 1,-0.447715 1,-1 v -5.29 c 2.240517,2.998154 5.40183,5.17946 9,6.21 0.509355,0.17247 1.071859,0.06487 1.481602,-0.28341 C 41.891344,59.288309 42.088159,58.750487 42,58.22 c -0.344873,-1.832171 -0.929919,-3.610846 -1.74,-5.29 5.498736,0.250679 10.968933,-0.923966 15.88,-3.41 0.531689,-0.312568 0.858184,-0.883241 0.858184,-1.5 0,-0.616759 -0.326495,-1.187432 -0.858184,-1.5 C 52.399528,44.665682 48.35434,43.503622 44.2,43.09 51,38.11 56.62,30.26 59.87,23 60.089695,22.455382 59.9737,21.832788 59.57262,21.403825 59.17154,20.974862 58.558134,20.817349 58,21 c -7.43,2.39 -15.9,7.14 -21.65,13.37 1.8,-11 -0.68,-23.63 -5,-33.46 -0.234522,-0.54844082 -0.773521,-0.90416726 -1.37,-0.90416726 -0.596479,0 -1.135478,0.35572644 -1.37,0.90416726 -4.25,9.64 -6.85,22.32 -5,33.46 C 18,28.22 9.55,23.43 2,21 Z m 3.35,27 c 7.25,-3.35 16.53,-4.6 23.06,0 -6.52,4.63 -15.87,3.32 -23.06,0 z m 14.82,9.76 c 0.401232,-1.805122 1.075666,-3.538419 2,-5.14 2.21286,-0.389315 4.339126,-1.168043 6.28,-2.3 -1.23,3.68 -4.63,6.09 -8.28,7.44 z m 19.66,0 c -3.64,-1.34 -7,-3.75 -8.33,-7.44 1.940056,1.133694 4.066642,1.912539 6.28,2.3 0.941756,1.598618 1.633105,3.33205 2.05,5.14 z M 31.59,48 c 6.52,-4.63 15.87,-3.32 23.06,0 -7.25,3.35 -16.53,4.6 -23.06,0 z m 26,-24.74 C 53.87,30.88 48,38.55 40.71,43 c -2.624499,0.113039 -5.203599,0.723879 -7.6,1.8 0.983697,-1.995465 1.770745,-4.081977 2.35,-6.23 5.27,-7.13 13.92,-12.42 22.09,-15.31 z M 30,2.79 C 35.47,16 37.76,34.16 30,46.27 22.24,34.15 24.54,16 30,2.79 Z M 26.89,44.84 C 24.493599,43.763879 21.914499,43.153039 19.29,43.04 12,38.55 6.12,30.86 2.45,23.26 c 8.19,2.9 16.83,8.19 22.09,15.35 0.579255,2.148023 1.366303,4.234536 2.35,6.23 z"
       id="path402" />
  </g>
</svg>
