<?xml version="1.0" encoding="UTF-8" standalone="no"?>
<svg
   xmlns:dc="http://purl.org/dc/elements/1.1/"
   xmlns:cc="http://creativecommons.org/ns#"
   xmlns:rdf="http://www.w3.org/1999/02/22-rdf-syntax-ns#"
   xmlns:svg="http://www.w3.org/2000/svg"
   xmlns="http://www.w3.org/2000/svg"
   xmlns:sodipodi="http://sodipodi.sourceforge.net/DTD/sodipodi-0.dtd"
   xmlns:inkscape="http://www.inkscape.org/namespaces/inkscape"
   inkscape:version="1.0beta2 (2b71d25, 2019-12-03)"
   sodipodi:docname="nightPhone.svg"
   version="1.1"
   viewBox="0 0 72 72"
   y="0"
   x="0"
   id="emoji">
  <metadata
     id="metadata60">
    <rdf:RDF>
      <cc:Work
         rdf:about="">
        <dc:format>image/svg+xml</dc:format>
        <dc:type
           rdf:resource="http://purl.org/dc/dcmitype/StillImage" />
        <dc:title></dc:title>
      </cc:Work>
    </rdf:RDF>
  </metadata>
  <defs
     id="defs58" />
  <sodipodi:namedview
     inkscape:current-layer="emoji"
     inkscape:window-maximized="0"
     inkscape:window-y="23"
     inkscape:window-x="0"
     inkscape:cy="36"
     inkscape:cx="36"
     inkscape:zoom="9.0555556"
     showgrid="false"
     id="namedview56"
     inkscape:window-height="818"
     inkscape:window-width="1207"
     inkscape:pageshadow="2"
     inkscape:pageopacity="0"
     guidetolerance="10"
     gridtolerance="10"
     objecttolerance="10"
     borderopacity="1"
     inkscape:document-rotation="0"
     bordercolor="#666666"
     pagecolor="#ffffff" />
  <g
     id="color">
    <path
       id="path10"
       d="M4,70.6667v-17.5L26.75,52.25l16.6667-17.9167c1.0833,2.2917,7.6667,6.25,10.0833,6.5L38.5,65.75 C37.4583,67.625,23.0693,70.6667,4,70.6667z"
       fill="#B399C8" />
    <polyline
       id="polyline12"
       points="64.2079,27.8958 64.2498,4.9708 49.6758,5.0494 49.6368,26.3997"
       fill="#92D3F5" />
  </g>
  <g
     id="hair" />
  <g
     id="skin">
    <path
       id="path16"
       d="M64.837,20.0537c1.0597,0.1522,1.6563,0.9253,1.6457,1.9381c-0.0099,0.9466-0.5375,1.9321-1.6843,1.9033 c0,0-1.2147-0.0379-1.6188-0.015c-0.1713,0.0097-0.3427,0.0192-0.5125-0.0051c-1.0597-0.1522-1.7953-1.1346-1.6431-2.1943 s1.1346-1.7953,2.1943-1.6431C63.2183,20.0376,64.837,20.0539,64.837,20.0537z"
       fill="#FCEA2B" />
    <path
       id="path18"
       d="M64.8758,16.1978c1.0597,0.1522,1.6563,0.9253,1.6457,1.9381c-0.0099,0.9466-0.5375,1.9321-1.6843,1.9033 c0,0-1.2147-0.0379-1.6188-0.015c-0.1713,0.0097-0.3427,0.0192-0.5125-0.0051c-1.0597-0.1522-1.7953-1.1346-1.6431-2.1943 s1.1346-1.7953,2.1943-1.6431C63.257,16.1818,64.8758,16.198,64.8758,16.1978z"
       fill="#FCEA2B" />
    <path
       id="path20"
       d="M51.2751,26.2517c-0.2374-0.9177-0.7139-1.7561-1.381-2.4296l0.0252-0.0391l0.5511-0.8399 c0.2598-0.396,1.1637-0.3694,2.008,0.0605l0.4053,0.2057c0.8445,0.4295,1.8686,0.2729,2.3229-0.4194 c0.4543-0.6923,0.1396-1.6255-0.6525-2.1452l-3.6001-2.3623c-0.7818-0.5361-1.8459-0.3709-2.4284,0.377l-2.8853,3.8816 c-2.0153,3.1257,1.0264,12.2507-0.9736,13.1465c1.6544,1.5527,3.2083,2.7292,7.1282,4.6602 c1.7052-4.6602,9.7468-6.5977,11.5385-12.681"
       fill="#FCEA2B" />
  </g>
  <g
     id="skin-shadow" />
  <g
     id="line">
    <line
       id="line24"
       stroke-width="2"
       stroke-miterlimit="10"
       stroke-linejoin="round"
       stroke-linecap="round"
       stroke="#000000"
       fill="none"
       y2="70.6667"
       y1="53.1667"
       x2="4"
       x1="4" />
    <line
       id="line26"
       stroke-width="2"
       stroke-miterlimit="10"
       stroke-linejoin="round"
       stroke-linecap="round"
       stroke="#000000"
       fill="none"
       y2="53.1667"
       y1="52.25"
       x2="4"
       x1="26.75" />
    <line
       id="line28"
       stroke-width="2"
       stroke-miterlimit="10"
       stroke-linejoin="round"
       stroke-linecap="round"
       stroke="#000000"
       fill="none"
       y2="65.75"
       y1="40.8333"
       x2="38.5"
       x1="53.5" />
    <line
       id="line30"
       stroke-width="2"
       stroke-miterlimit="10"
       stroke-linejoin="round"
       stroke-linecap="round"
       stroke="#000000"
       fill="none"
       y2="52.25"
       y1="34.3333"
       x2="26.75"
       x1="43.4167" />
    <path
       id="path32"
       d="M38.5,65.75c-1.0417,1.875-15.4307,4.9167-34.5,4.9167"
       stroke-width="2"
       stroke-miterlimit="10"
       stroke-linejoin="round"
       stroke-linecap="round"
       stroke="#000000"
       fill="none" />
    <path
       id="path34"
       d="M43.4167,34.3333c1.0833,2.2917,7.6667,6.25,10.0833,6.5"
       stroke-width="2"
       stroke-miterlimit="10"
       stroke-linejoin="round"
       stroke-linecap="round"
       stroke="#000000"
       fill="none" />
    <path
       id="path36"
       d="M49.9193,23.783 l0.5511-0.8399c0.2598-0.396,1.1637-0.3694,2.008,0.0605l0.4053,0.2057c0.8445,0.4295,1.8686,0.2729,2.3229-0.4194 c0.4543-0.6923,0.1396-1.6255-0.6525-2.1452l-3.6001-2.3623c-0.7818-0.5361-1.8459-0.3709-2.4284,0.377l-2.8853,3.8816"
       stroke-width="2"
       stroke-linejoin="round"
       stroke-linecap="round"
       stroke="#000000"
       fill="none" />
    <path
       id="path38"
       d="M51.2751,26.2517 c-0.2374-0.9177-0.7139-1.7561-1.381-2.4296"
       stroke-width="2"
       stroke-linejoin="round"
       stroke-linecap="round"
       stroke="#000000"
       fill="none" />
    <path
       id="path40"
       d="M45.6403,22.541 c-2.0153,3.1257,1.0264,12.2507-0.9736,13.1465"
       stroke-width="2"
       stroke-linejoin="round"
       stroke-linecap="round"
       stroke="#000000"
       fill="none" />
    <path
       id="path42"
       d="M63.3333,27.6667 C61.5417,33.75,53.5,35.6875,51.7948,40.3477"
       stroke-width="2"
       stroke-linejoin="round"
       stroke-linecap="round"
       stroke="#000000"
       fill="none" />
    <path
       id="path44"
       d="M64.837,20.0537 c1.0597,0.1522,1.6563,0.9253,1.6457,1.9381c-0.0099,0.9466-0.5375,1.9321-1.6843,1.9033c0,0-1.2147-0.0379-1.6188-0.015 c-0.1713,0.0097-0.3427,0.0192-0.5125-0.0051c-1.0597-0.1522-1.7953-1.1346-1.6431-2.1943s1.1346-1.7953,2.1943-1.6431 C63.2183,20.0376,64.837,20.0539,64.837,20.0537z"
       stroke-width="2"
       stroke-linejoin="round"
       stroke-linecap="round"
       stroke="#000000"
       fill="none" />
    <path
       id="path46"
       d="M64.8758,16.1978 c1.0597,0.1522,1.6563,0.9253,1.6457,1.9381c-0.0099,0.9466-0.5375,1.9321-1.6843,1.9033c0,0-1.2147-0.0379-1.6188-0.015 c-0.1713,0.0097-0.3427,0.0192-0.5125-0.0051c-1.0597-0.1522-1.7953-1.1346-1.6431-2.1943s1.1346-1.7953,2.1943-1.6431 C63.257,16.1818,64.8758,16.198,64.8758,16.1978z"
       stroke-width="2"
       stroke-linejoin="round"
       stroke-linecap="round"
       stroke="#000000"
       fill="none" />
    <line
       id="line48"
       stroke-width="2"
       stroke-linejoin="round"
       stroke-linecap="round"
       stroke="#000000"
       fill="none"
       y2="4"
       y1="12.6399"
       x2="63.28"
       x1="63.28" />
    <line
       id="line50"
       stroke-width="2"
       stroke-linejoin="round"
       stroke-linecap="round"
       stroke="#000000"
       fill="none"
       y2="4"
       y1="4"
       x2="63.28"
       x1="50.5846" />
    <line
       id="line52"
       stroke-width="2"
       stroke-linejoin="round"
       stroke-linecap="round"
       stroke="#000000"
       fill="none"
       y2="14.5552"
       y1="4"
       x2="50.5846"
       x1="50.5846" />
  </g>
  <g
     transform="matrix(0.54179124,0,0,0.54179124,4.2478158,4.1466151)"
     id="line-3">
    <polyline
       fill="none"
       stroke="#000000"
       stroke-linecap="round"
       stroke-linejoin="round"
       stroke-miterlimit="10"
       stroke-width="6"
       points="49,8 62.1429,8 49,31 62.1429,31"
       id="polyline62" />
    <polyline
       fill="none"
       stroke="#000000"
       stroke-linecap="round"
       stroke-linejoin="round"
       stroke-miterlimit="10"
       stroke-width="6"
       points="28.1429,33.75 37,33.75 28.1429,49.25 37,49.25"
       id="polyline64" />
    <polyline
       fill="none"
       stroke="#000000"
       stroke-linecap="round"
       stroke-linejoin="round"
       stroke-miterlimit="10"
       stroke-width="4.6452"
       points="9.1429,52.5 16,52.5 9.1429,64.5 16,64.5"
       id="polyline66" />
  </g>
</svg>
