<?xml version="1.0" encoding="UTF-8" standalone="no"?>
<svg
   xmlns:dc="http://purl.org/dc/elements/1.1/"
   xmlns:cc="http://creativecommons.org/ns#"
   xmlns:rdf="http://www.w3.org/1999/02/22-rdf-syntax-ns#"
   xmlns:svg="http://www.w3.org/2000/svg"
   xmlns="http://www.w3.org/2000/svg"
   xmlns:sodipodi="http://sodipodi.sourceforge.net/DTD/sodipodi-0.dtd"
   xmlns:inkscape="http://www.inkscape.org/namespaces/inkscape"
   inkscape:version="1.0beta2 (2b71d25, 2019-12-03)"
   sodipodi:docname="outBed.svg"
   version="1.1"
   viewBox="0 0 72 72"
   id="emoji">
  <metadata
     id="metadata184">
    <rdf:RDF>
      <cc:Work
         rdf:about="">
        <dc:format>image/svg+xml</dc:format>
        <dc:type
           rdf:resource="http://purl.org/dc/dcmitype/StillImage" />
        <dc:title></dc:title>
      </cc:Work>
    </rdf:RDF>
  </metadata>
  <defs
     id="defs182" />
  <sodipodi:namedview
     inkscape:current-layer="emoji"
     inkscape:window-maximized="0"
     inkscape:window-y="23"
     inkscape:window-x="0"
     inkscape:cy="36"
     inkscape:cx="36"
     inkscape:zoom="4.3611111"
     showgrid="false"
     id="namedview180"
     inkscape:window-height="709"
     inkscape:window-width="959"
     inkscape:pageshadow="2"
     inkscape:pageopacity="0"
     guidetolerance="10"
     gridtolerance="10"
     objecttolerance="10"
     borderopacity="1"
     inkscape:document-rotation="0"
     bordercolor="#666666"
     pagecolor="#ffffff" />
  <g
     id="hair" />
  <g
     id="skin" />
  <g
     id="skin-shadow" />
  <g
     transform="matrix(1.1608367,0,0,1.1608367,-10.013615,-2.6191788)"
     id="g272">
    <g
       id="g200"
       transform="matrix(0.77571656,0,0,0.77571656,12.362102,12.989809)">
      <g
         id="color">
        <rect
           id="rect150"
           stroke="none"
           height="11"
           width="62"
           fill="#A57939"
           y="38"
           x="5" />
        <path
           id="path152"
           stroke="none"
           d="m 5,39 v -4 c 0,-1.6504 1.3496,-3 3,-3 h 56 c 1.6504,0 3,1.3496 3,3 v 4"
           fill="#D0CFCE"
           inkscape:connector-curvature="0" />
        <path
           id="path154"
           stroke="none"
           d="M 15.0762,25.6748 C 15.0264,25.458 15,25.2319 15,25 c 0,-1.6567 1.3438,-3 3,-3 1.6563,0 3,1.3433 3,3 0,0.3926 -0.0752,0.7676 -0.2129,1.1113"
           fill="#FCEA2B"
           inkscape:connector-curvature="0" />
        <path
           id="path156"
           stroke="none"
           d="M 22,32 V 22 c 0,0 0.2109,-2.1055 2,-3 2,-1 6,0 9,-1 6.7891,-2.2632 12.5938,3.3564 17,6 5,3 7,4.8535 7,8"
           fill="#92D3F5"
           inkscape:connector-curvature="0" />
        <path
           id="path158"
           stroke="none"
           d="M 5.125,27.6875 C 5.125,27.6875 10,24 22,27 v 4 L 7,32 6.1875,33.25 5.125,31.625 5,28 Z"
           fill="#92D3F5"
           inkscape:connector-curvature="0" />
      </g>
      <g
         id="line">
        <rect
           id="rect164"
           height="10.917"
           width="62"
           stroke-miterlimit="10"
           stroke-linejoin="round"
           stroke-linecap="round"
           stroke-width="2"
           stroke="#000000"
           fill="none"
           y="38.083"
           x="5" />
        <path
           id="path166"
           d="m 5,39 v -4 c 0,-1.6504 1.3496,-3 3,-3 h 56 c 1.6504,0 3,1.3496 3,3 v 4"
           stroke-miterlimit="10"
           stroke-linejoin="round"
           stroke-linecap="round"
           stroke-width="2"
           stroke="#000000"
           fill="none"
           inkscape:connector-curvature="0" />
        <line
           id="line168"
           y2="17"
           x2="5"
           y1="55"
           x1="5"
           stroke-miterlimit="10"
           stroke-linejoin="round"
           stroke-linecap="round"
           stroke-width="2"
           stroke="#000000"
           fill="none" />
        <line
           id="line170"
           y2="55"
           x2="67"
           y1="27"
           x1="67"
           stroke-miterlimit="10"
           stroke-linejoin="round"
           stroke-linecap="round"
           stroke-width="2"
           stroke="#000000"
           fill="none" />
        <path
           id="path172"
           d="M 15.0762,25.6748 C 15.0264,25.458 15,25.2319 15,25 c 0,-1.6567 1.3438,-3 3,-3 1.6563,0 3,1.3433 3,3 0,0.3926 -0.0752,0.7676 -0.2129,1.1113"
           stroke-miterlimit="10"
           stroke-linejoin="round"
           stroke-linecap="round"
           stroke-width="2"
           stroke="#000000"
           fill="none"
           inkscape:connector-curvature="0" />
        <path
           id="path174"
           d="M 22,32 V 22 c 0,0 0.2109,-2.1055 2,-3 2,-1 6,0 9,-1 6.7891,-2.2632 12.5938,3.3564 17,6 5,3 7,4.8535 7,8"
           stroke-miterlimit="10"
           stroke-linejoin="round"
           stroke-linecap="round"
           stroke-width="2"
           stroke="#000000"
           fill="none"
           inkscape:connector-curvature="0" />
        <path
           id="path176"
           d="M 5.042,27.9175 C 6.8965,26.0625 14.292,24.876 21,27"
           stroke-miterlimit="10"
           stroke-linejoin="round"
           stroke-linecap="round"
           stroke-width="2"
           stroke="#000000"
           fill="none"
           inkscape:connector-curvature="0" />
      </g>
    </g>
    <g
       id="g242"
       transform="matrix(0.74650907,0,0,0.74650907,1.0288722,9.4961)">
      <g
         id="color-2" />
      <g
         id="skin-2">
        <circle
           id="circle203"
           fill="#fcea2b"
           r="3"
           cy="13.0938"
           cx="26.9688" />
        <path
           id="path205"
           d="m 26.665,22.585 c 0,0 0.3038,3.708 3.3038,9.042 C 30.2129,32.0615 31,33.335 31,33.335 L 25,45 24.75,63 h 3.4238 L 30,48 36,42 42,37 V 33 L 36,22"
           fill="#fcea2b"
           inkscape:connector-curvature="0" />
        <polyline
           id="polyline207"
           points="42 36 49 46 59.167 52 58.167 55 46 50 37 42"
           fill="#fcea2b" />
        <path
           id="path209"
           d="M 36,22 C 34,18 31.6406,17.7671 29.9688,18.417 A 4.1078,4.1078 0 0 0 28,24"
           fill="#fcea2b"
           inkscape:connector-curvature="0" />
      </g>
      <g
         id="line-7">
        <circle
           id="circle212"
           stroke-width="2"
           stroke-miterlimit="10"
           stroke="#000"
           fill="none"
           r="3"
           cy="13.0938"
           cx="26.9688" />
        <path
           id="path214"
           d="m 42,36 5.8535,8.3613 a 11.0249,11.0249 0 0 0 2.8692,2.6553 l 6.7216,3.9668 A 2.3633,2.3633 0 0 1 58.667,53.5 1.69,1.69 0 0 1 56.317,54.24 L 47.85,50.76 A 14.1043,14.1043 0 0 1 44.5053,48.6711 L 37,42"
           stroke-width="2"
           stroke-linejoin="round"
           stroke-linecap="round"
           stroke="#000"
           fill="none"
           inkscape:connector-curvature="0" />
        <path
           id="path216"
           d="m 30.8477,31.3594 c 0,0 0.26,0.5937 0.5761,1.32 a 3.7314,3.7314 0 0 1 -0.498,3.0078 l -4.8516,7.625 A 8.3233,8.3233 0 0 0 24.9727,47 l -0.1954,14 a 1.8486,1.8486 0 0 0 1.6846,2 2.1751,2.1751 0 0 0 1.9541,-1.9854 l 1.3418,-11.0292 a 6.789,6.789 0 0 1 1.6563,-3.3995 l 3.1718,-3.1718 c 0.7774,-0.7774 2.1055,-1.99 2.95,-2.6944 L 40.4639,38.28 A 4.8637,4.8637 0 0 0 42,35 v 0 A 9.3085,9.3085 0 0 0 41.042,31.2441 L 36,22"
           stroke-width="2"
           stroke-linejoin="round"
           stroke-linecap="round"
           stroke="#000"
           fill="none"
           inkscape:connector-curvature="0" />
        <path
           id="path218"
           d="M 36,22 C 34,18 31.6406,17.7671 29.9688,18.417 A 3.859,3.859 0 0 0 27.6,22.251"
           stroke-width="2"
           stroke-linejoin="round"
           stroke-linecap="round"
           stroke="#000"
           fill="none"
           inkscape:connector-curvature="0" />
        <path
           id="path220"
           d="m 30.9375,22 -1.4189,5.0771 A 2.7758,2.7758 0 0 1 27,29 h -7"
           stroke-width="2"
           stroke-linejoin="round"
           stroke-linecap="round"
           stroke="#000"
           fill="none"
           inkscape:connector-curvature="0" />
      </g>
    </g>
  </g>
</svg>
