<?xml version="1.0" encoding="UTF-8" standalone="no"?>
<svg
   xmlns:dc="http://purl.org/dc/elements/1.1/"
   xmlns:cc="http://creativecommons.org/ns#"
   xmlns:rdf="http://www.w3.org/1999/02/22-rdf-syntax-ns#"
   xmlns:svg="http://www.w3.org/2000/svg"
   xmlns="http://www.w3.org/2000/svg"
   xmlns:sodipodi="http://sodipodi.sourceforge.net/DTD/sodipodi-0.dtd"
   xmlns:inkscape="http://www.inkscape.org/namespaces/inkscape"
   inkscape:version="1.0beta2 (2b71d25, 2019-12-03)"
   height="72mm"
   width="72mm"
   sodipodi:docname="pain.svg"
   version="1.1"
   viewBox="0 0 272.12599 272.12599"
   id="emoji">
  <metadata
     id="metadata200">
    <rdf:RDF>
      <cc:Work
         rdf:about="">
        <dc:format>image/svg+xml</dc:format>
        <dc:type
           rdf:resource="http://purl.org/dc/dcmitype/StillImage" />
        <dc:title></dc:title>
      </cc:Work>
    </rdf:RDF>
  </metadata>
  <defs
     id="defs198" />
  <sodipodi:namedview
     inkscape:current-layer="g1599"
     inkscape:window-maximized="0"
     inkscape:window-y="43"
     inkscape:window-x="70"
     inkscape:cy="136.06299"
     inkscape:cx="136.06299"
     inkscape:zoom="1"
     width="72mm"
     units="mm"
     showgrid="false"
     id="namedview196"
     inkscape:window-height="913"
     inkscape:window-width="1615"
     inkscape:pageshadow="2"
     inkscape:pageopacity="0"
     guidetolerance="10"
     gridtolerance="10"
     objecttolerance="10"
     borderopacity="1"
     inkscape:document-rotation="0"
     bordercolor="#666666"
     pagecolor="#ffffff" />
  <g
     inkscape:label="layer1"
     id="layer1"
     inkscape:groupmode="layer" />
  <g
     transform="matrix(0.45087563,0,0,0.49319789,10.63319,1.6359845)"
     id="g315-6-9">
    <g
       id="hair-6-1" />
    <g
       id="skin-2-7" />
    <g
       id="skin-shadow-7-2" />
    <g
       transform="translate(26.614878,2.0275837)"
       id="g1599">
      <g
         transform="translate(-11.089533,-10.137918)"
         id="g1613">
        <g
           transform="matrix(-3.7252093,2.5329544,-5.7596302,-2.2257047,535.47943,216.69223)"
           id="g1218-4-6-9-8-7-7">
          <path
             inkscape:connector-curvature="0"
             fill="#FCEA2B"
             stroke="none"
             d="M 48.145,3.8658999 16.318,37.9905 c -0.6029,0.6465 -0.1141,1.6589 0.801,1.6589 H 36.2256 L 19.1523,67.188 c -0.1662,0.2681 0.215,0.5364 0.4424,0.3114 l 36.0628,-35.704 c 0.6436,-0.6372 0.1626,-1.6882 -0.7725,-1.6882 H 36.3846 Z"
             id="path292-7-9-8-0-5-8-8-1"
             style="fill:#f44a5d;fill-opacity:1" />
          <g
             id="line-0-3-0-3-4-3-4-8">
            <path
               id="path298-3-6-4-2-9-5-1-7"
               d="M 48.1628,4.4406 16.3224,37.7817 c -0.6174,0.6465 -0.1168,1.6589 0.8201,1.6589 H 36.2254 L 17.9214,68.2739 55.6483,31.7954 c 0.659,-0.6372 0.1665,-1.6882 -0.791,-1.6882 H 36.3846 Z"
               stroke-width="2"
               stroke-miterlimit="10"
               stroke-linejoin="round"
               stroke-linecap="round"
               stroke="#000000"
               fill="none"
               inkscape:connector-curvature="0" />
          </g>
        </g>
        <g
           id="g1218-4-6-9-8-7-7-4"
           transform="matrix(-3.7603543,-0.90354023,-1.6432808,-4.5962971,603.78371,396.56708)">
          <path
             style="fill:#f44a5d;fill-opacity:1"
             id="path292-7-9-8-0-5-8-8-1-0"
             d="M 48.145,3.8658999 16.318,37.9905 c -0.6029,0.6465 -0.1141,1.6589 0.801,1.6589 H 36.2256 L 19.1523,67.188 c -0.1662,0.2681 0.215,0.5364 0.4424,0.3114 l 36.0628,-35.704 c 0.6436,-0.6372 0.1626,-1.6882 -0.7725,-1.6882 H 36.3846 Z"
             stroke="none"
             fill="#FCEA2B"
             inkscape:connector-curvature="0" />
          <g
             id="line-0-3-0-3-4-3-4-8-0">
            <path
               inkscape:connector-curvature="0"
               fill="none"
               stroke="#000000"
               stroke-linecap="round"
               stroke-linejoin="round"
               stroke-miterlimit="10"
               stroke-width="2"
               d="M 48.1628,4.4406 16.3224,37.7817 c -0.6174,0.6465 -0.1168,1.6589 0.8201,1.6589 H 36.2254 L 17.9214,68.2739 55.6483,31.7954 c 0.659,-0.6372 0.1665,-1.6882 -0.791,-1.6882 H 36.3846 Z"
               id="path298-3-6-4-2-9-5-1-7-9" />
          </g>
        </g>
        <g
           transform="matrix(-0.98835263,3.4376711,-5.0277369,1.5022676,399.27125,240.33977)"
           id="g1218-4-6-9-8-7-7-4-3">
          <path
             inkscape:connector-curvature="0"
             fill="#FCEA2B"
             stroke="none"
             d="M 48.145,3.8658999 16.318,37.9905 c -0.6029,0.6465 -0.1141,1.6589 0.801,1.6589 H 36.2256 L 19.1523,67.188 c -0.1662,0.2681 0.215,0.5364 0.4424,0.3114 l 36.0628,-35.704 c 0.6436,-0.6372 0.1626,-1.6882 -0.7725,-1.6882 H 36.3846 Z"
             id="path292-7-9-8-0-5-8-8-1-0-7"
             style="fill:#f44a5d;fill-opacity:1" />
          <g
             id="line-0-3-0-3-4-3-4-8-0-5">
            <path
               id="path298-3-6-4-2-9-5-1-7-9-7"
               d="M 48.1628,4.4406 16.3224,37.7817 c -0.6174,0.6465 -0.1168,1.6589 0.8201,1.6589 H 36.2254 L 17.9214,68.2739 55.6483,31.7954 c 0.659,-0.6372 0.1665,-1.6882 -0.791,-1.6882 H 36.3846 Z"
               stroke-width="2"
               stroke-miterlimit="10"
               stroke-linejoin="round"
               stroke-linecap="round"
               stroke="#000000"
               fill="none"
               inkscape:connector-curvature="0" />
          </g>
        </g>
      </g>
    </g>
  </g>
</svg>
