<?xml version="1.0" encoding="UTF-8" standalone="no"?>
<svg
   xmlns:dc="http://purl.org/dc/elements/1.1/"
   xmlns:cc="http://creativecommons.org/ns#"
   xmlns:rdf="http://www.w3.org/1999/02/22-rdf-syntax-ns#"
   xmlns:svg="http://www.w3.org/2000/svg"
   xmlns="http://www.w3.org/2000/svg"
   xmlns:sodipodi="http://sodipodi.sourceforge.net/DTD/sodipodi-0.dtd"
   xmlns:inkscape="http://www.inkscape.org/namespaces/inkscape"
   inkscape:version="1.0beta2 (2b71d25, 2019-12-03)"
   sodipodi:docname="period.svg"
   version="1.1"
   viewBox="0 0 72 72"
   id="emoji">
  <metadata
     id="metadata3891">
    <rdf:RDF>
      <cc:Work
         rdf:about="">
        <dc:format>image/svg+xml</dc:format>
        <dc:type
           rdf:resource="http://purl.org/dc/dcmitype/StillImage" />
      </cc:Work>
    </rdf:RDF>
  </metadata>
  <defs
     id="defs3889" />
  <sodipodi:namedview
     inkscape:current-layer="emoji"
     inkscape:window-maximized="0"
     inkscape:window-y="23"
     inkscape:window-x="0"
     inkscape:cy="36"
     inkscape:cx="36"
     inkscape:zoom="7.755988"
     showgrid="false"
     id="namedview3887"
     inkscape:window-height="740"
     inkscape:window-width="1158"
     inkscape:pageshadow="2"
     inkscape:pageopacity="0"
     guidetolerance="10"
     gridtolerance="10"
     objecttolerance="10"
     borderopacity="1"
     inkscape:document-rotation="0"
     bordercolor="#666666"
     pagecolor="#ffffff" />
  <g
     id="hair" />
  <g
     id="skin" />
  <g
     id="skin-shadow" />
  <g
     transform="matrix(0.86725046,0,0,0.86725046,-5.5691379,-4.3945392)"
     id="g3953">
    <g
       id="color">
      <path
         inkscape:connector-curvature="0"
         fill="#FFFFFF"
         stroke="none"
         d="M 12,28.1224 11.997,60.0918 43.6564,60.0864 59.7462,48.0382 C 59.739,47.9894 60,44.0918 60,44.0918 l -0.003,-16 z"
         id="path3851" />
      <path
         inkscape:connector-curvature="0"
         fill="#EA5A47"
         stroke="none"
         d="M 11.4437,28.2921 59.997,28.0918 60,12.1224 c 0,0 -6.5361,-0.9998 -5.9834,-0.9998 h -3.5569 l 0.0526,5.772 c 1.7272,0.4562 2.1504,3.0869 2.1504,3.0874 -0.0225,2.1919 -2.6783,2.5299 -2.6907,2.5274 -1.8479,-0.3787 -2.4888,-1.2828 -2.4683,-2.8021 0.0144,-1.0682 0.046,-1.3296 0.8087,-2.0781 0.5122,-0.5019 0.6338,-0.6085 1.3107,-0.7802 l -0.0279,-5.7264 h -3.5395 c 0.261,0 -20.6026,0 -20.0498,0 h -3.6621 l 0.071,5.7264 c 1.7272,0.4562 2.2925,0.8529 2.2752,2.7188 -0.0205,2.1929 -2.706,3.2811 -2.7187,3.2811 C 19.7662,22.8274 18.9795,21.811 19,19.6059 19.0098,18.5376 19.8766,17.7422 20.6393,16.9937 21.1515,16.4918 21.3382,16.1717 22.0151,16 L 21.7756,11.1226 H 18.0322 C 18.2464,11.1226 12,12.1224 12,12.1224 Z"
         id="path3853" />
      <path
         inkscape:connector-curvature="0"
         fill="#d0cfce"
         stroke="none"
         d="M 59.997,48.0382 H 43.1384 c 0,0 -0.8989,6.1042 -0.9709,5.6225 v 5.4255 l 1.4889,1.0002 z"
         id="path3855" />
      <line
         x1="22.0151"
         x2="22.0151"
         y1="8.6884003"
         y2="18.997601"
         fill="#9b9b9a"
         fill-rule="evenodd"
         stroke="none"
         stroke-linecap="round"
         stroke-linejoin="round"
         stroke-miterlimit="10"
         stroke-width="2"
         clip-rule="evenodd"
         id="line3857" />
      <line
         x1="50.0158"
         x2="50.0158"
         y1="8.6884003"
         y2="18.997601"
         fill="#9b9b9a"
         fill-rule="evenodd"
         stroke="none"
         stroke-linecap="round"
         stroke-linejoin="round"
         stroke-miterlimit="10"
         stroke-width="2"
         clip-rule="evenodd"
         id="line3859" />
    </g>
    <g
       id="line">
      <circle
         r="3"
         cx="22"
         cy="19.849001"
         transform="matrix(0.0096,-1,1,0.0096,1.9414,41.6581)"
         fill="none"
         fill-rule="evenodd"
         stroke="#000000"
         stroke-linecap="round"
         stroke-linejoin="round"
         stroke-miterlimit="10"
         stroke-width="2"
         clip-rule="evenodd"
         id="ellipse3865" />
      <line
         x1="26.005699"
         x2="46.055801"
         y1="12.1224"
         y2="12.1224"
         fill="none"
         stroke="#000000"
         stroke-linecap="round"
         stroke-linejoin="round"
         stroke-miterlimit="10"
         stroke-width="2"
         id="line3867" />
      <polyline
         fill="none"
         stroke="#000000"
         stroke-linecap="round"
         stroke-linejoin="round"
         stroke-miterlimit="10"
         stroke-width="2"
         points="54.0163,12.1224 60,12.1224 60,28.1224 12,28.1224 12,12.1224 18.0318,12.1224"
         id="polyline3869" />
      <line
         x1="22.0151"
         x2="22.0151"
         y1="8.6884003"
         y2="18.997601"
         fill="none"
         fill-rule="evenodd"
         stroke="#000000"
         stroke-linecap="round"
         stroke-linejoin="round"
         stroke-miterlimit="10"
         stroke-width="2"
         clip-rule="evenodd"
         id="line3871" />
      <circle
         r="3"
         cx="50.000599"
         cy="19.849001"
         transform="matrix(0.0096,-1,1,0.0096,29.6742,69.6575)"
         fill="none"
         fill-rule="evenodd"
         stroke="#000000"
         stroke-linecap="round"
         stroke-linejoin="round"
         stroke-miterlimit="10"
         stroke-width="2"
         clip-rule="evenodd"
         id="ellipse3873" />
      <line
         x1="50.0158"
         x2="50.0158"
         y1="8.6884003"
         y2="18.997601"
         fill="none"
         fill-rule="evenodd"
         stroke="#000000"
         stroke-linecap="round"
         stroke-linejoin="round"
         stroke-miterlimit="10"
         stroke-width="2"
         clip-rule="evenodd"
         id="line3875" />
      <path
         inkscape:connector-curvature="0"
         fill="none"
         stroke="#000000"
         stroke-linecap="round"
         stroke-linejoin="round"
         stroke-miterlimit="10"
         stroke-width="2"
         d="m 34.3355,38.092 c 0.5248,-2.5644 2.7937,-4.4936 5.5134,-4.4936 v 0 c 1.5539,0 2.9609,0.63 3.9793,1.6484 1.5843,1.5842 1.438,4.2167 -0.0484,5.8928 l -9.5586,10.7799 h 4.7601"
         id="path3877" />
      <polyline
         fill="none"
         stroke="#000000"
         stroke-linecap="round"
         stroke-linejoin="round"
         stroke-miterlimit="10"
         stroke-width="2"
         points="23.2764,37.3982 28.3485,33.5984 28.3485,51.9195"
         id="polyline3879" />
      <polyline
         fill="none"
         stroke="#000000"
         stroke-linecap="round"
         stroke-linejoin="round"
         stroke-miterlimit="10"
         stroke-width="2"
         points="11.997,28.0918 11.997,60.0918 43.6564,60.0864 59.997,48.0382 59.997,28.0918"
         id="polyline3881" />
      <polyline
         fill="none"
         stroke="#000000"
         stroke-linecap="round"
         stroke-linejoin="round"
         stroke-miterlimit="10"
         stroke-width="2"
         points="59.7462,48.0382 43.1384,48.0382 43.1384,53.5175"
         id="polyline3883" />
    </g>
  </g>
  <g
     transform="translate(15.444123,7.8912281)"
     id="g3934">
    <g
       id="color-0">
      <path
         inkscape:connector-curvature="0"
         fill="#9B9B9A"
         stroke="none"
         d="m 51,25.9684 c 0,-8.2843 -6.7158,-15 -15,-15 -8.2843,0 -15,6.7157 -15,15 0,7.429 5.4133,13.5966 12.5027,14.7909 v 0.3461 6.8054 L 32,47.9105 h -6 v 5 h 6 l 1.5027,2e-4 v 8.9998 l 4.9974,0.0444 V 52.9104 L 40,52.9105 h 6 v -5 h -6 l -1.4999,-2e-4 V 40.761 h -7e-4 C 38.55,40.7525 38.6005,40.7438 38.6509,40.7348 45.6708,39.483 51,33.3481 51,25.9684 Z m -15,10 c -5.5229,0 -10,-4.4772 -10,-10 0,-5.5229 4.4771,-10 10,-10 5.5228,0 10,4.4771 10,10 0,5.5228 -4.4772,10 -10,10 z"
         id="path3893" />
    </g>
    <g
       id="hair-6" />
    <g
       id="skin-2" />
    <g
       id="skin-shadow-4" />
    <g
       id="line-7">
      <path
         inkscape:connector-curvature="0"
         fill="none"
         stroke="#000000"
         stroke-linecap="round"
         stroke-linejoin="round"
         stroke-miterlimit="10"
         stroke-width="2"
         d="M 33.5,52.778"
         id="path3899" />
      <path
         inkscape:connector-curvature="0"
         fill="none"
         stroke="#000000"
         stroke-linecap="round"
         stroke-linejoin="round"
         stroke-miterlimit="10"
         stroke-width="2"
         d="M 33.5,31.778"
         id="path3901" />
      <path
         inkscape:connector-curvature="0"
         fill="none"
         stroke="#000000"
         stroke-linecap="round"
         stroke-linejoin="round"
         stroke-miterlimit="10"
         stroke-width="2"
         d="M 38.5,52.778"
         id="path3903" />
      <path
         inkscape:connector-curvature="0"
         fill="none"
         stroke="#000000"
         stroke-linecap="round"
         stroke-linejoin="round"
         stroke-miterlimit="10"
         stroke-width="2"
         d="M 38.5,31.778"
         id="path3905" />
      <path
         inkscape:connector-curvature="0"
         fill="none"
         stroke="#000000"
         stroke-linecap="round"
         stroke-linejoin="round"
         stroke-miterlimit="10"
         stroke-width="2"
         d="m 38.5001,40.7611 v 7.1492 L 40,47.9105 h 6 v 5 h -6 l -1.4999,-2e-4 v 9.0445 L 33.5027,61.9105 V 52.9107 L 32,52.9105 h -6 v -5 h 6 l 1.5027,3e-4 V 41.1054 40.7593 C 26.4134,39.565 21,33.3973 21,25.9684 c 0,-8.2843 6.7157,-15 15,-15 8.2843,0 15,6.7157 15,15 0,7.3797 -5.3292,13.5147 -12.3491,14.7665 -0.0504,0.009 -0.1009,0.0177 -0.1515,0.0262"
         id="path3907" />
      <path
         inkscape:connector-curvature="0"
         fill="none"
         stroke="#000000"
         stroke-linecap="round"
         stroke-linejoin="round"
         stroke-miterlimit="10"
         stroke-width="2"
         d="M 33.5027,40.7593"
         id="path3909" />
      <circle
         cx="36"
         cy="25.968399"
         r="10"
         fill="none"
         stroke="#000000"
         stroke-linecap="round"
         stroke-linejoin="round"
         stroke-miterlimit="10"
         stroke-width="2"
         id="circle3911" />
    </g>
  </g>
</svg>
