<?xml version="1.0" encoding="UTF-8" standalone="no"?>
<svg
   xmlns:dc="http://purl.org/dc/elements/1.1/"
   xmlns:cc="http://creativecommons.org/ns#"
   xmlns:rdf="http://www.w3.org/1999/02/22-rdf-syntax-ns#"
   xmlns:svg="http://www.w3.org/2000/svg"
   xmlns="http://www.w3.org/2000/svg"
   xmlns:sodipodi="http://sodipodi.sourceforge.net/DTD/sodipodi-0.dtd"
   xmlns:inkscape="http://www.inkscape.org/namespaces/inkscape"
   inkscape:version="1.0beta2 (2b71d25, 2019-12-03)"
   sodipodi:docname="sleepPill.svg"
   version="1.1"
   viewBox="0 0 72 72"
   id="emoji">
  <metadata
     id="metadata83">
    <rdf:RDF>
      <cc:Work
         rdf:about="">
        <dc:format>image/svg+xml</dc:format>
        <dc:type
           rdf:resource="http://purl.org/dc/dcmitype/StillImage" />
        <dc:title></dc:title>
      </cc:Work>
    </rdf:RDF>
  </metadata>
  <defs
     id="defs81" />
  <sodipodi:namedview
     inkscape:current-layer="emoji"
     inkscape:window-maximized="0"
     inkscape:window-y="23"
     inkscape:window-x="0"
     inkscape:cy="36"
     inkscape:cx="36"
     inkscape:zoom="4.3611111"
     showgrid="false"
     id="namedview79"
     inkscape:window-height="480"
     inkscape:window-width="651"
     inkscape:pageshadow="2"
     inkscape:pageopacity="0"
     guidetolerance="10"
     gridtolerance="10"
     objecttolerance="10"
     borderopacity="1"
     inkscape:document-rotation="0"
     bordercolor="#666666"
     pagecolor="#ffffff" />
  <g
     transform="translate(2.7515924,2.522293)"
     id="color">
    <path
       inkscape:connector-curvature="0"
       id="path55"
       d="M 44.33,44.71 32.52,56.52 c -4.53,4.54 -11.85,4.7 -16.58,0.4901 8.96,0.08 8.4,0.65 24.87,-15.82 z"
       stroke="none"
       fill="#D22F27" />
    <path
       inkscape:connector-curvature="0"
       id="path57"
       d="M 40.81,41.19 C 24.34,57.66 24.9,57.09 15.94,57.01 c -0.18,-0.16 -0.35,-0.32 -0.52,-0.4901 -2.35,-2.35 -3.53,-5.45 -3.53,-8.55 0,-3.1 1.18,-6.2 3.53,-8.55 l 11.81,-11.81 z"
       stroke="none"
       fill="#EA5A47" />
    <path
       inkscape:connector-curvature="0"
       id="path59"
       d="m 56.85,15.1 c -2.47,-2.47 -5.75,-3.83 -9.2599,-3.83 -3.51,0 -6.8,1.36 -9.26,3.83 L 25.81,27.61 44.33,46.13 56.84,33.61 c 2.47,-2.46 3.83,-5.75 3.83,-9.26 0,-3.5 -1.36,-6.79 -3.82,-9.25 z M 56.14,32.9 44.33,44.71 40.81,41.19 c 0.42,-0.42 0.86,-0.86 1.31,-1.31 15.72,-15.72 8.77,-25.05 6.21,-27.59 2.85,0.18 5.65,1.35 7.81,3.51 2.35,2.35 3.53,5.45 3.53,8.55 0,3.1 -1.18,6.2 -3.53,8.55 z"
       stroke="none"
       fill="#92D3F5" />
    <path
       inkscape:connector-curvature="0"
       id="path61"
       d="m 57.55,14.39 c -2.65,-2.66 -6.19,-4.1201 -9.96,-4.1201 -3.78,0 -7.32,1.46 -9.97,4.1201 l -13.22,13.22 1.41,1.42 17.1,17.1 1.42,1.41 13.22,-13.22 c 2.66,-2.66 4.12,-6.2 4.12,-9.97 0,-3.77 -1.46,-7.31 -4.12,-9.96 z M 44.33,44.71 40.81,41.19 27.23,27.61 39.04,15.8 c 2.35,-2.35 5.45,-3.53 8.55,-3.53 0.25,0 0.49,0.01 0.74,0.02 2.85,0.18 5.65,1.35 7.81,3.51 2.35,2.35 3.53,5.45 3.53,8.55 0,3.1 -1.18,6.2 -3.53,8.55 z"
       stroke="none"
       fill="#92D3F5" />
    <path
       inkscape:connector-curvature="0"
       id="path63"
       d="m 59.67,24.35 c 0,3.1 -1.18,6.2 -3.53,8.55 L 44.33,44.71 40.81,41.19 c 0.42,-0.42 0.86,-0.86 1.31,-1.31 15.72,-15.72 8.77,-25.05 6.21,-27.59 2.85,0.18 5.65,1.35 7.81,3.51 2.35,2.35 3.53,5.45 3.53,8.55 z"
       stroke="none"
       fill="#61B2E4" />
    <line
       id="line65"
       stroke="none"
       fill="none"
       y2="27.033501"
       y1="27.613501"
       x2="26.6579"
       x1="27.2279" />
    <rect
       id="rect67"
       stroke="none"
       fill="#61B2E4"
       transform="matrix(0.7071,0.7071,-0.7071,0.7071,42.7211,-18.5474)"
       height="6.5640998"
       width="5.8081999"
       y="39.013199"
       x="40.8452" />
  </g>
  <g
     id="hair" />
  <g
     id="skin" />
  <g
     id="skin-shadow" />
  <g
     transform="translate(2.7515924,2.522293)"
     id="line">
    <path
       inkscape:connector-curvature="0"
       id="path73"
       d="m 47.5877,12.2742 c 3.1001,0 6.2001,1.1759 8.5519,3.5276 v 0 c 4.7035,4.7035 4.7035,12.4002 0,17.1038 L 32.52,56.5251 c -2.3518,2.3518 -5.4518,3.5277 -8.5519,3.5277 -3.1001,0 -6.2001,-1.1759 -8.5519,-3.5277 v 0 c -4.7035,-4.7035 -4.7035,-12.4002 0,-17.1038 L 39.0357,15.8018 c 2.3518,-2.3518 5.4519,-3.5276 8.552,-3.5276 m 0,-2 c -3.7741,0 -7.3135,1.4608 -9.9661,4.1134 L 14.002,38.0071 c -5.4953,5.4953 -5.4953,14.4369 0,19.9322 2.6526,2.6526 6.192,4.1135 9.9661,4.1135 3.7741,0 7.3135,-1.4608 9.9661,-4.1134 L 57.5538,34.3199 c 5.4953,-5.4953 5.4953,-14.4369 0,-19.9322 -2.6526,-2.6527 -6.192,-4.1135 -9.9661,-4.1135 z"
       stroke="none"
       fill="#000000" />
    <line
       id="line75"
       stroke-width="2"
       stroke-miterlimit="10"
       stroke-linecap="round"
       stroke="#000000"
       fill="none"
       y2="43.265598"
       y1="30.4062"
       x2="41.421902"
       x1="28.5625" />
  </g>
  <g
     transform="matrix(0.47694089,0,0,0.4394731,6.7464503,3.1154966)"
     id="line-8">
    <g
       inkscape:transform-center-y="-5.3744045"
       inkscape:transform-center-x="1.2827548"
       transform="matrix(0.97994811,-0.21184617,0.18740816,0.97994811,-6.0085715,8.3426537)"
       id="g106">
      <polyline
         id="polyline85"
         points="49,8 62.1429,8 49,31 62.1429,31"
         stroke-width="6"
         stroke-miterlimit="10"
         stroke-linejoin="round"
         stroke-linecap="round"
         stroke="#000000"
         fill="none" />
      <polyline
         id="polyline87"
         points="28.1429,33.75 37,33.75 28.1429,49.25 37,49.25"
         stroke-width="6"
         stroke-miterlimit="10"
         stroke-linejoin="round"
         stroke-linecap="round"
         stroke="#000000"
         fill="none" />
      <polyline
         id="polyline89"
         points="9.1429,52.5 16,52.5 9.1429,64.5 16,64.5"
         stroke-width="4.6452"
         stroke-miterlimit="10"
         stroke-linejoin="round"
         stroke-linecap="round"
         stroke="#000000"
         fill="none" />
    </g>
  </g>
</svg>
