<?xml version="1.0" encoding="UTF-8" standalone="no"?>
<svg
   xmlns:dc="http://purl.org/dc/elements/1.1/"
   xmlns:cc="http://creativecommons.org/ns#"
   xmlns:rdf="http://www.w3.org/1999/02/22-rdf-syntax-ns#"
   xmlns:svg="http://www.w3.org/2000/svg"
   xmlns="http://www.w3.org/2000/svg"
   xmlns:sodipodi="http://sodipodi.sourceforge.net/DTD/sodipodi-0.dtd"
   xmlns:inkscape="http://www.inkscape.org/namespaces/inkscape"
   inkscape:version="1.0beta2 (2b71d25, 2019-12-03)"
   sodipodi:docname="snack.svg"
   version="1.1"
   viewBox="0 0 72 72"
   id="emoji">
  <metadata
     id="metadata52">
    <rdf:RDF>
      <cc:Work
         rdf:about="">
        <dc:format>image/svg+xml</dc:format>
        <dc:type
           rdf:resource="http://purl.org/dc/dcmitype/StillImage" />
        <dc:title></dc:title>
      </cc:Work>
    </rdf:RDF>
  </metadata>
  <defs
     id="defs50" />
  <sodipodi:namedview
     inkscape:current-layer="emoji"
     inkscape:window-maximized="0"
     inkscape:window-y="46"
     inkscape:window-x="133"
     inkscape:cy="24.156422"
     inkscape:cx="36"
     inkscape:zoom="8.1765444"
     showgrid="false"
     id="namedview48"
     inkscape:window-height="746"
     inkscape:window-width="1260"
     inkscape:pageshadow="2"
     inkscape:pageopacity="0"
     guidetolerance="10"
     gridtolerance="10"
     objecttolerance="10"
     borderopacity="1"
     inkscape:document-rotation="0"
     bordercolor="#666666"
     pagecolor="#ffffff" />
  <g
     id="hair" />
  <g
     id="skin" />
  <g
     id="skin-shadow" />
  <g
     transform="matrix(1.1084909,0,0,1.1084909,-5.6403449,-1.2646472)"
     id="g409">
    <g
       id="g72"
       transform="matrix(0.62638056,0,0,0.62638056,8.1302042,6.3714738)">
      <g
         id="color">
        <path
           id="path10"
           d="m 64,36 c 0.001,-1.9424 -0.5752,-3.7461 -1.5576,-5.2627 0.3262,-1.7754 0.168,-3.6606 -0.5742,-5.4526 C 61.126,23.4912 59.9033,22.0444 58.416,21.0195 58.0381,19.2544 57.1709,17.5732 55.7979,16.2017 54.4268,14.8281 52.7432,13.96 50.9775,13.582 49.9531,12.0962 48.5078,10.875 46.7158,10.1323 44.9219,9.3892 43.0352,9.2305 41.2588,9.5566 39.7422,8.5757 37.9404,8 35.999,8 34.0586,8 32.2549,8.5762 30.7393,9.5576 28.9629,9.231 27.0771,9.3892 25.2842,10.1313 c -1.793,0.7432 -3.2393,1.9654 -4.2637,3.4532 -1.7656,0.3779 -3.4473,1.2451 -4.8203,2.6172 -1.3721,1.3725 -2.2402,3.0551 -2.6172,4.8217 -1.4873,1.0245 -2.709,2.4693 -3.4531,4.2622 C 9.3877,27.0791 9.2295,28.9663 9.5576,30.7432 8.5762,32.2598 8.001,34.0615 8,36.002 c 0,1.9414 0.5771,3.7451 1.5586,5.2617 -0.3252,1.7754 -0.168,3.6611 0.5732,5.4531 0.7442,1.793 1.9668,3.2402 3.4551,4.2646 0.377,1.7647 1.2442,3.4463 2.6152,4.8194 1.3731,1.373 3.0567,2.2402 4.8223,2.6172 1.0254,1.4863 2.4697,2.709 4.2617,3.4511 1.794,0.7432 3.6807,0.9004 5.4571,0.5743 1.5156,0.9804 3.3183,1.5566 5.2597,1.5566 1.9405,0 3.7442,-0.5762 5.2598,-1.5576 1.7754,0.3262 3.6621,0.168 5.4551,-0.5733 1.792,-0.7441 3.2392,-1.9658 4.2636,-3.4541 1.7657,-0.3779 3.4473,-1.2451 4.8184,-2.6162 1.374,-1.373 2.2422,-3.0566 2.6191,-4.8232 1.4864,-1.0244 2.7071,-2.4697 3.4502,-4.2608 0.7432,-1.7939 0.9014,-3.6816 0.5752,-5.458 C 63.4248,39.7402 63.999,37.9395 64,36 Z"
           stroke="none"
           fill="#a57939"
           inkscape:connector-curvature="0" />
        <circle
           id="circle12"
           stroke-width="1.9394"
           stroke-miterlimit="10"
           stroke-linejoin="round"
           stroke-linecap="round"
           stroke="none"
           fill="#6A462F"
           r="2"
           cy="35"
           cx="19" />
        <circle
           id="circle14"
           stroke-width="1.9394"
           stroke-miterlimit="10"
           stroke-linejoin="round"
           stroke-linecap="round"
           stroke="none"
           fill="#6A462F"
           r="2"
           cy="41"
           cx="32" />
        <circle
           id="circle16"
           stroke-width="1.9394"
           stroke-miterlimit="10"
           stroke-linejoin="round"
           stroke-linecap="round"
           stroke="none"
           fill="#6A462F"
           r="2"
           cy="51"
           cx="30" />
        <circle
           id="circle18"
           stroke-width="1.9394"
           stroke-miterlimit="10"
           stroke-linejoin="round"
           stroke-linecap="round"
           stroke="none"
           fill="#6A462F"
           r="2"
           cy="51"
           cx="46" />
        <circle
           id="circle20"
           stroke-width="1.9394"
           stroke-miterlimit="10"
           stroke-linejoin="round"
           stroke-linecap="round"
           stroke="none"
           fill="#6A462F"
           r="2"
           cy="36"
           cx="52" />
        <circle
           id="circle22"
           stroke-width="1.9394"
           stroke-miterlimit="10"
           stroke-linejoin="round"
           stroke-linecap="round"
           stroke="none"
           fill="#6A462F"
           r="2"
           cy="21"
           cx="48" />
        <circle
           id="circle24"
           stroke-width="1.9394"
           stroke-miterlimit="10"
           stroke-linejoin="round"
           stroke-linecap="round"
           stroke="none"
           fill="#6A462F"
           r="2"
           cy="22"
           cx="32" />
      </g>
      <g
         id="line">
        <path
           id="path30"
           d="m 64,35.875 c 0.001,-1.9414 -0.5752,-3.7461 -1.5576,-5.2617 0.3262,-1.7759 0.168,-3.6612 -0.5742,-5.4531 C 61.126,23.3667 59.9033,21.9199 58.416,20.895 58.0381,19.1299 57.1709,17.4487 55.7979,16.0771 54.4268,14.7036 52.7432,13.8354 50.9775,13.4575 49.9531,11.9717 48.5078,10.7505 46.7158,10.0078 44.9219,9.2646 43.0352,9.106 41.2588,9.4321 39.7422,8.4512 37.9404,7.8755 35.999,7.8755 c -1.9404,0 -3.7441,0.5762 -5.2597,1.5576 -1.7764,-0.3267 -3.6622,-0.1685 -5.4551,0.5737 -1.793,0.7432 -3.2393,1.9654 -4.2637,3.4532 -1.7656,0.3779 -3.4473,1.2451 -4.8203,2.6171 -1.3721,1.3726 -2.2402,3.0552 -2.6172,4.8218 -1.4873,1.0244 -2.709,2.4693 -3.4531,4.2622 -0.7422,1.7935 -0.9004,3.6807 -0.5723,5.458 C 8.5762,32.1348 8.001,33.9375 8,35.877 c 0,1.9414 0.5771,3.746 1.5586,5.2617 -0.3252,1.7754 -0.168,3.6621 0.5732,5.4531 0.7442,1.793 1.9668,3.2402 3.4551,4.2656 0.377,1.7647 1.2442,3.4463 2.6152,4.8184 1.3731,1.373 3.0567,2.2402 4.8223,2.6181 1.0254,1.4854 2.4697,2.7081 4.2617,3.4512 1.794,0.7432 3.6807,0.9004 5.4571,0.5733 1.5156,0.9804 3.3183,1.5566 5.2597,1.5566 1.9405,0 3.7442,-0.5762 5.2598,-1.5566 1.7754,0.3261 3.6621,0.1679 5.4551,-0.5743 1.792,-0.7431 3.2392,-1.9648 4.2636,-3.4531 1.7657,-0.3779 3.4473,-1.2451 4.8184,-2.6172 1.374,-1.373 2.2422,-3.0556 2.6191,-4.8222 1.4864,-1.0254 2.7071,-2.4698 3.4502,-4.2618 0.7432,-1.7929 0.9014,-3.6806 0.5752,-5.457 C 63.4248,39.6162 63.999,37.8145 64,35.875 Z"
           stroke-width="1.9394"
           stroke-miterlimit="10"
           stroke-linejoin="round"
           stroke-linecap="round"
           stroke="#000000"
           fill="none"
           inkscape:connector-curvature="0" />
        <circle
           id="circle32"
           stroke-width="1.9394"
           stroke-miterlimit="10"
           stroke-linejoin="round"
           stroke-linecap="round"
           stroke="#000000"
           fill="none"
           r="2"
           cy="35"
           cx="19" />
        <circle
           id="circle34"
           stroke-width="1.9394"
           stroke-miterlimit="10"
           stroke-linejoin="round"
           stroke-linecap="round"
           stroke="#000000"
           fill="none"
           r="2"
           cy="41"
           cx="32" />
        <circle
           id="circle36"
           stroke-width="1.9394"
           stroke-miterlimit="10"
           stroke-linejoin="round"
           stroke-linecap="round"
           stroke="#000000"
           fill="none"
           r="2"
           cy="51"
           cx="30" />
        <circle
           id="circle38"
           stroke-width="1.9394"
           stroke-miterlimit="10"
           stroke-linejoin="round"
           stroke-linecap="round"
           stroke="#000000"
           fill="none"
           r="2"
           cy="51"
           cx="46" />
        <circle
           id="circle40"
           stroke-width="1.9394"
           stroke-miterlimit="10"
           stroke-linejoin="round"
           stroke-linecap="round"
           stroke="#000000"
           fill="none"
           r="2"
           cy="36"
           cx="52" />
        <circle
           id="circle42"
           stroke-width="1.9394"
           stroke-miterlimit="10"
           stroke-linejoin="round"
           stroke-linecap="round"
           stroke="#000000"
           fill="none"
           r="2"
           cy="21"
           cx="48" />
        <circle
           id="circle44"
           stroke-width="1.9394"
           stroke-miterlimit="10"
           stroke-linejoin="round"
           stroke-linecap="round"
           stroke="#000000"
           fill="none"
           r="2"
           cy="22"
           cx="32" />
      </g>
    </g>
    <g
       id="g262"
       transform="matrix(0.71469644,0.45620364,-0.45620364,0.71469644,40.178566,-0.51742917)">
      <g
         id="g325"
         transform="matrix(0.69576289,0,0,0.69576289,11.623284,12.410516)">
        <g
           id="color-0">
          <path
             inkscape:connector-curvature="0"
             fill="#ea5a47"
             d="m 52.3958,38 c 1,-8 -6.7158,-13 -15,-13 -8.2842,0 -15.9725,7.78 -17,16 -1,8 7.7157,16 16,16 8.2843,0 14.9724,-10.78 16,-19 z"
             id="path74" />
          <path
             inkscape:connector-curvature="0"
             fill="#ea5a47"
             d="m 36.3958,25 c 10,-1 14,5 14,5"
             id="path76" />
          <path
             inkscape:connector-curvature="0"
             fill="#ea5a47"
             d="m 52.3958,33 c 4.8709,16.5612 -11.6148,30.1229 -16,31 -5,1 -13,-11 -15,-16"
             id="path78" />
          <path
             inkscape:connector-curvature="0"
             fill="#d22f27"
             d="M 45.3958,42.5 A 19.4819,19.4819 0 0 0 35.4858,25.5331 7.39,7.39 0 0 1 38.3958,25 c 8.2843,0 15,5 14,13 -1.1232,8.9855 -3,22 -16,26 -1.8881,0.5809 -4.23,-1.6717 -5.005,-2.7986 A 19.4982,19.4982 0 0 0 45.3958,42.5 Z"
             id="path80" />
          <path
             inkscape:connector-curvature="0"
             fill="#ea5a47"
             d="m 20.3958,45 c 0,0 -8.0234,-19.6487 16,-20"
             id="path82" />
          <circle
             cx="25.3958"
             cy="35"
             r="2"
             fill="#d22f27"
             id="circle84" />
          <circle
             cx="33.395802"
             cy="35"
             r="2"
             fill="#d22f27"
             id="circle86" />
          <circle
             cx="40.395802"
             cy="35"
             r="2"
             fill="#d22f27"
             id="circle88" />
          <circle
             cx="47.395802"
             cy="35"
             r="2"
             fill="#d22f27"
             id="circle90" />
          <circle
             cx="44.395802"
             cy="43"
             r="2"
             fill="#d22f27"
             id="circle92" />
          <circle
             cx="36.395802"
             cy="43"
             r="2"
             fill="#d22f27"
             id="circle94" />
          <circle
             cx="28.3958"
             cy="43"
             r="2"
             fill="#d22f27"
             id="circle96" />
          <circle
             cx="32.395802"
             cy="52"
             r="2"
             fill="#d22f27"
             id="circle98" />
          <circle
             cx="40.395802"
             cy="52"
             r="2"
             fill="#d22f27"
             id="circle100" />
          <path
             inkscape:connector-curvature="0"
             fill="#186648"
             d="M 32.3972,10.6576 Q 32.4938,10.4144 32.6,10.17 A 14.0007,14.0007 0 0 1 34.5272,7 14.02,14.02 0 0 1 37.4461,22.4726 c -0.508,1.1684 -5.513,-0.344 -6.7269,-0.2791"
             id="path102" />
          <path
             inkscape:connector-curvature="0"
             fill="#b1cc33"
             d="m 35.0511,20.9331 a 14.001,14.001 0 0 1 -0.14,3.7072 13.956,13.956 0 0 1 -9.942,-15.8017 14.02,14.02 0 0 1 10.082,12.0945 z"
             id="path104" />
          <path
             inkscape:connector-curvature="0"
             fill="#b1cc33"
             d="M 46.0116,10.6663 A 14.6194,14.6194 0 0 0 45.819,8.8386 13.9555,13.9555 0 0 0 35.8773,24.64 14.02,14.02 0 0 0 45.9592,12.5458"
             id="path106" />
          <path
             inkscape:connector-curvature="0"
             fill="#5c9e31"
             d="m 43.9648,10.8958 a 12.9921,12.9921 0 0 0 -0.0711,-1.3451 13.997,13.997 0 0 1 1.9254,-0.7121 14.6572,14.6572 0 0 1 0.1926,1.8277 l -0.0525,1.88 A 14.02,14.02 0 0 1 35.8773,24.64 14.6958,14.6958 0 0 1 35.6908,22.8957 12.8492,12.8492 0 0 0 43.9648,10.8958 Z"
             id="path108" />
        </g>
        <g
           id="line-2">
          <path
             inkscape:connector-curvature="0"
             fill="none"
             d="m 52.3958,38 c 1,-8 -6.7158,-13 -15,-13 -8.2842,0 -15.9725,7.78 -17,16 -1,8 7.7157,16 16,16 8.2843,0 14.9724,-10.78 16,-19 z"
             id="path111" />
          <path
             inkscape:connector-curvature="0"
             fill="none"
             stroke="#000000"
             stroke-linecap="round"
             stroke-linejoin="round"
             stroke-width="2"
             d="m 36.3958,25 c 10,-1 14,5 14,5"
             id="path113" />
          <path
             inkscape:connector-curvature="0"
             fill="none"
             d="M 45.3958,42.5 A 19.4819,19.4819 0 0 0 35.4858,25.5331 7.39,7.39 0 0 1 38.3958,25 c 8.2843,0 15,5 14,13 -1.1232,8.9855 -3,22 -16,26 -1.8881,0.5809 -4.23,-1.6717 -5.005,-2.7986 A 19.4982,19.4982 0 0 0 45.3958,42.5 Z"
             id="path115" />
          <path
             inkscape:connector-curvature="0"
             fill="none"
             stroke="#000000"
             stroke-linecap="round"
             stroke-linejoin="round"
             stroke-width="2"
             d="m 20.3958,45 c 0,0 -8.0234,-19.6487 16,-20"
             id="path117" />
          <circle
             cx="25.3958"
             cy="35"
             r="2"
             fill="none"
             id="circle119" />
          <circle
             cx="33.395802"
             cy="35"
             r="2"
             fill="none"
             id="circle121" />
          <circle
             cx="40.395802"
             cy="35"
             r="2"
             fill="none"
             id="circle123" />
          <circle
             cx="47.395802"
             cy="35"
             r="2"
             fill="none"
             id="circle125" />
          <circle
             cx="44.395802"
             cy="43"
             r="2"
             fill="none"
             id="circle127" />
          <circle
             cx="36.395802"
             cy="43"
             r="2"
             fill="none"
             id="circle129" />
          <circle
             cx="28.3958"
             cy="43"
             r="2"
             fill="none"
             id="circle131" />
          <circle
             cx="32.395802"
             cy="52"
             r="2"
             fill="none"
             id="circle133" />
          <circle
             cx="40.395802"
             cy="52"
             r="2"
             fill="none"
             id="circle135" />
          <line
             x1="25.192101"
             x2="25.192101"
             y1="35.5"
             y2="33.484501"
             fill="none"
             stroke="#000000"
             stroke-linecap="round"
             stroke-linejoin="round"
             stroke-width="2"
             id="line137" />
          <line
             x1="33.192101"
             x2="33.192101"
             y1="35.5"
             y2="33.484501"
             fill="none"
             stroke="#000000"
             stroke-linecap="round"
             stroke-linejoin="round"
             stroke-width="2"
             id="line139" />
          <line
             x1="40.192101"
             x2="40.192101"
             y1="35.5"
             y2="33.484501"
             fill="none"
             stroke="#000000"
             stroke-linecap="round"
             stroke-linejoin="round"
             stroke-width="2"
             id="line141" />
          <line
             x1="47.192101"
             x2="47.192101"
             y1="35.5"
             y2="33.484501"
             fill="none"
             stroke="#000000"
             stroke-linecap="round"
             stroke-linejoin="round"
             stroke-width="2"
             id="line143" />
          <line
             x1="44.192101"
             x2="44.192101"
             y1="43.5"
             y2="41.484501"
             fill="none"
             stroke="#000000"
             stroke-linecap="round"
             stroke-linejoin="round"
             stroke-width="2"
             id="line145" />
          <line
             x1="36.192101"
             x2="36.192101"
             y1="43.5"
             y2="41.484501"
             fill="none"
             stroke="#000000"
             stroke-linecap="round"
             stroke-linejoin="round"
             stroke-width="2"
             id="line147" />
          <line
             x1="28.192101"
             x2="28.192101"
             y1="43.5"
             y2="41.484501"
             fill="none"
             stroke="#000000"
             stroke-linecap="round"
             stroke-linejoin="round"
             stroke-width="2"
             id="line149" />
          <line
             x1="32.192101"
             x2="32.192101"
             y1="52.5"
             y2="50.484501"
             fill="none"
             stroke="#000000"
             stroke-linecap="round"
             stroke-linejoin="round"
             stroke-width="2"
             id="line151" />
          <line
             x1="40.192101"
             x2="40.192101"
             y1="52.5"
             y2="50.484501"
             fill="none"
             stroke="#000000"
             stroke-linecap="round"
             stroke-linejoin="round"
             stroke-width="2"
             id="line153" />
          <path
             inkscape:connector-curvature="0"
             fill="none"
             stroke="#000000"
             stroke-linecap="round"
             stroke-linejoin="round"
             stroke-width="2"
             d="m 52.3958,33 c 4.8709,16.5612 -11.6148,30.1229 -16,31 -5,1 -13,-11 -15,-16"
             id="path155" />
          <path
             inkscape:connector-curvature="0"
             fill="none"
             stroke="#000000"
             stroke-linecap="round"
             stroke-linejoin="round"
             stroke-width="2"
             d="m 36.3958,25 c 10,-1 14,5 14,5"
             id="path157" />
          <g
             id="g169">
            <path
               inkscape:connector-curvature="0"
               fill="none"
               stroke="#000000"
               stroke-linecap="round"
               stroke-linejoin="round"
               stroke-width="1.5583"
               d="M 32.3972,10.6576 Q 32.4938,10.4144 32.6,10.17 A 14.0007,14.0007 0 0 1 34.5272,7 a 14.09,14.09 0 0 1 3.7615,6.9188"
               id="path159" />
            <path
               inkscape:connector-curvature="0"
               fill="none"
               stroke="#000000"
               stroke-linejoin="round"
               stroke-width="1.5583"
               d="m 35.0511,20.9331 a 14.001,14.001 0 0 1 -0.14,3.7072 13.956,13.956 0 0 1 -9.942,-15.8017 14.02,14.02 0 0 1 10.082,12.0945 z"
               id="path161" />
            <path
               inkscape:connector-curvature="0"
               fill="none"
               stroke="#000000"
               stroke-linecap="round"
               stroke-linejoin="round"
               stroke-width="1.5583"
               d="M 46.0116,10.6663 A 14.6194,14.6194 0 0 0 45.819,8.8386 13.9555,13.9555 0 0 0 35.8773,24.64 14.02,14.02 0 0 0 45.9592,12.5458"
               id="path163" />
            <path
               inkscape:connector-curvature="0"
               fill="none"
               d="m 43.9648,10.8958 a 12.9921,12.9921 0 0 0 -0.0711,-1.3451 13.997,13.997 0 0 1 1.9254,-0.7121 14.6572,14.6572 0 0 1 0.1926,1.8277 l -0.0525,1.88 A 14.02,14.02 0 0 1 35.8773,24.64 14.6958,14.6958 0 0 1 35.6908,22.8957 12.8492,12.8492 0 0 0 43.9648,10.8958 Z"
               id="path165" />
            <path
               inkscape:connector-curvature="0"
               fill="none"
               stroke="#000000"
               stroke-linecap="round"
               stroke-linejoin="round"
               stroke-width="1.5583"
               d="M 46.0116,10.6663 A 14.6194,14.6194 0 0 0 45.819,8.8386 13.9555,13.9555 0 0 0 35.8773,24.64 14.02,14.02 0 0 0 45.9592,12.5458"
               id="path167" />
          </g>
          <line
             x1="25.192101"
             x2="25.192101"
             y1="35.5"
             y2="33.484501"
             fill="none"
             stroke="#000000"
             stroke-linecap="round"
             stroke-linejoin="round"
             stroke-width="2"
             id="line171" />
          <line
             x1="33.192101"
             x2="33.192101"
             y1="35.5"
             y2="33.484501"
             fill="none"
             stroke="#000000"
             stroke-linecap="round"
             stroke-linejoin="round"
             stroke-width="2"
             id="line173" />
          <line
             x1="40.192101"
             x2="40.192101"
             y1="35.5"
             y2="33.484501"
             fill="none"
             stroke="#000000"
             stroke-linecap="round"
             stroke-linejoin="round"
             stroke-width="2"
             id="line175" />
          <line
             x1="47.192101"
             x2="47.192101"
             y1="35.5"
             y2="33.484501"
             fill="none"
             stroke="#000000"
             stroke-linecap="round"
             stroke-linejoin="round"
             stroke-width="2"
             id="line177" />
          <line
             x1="44.192101"
             x2="44.192101"
             y1="43.5"
             y2="41.484501"
             fill="none"
             stroke="#000000"
             stroke-linecap="round"
             stroke-linejoin="round"
             stroke-width="2"
             id="line179" />
          <line
             x1="36.192101"
             x2="36.192101"
             y1="43.5"
             y2="41.484501"
             fill="none"
             stroke="#000000"
             stroke-linecap="round"
             stroke-linejoin="round"
             stroke-width="2"
             id="line181" />
          <line
             x1="28.192101"
             x2="28.192101"
             y1="43.5"
             y2="41.484501"
             fill="none"
             stroke="#000000"
             stroke-linecap="round"
             stroke-linejoin="round"
             stroke-width="2"
             id="line183" />
          <line
             x1="32.192101"
             x2="32.192101"
             y1="52.5"
             y2="50.484501"
             fill="none"
             stroke="#000000"
             stroke-linecap="round"
             stroke-linejoin="round"
             stroke-width="2"
             id="line185" />
          <line
             x1="40.192101"
             x2="40.192101"
             y1="52.5"
             y2="50.484501"
             fill="none"
             stroke="#000000"
             stroke-linecap="round"
             stroke-linejoin="round"
             stroke-width="2"
             id="line187" />
          <path
             inkscape:connector-curvature="0"
             fill="none"
             stroke="#000000"
             stroke-linecap="round"
             stroke-linejoin="round"
             stroke-width="2"
             d="m 52.3958,33 c 4.8709,16.5612 -11.6148,30.1229 -16,31 -5,1 -13,-11 -15,-16"
             id="path189" />
          <path
             inkscape:connector-curvature="0"
             fill="none"
             stroke="#000000"
             stroke-linecap="round"
             stroke-linejoin="round"
             stroke-width="2"
             d="m 36.3958,25 c 10,-1 14,5 14,5"
             id="path191" />
        </g>
      </g>
    </g>
  </g>
</svg>
