<?xml version="1.0" encoding="UTF-8" standalone="no"?>
<svg
   xmlns:dc="http://purl.org/dc/elements/1.1/"
   xmlns:cc="http://creativecommons.org/ns#"
   xmlns:rdf="http://www.w3.org/1999/02/22-rdf-syntax-ns#"
   xmlns:svg="http://www.w3.org/2000/svg"
   xmlns="http://www.w3.org/2000/svg"
   xmlns:sodipodi="http://sodipodi.sourceforge.net/DTD/sodipodi-0.dtd"
   xmlns:inkscape="http://www.inkscape.org/namespaces/inkscape"
   inkscape:version="1.0beta2 (2b71d25, 2019-12-03)"
   sodipodi:docname="snapIcon.svg"
   id="svg14"
   version="1.1"
   width="512"
   viewBox="0 0 24 24"
   height="512"
   enable-background="new 0 0 24 24">
  <metadata
     id="metadata20">
    <rdf:RDF>
      <cc:Work
         rdf:about="">
        <dc:format>image/svg+xml</dc:format>
        <dc:type
           rdf:resource="http://purl.org/dc/dcmitype/StillImage" />
      </cc:Work>
    </rdf:RDF>
  </metadata>
  <defs
     id="defs18" />
  <sodipodi:namedview
     inkscape:current-layer="svg14"
     inkscape:window-maximized="0"
     inkscape:window-y="23"
     inkscape:window-x="0"
     inkscape:cy="256"
     inkscape:cx="256"
     inkscape:zoom="0.61328125"
     showgrid="false"
     id="namedview16"
     inkscape:window-height="665"
     inkscape:window-width="902"
     inkscape:pageshadow="2"
     inkscape:pageopacity="0"
     guidetolerance="10"
     gridtolerance="10"
     objecttolerance="10"
     borderopacity="1"
     inkscape:document-rotation="0"
     bordercolor="#666666"
     pagecolor="#ffffff" />
  <g
     transform="matrix(0.78983101,0,0,0.79417416,2.5221408,2.468067)"
     id="g24">
    <path
       d="m 20.413,19.514 c 0.981,-0.157 3.029,-0.528 3.086,-1.517 0.016,-0.278 -0.178,-0.525 -0.45,-0.569 v -0.001 c -3.027,-0.508 -4.933,-3.993 -4.639,-4.69 0.212,-0.504 1.158,-0.699 1.575,-0.863 1.996,-0.8 1.136,-2.1689999 -0.043,-2.1689999 C 19.411,9.7050001 18.781,10.281 18.2,10.01 18.38,6.9450001 18.7,4.786 16.532,2.698 13.718,-0.008 8.008,0.307 6.06,4.753 5.481,6.0719999 5.703,8.4830003 5.796,10.01 5.386,10.193 4.8,9.9960003 4.395,9.8020003 3.374,9.3160001 1.628,10.913 4.014,11.873 c 1.034,0.413 2.012,0.531 1.466,1.661 -0.059,0.108 -0.391,0.932 -1.17,1.854 -2.246,2.661 -4.292,1.573 -3.754,2.848 v 0.002 c 0.341,0.811 2.153,1.136 3.029,1.276 0.241,0.459 0.066,1.513 0.887,1.513 0.441,0 1.281,-0.365 2.597,-0.14 1.774,0.302 3.789,4.054 8.248,0.852 l 10e-4,-0.002 c 0.961,-0.69 1.636,-1.201 3.68,-0.791 1.482,0.292 1.07,-0.749 1.415,-1.432 z"
       fill="#ffeb3b"
       id="path10"
       inkscape:connector-curvature="0"
       style="stroke-width:0.999999" />
    <path
       d="M 11.945,23.494 C 11.962,23.497 11.912,23.5 11.86,23.5 10.276,23.5 9.231,22.748 8.391,22.143 5.322,19.933 3.941,23.288 3.201,19.957 -1.041,19.204 -0.208,17.112 0.871,16.933 2.114,16.723 3.129,16.014 3.93,15.066 4.455,14.445 5.223,13.151 5.129,12.929 5.029,12.689 4.123,12.456 3.83,12.338 0.813,11.122 2.96,8.5690003 4.609,9.3499999 4.898,9.4890001 5.114,9.5479999 5.269,9.571 5.177,8.0700002 5.019,5.882 5.603,4.552 c 2.369,-5.41400003 10.414,-5.44699999 12.794,0.001 0.586,1.3340001 0.425,3.5170002 0.333,4.997 0.489,-0.1219998 1.035,-0.5699997 1.905,-0.2099999 1.36,0.495 1.698,2.3309999 -0.834,3.1259999 -0.23,0.075 -0.848,0.274 -0.928,0.465 -0.117,0.28 1.447,3.532 4.261,4.004 0.524,0.087 0.897,0.556 0.866,1.092 -0.072,1.27 -1.934,1.705 -3.198,1.93 -0.185,0.837 -0.322,1.555 -1.246,1.555 -1.58,-0.093 -2.081,-0.708 -3.944,0.634 -1.102,0.788 -2.186,1.441 -3.667,1.348 z m 2.985,-2.092 c 2.263,-1.627 2.814,-1.022 4.624,-0.891 0.217,0 0.062,-0.373 0.528,-1.45 0.396,-0.079 2.635,-0.394 2.899,-1.017 H 22.98 L 22.966,17.922 C 19.598,17.356 18.131,13.9 18.07,13.753 c -0.999,-2.056 1.757,-2.039 2.471,-2.784 0.29,-0.304 0.082,-0.57 -0.27,-0.698 C 19.673,10.023 19.473,10.537 18.54,10.58 18.063,10.559 17.953,10.429 17.68,10.319 17.902,7.2020001 18.208,5.0070001 16.185,3.058 13.631,0.60200001 8.328,0.81700001 6.519,4.9530001 5.974,6.1930002 6.218,8.7029999 6.318,10.326 6.125,10.363 5.584,10.929 4.179,10.252 c -0.385,-0.183 -1.732,0.449 0.022,1.157 0.472,0.189 1.54,0.391 1.85,1.135 0.476,1.146 -1.839,4.841 -5.017,5.375 v 0.001 l -0.017,0.124 c 0.282,0.672 2.794,0.984 2.894,1.015 0.464,1.117 0.164,0.474 0.424,1.37 0.106,0.36 0.993,-0.353 2.82,-0.035 1.909,0.325 3.778,3.871 7.775,1.008 z"
       fill="#212121"
       id="path12"
       inkscape:connector-curvature="0"
       style="stroke-width:0.999999" />
  </g>
</svg>
