<?xml version="1.0" encoding="UTF-8" standalone="no"?>
<svg
   xmlns:dc="http://purl.org/dc/elements/1.1/"
   xmlns:cc="http://creativecommons.org/ns#"
   xmlns:rdf="http://www.w3.org/1999/02/22-rdf-syntax-ns#"
   xmlns:svg="http://www.w3.org/2000/svg"
   xmlns="http://www.w3.org/2000/svg"
   xmlns:sodipodi="http://sodipodi.sourceforge.net/DTD/sodipodi-0.dtd"
   xmlns:inkscape="http://www.inkscape.org/namespaces/inkscape"
   enable-background="new 0 0 24 24"
   height="512"
   viewBox="0 0 24 24"
   width="512"
   version="1.1"
   id="svg14"
   sodipodi:docname="socialMediaBed.svg"
   inkscape:version="1.0beta2 (2b71d25, 2019-12-03)">
  <metadata
     id="metadata20">
    <rdf:RDF>
      <cc:Work
         rdf:about="">
        <dc:format>image/svg+xml</dc:format>
        <dc:type
           rdf:resource="http://purl.org/dc/dcmitype/StillImage" />
        <dc:title></dc:title>
      </cc:Work>
    </rdf:RDF>
  </metadata>
  <defs
     id="defs18" />
  <sodipodi:namedview
     pagecolor="#ffffff"
     bordercolor="#666666"
     inkscape:document-rotation="0"
     borderopacity="1"
     objecttolerance="10"
     gridtolerance="10"
     guidetolerance="10"
     inkscape:pageopacity="0"
     inkscape:pageshadow="2"
     inkscape:window-width="1147"
     inkscape:window-height="831"
     id="namedview16"
     showgrid="false"
     inkscape:zoom="0.65630737"
     inkscape:cx="256"
     inkscape:cy="256"
     inkscape:window-x="374"
     inkscape:window-y="124"
     inkscape:window-maximized="0"
     inkscape:current-layer="svg14" />
  <g
     transform="matrix(0.9000467,0,0,0.9000467,1.1495171,-0.8530861)"
     id="g712">
    <g
       id="g1012"
       transform="matrix(0.05640317,-0.14975118,0.16008055,0.06029367,-2.6831258,13.033956)">
      <g
         id="color-7">
        <path
           id="path989"
           d="m 58.0417,16.6667 c 0,0 -2.5833,2.0833 -6.2083,2.4583 0,0 -5.7083,-6.375 -13.875,-0.8333 -3.6667,2.5833 -4,8.0417 -3.375,10 0,0 -11.0833,0.875 -20.75,-10.4583 0,0 -4.3333,7.5 2.8333,13.5 0,0 -2.1182,0.3333 -4.1317,-1.3333 0,0 -0.9517,7.75 7.715,9.9167 0,0 -0.5833,1 -4.0833,0 0,0 0.5833,6.3333 8.8333,7.25 0,0 -4.4569,4.5833 -14.4784,4 0,0 16.5618,12.4167 34.4784,-2.5833 10,-8.5 9.6667,-20.75 9.5,-22.5833 0,0 3.9491,-3 4.9746,-4.9167 0,0 -3.0579,1 -5.5579,1 0,-2e-4 3.3333,-1.7502 4.125,-5.4168 z"
           stroke-miterlimit="10"
           stroke-linejoin="round"
           stroke-linecap="round"
           stroke-width="2"
           stroke="none"
           fill="#61b2e4"
           inkscape:connector-curvature="0" />
      </g>
      <g
         id="hair-0" />
      <g
         id="skin-39" />
      <g
         id="skin-shadow-8" />
      <g
         id="line-6">
        <path
           id="path995"
           d="m 58.0417,16.6667 c 0,0 -2.5833,2.0833 -6.2083,2.4583 0,0 -5.7083,-6.375 -13.875,-0.8333 -3.6667,2.5833 -4,8.0417 -3.375,10 0,0 -11.0833,0.875 -20.75,-10.4583 0,0 -4.3333,7.5 2.8333,13.5 0,0 -2.1182,0.3333 -4.1317,-1.3333 0,0 -0.9517,7.75 7.715,9.9167 0,0 -0.5833,1 -4.0833,0 0,0 0.5833,6.3333 8.8333,7.25 0,0 -4.4569,4.5833 -14.4784,4 0,0 16.5618,12.4167 34.4784,-2.5833 10,-8.5 9.6667,-20.75 9.5,-22.5833 0,0 3.9491,-3 4.9746,-4.9167 0,0 -3.0579,1 -5.5579,1 0,-2e-4 3.3333,-1.7502 4.125,-5.4168 z"
           stroke-miterlimit="10"
           stroke-linejoin="round"
           stroke-linecap="round"
           stroke-width="2"
           stroke="#000000"
           fill="none"
           inkscape:connector-curvature="0" />
      </g>
    </g>
    <g
       id="g956"
       transform="matrix(0.12632331,0.03261492,-0.03327597,0.12888366,8.8436258,6.10731)">
      <g
         id="color">
        <path
           id="path927"
           d="M 57,12 H 15 c -2.2091,0 -4,1.7909 -4,4 v 42 c 0,2.2091 1.7909,4 4,4 h 42 c 2.2091,0 4,-1.7909 4,-4 V 16 c 0,-2.2091 -1.7909,-4 -4,-4 z"
           stroke="none"
           fill="#61B2E4"
           inkscape:connector-curvature="0" />
        <path
           id="path929"
           d="m 48.5,26.8438 c 0.7812,0 4.6875,0 4.6875,0 v -7.0312 c -3.125,0 -15.625,-3.125 -15.625,10.1562 v 4.6875 h -6.25 v 7.8125 h 6.25 V 63 H 45.375 V 42.4688 h 7.0312 l 0.7812,-7.8125 H 45.375 v -4.6875 c 0,-3.125 2.3438,-3.125 3.125,-3.125 z"
           stroke="none"
           fill="#FFFFFF"
           inkscape:connector-curvature="0" />
      </g>
      <g
         id="hair" />
      <g
         id="skin" />
      <g
         id="skin-shadow" />
      <g
         id="line">
        <path
           id="path935"
           d="M 45.6188,62 H 57.7742 C 59.5558,62 61,60.5558 61,58.7742 V 15.2258 C 61,13.4442 59.5558,12 57.7742,12 H 14.2258 C 12.4442,12 11,13.4442 11,15.2258 V 58.7742 C 11,60.5558 12.4442,62 14.2258,62 h 23.4761"
           stroke-width="2"
           stroke-miterlimit="10"
           stroke="#000000"
           fill="none"
           inkscape:connector-curvature="0" />
        <path
           id="path937"
           d="M 45.6183,62 V 42.208 h 7.1251 l 0.7917,-7.9168 h -7.9168 v -4.7501 c 0,-3.1667 2.375,-3.1667 3.1667,-3.1667 0.7917,0 4.7501,0 4.7501,0 V 19.2493 C 50.3354,18.925 37.7015,16.0826 37.7015,29.5411 v 4.7501 h -6.3334 v 7.9168 h 6.3334 V 62"
           stroke-width="2"
           stroke-miterlimit="10"
           stroke-linejoin="round"
           stroke-linecap="round"
           stroke="#000000"
           fill="none"
           inkscape:connector-curvature="0" />
      </g>
    </g>
    <path
       inkscape:transform-center-y="0.15995823"
       inkscape:transform-center-x="0.50370183"
       d="M 21.83227,5.7803638 C 21.298714,5.0924584 21.400608,4.1170879 22.059407,3.6061056 22.16097,3.5273276 22.176579,3.3774818 22.094366,3.2714854 L 21.296785,2.2431761 C 21.214533,2.1371227 21.065549,2.1150183 20.963984,2.1937938 l -4.037559,3.1316297 c -0.387292,0.3003919 -0.957558,0.2157777 -1.271264,-0.1886776 -0.313664,-0.404402 -0.253762,-0.9777932 0.133529,-1.278186 0.387343,-0.3004329 0.957607,-0.2158136 1.271272,0.188589 0.08226,0.1060508 0.23124,0.128156 0.3328,0.049384 L 18.377564,3.3326968 C 18.479081,3.2539574 18.49478,3.1041297 18.412519,2.9980726 17.494832,1.8149133 15.826366,1.5673854 14.693265,2.4462454 13.560167,3.3251042 13.38492,5.0026608 14.302607,6.1858201 c 0.917687,1.1831602 2.586144,1.4307738 3.719241,0.5519143 l 1.78721,-1.3862015 c 0.101273,0.5335026 0.329225,1.0377022 0.670655,1.4779071 0.08225,0.1060534 0.231236,0.1281578 0.332799,0.049382 l 0.984802,-0.7638352 c 0.101517,-0.078739 0.117216,-0.2285672 0.03496,-0.3346227 z M 20.706162,6.346293 C 20.420888,5.9110594 20.25612,5.4154331 20.226935,4.8994462 c -0.005,-0.089709 -0.05922,-0.1711463 -0.140527,-0.2108437 -0.08113,-0.039731 -0.175597,-0.031013 -0.244599,0.022507 L 17.724002,6.3537324 C 16.793695,7.0753038 15.423806,6.8719929 14.670358,5.9005821 13.91691,4.929175 14.060799,3.551823 14.991107,2.8302535 15.859308,2.1568553 17.110348,2.2889032 17.885881,3.0990389 L 17.262993,3.5821655 C 16.768342,3.1249836 16.018298,3.065452 15.490845,3.4745585 c -0.590085,0.4576859 -0.681394,1.3313096 -0.20349,1.9474656 0.477944,0.616206 1.346822,0.7450879 1.936908,0.2874033 l 3.853683,-2.9890088 0.508427,0.6555049 c -0.646707,0.6424607 -0.754835,1.6775234 -0.260056,2.4893618 z m 0,0"
       id="path1666"
       inkscape:connector-curvature="0"
       style="fill:#ff94fa;fill-opacity:1;stroke-width:0.0158526" />
    <g
       id="g987"
       transform="matrix(0.14294269,-0.04661177,0.04739836,0.14535487,2.844904,2.0609289)">
      <g
         id="color-0">
        <path
           id="path958"
           d="m 46.7845,12.6136 h -21.569 c -6.9598,0 -12.6019,5.6421 -12.6019,12.6019 v 21.5689 c 0,6.9598 5.6421,12.6019 12.6019,12.6019 h 21.5689 c 6.9598,0 12.6019,-5.6421 12.6019,-12.6019 V 25.2155 c 1e-4,-6.9598 -5.642,-12.6019 -12.6018,-12.6019 z"
           fill="#FFFFFF"
           inkscape:connector-curvature="0" />
      </g>
      <g
         id="hair-2" />
      <g
         id="skin-3" />
      <g
         id="skin-shadow-9" />
      <g
         id="line-9">
        <path
           id="path964"
           d="m 46.7845,12.6136 h -21.569 c -6.9598,0 -12.6019,5.6421 -12.6019,12.6019 v 21.5689 c 0,6.9598 5.6421,12.6019 12.6019,12.6019 h 21.5689 c 6.9598,0 12.6019,-5.6421 12.6019,-12.6019 V 25.2155 c 1e-4,-6.9598 -5.642,-12.6019 -12.6018,-12.6019 z"
           stroke-width="2"
           stroke-miterlimit="10"
           stroke="#000000"
           fill="none"
           inkscape:connector-curvature="0" />
        <circle
           id="circle966"
           stroke-width="2"
           stroke-miterlimit="10"
           stroke="#000000"
           fill="none"
           r="11.29"
           cy="36"
           cx="36" />
        <circle
           id="circle968"
           r="2.4193001"
           cy="22.2908"
           cx="49.709202" />
      </g>
    </g>
    <g
       transform="matrix(0.36462973,0.03741284,-0.03857216,0.37592889,29.313659,-8.5238923)"
       id="g24">
      <g
         transform="matrix(0.93948985,0.33227995,-0.35319244,0.93948991,-28.587228,41.436104)"
         id="g500">
        <path
           style="stroke-width:0.999999"
           inkscape:connector-curvature="0"
           id="path10"
           fill="#ffeb3b"
           d="m 20.413,19.514 c 0.981,-0.157 3.029,-0.528 3.086,-1.517 0.016,-0.278 -0.178,-0.525 -0.45,-0.569 v -0.001 c -3.027,-0.508 -4.933,-3.993 -4.639,-4.69 0.212,-0.504 1.158,-0.699 1.575,-0.863 1.996,-0.8 1.136,-2.1689999 -0.043,-2.1689999 C 19.411,9.7050001 18.781,10.281 18.2,10.01 18.38,6.9450001 18.7,4.786 16.532,2.698 13.718,-0.008 8.008,0.307 6.06,4.753 5.481,6.0719999 5.703,8.4830003 5.796,10.01 5.386,10.193 4.8,9.9960003 4.395,9.8020003 3.374,9.3160001 1.628,10.913 4.014,11.873 c 1.034,0.413 2.012,0.531 1.466,1.661 -0.059,0.108 -0.391,0.932 -1.17,1.854 -2.246,2.661 -4.292,1.573 -3.754,2.848 v 0.002 c 0.341,0.811 2.153,1.136 3.029,1.276 0.241,0.459 0.066,1.513 0.887,1.513 0.441,0 1.281,-0.365 2.597,-0.14 1.774,0.302 3.789,4.054 8.248,0.852 l 10e-4,-0.002 c 0.961,-0.69 1.636,-1.201 3.68,-0.791 1.482,0.292 1.07,-0.749 1.415,-1.432 z" />
        <path
           style="stroke-width:0.999999"
           inkscape:connector-curvature="0"
           id="path12"
           fill="#212121"
           d="M 11.945,23.494 C 11.962,23.497 11.912,23.5 11.86,23.5 10.276,23.5 9.231,22.748 8.391,22.143 5.322,19.933 3.941,23.288 3.201,19.957 -1.041,19.204 -0.208,17.112 0.871,16.933 2.114,16.723 3.129,16.014 3.93,15.066 4.455,14.445 5.223,13.151 5.129,12.929 5.029,12.689 4.123,12.456 3.83,12.338 0.813,11.122 2.96,8.5690003 4.609,9.3499999 4.898,9.4890001 5.114,9.5479999 5.269,9.571 5.177,8.0700002 5.019,5.882 5.603,4.552 c 2.369,-5.41400003 10.414,-5.44699999 12.794,0.001 0.586,1.3340001 0.425,3.5170002 0.333,4.997 0.489,-0.1219998 1.035,-0.5699997 1.905,-0.2099999 1.36,0.495 1.698,2.3309999 -0.834,3.1259999 -0.23,0.075 -0.848,0.274 -0.928,0.465 -0.117,0.28 1.447,3.532 4.261,4.004 0.524,0.087 0.897,0.556 0.866,1.092 -0.072,1.27 -1.934,1.705 -3.198,1.93 -0.185,0.837 -0.322,1.555 -1.246,1.555 -1.58,-0.093 -2.081,-0.708 -3.944,0.634 -1.102,0.788 -2.186,1.441 -3.667,1.348 z m 2.985,-2.092 c 2.263,-1.627 2.814,-1.022 4.624,-0.891 0.217,0 0.062,-0.373 0.528,-1.45 0.396,-0.079 2.635,-0.394 2.899,-1.017 H 22.98 L 22.966,17.922 C 19.598,17.356 18.131,13.9 18.07,13.753 c -0.999,-2.056 1.757,-2.039 2.471,-2.784 0.29,-0.304 0.082,-0.57 -0.27,-0.698 C 19.673,10.023 19.473,10.537 18.54,10.58 18.063,10.559 17.953,10.429 17.68,10.319 17.902,7.2020001 18.208,5.0070001 16.185,3.058 13.631,0.60200001 8.328,0.81700001 6.519,4.9530001 5.974,6.1930002 6.218,8.7029999 6.318,10.326 6.125,10.363 5.584,10.929 4.179,10.252 c -0.385,-0.183 -1.732,0.449 0.022,1.157 0.472,0.189 1.54,0.391 1.85,1.135 0.476,1.146 -1.839,4.841 -5.017,5.375 v 0.001 l -0.017,0.124 c 0.282,0.672 2.794,0.984 2.894,1.015 0.464,1.117 0.164,0.474 0.424,1.37 0.106,0.36 0.993,-0.353 2.82,-0.035 1.909,0.325 3.778,3.871 7.775,1.008 z" />
      </g>
    </g>
    <path
       style="fill:#84eaff;fill-opacity:1;stroke-width:0.0158526"
       inkscape:connector-curvature="0"
       id="path1666-4"
       d="M 22.340697,6.4358686 C 21.807141,5.7479632 21.909035,4.7725928 22.567834,4.2616104 22.669397,4.1828325 22.685006,4.0329867 22.602793,3.9269903 L 21.805212,2.898681 C 21.72296,2.7926277 21.573976,2.7705232 21.472411,2.8492987 L 17.434852,5.9809284 C 17.04756,6.2813202 16.477294,6.196706 16.163588,5.7922507 15.849924,5.3878487 15.909826,4.8144576 16.297117,4.5140648 c 0.387343,-0.3004329 0.957607,-0.2158136 1.271272,0.188589 0.08226,0.1060508 0.23124,0.1281559 0.3328,0.049384 l 0.984802,-0.763836 c 0.101517,-0.07874 0.117216,-0.2285672 0.03496,-0.3346243 -0.917692,-1.1831592 -2.586158,-1.4306871 -3.719259,-0.5518272 -1.133098,0.8788588 -1.308345,2.5564153 -0.390658,3.7395746 0.917687,1.1831604 2.586144,1.4307739 3.719241,0.5519145 l 1.78721,-1.3862017 c 0.101273,0.5335026 0.329225,1.0377022 0.670655,1.477907 0.08225,0.1060533 0.231236,0.1281581 0.332799,0.049382 l 0.984802,-0.7638351 c 0.101517,-0.078739 0.117216,-0.2285672 0.03496,-0.3346227 z M 21.214589,7.0017978 C 20.929315,6.5665642 20.764547,6.0709379 20.735362,5.554951 c -0.005,-0.089709 -0.05922,-0.1711463 -0.140527,-0.2108437 -0.08113,-0.039731 -0.175597,-0.031013 -0.244599,0.022507 L 18.232429,7.0092372 C 17.302122,7.7308088 15.932233,7.5274978 15.178785,6.5560869 14.425337,5.5846798 14.569226,4.2073278 15.499534,3.4857584 16.367735,2.8123602 17.618775,2.9444081 18.394308,3.7545437 L 17.77142,4.2376704 c -0.494651,-0.457182 -1.244695,-0.5167135 -1.772148,-0.107607 -0.590085,0.4576859 -0.681394,1.3313095 -0.20349,1.9474655 0.477944,0.616206 1.346822,0.7450879 1.936908,0.2874033 L 21.586373,3.3759235 22.0948,4.0314284 c -0.646707,0.6424607 -0.754835,1.6775233 -0.260056,2.4893617 z m 0,0"
       inkscape:transform-center-x="0.50370183"
       inkscape:transform-center-y="0.15995823" />
  </g>
  <g
     transform="matrix(0.22096692,0,0,0.22096692,4.1939238,10.298054)"
     id="g353">
    <g
       id="color-1">
      <rect
         x="5"
         y="38"
         fill="#A57939"
         width="62"
         height="11"
         stroke="none"
         id="rect300" />
      <path
         inkscape:connector-curvature="0"
         fill="#D0CFCE"
         d="m 5,39 v -4 c 0,-1.6504 1.3496,-3 3,-3 h 56 c 1.6504,0 3,1.3496 3,3 v 4"
         stroke="none"
         id="path302" />
      <path
         inkscape:connector-curvature="0"
         fill="#FCEA2B"
         d="M 15.0762,25.6748 C 15.0264,25.458 15,25.2319 15,25 c 0,-1.6567 1.3438,-3 3,-3 1.6563,0 3,1.3433 3,3 0,0.3926 -0.0752,0.7676 -0.2129,1.1113"
         stroke="none"
         id="path304" />
      <path
         inkscape:connector-curvature="0"
         fill="#92D3F5"
         d="M 22,32 V 22 c 0,0 0.2109,-2.1055 2,-3 2,-1 6,0 9,-1 6.7891,-2.2632 12.5938,3.3564 17,6 5,3 7,4.8535 7,8"
         stroke="none"
         id="path306" />
      <path
         inkscape:connector-curvature="0"
         fill="#92D3F5"
         d="M 5.125,27.6875 C 5.125,27.6875 10,24 22,27 v 4 L 7,32 6.1875,33.25 5.125,31.625 5,28 Z"
         stroke="none"
         id="path308" />
    </g>
    <g
       id="hair-4" />
    <g
       id="skin-7" />
    <g
       id="skin-shadow-1" />
    <g
       id="line-3">
      <rect
         x="5"
         y="38.083"
         fill="none"
         stroke="#000000"
         stroke-width="2"
         stroke-linecap="round"
         stroke-linejoin="round"
         stroke-miterlimit="10"
         width="62"
         height="10.917"
         id="rect314" />
      <path
         inkscape:connector-curvature="0"
         fill="none"
         stroke="#000000"
         stroke-width="2"
         stroke-linecap="round"
         stroke-linejoin="round"
         stroke-miterlimit="10"
         d="m 5,39 v -4 c 0,-1.6504 1.3496,-3 3,-3 h 56 c 1.6504,0 3,1.3496 3,3 v 4"
         id="path316" />
      <line
         fill="none"
         stroke="#000000"
         stroke-width="2"
         stroke-linecap="round"
         stroke-linejoin="round"
         stroke-miterlimit="10"
         x1="5"
         y1="55"
         x2="5"
         y2="17"
         id="line318" />
      <line
         fill="none"
         stroke="#000000"
         stroke-width="2"
         stroke-linecap="round"
         stroke-linejoin="round"
         stroke-miterlimit="10"
         x1="67"
         y1="27"
         x2="67"
         y2="55"
         id="line320" />
      <path
         inkscape:connector-curvature="0"
         fill="none"
         stroke="#000000"
         stroke-width="2"
         stroke-linecap="round"
         stroke-linejoin="round"
         stroke-miterlimit="10"
         d="M 15.0762,25.6748 C 15.0264,25.458 15,25.2319 15,25 c 0,-1.6567 1.3438,-3 3,-3 1.6563,0 3,1.3433 3,3 0,0.3926 -0.0752,0.7676 -0.2129,1.1113"
         id="path322" />
      <path
         inkscape:connector-curvature="0"
         fill="none"
         stroke="#000000"
         stroke-width="2"
         stroke-linecap="round"
         stroke-linejoin="round"
         stroke-miterlimit="10"
         d="M 22,32 V 22 c 0,0 0.2109,-2.1055 2,-3 2,-1 6,0 9,-1 6.7891,-2.2632 12.5938,3.3564 17,6 5,3 7,4.8535 7,8"
         id="path324" />
      <path
         inkscape:connector-curvature="0"
         fill="none"
         stroke="#000000"
         stroke-width="2"
         stroke-linecap="round"
         stroke-linejoin="round"
         stroke-miterlimit="10"
         d="M 5.042,27.9175 C 6.8965,26.0625 14.292,24.876 21,27"
         id="path326" />
    </g>
  </g>
</svg>
