<?xml version="1.0" encoding="UTF-8" standalone="no"?>
<svg
   xmlns:dc="http://purl.org/dc/elements/1.1/"
   xmlns:cc="http://creativecommons.org/ns#"
   xmlns:rdf="http://www.w3.org/1999/02/22-rdf-syntax-ns#"
   xmlns:svg="http://www.w3.org/2000/svg"
   xmlns="http://www.w3.org/2000/svg"
   xmlns:sodipodi="http://sodipodi.sourceforge.net/DTD/sodipodi-0.dtd"
   xmlns:inkscape="http://www.inkscape.org/namespaces/inkscape"
   inkscape:version="1.0beta2 (2b71d25, 2019-12-03)"
   sodipodi:docname="thoughtBalloon2.svg"
   version="1.1"
   viewBox="0 0 72 72"
   id="emoji">
  <metadata
     id="metadata1232">
    <rdf:RDF>
      <cc:Work
         rdf:about="">
        <dc:format>image/svg+xml</dc:format>
        <dc:type
           rdf:resource="http://purl.org/dc/dcmitype/StillImage" />
        <dc:title></dc:title>
      </cc:Work>
    </rdf:RDF>
  </metadata>
  <defs
     id="defs1230" />
  <sodipodi:namedview
     inkscape:current-layer="emoji"
     inkscape:window-maximized="0"
     inkscape:window-y="85"
     inkscape:window-x="108"
     inkscape:cy="36"
     inkscape:cx="36"
     inkscape:zoom="7.7690452"
     showgrid="false"
     id="namedview1228"
     inkscape:window-height="741"
     inkscape:window-width="990"
     inkscape:pageshadow="2"
     inkscape:pageopacity="0"
     guidetolerance="10"
     gridtolerance="10"
     objecttolerance="10"
     borderopacity="1"
     inkscape:document-rotation="0"
     bordercolor="#666666"
     pagecolor="#ffffff" />
  <g
     transform="matrix(0.58945204,0,0,0.58945204,2.6216541,-0.00303121)"
     id="line">
    <path
       inkscape:connector-curvature="0"
       id="path1216"
       d="M 42.82,53.09"
       stroke-width="2"
       stroke-miterlimit="10"
       stroke-linejoin="round"
       stroke-linecap="round"
       stroke="#000"
       fill="none" />
    <path
       inkscape:connector-curvature="0"
       id="path1218"
       d="m 21.49,62.77 c 3.309,0 6,-2.691 6,-6 0,-3.309 -2.691,-6 -6,-6 -3.309,0 -6,2.691 -6,6 0,3.309 2.691,6 6,6 z m 0,-10 c 2.206,0 4,1.794 4,4 0,2.206 -1.794,4 -4,4 -2.206,0 -4,-1.794 -4,-4 0,-2.206 1.794,-4 4,-4 z" />
    <path
       inkscape:connector-curvature="0"
       id="path1220"
       d="m 12.36,66.78 c 1.728,0 3.135,-1.406 3.135,-3.135 0,-1.729 -1.406,-3.135 -3.135,-3.135 -1.729,0 -3.135,1.406 -3.135,3.135 0,1.729 1.406,3.135 3.135,3.135 z m 0,-4.27 c 0.6255,0 1.135,0.5088 1.135,1.135 0,0.6259 -0.5093,1.135 -1.135,1.135 -0.6257,0 -1.135,-0.5088 -1.135,-1.135 0,-0.626 0.5092,-1.135 1.135,-1.135 z" />
    <path
       inkscape:connector-curvature="0"
       id="path1222"
       d="M 42.82,53.09"
       stroke-width="2"
       stroke-miterlimit="10"
       stroke-linejoin="round"
       stroke-linecap="round"
       stroke="#000"
       fill="none" />
    <path
       inkscape:connector-curvature="0"
       id="path1224"
       d="m 17.49,48.58 c -1.042,-1.779 -1.544,-3.895 -1.31,-6.103 0.0786,-0.7397 0.2418,-1.449 0.4687,-2.126 -4.569,-1.322 -7.676,-5.758 -7.156,-10.65 0.5836,-5.492 5.509,-9.471 11,-8.887 0.881,0.0936 1.717,0.3098 2.508,0.6113 1.407,-7.636 8.471,-13.02 16.32,-12.19 6.706,0.7126 11.91,5.74 13.14,12.03 0.3856,-0.0038 0.7741,0.0084 1.167,0.0501 5.492,0.5836 9.471,5.509 8.887,11 -0.3338,3.141 -2.091,5.782 -4.558,7.363 0.0658,0.8881 0.066,1.792 -0.0315,2.709 -0.8755,8.238 -8.263,14.21 -16.5,13.33 -3.578,-0.3802 -6.725,-1.991 -9.072,-4.364 -0.8269,0.6584 -1.757,1.187 -2.758,1.559"
       stroke-width="2"
       stroke-miterlimit="10"
       stroke-linejoin="round"
       stroke-linecap="round"
       stroke="#000"
       fill="none" />
  </g>
  <g
     id="line-9"
     transform="matrix(0.69650848,0,0,0.69650848,22.161869,-2.1539193)">
    <path
       fill="none"
       stroke="#000"
       stroke-linecap="round"
       stroke-linejoin="round"
       stroke-miterlimit="10"
       stroke-width="2"
       d="M 42.82,53.09"
       id="path1216-1"
       inkscape:connector-curvature="0" />
    <path
       fill="none"
       stroke="#000"
       stroke-linecap="round"
       stroke-linejoin="round"
       stroke-miterlimit="10"
       stroke-width="2"
       d="M 42.82,53.09"
       id="path1222-8"
       inkscape:connector-curvature="0" />
  </g>
  <g
     id="line-95"
     transform="matrix(0.58945204,0,0,0.58945204,27.396327,27.282292)">
    <path
       fill="none"
       stroke="#000"
       stroke-linecap="round"
       stroke-linejoin="round"
       stroke-miterlimit="10"
       stroke-width="2"
       d="M 42.82,53.09"
       id="path1216-9"
       inkscape:connector-curvature="0" />
    <path
       d="m 21.49,62.77 c 3.309,0 6,-2.691 6,-6 0,-3.309 -2.691,-6 -6,-6 -3.309,0 -6,2.691 -6,6 0,3.309 2.691,6 6,6 z m 0,-10 c 2.206,0 4,1.794 4,4 0,2.206 -1.794,4 -4,4 -2.206,0 -4,-1.794 -4,-4 0,-2.206 1.794,-4 4,-4 z"
       id="path1218-0"
       inkscape:connector-curvature="0" />
    <path
       d="m 12.36,66.78 c 1.728,0 3.135,-1.406 3.135,-3.135 0,-1.729 -1.406,-3.135 -3.135,-3.135 -1.729,0 -3.135,1.406 -3.135,3.135 0,1.729 1.406,3.135 3.135,3.135 z m 0,-4.27 c 0.6255,0 1.135,0.5088 1.135,1.135 0,0.6259 -0.5093,1.135 -1.135,1.135 -0.6257,0 -1.135,-0.5088 -1.135,-1.135 0,-0.626 0.5092,-1.135 1.135,-1.135 z"
       id="path1220-9"
       inkscape:connector-curvature="0" />
    <path
       fill="none"
       stroke="#000"
       stroke-linecap="round"
       stroke-linejoin="round"
       stroke-miterlimit="10"
       stroke-width="2"
       d="M 42.82,53.09"
       id="path1222-3"
       inkscape:connector-curvature="0" />
    <path
       fill="none"
       stroke="#000"
       stroke-linecap="round"
       stroke-linejoin="round"
       stroke-miterlimit="10"
       stroke-width="2"
       d="m 17.49,48.58 c -1.042,-1.779 -1.544,-3.895 -1.31,-6.103 0.0786,-0.7397 0.2418,-1.449 0.4687,-2.126 -4.569,-1.322 -7.676,-5.758 -7.156,-10.65 0.5836,-5.492 5.509,-9.471 11,-8.887 0.881,0.0936 1.717,0.3098 2.508,0.6113 1.407,-7.636 8.471,-13.02 16.32,-12.19 6.706,0.7126 11.91,5.74 13.14,12.03 0.3856,-0.0038 0.7741,0.0084 1.167,0.0501 5.492,0.5836 9.471,5.509 8.887,11 -0.3338,3.141 -2.091,5.782 -4.558,7.363 0.0658,0.8881 0.066,1.792 -0.0315,2.709 -0.8755,8.238 -8.263,14.21 -16.5,13.33 -3.578,-0.3802 -6.725,-1.991 -9.072,-4.364 -0.8269,0.6584 -1.757,1.187 -2.758,1.559"
       id="path1224-4"
       inkscape:connector-curvature="0" />
  </g>
</svg>
