<?xml version="1.0" encoding="UTF-8" standalone="no"?>
<svg
   xmlns:dc="http://purl.org/dc/elements/1.1/"
   xmlns:cc="http://creativecommons.org/ns#"
   xmlns:rdf="http://www.w3.org/1999/02/22-rdf-syntax-ns#"
   xmlns:svg="http://www.w3.org/2000/svg"
   xmlns="http://www.w3.org/2000/svg"
   xmlns:sodipodi="http://sodipodi.sourceforge.net/DTD/sodipodi-0.dtd"
   xmlns:inkscape="http://www.inkscape.org/namespaces/inkscape"
   inkscape:export-ydpi="820.40002"
   inkscape:export-xdpi="820.40002"
   inkscape:export-filename="/Users/mike.xiao/Documents/GitHub/HBN_EMA_NIMH2/images/new/thoughtRed.png"
   inkscape:version="1.0beta2 (2b71d25, 2019-12-03)"
   sodipodi:docname="thoughtRed.svg"
   version="1.1"
   viewBox="0 0 72 72"
   id="emoji">
  <metadata
     id="metadata26">
    <rdf:RDF>
      <cc:Work
         rdf:about="">
        <dc:format>image/svg+xml</dc:format>
        <dc:type
           rdf:resource="http://purl.org/dc/dcmitype/StillImage" />
        <dc:title></dc:title>
      </cc:Work>
    </rdf:RDF>
  </metadata>
  <defs
     id="defs24" />
  <sodipodi:namedview
     inkscape:current-layer="line"
     inkscape:window-maximized="0"
     inkscape:window-y="82"
     inkscape:window-x="295"
     inkscape:cy="32.789842"
     inkscape:cx="-30.603165"
     inkscape:zoom="3.0890487"
     showgrid="false"
     id="namedview22"
     inkscape:window-height="663"
     inkscape:window-width="1008"
     inkscape:pageshadow="2"
     inkscape:pageopacity="0"
     guidetolerance="10"
     gridtolerance="10"
     objecttolerance="10"
     borderopacity="1"
     inkscape:document-rotation="0"
     bordercolor="#666666"
     pagecolor="#ffffff" />
  <g
     id="line">
    <path
       inkscape:connector-curvature="0"
       id="path10"
       d="M 42.880909,50.372984"
       stroke-width="2"
       stroke-miterlimit="10"
       stroke-linejoin="round"
       stroke-linecap="round"
       stroke="#000"
       fill="none" />
    <path
       style="fill:#d40000;fill-opacity:1"
       inkscape:connector-curvature="0"
       id="path18"
       d="m 17.25103,48.069437 c -1.042,-1.779 -1.544,-3.895 -1.31,-6.103 0.0786,-0.7397 0.2418,-1.449 0.4687,-2.126 -4.568999,-1.322 -7.6759975,-5.758 -7.1559975,-10.65 0.5836,-5.492 5.5089975,-9.471 10.9999975,-8.887 0.881,0.0936 1.717,0.3098 2.508,0.6113 1.407,-7.636 8.471,-13.0200025 16.32,-12.1900025 6.706,0.712601 11.91,5.7400025 13.14,12.0300025 0.3856,-0.0038 0.7741,0.0084 1.167,0.0501 5.492,0.5836 9.471,5.509 8.887,11 -0.3338,3.141 -2.091,5.782 -4.558,7.363 0.0658,0.8881 0.066,1.792 -0.0315,2.709 -0.8755,8.238 -8.263,14.21 -16.5,13.33 -3.578,-0.3802 -6.725,-1.991 -9.072,-4.364 -0.8269,0.6584 -1.757,1.187 -2.758,1.559"
       stroke-width="2"
       stroke-miterlimit="10"
       stroke-linejoin="round"
       stroke-linecap="round"
       stroke="#000"
       fill="none" />
    <path
       inkscape:connector-curvature="0"
       id="path12"
       d="m 21.550909,60.052984 c 3.309,0 6,-2.691 6,-6 0,-3.309 -2.691,-6 -6,-6 -3.309,0 -6,2.691 -6,6 0,3.309 2.691,6 6,6 z m 0,-10 c 2.206,0 4,1.794 4,4 0,2.206 -1.794,4 -4,4 -2.206,0 -4,-1.794 -4,-4 0,-2.206 1.794,-4 4,-4 z" />
    <path
       inkscape:connector-curvature="0"
       id="path14"
       d="m 12.420909,64.062984 c 1.728,0 3.135,-1.406 3.135,-3.135 0,-1.729 -1.406,-3.135 -3.135,-3.135 -1.729,0 -3.1349991,1.406 -3.1349991,3.135 0,1.729 1.4059991,3.135 3.1349991,3.135 z m 0,-4.27 c 0.6255,0 1.135,0.5088 1.135,1.135 0,0.6259 -0.5093,1.135 -1.135,1.135 -0.6257,0 -1.135,-0.5088 -1.135,-1.135 0,-0.626 0.5092,-1.135 1.135,-1.135 z" />
    <path
       inkscape:connector-curvature="0"
       id="path16"
       d="M 42.880909,50.372984"
       stroke-width="2"
       stroke-miterlimit="10"
       stroke-linejoin="round"
       stroke-linecap="round"
       stroke="#000"
       fill="none" />
  </g>
</svg>
