<?xml version="1.0" encoding="UTF-8" standalone="no"?>
<svg
   xmlns:dc="http://purl.org/dc/elements/1.1/"
   xmlns:cc="http://creativecommons.org/ns#"
   xmlns:rdf="http://www.w3.org/1999/02/22-rdf-syntax-ns#"
   xmlns:svg="http://www.w3.org/2000/svg"
   xmlns="http://www.w3.org/2000/svg"
   xmlns:sodipodi="http://sodipodi.sourceforge.net/DTD/sodipodi-0.dtd"
   xmlns:inkscape="http://www.inkscape.org/namespaces/inkscape"
   inkscape:export-ydpi="820.40002"
   inkscape:export-xdpi="820.40002"
   inkscape:export-filename="/Users/mike.xiao/Documents/GitHub/HBN_EMA_NIMH2/images/new/thoughtDanger.png"
   inkscape:version="1.0beta2 (2b71d25, 2019-12-03)"
   sodipodi:docname="thoughtDanger.svg"
   version="1.1"
   viewBox="0 0 72 72"
   id="emoji">
  <metadata
     id="metadata26">
    <rdf:RDF>
      <cc:Work
         rdf:about="">
        <dc:format>image/svg+xml</dc:format>
        <dc:type
           rdf:resource="http://purl.org/dc/dcmitype/StillImage" />
        <dc:title></dc:title>
      </cc:Work>
    </rdf:RDF>
  </metadata>
  <defs
     id="defs24" />
  <sodipodi:namedview
     inkscape:current-layer="emoji"
     inkscape:window-maximized="0"
     inkscape:window-y="36"
     inkscape:window-x="169"
     inkscape:cy="36"
     inkscape:cx="36"
     inkscape:zoom="6.3716539"
     showgrid="false"
     id="namedview22"
     inkscape:window-height="660"
     inkscape:window-width="1005"
     inkscape:pageshadow="2"
     inkscape:pageopacity="0"
     guidetolerance="10"
     gridtolerance="10"
     objecttolerance="10"
     borderopacity="1"
     inkscape:document-rotation="0"
     bordercolor="#666666"
     pagecolor="#ffffff" />
  <g
     id="line">
    <path
       id="path10"
       d="m42.82 53.09"
       stroke-width="2"
       stroke-miterlimit="10"
       stroke-linejoin="round"
       stroke-linecap="round"
       stroke="#000"
       fill="none" />
    <path
       id="path12"
       d="m21.49 62.77c3.309 0 6-2.691 6-6s-2.691-6-6-6-6 2.691-6 6 2.691 6 6 6zm0-10c2.206 0 4 1.794 4 4 0 2.206-1.794 4-4 4-2.206 0-4-1.794-4-4 0-2.206 1.794-4 4-4z" />
    <path
       id="path14"
       d="m12.36 66.78c1.728 0 3.135-1.406 3.135-3.135s-1.406-3.135-3.135-3.135-3.135 1.406-3.135 3.135 1.406 3.135 3.135 3.135zm0-4.27c0.6255 0 1.135 0.5088 1.135 1.135 0 0.6259-0.5093 1.135-1.135 1.135s-1.135-0.5088-1.135-1.135c0-0.626 0.5092-1.135 1.135-1.135z" />
    <path
       id="path16"
       d="m42.82 53.09"
       stroke-width="2"
       stroke-miterlimit="10"
       stroke-linejoin="round"
       stroke-linecap="round"
       stroke="#000"
       fill="none" />
    <path
       id="path18"
       d="m17.49 48.58c-1.042-1.779-1.544-3.895-1.31-6.103 0.0786-0.7397 0.2418-1.449 0.4687-2.126-4.569-1.322-7.676-5.758-7.156-10.65 0.5836-5.492 5.509-9.471 11-8.887 0.881 0.0936 1.717 0.3098 2.508 0.6113 1.407-7.636 8.471-13.02 16.32-12.19 6.706 0.7126 11.91 5.74 13.14 12.03 0.3856-0.0038 0.7741 0.0084 1.167 0.0501 5.492 0.5836 9.471 5.509 8.887 11-0.3338 3.141-2.091 5.782-4.558 7.363 0.0658 0.8881 0.066 1.792-0.0315 2.709-0.8755 8.238-8.263 14.21-16.5 13.33-3.578-0.3802-6.725-1.991-9.072-4.364-0.8269 0.6584-1.757 1.187-2.758 1.559"
       stroke-width="2"
       stroke-miterlimit="10"
       stroke-linejoin="round"
       stroke-linecap="round"
       stroke="#000"
       fill="none" />
  </g>
  <g
     transform="matrix(0.05473024,0,0,0.05473024,23.476333,18.996866)"
     id="g187">
    <path
       inkscape:connector-curvature="0"
       style="fill:#d3d3d3"
       d="M 464,472 H 16 V 439.824 C 16,426.664 26.664,416 39.824,416 h 400.352 c 13.16,0 23.824,10.664 23.824,23.824 z"
       id="path93" />
    <path
       inkscape:connector-curvature="0"
       style="fill:#f7ec2f"
       d="M 408,416 H 72 V 232 c 0,-92.784 75.216,-168 168,-168 92.784,0 168,75.216 168,168 z"
       id="path95" />
    <path
       inkscape:connector-curvature="0"
       style="fill:#ed4720"
       d="M 240,128 128,320 h 224 z"
       id="path97" />
    <path
       inkscape:connector-curvature="0"
       d="M 8,439.824 V 472 c 0,4.424 3.576,8 8,8 h 448 c 4.424,0 8,-3.576 8,-8 V 439.824 C 472,422.272 457.728,408 440.176,408 H 416 V 232 C 416,134.952 337.048,56 240,56 142.952,56 64,134.952 64,232 V 408 H 39.824 C 22.272,408 8,422.272 8,439.824 Z M 80,232 c 0,-88.224 71.776,-160 160,-160 88.224,0 160,71.776 160,160 V 408 H 80 Z m -8,192 h 336 32.176 c 8.728,0 15.824,7.096 15.824,15.824 V 464 H 24 V 439.824 C 24,431.096 31.096,424 39.824,424 Z"
       id="path99" />
    <path
       inkscape:connector-curvature="0"
       d="m 246.912,123.968 c -2.872,-4.92 -10.952,-4.92 -13.832,0 l -112,192 c -1.44,2.48 -1.456,5.528 -0.024,8.016 1.432,2.488 4.08,4.016 6.944,4.016 h 224 c 2.864,0 5.504,-1.528 6.936,-4.016 1.432,-2.488 1.416,-5.536 -0.024,-8.016 z M 141.928,312 240,143.872 338.072,312 Z"
       id="path101" />
    <path
       inkscape:connector-curvature="0"
       d="m 232,184 h 16 v 80 h -16 z"
       id="path103" />
    <path
       inkscape:connector-curvature="0"
       d="m 228,288 c 0,6.616 5.384,12 12,12 6.616,0 12,-5.384 12,-12 0,-6.616 -5.384,-12 -12,-12 -6.616,0 -12,5.384 -12,12 z m 16,0 c 0,2.2 -1.8,4 -4,4 -2.2,0 -4,-1.8 -4,-4 0,-2.2 1.8,-4 4,-4 2.2,0 4,1.8 4,4 z"
       id="path105" />
    <path
       inkscape:connector-curvature="0"
       d="m 232,0 h 16 v 40 h -16 z"
       id="path107" />
    <path
       inkscape:connector-curvature="0"
       d="m 292.228,46.04 7.842,-39.216 15.69,3.138 -7.842,39.216 z"
       id="path109" />
    <path
       inkscape:connector-curvature="0"
       d="m 387.579,103.541 33.284,-22.188 8.875,13.314 -33.284,22.188 z"
       id="path111" />
    <path
       inkscape:connector-curvature="0"
       d="M 346.342,62.59 374.62,34.312 385.934,45.626 357.656,73.904 Z"
       id="path113" />
    <path
       inkscape:connector-curvature="0"
       d="m 152.511,12.067 14.983,-5.592 13.991,37.483 -14.983,5.592 z"
       id="path115" />
    <path
       inkscape:connector-curvature="0"
       d="m 56.303,94.657 6.645,-14.546 36.384,16.62 -6.645,14.546 z"
       id="path117" />
    <path
       inkscape:connector-curvature="0"
       d="m 92.203,49.395 11.314,-11.314 28.278,28.278 -11.314,11.314 z"
       id="path119" />
    <g
       id="g121">
</g>
    <g
       id="g123">
</g>
    <g
       id="g125">
</g>
    <g
       id="g127">
</g>
    <g
       id="g129">
</g>
    <g
       id="g131">
</g>
    <g
       id="g133">
</g>
    <g
       id="g135">
</g>
    <g
       id="g137">
</g>
    <g
       id="g139">
</g>
    <g
       id="g141">
</g>
    <g
       id="g143">
</g>
    <g
       id="g145">
</g>
    <g
       id="g147">
</g>
    <g
       id="g149">
</g>
  </g>
</svg>
