<?xml version="1.0" encoding="UTF-8" standalone="no"?>
<svg
   xmlns:dc="http://purl.org/dc/elements/1.1/"
   xmlns:cc="http://creativecommons.org/ns#"
   xmlns:rdf="http://www.w3.org/1999/02/22-rdf-syntax-ns#"
   xmlns:svg="http://www.w3.org/2000/svg"
   xmlns="http://www.w3.org/2000/svg"
   xmlns:sodipodi="http://sodipodi.sourceforge.net/DTD/sodipodi-0.dtd"
   xmlns:inkscape="http://www.inkscape.org/namespaces/inkscape"
   inkscape:version="1.0beta2 (2b71d25, 2019-12-03)"
   sodipodi:docname="tiktok.svg"
   id="svg1668"
   version="1.1"
   width="512pt"
   viewBox="-32 0 512 512"
   height="512pt">
  <metadata
     id="metadata1674">
    <rdf:RDF>
      <cc:Work
         rdf:about="">
        <dc:format>image/svg+xml</dc:format>
        <dc:type
           rdf:resource="http://purl.org/dc/dcmitype/StillImage" />
        <dc:title />
      </cc:Work>
    </rdf:RDF>
  </metadata>
  <defs
     id="defs1672" />
  <sodipodi:namedview
     inkscape:current-layer="g1483"
     inkscape:window-maximized="0"
     inkscape:window-y="77"
     inkscape:window-x="420"
     inkscape:cy="341.33333"
     inkscape:cx="341.33333"
     inkscape:zoom="0.88962505"
     showgrid="false"
     id="namedview1670"
     inkscape:window-height="792"
     inkscape:window-width="972"
     inkscape:pageshadow="2"
     inkscape:pageopacity="0"
     guidetolerance="10"
     gridtolerance="10"
     objecttolerance="10"
     borderopacity="1"
     inkscape:document-rotation="0"
     bordercolor="#666666"
     pagecolor="#ffffff" />
  <g
     id="g1483">
    <g
       transform="matrix(3.2251211,0.10033834,-0.10033834,3.2251211,-287.16428,-321.99134)"
       id="g1492">
      <g
         id="g1487"
         transform="rotate(-53.543281,132.65163,182.98751)">
        <path
           style="fill:#ff94fa;fill-opacity:1;stroke-width:0.253642"
           inkscape:connector-curvature="0"
           id="path1666"
           d="m 221.59229,218.29949 c -8.5369,-11.00648 -6.90659,-26.61241 3.63419,-34.78813 1.62501,-1.26045 1.87475,-3.65798 0.55934,-5.35392 l -12.76129,-16.45295 c -1.31603,-1.69685 -3.69977,-2.05052 -5.32481,-0.79012 l -64.60094,50.10608 c -6.19668,4.80627 -15.32093,3.45244 -20.34023,-3.01884 -5.01862,-6.47044 -4.06019,-15.64469 2.13647,-20.45098 6.19748,-4.80692 15.32171,-3.45302 20.34035,3.01743 1.31616,1.69681 3.69984,2.05049 5.3248,0.79014 L 166.317,179.13682 c 1.62427,-1.25983 1.87546,-3.65707 0.55928,-5.35399 -14.68299,-18.93054 -41.37845,-22.89099 -59.50806,-8.82923 -18.12957,14.06174 -20.93352,40.90264 -6.25053,59.83319 14.68299,18.93057 41.3783,22.89238 59.50785,8.83063 L 189.2209,211.4382 c 1.62037,8.53604 5.2676,16.60323 10.73048,23.64651 1.316,1.69685 3.69978,2.05053 5.32478,0.79012 l 15.75683,-12.22137 c 1.62428,-1.25982 1.87546,-3.65707 0.55937,-5.35396 z m -18.01773,9.05487 c -4.56438,-6.96374 -7.20067,-14.89376 -7.66762,-23.14955 -0.08,-1.43534 -0.94752,-2.73834 -2.24844,-3.3735 -1.29808,-0.63569 -2.80955,-0.49621 -3.91359,0.36011 l -33.8849,26.28197 c -14.88491,11.54514 -36.80314,8.29217 -48.8583,-7.25041 -12.05517,-15.54251 -9.75295,-37.58014 5.13198,-49.12525 13.89121,-10.77437 33.90785,-8.66161 46.31638,4.30057 l -9.96621,7.73002 c -7.91441,-7.31491 -19.91512,-8.26741 -28.35436,-1.72171 -9.44136,7.32297 -10.90231,21.30095 -3.25584,31.15945 7.6471,9.85929 21.54915,11.9214 30.99052,4.59845 l 61.65893,-47.82414 8.13483,10.48808 c -10.34731,10.27937 -12.07736,26.84037 -4.16089,39.82979 z m 0,0"
           inkscape:transform-center-x="0.50370183"
           inkscape:transform-center-y="0.15995823" />
        <path
           inkscape:transform-center-y="0.15995823"
           inkscape:transform-center-x="0.50370183"
           d="m 220.31737,224.39382 c -8.5369,-11.00649 -6.9066,-26.61241 3.63419,-34.78813 1.625,-1.26045 1.87475,-3.65798 0.55934,-5.35392 l -12.76129,-16.45295 c -1.31604,-1.69686 -3.69978,-2.05053 -5.32482,-0.79012 l -64.60094,50.10607 c -6.19667,4.80627 -15.32093,3.45245 -20.34023,-3.01884 -5.01862,-6.47043 -4.06019,-15.64469 2.13647,-20.45097 6.19749,-4.80693 15.32171,-3.45302 20.34035,3.01742 1.31616,1.69681 3.69984,2.0505 5.3248,0.79015 l 15.75683,-12.22138 c 1.62427,-1.25984 1.87546,-3.65707 0.55936,-5.35399 -14.68307,-18.93055 -41.37853,-22.89099 -59.50814,-8.82923 -18.12957,14.06174 -20.93352,40.90264 -6.25053,59.83319 14.68299,18.93057 41.3783,22.89238 59.50785,8.83063 l 28.59536,-22.17923 c 1.62037,8.53604 5.2676,16.60324 10.73048,23.64652 1.31601,1.69685 3.69978,2.05053 5.32479,0.79011 l 15.75683,-12.22136 c 1.62427,-1.25983 1.87546,-3.65708 0.55936,-5.35397 z m -18.01773,9.05486 c -4.56438,-6.96373 -7.20068,-14.89375 -7.66764,-23.14954 -0.08,-1.43535 -0.94752,-2.73834 -2.24843,-3.3735 -1.29808,-0.6357 -2.80955,-0.49621 -3.91358,0.36011 l -33.88491,26.28196 c -14.88491,11.54515 -36.80314,8.29218 -48.8583,-7.2504 -12.05517,-15.54251 -9.75295,-37.58014 5.13198,-49.12525 13.89122,-10.77438 33.90786,-8.66161 46.31638,4.30056 l -9.9662,7.73003 c -7.91442,-7.31491 -19.91512,-8.26742 -28.35437,-1.72171 -9.44136,7.32297 -10.9023,21.30095 -3.25584,31.15944 7.6471,9.8593 21.54915,11.92141 30.99053,4.59845 l 61.65892,-47.82413 8.13483,10.48808 c -10.34731,10.27937 -12.07736,26.84037 -4.1609,39.82978 z m 0,0"
           id="path1666-4"
           inkscape:connector-curvature="0"
           style="fill:#84eaff;fill-opacity:1;stroke-width:0.253642" />
      </g>
    </g>
  </g>
</svg>
