<?xml version="1.0" encoding="UTF-8" standalone="no"?>
<svg
   xmlns:dc="http://purl.org/dc/elements/1.1/"
   xmlns:cc="http://creativecommons.org/ns#"
   xmlns:rdf="http://www.w3.org/1999/02/22-rdf-syntax-ns#"
   xmlns:svg="http://www.w3.org/2000/svg"
   xmlns="http://www.w3.org/2000/svg"
   xmlns:sodipodi="http://sodipodi.sourceforge.net/DTD/sodipodi-0.dtd"
   xmlns:inkscape="http://www.inkscape.org/namespaces/inkscape"
   inkscape:version="1.0beta2 (2b71d25, 2019-12-03)"
   inkscape:export-ydpi="13.500001"
   inkscape:export-xdpi="13.500001"
   inkscape:export-filename="/Users/mike.xiao/Documents/GitHub/HBN_EMA_NIMH2/images/new/work72.png"
   sodipodi:docname="work.svg"
   height="512"
   width="512"
   xml:space="preserve"
   style="enable-background:new 0 0 512 512;"
   viewBox="0 0 512 512"
   y="0px"
   x="0px"
   id="Layer_1"
   version="1.1"><metadata
   id="metadata34"><rdf:RDF><cc:Work
       rdf:about=""><dc:format>image/svg+xml</dc:format><dc:type
         rdf:resource="http://purl.org/dc/dcmitype/StillImage" /></cc:Work></rdf:RDF></metadata><defs
   id="defs32" /><sodipodi:namedview
   inkscape:current-layer="Layer_1"
   inkscape:window-maximized="0"
   inkscape:window-y="46"
   inkscape:window-x="216"
   inkscape:cy="256"
   inkscape:cx="256"
   inkscape:zoom="0.82042052"
   showgrid="false"
   id="namedview30"
   inkscape:window-height="622"
   inkscape:window-width="961"
   inkscape:pageshadow="2"
   inkscape:pageopacity="0"
   guidetolerance="10"
   gridtolerance="10"
   objecttolerance="10"
   borderopacity="1"
   inkscape:document-rotation="0"
   bordercolor="#666666"
   pagecolor="#ffffff" />
<g
   transform="matrix(0.81669081,0,0,0.81669081,48.755485,43.879936)"
   id="XMLID_2603_">
	<g
   id="XMLID_1212_">
		<path
   inkscape:connector-curvature="0"
   d="m 295.889,294.045 v 12.523 l -52.211,11.453 c -22.481,4.932 -38.499,24.845 -38.499,47.86 V 462 h 236 v -96.091 c 0,-23.028 -16.036,-42.949 -38.532,-47.867 l -52.478,-11.474 v -12.611"
   style="fill:#5ddef5"
   id="XMLID_1221_" />
		<polygon
   points="323.029,379.148 295.889,306.568 350.169,306.568 "
   style="fill:#ffffff"
   id="XMLID_2604_" />
		<path
   inkscape:connector-curvature="0"
   d="m 323.179,146.929 v 0 c -31.749,0 -57.487,25.738 -57.487,57.487 v 13.839 h 28.107 c 18.684,0 36.409,-8.273 48.41,-22.593 v 0 l 38.456,22.593 v -13.839 c 10e-4,-31.749 -25.737,-57.487 -57.486,-57.487 z"
   style="fill:#afabb0"
   id="XMLID_1217_" />
		<path
   inkscape:connector-curvature="0"
   d="m 329.827,206.958 c -10.473,7.274 -23.014,11.297 -36.027,11.297 h -28.107 v 24.417 c 0,31.749 25.738,57.487 57.487,57.487 v 0 c 31.749,0 57.487,-25.738 57.487,-57.487 v -24.417 l -19.228,-11.297 -19.228,-11.297 z"
   style="fill:#fed2a4"
   id="XMLID_1216_" />
	</g>
	<rect
   height="40"
   width="492"
   style="fill:#ffbe52"
   y="462"
   x="10"
   id="XMLID_2502_" />
	<circle
   r="82.544998"
   cy="92.544998"
   cx="92.544998"
   style="fill:#93e7f8"
   id="XMLID_2195_" />
	<rect
   height="160"
   width="216"
   style="fill:#c7c4c8"
   y="227"
   x="10"
   id="XMLID_2533_" />
	<path
   inkscape:connector-curvature="0"
   d="M 138,426 H 98 v -99 c 0,-11.046 8.954,-20 20,-20 v 0 c 11.046,0 20,8.954 20,20 z"
   style="fill:#5ddef5"
   id="XMLID_1029_" />
	<path
   inkscape:connector-curvature="0"
   d="M 170,462 H 66 v -15 c 0,-11.598 9.402,-21 21,-21 h 62 c 11.598,0 21,9.402 21,21 z"
   style="fill:#5ddef5"
   id="XMLID_1028_" />
	<rect
   height="40"
   width="128"
   style="fill:#ffffff"
   y="422"
   x="374"
   id="XMLID_1222_" />
	<rect
   height="40"
   width="128"
   style="fill:#e8e7e9"
   y="382"
   x="374"
   id="XMLID_1227_" />
	<rect
   height="40"
   width="128"
   style="fill:#ffffff"
   y="342"
   x="374"
   id="XMLID_1229_" />
	<g
   id="XMLID_636_">
		<path
   inkscape:connector-curvature="0"
   d="m 92.545,185.09 c 51.029,0 92.545,-41.516 92.545,-92.545 C 185.09,41.516 143.574,0 92.545,0 41.516,0 0,41.516 0,92.545 0,143.574 41.516,185.09 92.545,185.09 Z m 0,-165.09 c 40.001,0 72.545,32.544 72.545,72.545 0,40.001 -32.544,72.545 -72.545,72.545 C 52.544,165.09 20,132.546 20,92.545 20,52.544 52.544,20 92.545,20 Z"
   id="XMLID_1699_" />
		<path
   inkscape:connector-curvature="0"
   d="m 100.501,114.526 c 1.952,1.945 4.506,2.917 7.06,2.917 2.564,0 5.13,-0.98 7.083,-2.94 3.898,-3.912 3.888,-10.244 -0.023,-14.143 L 102.613,88.392 V 44 c 0,-5.522 -4.478,-10 -10,-10 -5.522,0 -10,4.478 -10,10 v 48.545 c 0,2.658 1.059,5.207 2.94,7.083 z"
   id="XMLID_1701_" />
		<path
   inkscape:connector-curvature="0"
   d="m 502,332 h -61.547 c -8.46,-12.034 -21.172,-20.558 -35.671,-23.728 l -43.964,-9.613 c 17.991,-12.134 29.847,-32.702 29.847,-55.988 v -24.417 -11.297 -2.542 c 0,-37.212 -30.274,-67.486 -67.486,-67.486 -37.212,0 -67.486,30.274 -67.486,67.486 v 2.542 11.297 24.417 c 0,23.256 11.825,43.803 29.778,55.943 l -43.936,9.639 c -1.877,0.412 -3.722,0.917 -5.535,1.502 V 227 c 0,-5.522 -4.478,-10 -10,-10 h -68 c -5.522,0 -10,4.478 -10,10 0,5.522 4.478,10 10,10 h 58 v 140 h -68 v -50 c 0,-16.542 -13.458,-30 -30,-30 -16.542,0 -30,13.458 -30,30 v 50 H 20 V 237 h 58 c 5.522,0 10,-4.478 10,-10 0,-5.522 -4.478,-10 -10,-10 H 10 c -5.522,0 -10,4.478 -10,10 v 160 c 0,5.522 4.478,10 10,10 h 78 v 19 h -1 c -17.094,0 -31,13.906 -31,31 v 5 H 10 c -5.522,0 -10,4.478 -10,10 v 40 c 0,5.522 4.478,10 10,10 h 492 c 5.522,0 10,-4.478 10,-10 v -40 -40 -40 -40 c 0,-5.522 -4.478,-10 -10,-10 z M 441.179,452 H 384 v -20 h 108 v 20 z M 492,412 H 384 v -20 h 108 z m 0,-40 H 384 v -20 h 50.874 c 0.03,0 0.06,0.006 0.089,0.006 0.031,0 0.063,-0.006 0.094,-0.006 H 492 Z M 275.692,204.416 c 0,-26.184 21.303,-47.486 47.486,-47.486 24.933,0 45.439,19.314 47.342,43.767 L 347.274,187.04 c -4.211,-2.475 -9.593,-1.544 -12.73,2.199 -10.126,12.085 -24.977,19.017 -40.744,19.017 h -18.107 v -1.297 -2.543 z m 0,23.839 H 293.8 c 18.825,0 36.7,-7.179 50.205,-19.94 l 26.66,15.663 v 18.694 c 0,26.184 -21.303,47.486 -47.486,47.486 -26.183,0 -47.486,-21.303 -47.486,-47.486 v -14.417 z m 63.152,80.048 -15.815,42.294 -15.844,-42.37 c 5.13,1.252 10.483,1.931 15.993,1.931 5.394,0 10.635,-0.654 15.666,-1.855 z M 226,397 c 5.522,0 10,-4.478 10,-10 v -55.623 c 3.085,-1.626 6.374,-2.832 9.82,-3.588 l 43.74,-9.596 24.103,64.457 c 1.461,3.907 5.194,6.497 9.366,6.497 4.172,0 7.905,-2.59 9.366,-6.498 l 24.104,-64.461 44.011,9.623 c 3.863,0.844 7.529,2.274 10.902,4.188 H 374 c -5.522,0 -10,4.478 -10,10 v 40 40 30 H 215.179 v -55 H 226 Z m -30.821,0 v 55 H 180 v -5 c 0,-17.094 -13.906,-31 -31,-31 h -1 V 397 Z M 108,327 c 0,-5.514 4.486,-10 10,-10 5.514,0 10,4.486 10,10 v 89 H 108 Z M 76,447 c 0,-6.065 4.935,-11 11,-11 h 11 40 11 c 6.065,0 11,4.935 11,11 v 5 H 76 Z m 416,45 H 20 v -20 h 472 z"
   id="XMLID_1706_" />
		<path
   inkscape:connector-curvature="0"
   d="m 110.93,219.93 c -1.86,1.86 -2.93,4.44 -2.93,7.07 0,2.63 1.069,5.21 2.93,7.069 1.86,1.86 4.44,2.931 7.07,2.931 2.63,0 5.21,-1.07 7.069,-2.931 C 126.93,232.21 128,229.63 128,227 c 0,-2.63 -1.07,-5.21 -2.931,-7.07 C 123.21,218.07 120.63,217 118,217 c -2.63,0 -5.21,1.069 -7.07,2.93 z"
   id="XMLID_1768_" />
	</g>
</g>















</svg>
