<?xml version="1.0" encoding="UTF-8" standalone="no"?>
<svg
   xmlns:dc="http://purl.org/dc/elements/1.1/"
   xmlns:cc="http://creativecommons.org/ns#"
   xmlns:rdf="http://www.w3.org/1999/02/22-rdf-syntax-ns#"
   xmlns:svg="http://www.w3.org/2000/svg"
   xmlns="http://www.w3.org/2000/svg"
   xmlns:sodipodi="http://sodipodi.sourceforge.net/DTD/sodipodi-0.dtd"
   xmlns:inkscape="http://www.inkscape.org/namespaces/inkscape"
   id="emoji"
   viewBox="0 0 72 72"
   version="1.1"
   sodipodi:docname="zzzBedTimer.svg"
   inkscape:version="1.0beta2 (2b71d25, 2019-12-03)">
  <metadata
     id="metadata44">
    <rdf:RDF>
      <cc:Work
         rdf:about="">
        <dc:format>image/svg+xml</dc:format>
        <dc:type
           rdf:resource="http://purl.org/dc/dcmitype/StillImage" />
        <dc:title></dc:title>
      </cc:Work>
    </rdf:RDF>
  </metadata>
  <defs
     id="defs42" />
  <sodipodi:namedview
     pagecolor="#ffffff"
     bordercolor="#666666"
     inkscape:document-rotation="0"
     borderopacity="1"
     objecttolerance="10"
     gridtolerance="10"
     guidetolerance="10"
     inkscape:pageopacity="0"
     inkscape:pageshadow="2"
     inkscape:window-width="1086"
     inkscape:window-height="818"
     id="namedview40"
     showgrid="false"
     inkscape:zoom="9.0555556"
     inkscape:cx="36"
     inkscape:cy="36"
     inkscape:window-x="149"
     inkscape:window-y="84"
     inkscape:window-maximized="0"
     inkscape:current-layer="emoji" />
  <g
     transform="matrix(0.62405129,0,0,0.62405129,29.117442,1.6691322)"
     id="g999">
    <g
       id="color-5">
      <circle
         cx="35.904701"
         cy="36.013802"
         r="27.0345"
         fill="#fcea2b"
         id="circle952" />
      <circle
         cx="36.005798"
         cy="36.0369"
         r="21.870899"
         fill="#fff"
         id="circle954" />
    </g>
    <g
       id="line-2">
      <path
         inkscape:connector-curvature="0"
         d="M 55.1092,25.38 A 21.8626,21.8626 0 1 1 47.0154,17.1349"
         fill="none"
         stroke="#000"
         stroke-linecap="round"
         stroke-linejoin="round"
         stroke-width="2"
         id="path957" />
      <path
         inkscape:connector-curvature="0"
         d="M 62.9392,35.9973 A 27.0463,27.0463 0 1 1 57.6742,19.9591"
         fill="none"
         stroke="#000"
         stroke-linecap="round"
         stroke-linejoin="round"
         stroke-width="2"
         id="path959" />
      <polyline
         points="47.394 21.578 58.432 20.418 57.272 9.38"
         fill="none"
         stroke="#000"
         stroke-linecap="round"
         stroke-linejoin="round"
         stroke-width="2"
         id="polyline961" />
      <polyline
         points="49.975 36.354 35.987 36.354 35.891 36.354 35.891 18.52"
         fill="none"
         stroke="#000"
         stroke-linecap="round"
         stroke-linejoin="round"
         stroke-width="2"
         id="polyline963" />
      <line
         x1="35.890598"
         y1="53.910599"
         x2="35.890598"
         y2="50.066101"
         fill="none"
         stroke="#000"
         stroke-linecap="round"
         stroke-linejoin="round"
         stroke-width="2"
         id="line965" />
      <polyline
         points="21.143 36.354 18.086 36.354 18.086 36.354"
         fill="none"
         stroke="#000"
         stroke-linecap="round"
         stroke-linejoin="round"
         stroke-width="2"
         id="polyline967" />
      <circle
         cx="35.890598"
         cy="36.353802"
         r="3.7370999"
         id="circle969" />
      <circle
         cx="48.693802"
         cy="47.937099"
         r="1.4802001"
         id="circle971" />
      <circle
         cx="23.087299"
         cy="24.717199"
         r="1.4802001"
         id="circle973" />
      <circle
         cx="23.087299"
         cy="47.937099"
         r="1.4802001"
         id="circle975" />
    </g>
  </g>
  <g
     id="hair" />
  <g
     id="skin" />
  <g
     id="skin-shadow" />
  <g
     id="g60"
     transform="translate(-0.33128834,11.153374)">
    <g
       id="color">
      <rect
         id="rect10"
         stroke="none"
         height="11"
         width="62"
         fill="#A57939"
         y="38"
         x="5" />
      <path
         id="path12"
         stroke="none"
         d="m 5,39 v -4 c 0,-1.6504 1.3496,-3 3,-3 h 56 c 1.6504,0 3,1.3496 3,3 v 4"
         fill="#D0CFCE"
         inkscape:connector-curvature="0" />
      <path
         id="path14"
         stroke="none"
         d="M 15.0762,25.6748 C 15.0264,25.458 15,25.2319 15,25 c 0,-1.6567 1.3438,-3 3,-3 1.6563,0 3,1.3433 3,3 0,0.3926 -0.0752,0.7676 -0.2129,1.1113"
         fill="#FCEA2B"
         inkscape:connector-curvature="0" />
      <path
         id="path16"
         stroke="none"
         d="M 22,32 V 22 c 0,0 0.2109,-2.1055 2,-3 2,-1 6,0 9,-1 6.7891,-2.2632 12.5938,3.3564 17,6 5,3 7,4.8535 7,8"
         fill="#92D3F5"
         inkscape:connector-curvature="0" />
      <path
         id="path18"
         stroke="none"
         d="M 5.125,27.6875 C 5.125,27.6875 10,24 22,27 v 4 L 7,32 6.1875,33.25 5.125,31.625 5,28 Z"
         fill="#92D3F5"
         inkscape:connector-curvature="0" />
    </g>
    <g
       id="line">
      <rect
         id="rect24"
         height="10.917"
         width="62"
         stroke-miterlimit="10"
         stroke-linejoin="round"
         stroke-linecap="round"
         stroke-width="2"
         stroke="#000000"
         fill="none"
         y="38.083"
         x="5" />
      <path
         id="path26"
         d="m 5,39 v -4 c 0,-1.6504 1.3496,-3 3,-3 h 56 c 1.6504,0 3,1.3496 3,3 v 4"
         stroke-miterlimit="10"
         stroke-linejoin="round"
         stroke-linecap="round"
         stroke-width="2"
         stroke="#000000"
         fill="none"
         inkscape:connector-curvature="0" />
      <line
         id="line28"
         y2="17"
         x2="5"
         y1="55"
         x1="5"
         stroke-miterlimit="10"
         stroke-linejoin="round"
         stroke-linecap="round"
         stroke-width="2"
         stroke="#000000"
         fill="none" />
      <line
         id="line30"
         y2="55"
         x2="67"
         y1="27"
         x1="67"
         stroke-miterlimit="10"
         stroke-linejoin="round"
         stroke-linecap="round"
         stroke-width="2"
         stroke="#000000"
         fill="none" />
      <path
         id="path32"
         d="M 15.0762,25.6748 C 15.0264,25.458 15,25.2319 15,25 c 0,-1.6567 1.3438,-3 3,-3 1.6563,0 3,1.3433 3,3 0,0.3926 -0.0752,0.7676 -0.2129,1.1113"
         stroke-miterlimit="10"
         stroke-linejoin="round"
         stroke-linecap="round"
         stroke-width="2"
         stroke="#000000"
         fill="none"
         inkscape:connector-curvature="0" />
      <path
         id="path34"
         d="M 22,32 V 22 c 0,0 0.2109,-2.1055 2,-3 2,-1 6,0 9,-1 6.7891,-2.2632 12.5938,3.3564 17,6 5,3 7,4.8535 7,8"
         stroke-miterlimit="10"
         stroke-linejoin="round"
         stroke-linecap="round"
         stroke-width="2"
         stroke="#000000"
         fill="none"
         inkscape:connector-curvature="0" />
      <path
         id="path36"
         d="M 5.042,27.9175 C 6.8965,26.0625 14.292,24.876 21,27"
         stroke-miterlimit="10"
         stroke-linejoin="round"
         stroke-linecap="round"
         stroke-width="2"
         stroke="#000000"
         fill="none"
         inkscape:connector-curvature="0" />
    </g>
  </g>
  <g
     transform="matrix(0.32215398,0,0,0.32215398,8.3961141,8.557685)"
     id="line-7">
    <polyline
       fill="none"
       stroke="#000000"
       stroke-linecap="round"
       stroke-linejoin="round"
       stroke-miterlimit="10"
       stroke-width="6"
       points="49,8 62.1429,8 49,31 62.1429,31"
       id="polyline1001" />
    <polyline
       fill="none"
       stroke="#000000"
       stroke-linecap="round"
       stroke-linejoin="round"
       stroke-miterlimit="10"
       stroke-width="6"
       points="28.1429,33.75 37,33.75 28.1429,49.25 37,49.25"
       id="polyline1003" />
    <polyline
       fill="none"
       stroke="#000000"
       stroke-linecap="round"
       stroke-linejoin="round"
       stroke-miterlimit="10"
       stroke-width="4.6452"
       points="9.1429,52.5 16,52.5 9.1429,64.5 16,64.5"
       id="polyline1005" />
  </g>
</svg>
