<svg id="Capa_1" enable-background="new 0 0 512 512" height="512" viewBox="0 0 512 512" width="512" xmlns="http://www.w3.org/2000/svg"><g><g><path d="m256.079 220.93c96.633 0 183.062 49.166 240.612 92.657 3.466-3.982 5.288-6.267 5.288-6.267s-110.093-138.013-245.9-138.013-245.9 138.013-245.9 138.013 1.823 2.285 5.288 6.267c57.551-43.491 143.979-92.657 240.612-92.657z" fill="#ffdcd5"/><path d="m140.629 243.063c-48.967 18.34-91.89 45.38-125.161 70.524-3.464-3.979-5.286-6.264-5.288-6.267s110.093 138.014 245.9 138.014 245.9-138.014 245.9-138.014c-.002.003-1.825 2.288-5.288 6.267-30.673-23.18-69.548-47.971-113.8-66.072" fill="#faf7f5"/><path d="m256.079 220.929c-40.072 0-78.39 8.455-113.622 21.454-2.424 9.595-3.712 19.643-3.712 29.991 0 67.419 54.654 122.072 122.072 122.072s122.072-54.654 122.072-122.072c0-8.916-.956-17.609-2.771-25.982-38.044-15.242-79.981-25.463-124.039-25.463z" fill="#b8ecbc"/><g><path d="m287.585 222.643c-10.362-1.118-20.872-1.713-31.505-1.713-6.737 0-13.423.239-20.054.699-18.757 9.181-31.673 28.455-31.673 50.747 0 31.186 25.281 56.467 56.467 56.467s56.467-25.281 56.467-56.467c-.002-21.502-12.019-40.196-29.702-49.733z" fill="#d1a184"/></g></g><g><path d="m256.079 179.301c-4.239 0-8.089-2.779-9.458-6.783-1.367-3.996.017-8.576 3.374-11.14 3.232-2.469 7.73-2.712 11.221-.637 3.588 2.133 5.473 6.437 4.659 10.523-.919 4.611-5.094 8.037-9.796 8.037z"/><g><g><g><path d="m413.71 174.058h-34.452c-3.667 0-7.041-2.009-8.788-5.233s-1.589-7.146.413-10.219l23.581-36.19h-14.147c-5.521 0-9.996-4.476-9.996-9.996s4.475-9.996 9.996-9.996h32.59c3.668 0 7.041 2.009 8.788 5.233s1.589 7.147-.413 10.219l-23.581 36.19h16.008c5.521 0 9.996 4.476 9.996 9.996.001 5.52-4.474 9.996-9.995 9.996z"/></g></g><g><g><path d="m485.09 143.438h-44.547c-3.668 0-7.041-2.009-8.789-5.233-1.747-3.224-1.589-7.147.413-10.219l33.441-51.323h-23.697c-5.521 0-9.996-4.476-9.996-9.996s4.475-9.996 9.996-9.996h42.141c3.668 0 7.041 2.009 8.789 5.233 1.747 3.224 1.589 7.146-.414 10.219l-33.441 51.323h26.103c5.521 0 9.996 4.476 9.996 9.996.001 5.521-4.474 9.996-9.995 9.996z"/></g></g></g><path d="m509.696 313.676c3.055-3.661 3.074-8.982.042-12.662-.034-.041-.059-.071-.075-.091-2.033-2.527-23.362-28.69-58.26-58.115-33.336-28.107-85.788-64.449-146.359-77.963l-1.365-.301c-5.398-1.16-10.716 2.262-11.882 7.658-1.167 5.396 2.262 10.716 7.658 11.883l1.235.271c56.469 12.598 105.935 46.896 137.487 73.45 6.528 5.493 12.58 10.892 18.106 16.039-23.084-14.169-46.364-26.075-69.608-35.582-.483-.198-.973-.354-1.465-.472-.436-.258-.894-.484-1.372-.676-31.95-12.801-63.696-20.952-94.761-24.356-.14-.021-.28-.04-.421-.055-6.617-.714-13.26-1.214-19.86-1.496-.039-.002-.078-.003-.118-.005-.261-.011-.522-.022-.782-.032-.106-.004-.212-.008-.319-.012-.197-.008-.395-.015-.592-.022-.181-.007-.362-.013-.544-.02-.132-.005-.264-.009-.396-.014-.216-.007-.431-.014-.647-.021-.112-.003-.224-.007-.337-.01-.246-.008-.493-.015-.739-.021-.077-.002-.155-.004-.232-.007-.262-.007-.524-.014-.786-.02-.073-.002-.146-.004-.219-.005-.29-.007-.58-.013-.87-.02-.035-.001-.07-.002-.105-.002-.293-.006-.586-.012-.879-.017-.047-.001-.094-.002-.141-.003-.279-.005-.558-.009-.837-.013-.058-.001-.115-.002-.173-.003-.266-.004-.531-.007-.796-.01-.071-.001-.143-.002-.214-.003-.235-.002-.47-.004-.706-.006-.102-.001-.203-.002-.305-.002-.661-.004-1.322-.007-1.982-.007-.388 0-.776.001-1.164.003-.087 0-.174.001-.261.001-.354.002-.709.004-1.063.007-.037.001-.074.001-.112.001-.397.003-.794.008-1.192.013-.065.001-.131.002-.196.003-.336.005-.672.01-1.008.015-.079.001-.158.002-.237.004-.378.007-.755.014-1.133.022-.096.002-.193.004-.289.007-.281.006-.563.013-.845.02-.141.004-.281.007-.422.011-.256.007-.512.014-.768.022-.313.009-.626.019-.94.029-.092.003-.184.006-.276.009-3.612.121-7.235.306-10.842.556-.098.007-.195.015-.293.025-31.414 2.219-63.627 9.363-96.043 21.324-.313.116-.619.246-.916.391-.321.085-.641.187-.96.306-27.021 10.121-54.108 23.497-80.963 39.962 35.028-32.52 91.245-75.304 156.252-89.515 5.354-1.17 9.036-6.355 7.991-11.734-1.072-5.522-6.465-9.061-11.934-7.868-60.927 13.232-113.73 49.672-147.297 77.912-35.177 29.594-56.676 55.978-58.682 58.472-.019.023-.053.061-.099.113-3.192 3.573-3.18 8.95-.008 12.541.041.046.074.085.099.114 2.276 2.832 29.668 36.467 73.595 70.527 26.482 20.534 53.487 36.916 80.263 48.692 33.812 14.871 67.369 22.411 99.74 22.411s65.928-7.54 99.74-22.411c26.776-11.777 53.78-28.159 80.263-48.692 43.927-34.06 71.319-67.695 73.595-70.527zm-202.407-41.301c0 25.624-20.846 46.47-46.471 46.47s-46.471-20.846-46.471-46.47c0-17.26 9.296-32.763 24.389-40.904 3.036-.19 6.063-.33 9.081-.421.154-.004.308-.009.462-.014l.429-.012c.251-.007.502-.013.753-.019.059-.001.118-.003.178-.004.339-.008.678-.015 1.017-.022.037-.001.073-.001.11-.002.299-.006.597-.011.896-.016.064-.001.127-.002.191-.003.665-.01 1.328-.018 1.991-.024.082-.001.164-.001.245-.002.251-.002.502-.003.753-.004.088 0 .177-.001.265-.001.324-.001.648-.002.972-.002.396 0 .792.001 1.188.003 2.522.011 5.058.057 7.603.138.155.005.311.01.466.016.133.004.266.009.399.013 6.217.218 12.473.646 18.763 1.283 14.106 8.364 22.791 23.518 22.791 39.997zm-101.842-36.903c-7.122 10.679-11.091 23.416-11.091 36.904 0 36.647 29.815 66.462 66.463 66.462s66.463-29.815 66.463-66.462c0-12.534-3.513-24.531-9.836-34.816 17.794 3.777 35.793 9.159 53.899 16.127 1.03 6.149 1.551 12.414 1.551 18.69 0 61.799-50.277 112.076-112.077 112.076s-112.076-50.276-112.076-112.076c0-7.565.755-15.092 2.247-22.444 18.301-6.461 36.494-11.288 54.457-14.461zm218.385 132.955c-39.367 30.525-100.426 66.91-167.753 66.91-67.171 0-128.097-36.228-167.379-66.621-26.124-20.211-46.433-40.615-58.454-53.644 32.773-23.844 66.062-42.904 99.255-56.835-.499 4.685-.751 9.406-.751 14.138 0 72.822 59.245 132.067 132.068 132.067s132.068-59.245 132.068-132.067c0-3.286-.122-6.571-.363-9.843 29.936 13.479 59.913 31.097 89.395 52.543-11.943 12.951-32.09 33.195-58.086 53.352z"/></g></g></svg>