<?xml version="1.0" encoding="iso-8859-1"?>
<!-- Generator: Adobe Illustrator 19.0.0, SVG Export Plug-In . SVG Version: 6.00 Build 0)  -->
<svg version="1.1" id="Capa_1" xmlns="http://www.w3.org/2000/svg" xmlns:xlink="http://www.w3.org/1999/xlink" x="0px" y="0px"
	 viewBox="0 0 480 480" style="enable-background:new 0 0 480 480;" xml:space="preserve">
<path style="fill:#D3D3D3;" d="M464,472H16v-32.176C16,426.664,26.664,416,39.824,416h400.352c13.16,0,23.824,10.664,23.824,23.824
	V472z"/>
<path style="fill:#F7EC2F;" d="M408,416H72V232c0-92.784,75.216-168,168-168s168,75.216,168,168V416z"/>
<path style="fill:#ED4720;" d="M240,128L128,320h224L240,128z"/>
<path d="M8,439.824V472c0,4.424,3.576,8,8,8h448c4.424,0,8-3.576,8-8v-32.176C472,422.272,457.728,408,440.176,408H416V232
	c0-97.048-78.952-176-176-176S64,134.952,64,232v176H39.824C22.272,408,8,422.272,8,439.824z M80,232c0-88.224,71.776-160,160-160
	s160,71.776,160,160v176H80V232z M72,424h336h32.176c8.728,0,15.824,7.096,15.824,15.824V464H24v-24.176
	C24,431.096,31.096,424,39.824,424H72z"/>
<path d="M246.912,123.968c-2.872-4.92-10.952-4.92-13.832,0l-112,192c-1.44,2.48-1.456,5.528-0.024,8.016S125.136,328,128,328h224
	c2.864,0,5.504-1.528,6.936-4.016s1.416-5.536-0.024-8.016L246.912,123.968z M141.928,312L240,143.872L338.072,312H141.928z"/>
<path d="M232,184h16v80h-16V184z"/>
<path d="M228,288c0,6.616,5.384,12,12,12s12-5.384,12-12s-5.384-12-12-12S228,281.384,228,288z M244,288c0,2.2-1.8,4-4,4s-4-1.8-4-4
	s1.8-4,4-4C242.2,284,244,285.8,244,288z"/>
<path d="M232,0h16v40h-16V0z"/>
<path d="M292.228,46.04l7.842-39.216l15.69,3.138l-7.842,39.216L292.228,46.04z"/>
<path d="M387.579,103.541l33.284-22.188l8.875,13.314l-33.284,22.188L387.579,103.541z"/>
<path d="M346.342,62.59l28.278-28.278l11.314,11.314l-28.278,28.278L346.342,62.59z"/>
<path d="M152.511,12.067l14.983-5.592l13.991,37.483l-14.983,5.592L152.511,12.067z"/>
<path d="M56.303,94.657l6.645-14.546l36.384,16.62l-6.645,14.546L56.303,94.657z"/>
<path d="M92.203,49.395l11.314-11.314l28.278,28.278l-11.314,11.314L92.203,49.395z"/>
<g>
</g>
<g>
</g>
<g>
</g>
<g>
</g>
<g>
</g>
<g>
</g>
<g>
</g>
<g>
</g>
<g>
</g>
<g>
</g>
<g>
</g>
<g>
</g>
<g>
</g>
<g>
</g>
<g>
</g>
</svg>
