<?xml version="1.0" encoding="iso-8859-1"?>
<!-- Generator: Adobe Illustrator 19.0.0, SVG Export Plug-In . SVG Version: 6.00 Build 0)  -->
<svg version="1.1" id="Capa_1" xmlns="http://www.w3.org/2000/svg" xmlns:xlink="http://www.w3.org/1999/xlink" x="0px" y="0px"
	 viewBox="0 0 512 512" style="enable-background:new 0 0 512 512;" xml:space="preserve">
<polygon style="fill:#FDBD40;" points="375.467,196.267 136.533,196.267 187.733,8.533 324.267,8.533 "/>
<rect x="238.933" y="196.267" style="fill:#5A6470;" width="34.133" height="307.2"/>
<rect x="136.533" y="494.933" style="fill:#B5554E;" width="238.933" height="17.067"/>
<rect x="332.8" y="196.267" style="fill:#5A6470;" width="17.067" height="68.267"/>
<circle style="fill:#FFF69A;" cx="341.333" cy="281.6" r="17.067"/>
<path style="fill:#B5554E;" d="M341.333,307.2c-14.14,0-25.6-11.46-25.6-25.6c0-14.14,11.46-25.6,25.6-25.6
	c14.14,0,25.6,11.46,25.6,25.6S355.473,307.2,341.333,307.2z M341.333,273.067c-4.71,0-8.533,3.823-8.533,8.533
	s3.823,8.533,8.533,8.533c4.71,0,8.533-3.823,8.533-8.533S346.044,273.067,341.333,273.067z"/>
<g>
	<rect x="170.667" y="136.533" style="fill:#FFF69A;" width="136.533" height="17.067"/>
	<rect x="324.267" y="136.533" style="fill:#FFF69A;" width="17.067" height="17.067"/>
</g>
<path d="M230.4,204.8v290.133h-93.867V512h238.933v-17.067H281.6V204.8h51.2v52.77c-13.329,4.71-20.318,19.337-15.599,32.666
	c4.71,13.329,19.337,20.318,32.666,15.599c13.329-4.71,20.318-19.337,15.599-32.666c-2.577-7.287-8.311-13.022-15.599-15.599V204.8
	h36.77L330.786,0H181.214l-55.851,204.8H230.4z M264.533,494.933h-17.067V204.8h17.067V494.933z M341.333,290.133
	c-4.71,0-8.533-3.823-8.533-8.533s3.823-8.533,8.533-8.533c4.71,0,8.533,3.823,8.533,8.533S346.044,290.133,341.333,290.133z
	 M161.664,136.533l32.589-119.467h123.494l32.589,119.467h-26.069V153.6h30.72l9.31,34.133H147.703l9.31-34.133H307.2v-17.067
	H161.664z"/>
<g>
</g>
<g>
</g>
<g>
</g>
<g>
</g>
<g>
</g>
<g>
</g>
<g>
</g>
<g>
</g>
<g>
</g>
<g>
</g>
<g>
</g>
<g>
</g>
<g>
</g>
<g>
</g>
<g>
</g>
</svg>
