<?xml version="1.0" encoding="UTF-8" standalone="no"?>
<svg
   xmlns:dc="http://purl.org/dc/elements/1.1/"
   xmlns:cc="http://creativecommons.org/ns#"
   xmlns:rdf="http://www.w3.org/1999/02/22-rdf-syntax-ns#"
   xmlns:svg="http://www.w3.org/2000/svg"
   xmlns="http://www.w3.org/2000/svg"
   xmlns:sodipodi="http://sodipodi.sourceforge.net/DTD/sodipodi-0.dtd"
   xmlns:inkscape="http://www.inkscape.org/namespaces/inkscape"
   inkscape:version="1.0beta2 (2b71d25, 2019-12-03)"
   sodipodi:docname="lung.svg"
   id="svg4999"
   version="1.1"
   width="512pt"
   viewBox="0 -5 512.00125 512"
   height="512pt">
  <metadata
     id="metadata5005">
    <rdf:RDF>
      <cc:Work
         rdf:about="">
        <dc:format>image/svg+xml</dc:format>
        <dc:type
           rdf:resource="http://purl.org/dc/dcmitype/StillImage" />
      </cc:Work>
    </rdf:RDF>
  </metadata>
  <defs
     id="defs5003" />
  <sodipodi:namedview
     inkscape:current-layer="svg4999"
     inkscape:window-maximized="0"
     inkscape:window-y="23"
     inkscape:window-x="0"
     inkscape:cy="341.33333"
     inkscape:cx="341.33333"
     inkscape:zoom="0.85795109"
     showgrid="false"
     id="namedview5001"
     inkscape:window-height="769"
     inkscape:window-width="1104"
     inkscape:pageshadow="2"
     inkscape:pageopacity="0"
     guidetolerance="10"
     gridtolerance="10"
     objecttolerance="10"
     borderopacity="1"
     inkscape:document-rotation="0"
     bordercolor="#666666"
     pagecolor="#ffffff" />
  <g
     transform="matrix(0.82049296,0,0,0.82049296,47.205642,35.84129)"
     id="g5013">
    <path
       inkscape:connector-curvature="0"
       d="M 219.69531,208.38281 C 187.11328,170.83984 185.82422,125.82813 188.72656,99.523438 190.32422,85.039062 184.34766,70.761719 172.82812,61.835938 157.53906,49.988281 136.05469,50.125 121.0625,62.34375 90.167969,87.53125 42.609375,143.66016 20.628906,259.72266 c -34.007812,179.58203 -0.710937,234.35937 84.140624,234.35937 84.85156,0 126.73828,4.09766 126.73828,-124.59375 0,-128.6875 -24.70312,-128.88281 -11.8125,-161.10547 z m 0,0"
       fill="#ffdde3"
       id="path4987" />
    <path
       inkscape:connector-curvature="0"
       d="M 50.632812,259.72266 C 72.613281,143.66016 120.17188,87.53125 151.0625,62.34375 c 3.43359,-2.796875 7.20703,-4.953125 11.16797,-6.484375 -13.63281,-5.25 -29.40235,-3.105469 -41.16797,6.484375 -30.894531,25.1875 -78.453125,81.31641 -100.433594,197.37891 -34.007812,179.58203 -0.710937,234.35937 84.140624,234.35937 9.37891,0 18.23047,0.0508 26.5625,-0.0352 C 49.027344,492.55859 17.089844,436.85547 50.632812,259.72266 Z m 0,0"
       fill="#ff9db0"
       id="path4989" />
    <path
       inkscape:connector-curvature="0"
       d="m 292.30859,208.38281 c 32.58203,-37.54297 33.86719,-82.55468 30.96485,-108.859372 -1.59766,-14.484376 4.3789,-28.761719 15.89844,-37.6875 15.28906,-11.847657 36.77343,-11.710938 51.76562,0.507812 30.89063,25.1875 78.44922,81.31641 100.43359,197.37891 34.00782,179.58203 0.71094,234.35937 -84.14062,234.35937 -84.85156,0 -126.73828,4.09766 -126.73828,-124.59375 0,-128.6875 24.70312,-128.88281 11.8164,-161.10547 z m 0,0"
       fill="#ffdde3"
       id="path4991" />
    <path
       inkscape:connector-curvature="0"
       d="m 310.49609,369.49219 c 0,-128.69141 24.70313,-108.88672 11.8125,-141.10938 32.58203,-37.53906 33.86719,-102.55468 30.96485,-128.859372 -1.59766,-14.484376 4.38281,-28.761719 15.89844,-37.6875 3.28906,-2.546876 6.86328,-4.539063 10.59765,-5.976563 -13.33984,-5.164063 -28.80859,-3.160156 -40.59766,5.976563 -11.51953,8.925781 -17.5,23.203124 -15.89843,37.6875 2.90234,26.304692 1.61328,71.316402 -30.96875,108.859372 12.89062,32.22266 -11.8125,32.41797 -11.8125,161.10938 0,128.6875 41.88672,124.58984 126.73828,124.58984 1.16015,0 2.30078,-0.0156 3.4414,-0.0351 -67.03515,-0.67969 -100.17578,-10.09375 -100.17578,-124.55469 z m 0,0"
       fill="#ff9db0"
       id="path4993" />
    <path
       inkscape:connector-curvature="0"
       d="m 442.21875,411.34375 c -2.84766,-30.22656 -14.89844,-102.23828 -65.71094,-143.89063 -44.8164,-36.73437 -70.32812,-68.44531 -81.97656,-84.8125 -5.06641,-7.12109 -7.80078,-15.6289 -7.80078,-24.36718 V 20.625 c 0,-7.246094 -5.875,-13.125 -13.125,-13.125 h -35.21094 c -7.25,0 -13.125,5.878906 -13.125,13.125 v 137.64844 c 0,8.73828 -2.73828,17.24609 -7.80078,24.36718 -11.64844,16.3711 -37.16016,48.07813 -81.97656,84.81641 -50.812502,41.64844 -62.863284,113.66016 -65.71094,143.89063 -0.660156,6.97656 4.378906,13.39843 11.363281,13.95312 6.304688,0.50391 11.90625,-3.73437 13.199219,-9.8125 4.855469,-22.80469 20.88672,-80.20703 64.77734,-119.03516 43.76172,-38.71093 70.4961,-48.28125 81.54297,-68.08593 3.01172,-5.39453 8.62891,-8.8125 14.8086,-8.8125 h 1.05468 c 6.17969,0 11.79688,3.41797 14.8086,8.8125 11.04687,19.80468 37.78125,29.375 81.54297,68.08593 43.89062,38.82813 59.92578,96.23047 64.77734,119.03516 1.29297,6.07813 6.89453,10.31641 13.19922,9.8125 6.98437,-0.55469 12.02344,-6.98047 11.36328,-13.95703 z m 0,0"
       fill="#64d1e1"
       id="path4995" />
    <path
       inkscape:connector-curvature="0"
       d="m 15.761719,438.57031 c 3.992187,-1.09765 6.339843,-5.22656 5.238281,-9.22265 -9.921875,-36.03907 -7.640625,-91.06641 6.972656,-168.22657 9.601563,-50.69921 25.070313,-94.5664 45.980469,-130.38671 15.027344,-25.74219 32.460935,-46.792974 51.820315,-62.574224 12.32031,-10.046875 29.76953,-10.210937 42.43359,-0.394531 9.48828,7.351563 14.36328,18.917969 13.03516,30.933594 -2.72657,24.738281 -1.58203,60.800781 18.48047,94.777341 -2.71875,3.35157 -5.75782,6.96485 -9.14844,10.83594 -0.008,0.008 -0.0156,0.0195 -0.0234,0.0273 -7.33203,8.42969 -15.11719,16.41407 -23.01562,24.3125 -1.9336,1.9336 -24.84766,23.96094 -25.41407,23.39454 -5.46484,-5.53125 -11.84765,-12.57032 -18.14453,-20.83594 0.0898,-7.125 0.78516,-28.41016 5.6875,-42.57422 1.35547,-3.91406 -0.72265,-8.1875 -4.63672,-9.53906 -3.91406,-1.35547 -8.18359,0.71875 -9.53906,4.63281 -2.80469,8.09766 -4.40625,17.83203 -5.32031,26.55469 -5.21484,-9.31641 -9.67969,-19.50391 -12.566408,-30.33203 -1.070312,-4 -5.179687,-6.38282 -9.179687,-5.3125 -4.003906,1.0664 -6.382813,5.17578 -5.316406,9.17968 3.804687,14.27344 10.023437,27.46485 17.132811,39.17578 -9.796874,-0.96093 -22.085936,-0.71093 -33.320311,3.76172 -3.847657,1.53125 -5.726563,5.89453 -4.191407,9.74219 1.5,3.77734 5.96875,5.69922 9.742188,4.19531 14.871094,-5.92187 33.39844,-2.01172 39.57813,-0.41797 6.42968,8.44532 12.91796,15.67969 18.56249,21.46094 -2.84765,2.33985 -5.62109,4.79688 -8.31249,7.375 -10.88282,10.42969 -20.45313,22.79297 -28.644536,36.99219 -10.5,-8.78516 -23.765625,-22.32031 -28.871094,-37.87891 -1.292969,-3.93359 -5.53125,-6.07812 -9.46875,-4.78515 -3.933594,1.29297 -6.078125,5.53125 -4.785156,9.46484 2.148437,6.54297 5.351562,12.69922 9.167968,18.41406 -6.476562,0.91797 -14.285156,2.75 -21.941406,6.35547 -3.75,1.76172 -5.359375,6.23047 -3.59375,9.97656 1.734375,3.69141 6.289063,5.33204 9.980469,3.59375 10.515625,-4.94531 21.742187,-5.71875 26.894531,-5.78906 5.0625,5.38281 10.421875,10.14844 15.503906,14.22266 -3.265624,6.80469 -6.269531,13.94922 -8.972656,21.46094 -3.660156,10.16406 -6.5,20.11328 -8.707031,29.46875 -2.472656,-0.74219 -5.070313,-1.4375 -7.761719,-2.05079 -2.132812,-3.80078 -5.984375,-11.72265 -6.847656,-20.71875 -0.394531,-4.12109 -4.054688,-7.14843 -8.179688,-6.75 -4.125,0.39454 -7.148437,4.0586 -6.753906,8.17969 0.605469,6.32422 2.277344,12.13281 4.132813,16.9375 -5.152344,-0.15234 -10.359375,0.20703 -15.425781,1.32813 -4.046876,0.89843 -6.597657,4.90234 -5.703126,8.94531 0.898438,4.04687 4.902344,6.59766 8.945313,5.70312 11.371094,-2.51953 24.230469,-0.0586 34.523437,3.17188 -1.753906,9.63281 -2.84375,18.25391 -3.503906,25.28516 -1.035156,10.95312 7.1875,21.26562 18.238282,22.14062 9.714843,0.76953 19.097656,-6.1875 21.128902,-15.73437 0.60157,-2.82422 1.38282,-6.19532 2.36719,-10 7.97656,7.1289 16.92969,17.09765 20.61328,28.3125 1.26953,3.875 5.59766,6.05859 9.46485,4.78906 3.9375,-1.29297 6.07812,-5.53125 4.78515,-9.46875 -1.61719,-4.92188 -3.93359,-9.58203 -6.6914,-13.95313 5.07031,-0.85156 10.90625,-2.3789 16.64062,-5.07812 3.75,-1.76172 5.35547,-6.23047 3.59375,-9.98047 -1.76562,-3.75 -6.23437,-5.35547 -9.98047,-3.59375 -8.16797,3.84766 -16.89843,4.57812 -21.27343,4.67969 -4.10547,-4.32032 -8.42188,-8.15625 -12.52735,-11.45313 6.49219,-19.78515 17.38672,-44.93359 35.10156,-67.54297 2.34766,3.58203 5.03125,7.32422 8.0625,11.11328 -1.03906,8.48047 -2.89843,30.91797 3.57032,48.85938 1.38281,3.83594 5.77343,5.89062 9.60156,4.51172 3.89453,-1.40625 5.91797,-5.70313 4.51172,-9.59766 -3.26172,-9.05078 -3.90625,-19.95703 -3.71485,-28.74219 5.5,5.07813 11.71485,9.94141 18.73438,14.27735 3.41797,2.10937 8.15234,1.07422 10.32422,-2.44531 2.17578,-3.52344 1.08203,-8.14454 -2.44532,-10.32032 -18.44921,-11.39062 -30.78125,-27.03125 -38.41796,-39.54297 3.1875,-3.37109 6.53515,-6.65234 10.08984,-9.79687 19.07812,-16.87891 34.89844,-28.14844 47.60937,-37.20703 1.19141,-0.84766 2.35157,-1.67578 3.4961,-2.4961 3.9375,18.99219 8.8125,50.56641 8.8125,107.11719 0,53.20313 -7.05469,83.96875 -22.86719,99.75781 -17.47266,17.44922 -47.36719,17.40235 -88.73828,17.34375 -30.5,0 -62.738281,-4.00781 -80.558594,-31.95312 -2.226562,-3.49219 -6.863281,-4.51953 -10.355468,-2.29297 -3.492188,2.22656 -4.519532,6.86719 -2.292969,10.35938 16.683593,26.16015 44.675781,38.8789 85.574221,38.8789 4.95312,0 9.90625,0.0156 14.85937,0.0156 41.2461,0 71.42969,-1.08594 92.11328,-21.73438 18.85547,-18.83203 27.26953,-52.87109 27.26953,-110.375 0,-65.25 -6.39062,-98.28906 -10.59765,-116.93359 8.14844,-6.46875 14.44531,-12.72656 18.80078,-20.53516 1.71094,-3.0625 4.875,-4.96484 8.25781,-4.96484 H 256.5 c 3.38672,0 6.55078,1.90234 8.25781,4.96484 4.35547,7.8086 10.65235,14.06641 18.80078,20.53516 -4.20312,18.64453 -10.59375,51.68359 -10.59375,116.93359 0,57.50391 8.41016,91.54297 27.26953,110.375 20.67969,20.65235 50.85938,21.73438 92.10938,21.73438 4.95312,0 9.90625,-0.0156 14.85937,-0.0156 36.48438,0 62.51954,-10.01562 79.58594,-30.62109 14.72656,-17.77344 22.82422,-43.30469 24.75391,-78.05469 1.9375,-34.75 -2.26172,-78.77344 -12.83203,-134.57812 -10.10938,-53.38672 -26.60156,-99.57032 -49.01172,-137.26954 -2.11719,-3.5625 -6.72266,-4.73046 -10.28125,-2.61328 -3.5625,2.11719 -4.73047,6.71875 -2.61719,10.28125 21.51953,36.19141 37.38672,80.73438 47.17188,132.39063 19.95312,105.35547 17.17578,168.99609 -8.73438,200.27734 -18.60937,22.46094 -48.49609,25.15235 -75.66406,25.19531 -41.37109,0.0586 -71.26953,0.10547 -88.74219,-17.34375 -15.8125,-15.78906 -22.86328,-46.55468 -22.86328,-99.75781 0,-56.55078 4.875,-88.125 8.8125,-107.11719 1.14453,0.82032 2.30469,1.64844 3.49609,2.4961 16.40625,11.6914 32.50782,23.84765 47.60547,37.20703 3.55469,3.14453 6.90625,6.42578 10.08985,9.79687 -7.63282,12.50782 -19.96485,28.15235 -38.41797,39.54297 -3.52344,2.17578 -4.61719,6.79688 -2.44141,10.32032 2.14453,3.47656 6.84766,4.58984 10.32031,2.44531 7.02735,-4.33594 13.24219,-9.20703 18.75,-14.28906 0.19141,8.76953 -0.45312,19.66796 -3.72656,28.75 -1.72656,4.78906 1.97266,10.04687 7.05469,10.04687 3.07422,0 5.95312,-1.90234 7.05859,-4.95703 6.46485,-17.94141 4.60938,-40.37891 3.57032,-48.85938 3.03125,-3.79296 5.71484,-7.53515 8.05859,-11.11328 17.71875,22.60938 28.61328,47.75782 35.10547,67.54297 -4.10547,3.29688 -8.42188,7.13281 -12.52735,11.45313 -4.375,-0.10157 -13.10156,-0.83203 -21.27343,-4.67969 -3.75,-1.76172 -8.21485,-0.15234 -9.98047,3.59375 -1.76172,3.75 -0.15625,8.21875 3.59375,9.98047 5.73437,2.69922 11.57422,4.22656 16.64062,5.07812 -2.75781,4.3711 -5.07422,9.03125 -6.6914,13.95313 -1.29297,3.9375 0.84765,8.17578 4.78515,9.46875 3.8086,1.25 8.17578,-0.85938 9.46485,-4.78906 3.68359,-11.21485 12.63672,-21.1836 20.61328,-28.3125 0.98437,3.80468 1.76562,7.17578 2.36719,10 0,0.0117 0.004,0.0195 0.008,0.0312 2.03125,9.48828 11.44531,16.46484 21.12109,15.70312 11.57813,-0.91406 19.24219,-11.90234 18.15235,-22.99219 -0.66797,-6.875 -1.73438,-15.17968 -3.41797,-24.43359 10.28906,-3.23047 23.15234,-5.69141 34.52343,-3.17188 4.04297,0.89454 8.04688,-1.66015 8.94141,-5.70312 0.89844,-4.04297 -1.65625,-8.04688 -5.69922,-8.94531 -5.0664,-1.1211 -10.27344,-1.48047 -15.42578,-1.32813 1.85547,-4.80469 3.52734,-10.61328 4.13281,-16.9375 0.39453,-4.12109 -2.6289,-7.78515 -6.7539,-8.17969 -4.12891,-0.39843 -7.78516,2.62891 -8.17969,6.75 -0.86328,9.01563 -4.70703,16.91407 -6.84766,20.71875 -2.6914,0.61329 -5.28906,1.3086 -7.76172,2.04688 -2.20703,-9.35156 -5.04687,-19.30469 -8.70703,-29.46484 -0.68359,-1.89844 -9.23437,-21.25391 -8.97265,-21.46094 5.08593,-4.07813 10.44531,-8.84766 15.51172,-14.23047 5.12109,0.0508 16.27734,0.80859 26.88671,5.79687 3.625,1.70704 8.21875,0.15235 9.98047,-3.59375 1.76172,-3.74609 0.15625,-8.21484 -3.59375,-9.98046 -7.65625,-3.60157 -15.46484,-5.4336 -21.9414,-6.35157 3.8164,-5.71484 7.01953,-11.87109 9.16406,-18.41406 1.29297,-3.93359 -0.84766,-8.17187 -4.78516,-9.46484 -3.93359,-1.29297 -8.17187,0.84765 -9.46484,4.78515 -5.10938,15.5586 -18.3711,29.09375 -28.875,37.88282 -10.21485,-17.71485 -22.57813,-32.5625 -36.95703,-44.3711 5.64844,-5.78125 12.14062,-13.01953 18.57031,-21.46875 6.17188,-1.60937 24.61328,-5.53125 39.57422,0.42578 3.79687,1.51172 8.23047,-0.39453 9.74219,-4.19531 1.53125,-3.84766 -0.34375,-8.21094 -4.19532,-9.74219 -11.23437,-4.47265 -23.51953,-4.72265 -33.3164,-3.76172 7.10937,-11.70703 13.32422,-24.90234 17.13281,-39.17578 1.06641,-4 -1.3125,-8.11328 -5.31641,-9.17968 -4,-1.06641 -8.11328,1.3125 -9.17968,5.3164 -2.88672,10.82422 -7.35157,21.01563 -12.56641,30.32813 -0.91406,-8.72266 -2.51562,-18.45703 -5.32031,-26.55469 -1.35547,-3.91406 -5.625,-5.98828 -9.54297,-4.63281 -3.91406,1.35547 -5.98828,5.625 -4.63281,9.54297 4.90234,14.16406 5.59375,35.44531 5.6875,42.57031 -6.29688,8.26562 -12.67969,15.30469 -18.14844,20.83984 -0.16797,-0.14844 -0.34375,-0.29687 -0.51172,-0.4414 -14.49609,-12.53125 -27.60156,-26.1875 -41.12109,-39.71094 -6.23828,-6.77735 -11.53125,-12.96094 -15.96485,-18.41797 20.0625,-33.98438 21.20703,-70.04297 18.47657,-94.781251 -1.32422,-12.015625 3.55078,-23.582031 13.03906,-30.933594 12.66406,-9.816406 30.10937,-9.652344 42.43359,0.394531 12.44922,10.148438 24.27734,22.699219 35.16016,37.304684 2.47265,3.32032 7.17187,4.00782 10.49219,1.53125 3.32421,-2.47265 4.01171,-7.171871 1.53515,-10.49609 -11.61719,-15.589844 -24.30469,-29.039062 -37.70703,-39.96875 -17.76563,-14.480469 -42.89063,-14.738281 -61.10547,-0.625 -13.64844,10.578125 -20.66016,27.191406 -18.75781,44.4375 2.33203,21.13672 1.58203,51.32031 -13.54297,80.20703 -0.57031,-0.78125 -1.12109,-1.54297 -1.62891,-2.25781 -4.19531,-5.89844 -6.41406,-12.82031 -6.41406,-20.01953 V 20.625 C 294.20703,9.253906 284.95312,0 273.58203,0 H 238.37109 C 227,0 217.74609,9.253906 217.74609,20.625 v 137.64844 c 0,7.19922 -2.21875,14.12109 -6.41406,20.01953 -0.50781,0.71484 -1.05859,1.47656 -1.6289,2.25781 -15.1211,-28.88672 -15.875,-59.07031 -13.54297,-80.20703 C 198.0625,83.097656 191.05078,66.484375 177.40234,55.90625 159.1875,41.792969 134.0625,42.050781 116.30078,56.53125 95.542969,73.453125 76.941406,95.871094 61.003906,123.17188 39.226562,160.47266 23.15625,205.94531 13.238281,258.32813 -1.816406,337.78906 -4.003906,395.03516 6.539062,433.33203 c 1.097657,3.99219 5.226563,6.33985 9.222657,5.23828 z M 223.55078,186.98828 c 6.01563,-8.44922 9.19141,-18.37891 9.19141,-28.71484 V 20.625 c 0,-3.101562 2.52343,-5.621094 5.625,-5.621094 h 35.21093 c 3.10157,0 5.625,2.519532 5.625,5.621094 v 137.64844 c 0,10.33593 3.17579,20.26562 9.1875,28.71484 12.6875,17.83203 27.36329,34.25 42.82422,49.70703 15.64063,15.64063 33.46094,28.89453 49.23438,44.40235 41.42578,40.73828 51.72656,104.09765 54.26172,130.80468 0.004,0.0469 0.008,0.0977 0.0117,0.14453 0.25781,2.72266 -1.66407,5.55079 -4.49219,5.77735 -0.0508,0.004 -0.10156,-0.004 -0.15235,0 -2.41796,0.11719 -4.60937,-1.52735 -5.11328,-3.89844 -1.59375,-7.49609 -3.30078,-15.22656 -5.88281,-22.45312 -10.58203,-29.21875 -22.30469,-56.77344 -42.33203,-81 -19.05078,-23.04297 -43.59766,-40.59766 -67.77344,-57.82422 -10.98047,-7.82813 -24.35937,-15.81641 -31.12109,-27.9336 -9.26563,-16.61718 -34.48828,-16.64453 -43.76953,-0.004 -6.77344,12.14453 -20.09766,20.07812 -31.1211,27.9375 -12.99609,9.25781 -29.16797,20.78515 -48.83984,38.1875 -27.57031,24.39062 -46.42969,57.3789 -58.402344,91.87109 -3.542968,10.20703 -6.492187,20.64844 -8.742187,31.21875 -0.515625,2.42188 -2.777344,4.09766 -5.269531,3.89844 -2.835938,-0.22656 -4.75,-3.0625 -4.492188,-5.77735 0.988281,-10.48437 3.183594,-26.6914 8.007812,-44.97656 5.953126,-22.55859 14.859378,-44.58984 28.011718,-63.94922 7.40625,-10.90234 16.30078,-21.10937 26.98047,-29.86718 14.01953,-11.49219 27.52734,-23.6211 40.36719,-36.41797 15.52734,-15.47266 30.24609,-31.97266 42.96484,-49.84766 z m 0,0"
       id="path4997" />
  </g>
</svg>
