<?xml version="1.0" encoding="UTF-8" standalone="no"?>
<svg
   xmlns:dc="http://purl.org/dc/elements/1.1/"
   xmlns:cc="http://creativecommons.org/ns#"
   xmlns:rdf="http://www.w3.org/1999/02/22-rdf-syntax-ns#"
   xmlns:svg="http://www.w3.org/2000/svg"
   xmlns="http://www.w3.org/2000/svg"
   xmlns:sodipodi="http://sodipodi.sourceforge.net/DTD/sodipodi-0.dtd"
   xmlns:inkscape="http://www.inkscape.org/namespaces/inkscape"
   inkscape:version="1.0beta2 (2b71d25, 2019-12-03)"
   sodipodi:docname="prescriptionMeds.svg"
   id="svg3784"
   version="1.1"
   width="512pt"
   viewBox="-14 0 511 512"
   height="512pt">
  <metadata
     id="metadata3790">
    <rdf:RDF>
      <cc:Work
         rdf:about="">
        <dc:format>image/svg+xml</dc:format>
        <dc:type
           rdf:resource="http://purl.org/dc/dcmitype/StillImage" />
      </cc:Work>
    </rdf:RDF>
  </metadata>
  <defs
     id="defs3788" />
  <sodipodi:namedview
     inkscape:current-layer="svg3784"
     inkscape:window-maximized="0"
     inkscape:window-y="23"
     inkscape:window-x="0"
     inkscape:cy="348.35766"
     inkscape:cx="341.33333"
     inkscape:zoom="0.86070535"
     showgrid="false"
     id="namedview3786"
     inkscape:window-height="771"
     inkscape:window-width="1101"
     inkscape:pageshadow="2"
     inkscape:pageopacity="0"
     guidetolerance="10"
     gridtolerance="10"
     objecttolerance="10"
     borderopacity="1"
     inkscape:document-rotation="0"
     bordercolor="#666666"
     pagecolor="#ffffff" />
  <path
     style="stroke-width:0.892174"
     id="path3746"
     fill="#e93234"
     d="M 183.78953,71.054159 H 451.74838 V 141.48013 H 183.78953 Z m 0,0"
     inkscape:connector-curvature="0" />
  <path
     style="stroke-width:0.892174"
     id="path3748"
     fill="#bf161c"
     d="M 451.74838,141.48013 H 425.0912 V 71.054159 h 26.65718 z m 0,0"
     inkscape:connector-curvature="0" />
  <path
     style="stroke-width:0.892174"
     id="path3750"
     fill="#992228"
     d="M 210.74991,39.775797 H 424.788 V 71.054159 H 210.74991 Z m 0,0"
     inkscape:connector-curvature="0" />
  <path
     style="stroke-width:0.892174"
     id="path3752"
     fill="#721c28"
     d="M 425.08771,71.054159 H 398.13082 V 39.775797 h 26.95689 z m 0,0"
     inkscape:connector-curvature="0" />
  <path
     style="stroke-width:0.892174"
     id="path3754"
     fill="#ffd039"
     d="M 420.06924,141.48013 H 215.47216 v 323.98806 c 0,9.81741 7.95638,17.77379 17.77029,17.77379 h 169.05301 c 9.8174,0 17.77378,-7.95638 17.77378,-17.77379 z m 0,0"
     inkscape:connector-curvature="0" />
  <path
     style="stroke-width:0.892174"
     id="path3756"
     fill="#ffae47"
     d="m 393.40857,141.48013 h 26.65718 v 323.98806 c 0,9.81741 -7.95638,17.77379 -17.77029,17.77379 h -8.88689 z m 0,0"
     inkscape:connector-curvature="0" />
  <path
     style="stroke-width:0.892174"
     id="path3758"
     fill="#f9f1ef"
     d="M 215.47216,226.43879 H 420.06924 V 398.27984 H 215.47216 Z m 0,0"
     inkscape:connector-curvature="0" />
  <path
     style="stroke-width:0.892174"
     id="path3760"
     fill="#ccc"
     d="m 393.40857,226.43879 h 26.65718 v 171.84105 h -26.65718 z m 0,0"
     inkscape:connector-curvature="0" />
  <path
     style="stroke-width:0.892174"
     id="path3762"
     fill="#ff9522"
     d="M 153.93655,483.23849 H 86.438026 c -13.455794,0 -24.364015,-10.90822 -24.364015,-24.36401 0,-13.45928 10.908221,-24.3675 24.364015,-24.3675 h 67.498524 c 13.4558,0 24.36402,10.90822 24.36402,24.3675 0.004,13.45579 -10.90822,24.36401 -24.36402,24.36401 z m 0,0"
     inkscape:connector-curvature="0" />
  <path
     style="stroke-width:0.892174"
     id="path3764"
     fill="#dd7917"
     d="M 153.93655,459.24738 H 86.438026 c -9.092507,0 -17.01752,-4.98363 -21.20307,-12.36846 -2.010876,3.54082 -3.160945,7.63227 -3.160945,11.99556 0,13.45579 10.908221,24.36401 24.364015,24.36401 h 67.498524 c 13.4558,0 24.3675,-10.90822 24.3675,-24.36401 0,-4.36329 -1.15354,-8.45474 -3.16094,-11.99556 -4.18904,7.38135 -12.11405,12.36846 -21.20656,12.36846 z m 0,0"
     inkscape:connector-curvature="0" />
  <path
     style="stroke-width:0.892174"
     id="path3766"
     fill="#ff9522"
     d="M 126.04218,434.50698 H 58.543652 c -13.455794,0 -24.364015,-10.90822 -24.364015,-24.36401 0,-13.45928 10.908221,-24.3675 24.364015,-24.3675 h 67.495038 c 13.45929,0 24.3675,10.90822 24.3675,24.3675 0,13.45579 -10.90821,24.36401 -24.36401,24.36401 z m 0,0"
     inkscape:connector-curvature="0" />
  <path
     style="stroke-width:0.892174"
     id="path3768"
     fill="#dd7917"
     d="M 126.04218,410.51586 H 58.543652 c -9.095991,0 -17.01752,-4.98711 -21.206555,-12.37194 -2.007391,3.5443 -3.15746,7.63575 -3.15746,11.99556 0,13.45928 10.908221,24.3675 24.364015,24.3675 h 67.495038 c 13.45929,0 24.3675,-10.90822 24.3675,-24.3675 0,-4.35981 -1.15355,-8.45126 -3.16094,-11.99556 -4.18555,7.38483 -12.11056,12.37194 -21.20307,12.37194 z m 0,0"
     inkscape:connector-curvature="0" />
  <path
     style="stroke-width:0.892174"
     id="path3770"
     fill="#ff9522"
     d="M 166.79989,385.77547 H 99.304846 c -13.45928,0 -24.367499,-10.90823 -24.367499,-24.3675 0,-13.4558 10.908219,-24.36402 24.367499,-24.36402 h 67.495044 c 13.45579,0 24.36402,10.90822 24.36402,24.36402 0.004,13.45927 -10.90823,24.3675 -24.36402,24.3675 z m 0,0"
     inkscape:connector-curvature="0" />
  <path
     style="stroke-width:0.892174"
     id="path3772"
     fill="#dd7917"
     d="M 166.79989,361.78435 H 99.304846 c -9.095991,0 -17.021005,-4.98711 -21.206555,-12.37194 -2.007391,3.5443 -3.160944,7.63227 -3.160944,11.99556 0,13.45927 10.908219,24.3675 24.367499,24.3675 h 67.495044 c 13.45579,0 24.36402,-10.90823 24.36402,-24.3675 0,-4.36329 -1.15008,-8.45475 -3.15747,-11.99556 -4.18554,7.38483 -12.11055,12.37194 -21.20655,12.37194 z m 0,0"
     inkscape:connector-curvature="0" />
  <path
     style="stroke-width:0.892174"
     id="path3774"
     fill="#ff9522"
     d="m 205.27141,475.60274 -47.72783,-47.72782 c -9.51419,-9.51768 -9.51419,-24.94254 0,-34.46021 9.51421,-9.51421 24.94602,-9.51421 34.46022,0 l 47.72782,47.72781 c 9.5142,9.5142 9.5142,24.94253 0,34.46022 -9.51768,9.51419 -24.94602,9.51419 -34.46021,0 z m 0,0"
     inkscape:connector-curvature="0" />
  <path
     style="stroke-width:0.892174"
     id="path3776"
     fill="#dd7917"
     d="m 222.23665,458.63401 -47.72782,-47.72434 c -6.42992,-6.43341 -8.5105,-15.56077 -6.2487,-23.74367 -3.92418,1.08385 -7.63227,3.16443 -10.71655,6.24871 -9.51768,9.51419 -9.51768,24.94253 0,34.46021 l 47.72783,47.72782 c 9.51419,9.51419 24.94253,9.51419 34.46021,0 3.08427,-3.08776 5.16136,-6.79586 6.24522,-10.72003 -8.17942,2.2618 -17.31027,0.18471 -23.74019,-6.2487 z m 0,0"
     inkscape:connector-curvature="0" />
  <path
     style="stroke-width:0.892174"
     id="path3778"
     d="m 261.75368,293.57487 h 112.03404 c 3.68021,0 6.66342,-2.9832 6.66342,-6.66342 0,-3.68022 -2.98321,-6.66342 -6.66342,-6.66342 H 261.75368 c -3.6837,0 -6.66691,2.9832 -6.66691,6.66342 0,3.68022 2.9832,6.66342 6.66691,6.66342 z m 0,0"
     inkscape:connector-curvature="0" />
  <path
     style="stroke-width:0.892174"
     id="path3780"
     d="m 261.75368,338.91543 h 112.03404 c 3.68021,0 6.66342,-2.98321 6.66342,-6.66343 0,-3.68021 -2.98321,-6.66342 -6.66342,-6.66342 H 261.75368 c -3.6837,0 -6.66691,2.98321 -6.66691,6.66342 0,3.68022 2.9832,6.66343 6.66691,6.66343 z m 0,0"
     inkscape:connector-curvature="0" />
  <path
     style="stroke-width:0.892174"
     id="path3782"
     d="M 451.74838,64.390735 H 431.45491 V 39.775797 c 0,-3.680218 -2.9867,-6.663424 -6.66691,-6.663424 H 210.74991 c -3.68022,0 -6.66343,2.983206 -6.66343,6.663424 v 24.614938 h -20.29695 c -3.68022,0 -6.66343,2.983206 -6.66343,6.663424 v 70.425971 c 0,3.68022 2.9867,6.66342 6.66343,6.66342 h 25.01571 v 19.49192 c 0,3.68021 2.98321,6.66342 6.66343,6.66342 3.6837,0 6.66691,-2.98321 6.66691,-6.66342 v -19.49192 h 191.26674 v 71.63182 H 222.13558 v -25.48272 c 0,-3.68022 -2.98321,-6.66342 -6.66342,-6.66342 -3.68022,0 -6.66692,2.9832 -6.66692,6.66342 v 206.49992 l -12.08965,-12.08966 c -2.32801,-2.32802 -4.93831,-4.20297 -7.72288,-5.63882 5.46457,-5.59351 8.8381,-13.23623 8.8381,-21.65612 0,-17.10814 -13.9193,-31.03092 -31.03092,-31.03092 H 99.304846 c -17.111617,0 -31.034408,13.9193 -31.034408,31.03092 0,6.57629 2.063152,12.67862 5.565632,17.70407 H 58.543652 c -17.111617,0 -31.030923,13.91931 -31.030923,31.03093 0,17.10813 13.919306,31.03092 31.030923,31.03092 h 2.429082 c -3.502479,5.02196 -5.565631,11.12429 -5.565631,17.70059 0,17.11162 13.919307,31.03092 31.030923,31.03092 h 67.498524 c 15.275,0 28.00241,-11.10338 30.55348,-25.65697 l 16.06609,16.0661 c 5.86186,5.86186 13.65445,9.08902 21.94191,9.08902 1.51251,0 3.00759,-0.11152 4.47481,-0.32063 2.0039,0.52973 4.1019,0.82248 6.26961,0.82248 h 169.05301 c 13.47322,0 24.43371,-10.96398 24.43371,-24.43721 V 448.2834 c 0,-3.68371 -2.98321,-6.66691 -6.66342,-6.66691 -3.68022,0 -6.66343,2.98669 -6.66343,6.66691 v 17.18479 c 0,6.12673 -4.98362,11.10687 -11.10686,11.10687 H 247.62875 c 8.79628,-12.1245 7.73682,-29.22217 -3.18533,-40.14433 l -22.30784,-22.30784 v -9.17614 h 37.82329 c 3.68022,0 6.66343,-2.98321 6.66343,-6.66342 0,-3.68022 -2.98321,-6.66343 -6.66343,-6.66343 H 222.13558 V 233.10221 h 191.26674 v 158.5142 H 286.61606 c -3.68022,0 -6.66343,2.98321 -6.66343,6.66343 0,3.68022 2.98321,6.66342 6.66343,6.66342 h 126.78626 v 16.67947 c 0,3.68022 2.98321,6.66342 6.66343,6.66342 3.6837,0 6.66691,-2.9832 6.66691,-6.66342 V 148.14355 h 25.01224 c 3.68369,0 6.6669,-2.9832 6.6669,-6.66342 V 71.054159 c 0,-3.680218 -2.98321,-6.663424 -6.66342,-6.663424 z M 140.04165,343.70737 h 26.75824 c 9.76164,0 17.70059,7.93896 17.70059,17.7006 0,9.76163 -7.93895,17.70407 -17.70059,17.70407 h -26.75824 z m -40.736804,0 h 27.406464 v 35.40467 H 99.304846 c -9.761637,0 -17.704076,-7.94244 -17.704076,-17.70407 0,-9.76164 7.942439,-17.7006 17.704076,-17.7006 z m -40.761194,84.13618 c -9.761637,0 -17.700591,-7.93895 -17.700591,-17.70058 0,-9.76164 7.938954,-17.70408 17.700591,-17.70408 h 27.406466 v 35.40466 z m 55.304328,48.73151 H 86.438026 c -9.758152,0 -17.700591,-7.93894 -17.700591,-17.70058 0,-9.76164 7.942439,-17.70059 17.700591,-17.70059 H 113.84798 Z M 99.28045,427.84355 v -35.40466 h 26.75824 c 9.76164,0 17.70408,7.94244 17.70408,17.70408 0,9.76163 -7.94244,17.70058 -17.70408,17.70058 z m 54.65611,48.73151 h -26.76174 v -35.40117 h 26.76174 c 9.76163,0 17.70059,7.93895 17.70059,17.70059 0,9.76164 -7.93896,17.70058 -17.70059,17.70058 z m 27.69921,-34.03503 -19.38039,-19.3769 c -6.90041,-6.9039 -6.90041,-18.13274 0,-25.03663 3.45369,-3.45021 7.98426,-5.17531 12.51831,-5.17531 4.53406,0 9.06812,1.7251 12.51832,5.17531 l 19.38039,19.38038 z m 53.38057,3.31428 c 6.90389,6.90041 6.90389,18.13274 0,25.03315 -3.34216,3.34565 -7.7891,5.18576 -12.51483,5.18576 -4.72921,0 -9.17266,-1.84011 -12.51831,-5.18576 L 191.06284,451.9671 216.09598,426.93396 Z M 217.41333,46.442705 h 200.71124 v 17.94803 H 217.41333 Z m 227.66814,88.370525 h -27.28449 v -28.56002 c 0,-3.68371 -2.98669,-6.666913 -6.66691,-6.666913 -3.68021,0 -6.66342,2.986693 -6.66342,6.666913 v 28.56002 h -24.01551 v -28.56002 c 0,-3.68371 -2.98321,-6.666913 -6.66342,-6.666913 -3.68022,0 -6.66343,2.986693 -6.66343,6.666913 v 28.56002 h -24.019 v -28.56002 c 0,-3.68371 -2.9832,-6.666913 -6.66342,-6.666913 -3.68022,0 -6.66342,2.986693 -6.66342,6.666913 v 28.56002 h -24.0155 v -28.56002 c 0,-3.68371 -2.98321,-6.666913 -6.66343,-6.666913 -3.68021,0 -6.66691,2.986693 -6.66691,6.666913 v 28.56002 H 268.4171 v -28.56002 c 0,-3.68371 -2.98321,-6.666913 -6.66342,-6.666913 -3.68022,0 -6.66343,2.986693 -6.66343,6.666913 v 28.56002 h -24.01551 v -28.56002 c 0,-3.68371 -2.98668,-6.666913 -6.6669,-6.666913 -3.68022,0 -6.66342,2.986693 -6.66342,6.666913 v 28.56002 H 190.45993 V 77.717582 h 254.62502 v 57.095648 z m 0,0"
     inkscape:connector-curvature="0" />
</svg>
